<?xml version="1.0" encoding="UTF-8" standalone="no"?>
<svg
   x="0"
   y="0"
   width="480"
   height="300"
   style="fill:none"
   version="1.1"
   id="svg75"
   sodipodi:docname="information_entropy.svg"
   inkscape:version="1.4.2 (f4327f4, 2025-05-13)"
   xmlns:inkscape="http://www.inkscape.org/namespaces/inkscape"
   xmlns:sodipodi="http://sodipodi.sourceforge.net/DTD/sodipodi-0.dtd"
   xmlns="http://www.w3.org/2000/svg"
   xmlns:svg="http://www.w3.org/2000/svg">
  <defs
     id="defs75" />
  <sodipodi:namedview
     id="namedview75"
     pagecolor="#ffffff"
     bordercolor="#000000"
     borderopacity="0.25"
     inkscape:showpageshadow="2"
     inkscape:pageopacity="0.0"
     inkscape:pagecheckerboard="0"
     inkscape:deskcolor="#d1d1d1"
     inkscape:zoom="2.1899256"
     inkscape:cx="223.06694"
     inkscape:cy="150.46173"
     inkscape:window-width="1920"
     inkscape:window-height="974"
     inkscape:window-x="-11"
     inkscape:window-y="-11"
     inkscape:window-maximized="1"
     inkscape:current-layer="svg75" />
  <svg
     class="role-diagram-draw-area"
     version="1.1"
     id="svg13"
     width="100%"
     height="100%">
    <g
       class="shapes-region"
       style="fill:none;stroke:#000000"
       id="g10">
      <g
         class="composite-shape"
         id="g1">
        <path
           class="real"
           d="m 76.71,251.4 c 103.1,-204 206.19,-204 309.29,0"
           style="fill:none;fill-opacity:1;stroke:#f5a623;stroke-width:2;stroke-opacity:1"
           id="path1" />
      </g>
      <g
         class="composite-shape axis2d"
         style="stroke:#4987ce;stroke-width:2;stroke-opacity:1"
         id="g6">
        <path
           class="real"
           d="M 45.72,251.4 H 416 M 76.71,65.48 v 211.33"
           id="path2" />
        <path
           d="m 409,246.4 7,5 -7,5"
           id="path3" />
        <path
           d="m 71.71,72.48 5,-7 5,7"
           id="path4" />
        <path
           d="m 106.71,246.4 v 10 m 30,-10 v 10 m 30,-10 v 10 m 30,-10 v 10 m 30,-10 v 10 m 30,-10 v 10 m 30,-10 v 10 m 30,-10 v 10 m 30,-10 v 10 m 30,-10 v 10 m -305,-35 h 10 m -10,-30 h 10 m -10,-30 h 10 m -10,-30 h 10 m -10,-30 h 10"
           id="path5" />
        <g
           style="font-weight:normal;font-size:11px;font-family:Times;text-anchor:end;fill:#000000;fill-opacity:1;stroke:none"
           id="g5" />
      </g>
      <g
         class="intersections-group"
         id="g9">
        <g
           style="fill:none;fill-opacity:1;stroke:#000000;stroke-width:1"
           id="g8">
          <g
             id="g7" />
        </g>
      </g>
    </g>
    <!-- react-empty: 8553 -->
    <g
       id="g11" />
    <g
       id="g12" />
    <g
       id="g13" />
  </svg>
  <svg
     width="806"
     height="300"
     style="font-family:Asana-Math, Asana"
     version="1.1"
     id="svg74">
    <g
       id="g17">
      <g
         id="g16">
        <g
           id="g15">
          <g
             transform="translate(442.66669,259.4)"
             id="g14">
            <path
               transform="scale(0.0204,-0.0204)"
               d="m 105,664 55,-2 c 24,-1 35,-9 35,-27 L 112,125 C 95,34 94,31 54,28 L 13,25 9,-3 51,-2 c 41,1 72,2 90,2 17,0 46,-1 86,-2 l 53,-1 3,28 -65,3 c -26,1 -36,9 -36,30 0,9 1,16 4,35 l 98,555 c 36,6 52,8 71,8 102,0 151,-44 151,-137 0,-108 -72,-196 -160,-196 -22,0 -42,5 -79,19 l 2,-31 c 37,-18 57,-23 86,-23 129,0 239,117 239,253 0,101 -63,154 -182,151 H 108 Z"
               stroke="#000000"
               stroke-opacity="1"
               stroke-width="8"
               fill="#000000"
               fill-opacity="1"
               id="path13" />
          </g>
        </g>
      </g>
    </g>
    <g
       id="g27">
      <g
         id="g26">
        <g
           id="g19">
          <g
             transform="translate(53.666656,49.4)"
             id="g18">
            <path
               transform="scale(0.0204,-0.0204)"
               d="m 221,385 42,228 c 7,39 14,45 51,48 l 42,3 3,28 h -24 l -90,-3 c -16,0 -34,0 -77,1 l -64,2 -3,-28 47,-2 c 24,-1 35,-9 35,-27 0,-14 -4,-45 -9,-76 L 100,125 C 83,33 82,32 42,28 L 1,25 -3,-3 39,-2 c 48,1 71,2 90,2 l 97,-3 h 26 l 3,28 -49,3 c -27,2 -36,9 -36,30 0,9 1,16 4,35 l 42,247 61,1 c 62,1 104,2 123,2 19,0 60,-1 123,-2 l 61,-1 -40,-215 C 535,76 528,48 523,42 519,34 508,30 486,28 l -50,-3 -4,-28 56,1 c 44,1 74,2 85,2 16,0 47,-1 90,-2 l 42,-1 3,28 -58,3 c -26,1 -36,9 -36,30 0,9 1,18 4,35 l 92,520 c 7,39 13,44 51,48 l 36,3 3,28 h -16 l -91,-3 c -15,0 -36,0 -80,1 l -63,2 -3,-28 48,-2 c 24,-1 35,-9 35,-27 0,-14 -4,-46 -9,-76 L 591,385 Z"
               stroke="#000000"
               stroke-opacity="1"
               stroke-width="8"
               fill="#000000"
               fill-opacity="1"
               id="path17" />
          </g>
        </g>
        <g
           id="g21">
          <g
             transform="translate(69.520813,50.066656)"
             id="g20">
            <path
               transform="scale(0.0204,-0.0204)"
               d="m 146,266 c 0,260 97,366 155,434 l -19,26 C 225,675 60,542 60,266 60,159 85,58 133,-32 c 35,-67 67,-106 149,-183 l 19,21 c -46,57 -155,179 -155,460 z"
               stroke="#000000"
               stroke-opacity="1"
               stroke-width="8"
               fill="#000000"
               fill-opacity="1"
               id="path19" />
          </g>
        </g>
        <g
           id="g23">
          <g
             transform="translate(76.291656,49.4)"
             id="g22">
            <path
               transform="scale(0.0204,-0.0204)"
               d="m 105,664 55,-2 c 24,-1 35,-9 35,-27 L 112,125 C 95,34 94,31 54,28 L 13,25 9,-3 51,-2 c 41,1 72,2 90,2 17,0 46,-1 86,-2 l 53,-1 3,28 -65,3 c -26,1 -36,9 -36,30 0,9 1,16 4,35 l 98,555 c 36,6 52,8 71,8 102,0 151,-44 151,-137 0,-108 -72,-196 -160,-196 -22,0 -42,5 -79,19 l 2,-31 c 37,-18 57,-23 86,-23 129,0 239,117 239,253 0,101 -63,154 -182,151 H 108 Z"
               stroke="#000000"
               stroke-opacity="1"
               stroke-width="8"
               fill="#000000"
               fill-opacity="1"
               id="path21" />
          </g>
        </g>
        <g
           id="g25">
          <g
             transform="translate(88.739563,50.066656)"
             id="g24">
            <path
               transform="scale(0.0204,-0.0204)"
               d="M 51,726 32,700 C 87,636 187,526 187,266 187,-10 83,-131 32,-194 l 19,-21 c 53,50 222,192 222,480 0,277 -165,410 -222,461 z"
               stroke="#000000"
               stroke-opacity="1"
               stroke-width="8"
               fill="#000000"
               fill-opacity="1"
               id="path23" />
          </g>
        </g>
      </g>
    </g>
    <g
       id="g30">
      <g
         id="g29">
        <g
           id="g28">
          <text
             x="136.66666"
             y="14.333328"
             style="font-style:normal;font-weight:700;font-size:21.6px;font-family:Arial, Helvetica, sans-serif;text-decoration:none;text-decoration-line:none;dominant-baseline:text-before-edge;white-space:pre;fill:#000000;fill-opacity:1;stroke:none"
             id="text27">information entropy</text>
        </g>
      </g>
    </g>
    <g
       id="g34">
      <g
         id="g33">
        <g
           id="g32">
          <g
             transform="translate(129.66666,279)"
             id="g31">
            <path
               transform="scale(0.017,-0.017)"
               d="M 263,689 C 108,689 29,566 29,324 29,207 50,106 85,57 c 35,-49 91,-77 153,-77 151,0 227,130 227,386 0,219 -65,323 -202,323 z M 245,654 C 342,654 381,556 381,316 381,103 343,15 251,15 154,15 113,116 113,360 c 0,211 37,294 132,294 z M 623,111 c -30,0 -57,-28 -57,-58 0,-30 27,-58 56,-58 32,0 60,27 60,58 0,30 -28,58 -59,58 z M 764,23 V -3 c 187,0 187,3 223,3 36,0 36,-3 229,-3 V 82 C 1101,77 1055,81 870,77 l 182,193 c 97,103 127,158 127,233 0,115 -78,186 -205,186 -72,0 -121,-20 -170,-70 L 787,483 h 29 l 13,46 c 16,58 52,83 119,83 86,0 141,-54 141,-139 0,-75 -42,-149 -155,-269 z"
               stroke="#000000"
               stroke-opacity="1"
               stroke-width="8"
               fill="#000000"
               fill-opacity="1"
               id="path30" />
          </g>
        </g>
      </g>
    </g>
    <g
       id="g38">
      <g
         id="g37">
        <g
           id="g36">
          <g
             transform="translate(188.66669,279)"
             id="g35">
            <path
               transform="scale(0.017,-0.017)"
               d="M 263,689 C 108,689 29,566 29,324 29,207 50,106 85,57 c 35,-49 91,-77 153,-77 151,0 227,130 227,386 0,219 -65,323 -202,323 z M 245,654 C 342,654 381,556 381,316 381,103 343,15 251,15 154,15 113,116 113,360 c 0,211 37,294 132,294 z M 623,111 c -30,0 -57,-28 -57,-58 0,-30 27,-58 56,-58 32,0 60,27 60,58 0,30 -28,58 -59,58 z m 405,70 v -75 c 0,-60 -11,-74 -60,-76 L 906,27 V -3 c 133,3 133,3 157,3 24,0 24,0 157,-3 v 30 l -48,3 c -49,3 -60,16 -60,76 v 75 c 59,0 80,-1 108,-4 v 71 l -108,-3 1,452 -80,-30 -283,-463 v -23 z m 0,64 H 813 l 215,352 z"
               stroke="#000000"
               stroke-opacity="1"
               stroke-width="8"
               fill="#000000"
               fill-opacity="1"
               id="path34" />
          </g>
        </g>
      </g>
    </g>
    <g
       id="g42">
      <g
         id="g41">
        <g
           id="g40">
          <g
             transform="translate(250.66669,279)"
             id="g39">
            <path
               transform="scale(0.017,-0.017)"
               d="M 263,689 C 108,689 29,566 29,324 29,207 50,106 85,57 c 35,-49 91,-77 153,-77 151,0 227,130 227,386 0,219 -65,323 -202,323 z M 245,654 C 342,654 381,556 381,316 381,103 343,15 251,15 154,15 113,116 113,360 c 0,211 37,294 132,294 z M 623,111 c -30,0 -57,-28 -57,-58 0,-30 27,-58 56,-58 32,0 60,27 60,58 0,30 -28,58 -59,58 z m 256,220 c 21,181 110,280 290,334 l -42,24 C 1031,657 990,637 939,593 836,506 780,384 780,247 780,82 860,-20 989,-20 c 130,0 227,103 227,239 0,115 -69,190 -175,190 -77,0 -109,-39 -162,-78 z m 124,18 c 76,0 127,-66 127,-165 0,-104 -51,-171 -128,-171 -85,0 -131,73 -131,207 0,35 4,54 15,71 22,34 69,58 117,58 z"
               stroke="#000000"
               stroke-opacity="1"
               stroke-width="8"
               fill="#000000"
               fill-opacity="1"
               id="path38" />
          </g>
        </g>
      </g>
    </g>
    <g
       id="g46">
      <g
         id="g45">
        <g
           id="g44">
          <g
             transform="translate(313.66669,279)"
             id="g43">
            <path
               transform="scale(0.017,-0.017)"
               d="M 263,689 C 108,689 29,566 29,324 29,207 50,106 85,57 c 35,-49 91,-77 153,-77 151,0 227,130 227,386 0,219 -65,323 -202,323 z M 245,654 C 342,654 381,556 381,316 381,103 343,15 251,15 154,15 113,116 113,360 c 0,211 37,294 132,294 z M 623,111 c -30,0 -57,-28 -57,-58 0,-30 27,-58 56,-58 32,0 60,27 60,58 0,30 -28,58 -59,58 z m 293,234 c -41,-19 -58,-30 -80,-51 -38,-38 -58,-83 -58,-135 0,-103 83,-179 196,-179 130,0 238,102 238,226 0,80 -37,123 -151,175 91,62 123,104 123,164 0,86 -71,144 -177,144 -119,0 -206,-76 -206,-181 0,-68 27,-106 115,-163 z m 116,-50 c 63,-28 101,-77 101,-131 0,-84 -63,-150 -144,-150 -85,0 -140,60 -140,153 0,73 29,119 103,164 z m -61,128 c -63,31 -95,71 -95,121 0,66 48,111 119,111 73,0 121,-48 121,-121 0,-57 -25,-96 -90,-138 z"
               stroke="#000000"
               stroke-opacity="1"
               stroke-width="8"
               fill="#000000"
               fill-opacity="1"
               id="path42" />
          </g>
        </g>
      </g>
    </g>
    <g
       id="g50">
      <g
         id="g49">
        <g
           id="g48">
          <g
             transform="translate(373.66669,277)"
             id="g47">
            <path
               transform="scale(0.017,-0.017)"
               d="m 418,-3 v 30 l -52,3 c -55,3 -65,14 -65,66 V 700 L 60,598 67,548 217,614 V 96 C 217,44 206,33 152,30 L 96,27 V -3 c 154,3 154,3 165,3 31,0 141,-3 157,-3 z m 205,114 c -30,0 -57,-28 -57,-58 0,-30 27,-58 56,-58 32,0 60,27 60,58 0,30 -28,58 -59,58 z m 388,578 C 856,689 777,566 777,324 c 0,-117 21,-218 56,-267 35,-49 91,-77 153,-77 151,0 227,130 227,386 0,219 -65,323 -202,323 z m -18,-35 c 97,0 136,-98 136,-338 0,-213 -38,-301 -130,-301 -97,0 -138,101 -138,345 0,211 37,294 132,294 z"
               stroke="#000000"
               stroke-opacity="1"
               stroke-width="8"
               fill="#000000"
               fill-opacity="1"
               id="path46" />
          </g>
        </g>
      </g>
    </g>
    <g
       id="g54">
      <g
         id="g53">
        <g
           id="g52">
          <g
             transform="translate(42.666656,278)"
             id="g51">
            <path
               transform="scale(0.017,-0.017)"
               d="M 263,689 C 108,689 29,566 29,324 29,207 50,106 85,57 c 35,-49 91,-77 153,-77 151,0 227,130 227,386 0,219 -65,323 -202,323 z M 245,654 C 342,654 381,556 381,316 381,103 343,15 251,15 154,15 113,116 113,360 c 0,211 37,294 132,294 z M 623,111 c -30,0 -57,-28 -57,-58 0,-30 27,-58 56,-58 32,0 60,27 60,58 0,30 -28,58 -59,58 z m 388,578 C 856,689 777,566 777,324 c 0,-117 21,-218 56,-267 35,-49 91,-77 153,-77 151,0 227,130 227,386 0,219 -65,323 -202,323 z m -18,-35 c 97,0 136,-98 136,-338 0,-213 -38,-301 -130,-301 -97,0 -138,101 -138,345 0,211 37,294 132,294 z"
               stroke="#000000"
               stroke-opacity="1"
               stroke-width="8"
               fill="#000000"
               fill-opacity="1"
               id="path50" />
          </g>
        </g>
      </g>
    </g>
    <g
       id="g58">
      <g
         id="g57">
        <g
           id="g56">
          <g
             transform="translate(39.666656,226)"
             id="g55">
            <path
               transform="scale(0.017,-0.017)"
               d="M 263,689 C 108,689 29,566 29,324 29,207 50,106 85,57 c 35,-49 91,-77 153,-77 151,0 227,130 227,386 0,219 -65,323 -202,323 z M 245,654 C 342,654 381,556 381,316 381,103 343,15 251,15 154,15 113,116 113,360 c 0,211 37,294 132,294 z M 623,111 c -30,0 -57,-28 -57,-58 0,-30 27,-58 56,-58 32,0 60,27 60,58 0,30 -28,58 -59,58 z M 764,23 V -3 c 187,0 187,3 223,3 36,0 36,-3 229,-3 V 82 C 1101,77 1055,81 870,77 l 182,193 c 97,103 127,158 127,233 0,115 -78,186 -205,186 -72,0 -121,-20 -170,-70 L 787,483 h 29 l 13,46 c 16,58 52,83 119,83 86,0 141,-54 141,-139 0,-75 -42,-149 -155,-269 z"
               stroke="#000000"
               stroke-opacity="1"
               stroke-width="8"
               fill="#000000"
               fill-opacity="1"
               id="path54" />
          </g>
        </g>
      </g>
    </g>
    <g
       id="g62">
      <g
         id="g61">
        <g
           id="g60">
          <g
             transform="translate(39.666656,195)"
             id="g59">
            <path
               transform="scale(0.017,-0.017)"
               d="M 263,689 C 108,689 29,566 29,324 29,207 50,106 85,57 c 35,-49 91,-77 153,-77 151,0 227,130 227,386 0,219 -65,323 -202,323 z M 245,654 C 342,654 381,556 381,316 381,103 343,15 251,15 154,15 113,116 113,360 c 0,211 37,294 132,294 z M 623,111 c -30,0 -57,-28 -57,-58 0,-30 27,-58 56,-58 32,0 60,27 60,58 0,30 -28,58 -59,58 z m 405,70 v -75 c 0,-60 -11,-74 -60,-76 L 906,27 V -3 c 133,3 133,3 157,3 24,0 24,0 157,-3 v 30 l -48,3 c -49,3 -60,16 -60,76 v 75 c 59,0 80,-1 108,-4 v 71 l -108,-3 1,452 -80,-30 -283,-463 v -23 z m 0,64 H 813 l 215,352 z"
               stroke="#000000"
               stroke-opacity="1"
               stroke-width="8"
               fill="#000000"
               fill-opacity="1"
               id="path58" />
          </g>
        </g>
      </g>
    </g>
    <g
       id="g66">
      <g
         id="g65">
        <g
           id="g64">
          <g
             transform="translate(39.666656,165)"
             id="g63">
            <path
               transform="scale(0.017,-0.017)"
               d="M 263,689 C 108,689 29,566 29,324 29,207 50,106 85,57 c 35,-49 91,-77 153,-77 151,0 227,130 227,386 0,219 -65,323 -202,323 z M 245,654 C 342,654 381,556 381,316 381,103 343,15 251,15 154,15 113,116 113,360 c 0,211 37,294 132,294 z M 623,111 c -30,0 -57,-28 -57,-58 0,-30 27,-58 56,-58 32,0 60,27 60,58 0,30 -28,58 -59,58 z m 256,220 c 21,181 110,280 290,334 l -42,24 C 1031,657 990,637 939,593 836,506 780,384 780,247 780,82 860,-20 989,-20 c 130,0 227,103 227,239 0,115 -69,190 -175,190 -77,0 -109,-39 -162,-78 z m 124,18 c 76,0 127,-66 127,-165 0,-104 -51,-171 -128,-171 -85,0 -131,73 -131,207 0,35 4,54 15,71 22,34 69,58 117,58 z"
               stroke="#000000"
               stroke-opacity="1"
               stroke-width="8"
               fill="#000000"
               fill-opacity="1"
               id="path62" />
          </g>
        </g>
      </g>
    </g>
    <g
       id="g70">
      <g
         id="g69">
        <g
           id="g68">
          <g
             transform="translate(39.666656,134)"
             id="g67">
            <path
               transform="scale(0.017,-0.017)"
               d="M 263,689 C 108,689 29,566 29,324 29,207 50,106 85,57 c 35,-49 91,-77 153,-77 151,0 227,130 227,386 0,219 -65,323 -202,323 z M 245,654 C 342,654 381,556 381,316 381,103 343,15 251,15 154,15 113,116 113,360 c 0,211 37,294 132,294 z M 623,111 c -30,0 -57,-28 -57,-58 0,-30 27,-58 56,-58 32,0 60,27 60,58 0,30 -28,58 -59,58 z m 293,234 c -41,-19 -58,-30 -80,-51 -38,-38 -58,-83 -58,-135 0,-103 83,-179 196,-179 130,0 238,102 238,226 0,80 -37,123 -151,175 91,62 123,104 123,164 0,86 -71,144 -177,144 -119,0 -206,-76 -206,-181 0,-68 27,-106 115,-163 z m 116,-50 c 63,-28 101,-77 101,-131 0,-84 -63,-150 -144,-150 -85,0 -140,60 -140,153 0,73 29,119 103,164 z m -61,128 c -63,31 -95,71 -95,121 0,66 48,111 119,111 73,0 121,-48 121,-121 0,-57 -25,-96 -90,-138 z"
               stroke="#000000"
               stroke-opacity="1"
               stroke-width="8"
               fill="#000000"
               fill-opacity="1"
               id="path66" />
          </g>
        </g>
      </g>
    </g>
    <g
       id="g74">
      <g
         id="g73">
        <g
           id="g72">
          <g
             transform="translate(39.666656,104)"
             id="g71">
            <path
               transform="scale(0.017,-0.017)"
               d="m 418,-3 v 30 l -52,3 c -55,3 -65,14 -65,66 V 700 L 60,598 67,548 217,614 V 96 C 217,44 206,33 152,30 L 96,27 V -3 c 154,3 154,3 165,3 31,0 141,-3 157,-3 z m 205,114 c -30,0 -57,-28 -57,-58 0,-30 27,-58 56,-58 32,0 60,27 60,58 0,30 -28,58 -59,58 z m 388,578 C 856,689 777,566 777,324 c 0,-117 21,-218 56,-267 35,-49 91,-77 153,-77 151,0 227,130 227,386 0,219 -65,323 -202,323 z m -18,-35 c 97,0 136,-98 136,-338 0,-213 -38,-301 -130,-301 -97,0 -138,101 -138,345 0,211 37,294 132,294 z"
               stroke="#000000"
               stroke-opacity="1"
               stroke-width="8"
               fill="#000000"
               fill-opacity="1"
               id="path70" />
          </g>
        </g>
      </g>
    </g>
  </svg>
</svg>
