<?xml version="1.0" encoding="UTF-8" standalone="no"?>
<svg
   x="0"
   y="0"
   width="460"
   height="241"
   style="fill:none"
   version="1.1"
   id="svg388"
   sodipodi:docname="Cayley_diagram_for_C2xC3.svg"
   inkscape:version="1.2.2 (b0a8486, 2022-12-01)"
   xmlns:inkscape="http://www.inkscape.org/namespaces/inkscape"
   xmlns:sodipodi="http://sodipodi.sourceforge.net/DTD/sodipodi-0.dtd"
   xmlns="http://www.w3.org/2000/svg"
   xmlns:svg="http://www.w3.org/2000/svg">
  <defs
     id="defs392" />
  <sodipodi:namedview
     id="namedview390"
     pagecolor="#ffffff"
     bordercolor="#000000"
     borderopacity="0.25"
     inkscape:showpageshadow="2"
     inkscape:pageopacity="0.0"
     inkscape:pagecheckerboard="0"
     inkscape:deskcolor="#d1d1d1"
     showgrid="false"
     inkscape:zoom="1.6057402"
     inkscape:cx="482.95484"
     inkscape:cy="172.50611"
     inkscape:window-width="1207"
     inkscape:window-height="742"
     inkscape:window-x="73"
     inkscape:window-y="30"
     inkscape:window-maximized="0"
     inkscape:current-layer="svg388" />
  <svg
     class="role-diagram-draw-area"
     version="1.1"
     id="svg188"
     width="100%"
     height="100%">
    <g
       class="shapes-region"
       style="fill:none;stroke:#000000"
       id="g180">
      <g
         class="arrow-line"
         id="g4">
        <path
           class="connection real"
           stroke-dasharray="none"
           d="m 47,28.58 h 90.5"
           style="fill:none;fill-opacity:1;stroke:#d0021b;stroke-width:2;stroke-opacity:1"
           id="path2" />
      </g>
      <g
         class="arrow-line"
         id="g8">
        <path
           class="connection real"
           stroke-dasharray="none"
           d="m 47,93.7 h 90.5"
           style="fill:none;fill-opacity:1;stroke:#d0021b;stroke-width:2;stroke-opacity:1"
           id="path6" />
      </g>
      <g
         class="arrow-line"
         id="g12">
        <path
           class="connection real"
           stroke-dasharray="none"
           d="m 47,158.82 h 90.5"
           style="fill:none;fill-opacity:1;stroke:#d0021b;stroke-width:2;stroke-opacity:1"
           id="path10" />
      </g>
      <g
         class="composite-shape"
         id="g22">
        <path
           class="real"
           d="m 152.04,31.54 c 8.25,8.27 14.24,32.97 14.24,62.16 0,28.4 -5.67,52.55 -13.57,61.46 L 145.98,93.7 Z"
           style="fill:none;fill-opacity:1;stroke:none;stroke-width:2;stroke-opacity:1"
           id="path14" />
        <path
           class="real"
           d="m 154.56,34.67 c 6.92,10.37 11.72,32.91 11.72,59.03 0,28.4 -5.67,52.55 -13.57,61.46"
           style="fill:none;fill-opacity:1;stroke:#0067e2;stroke-width:2;stroke-opacity:1"
           id="path16" />
        <g
           stroke="none"
           fill="rgb(0,103,226)"
           fill-opacity="1"
           transform="rotate(60.3,48.87447,146.64852)"
           style="fill:#0067e2;stroke:none;stroke-width:2"
           id="g20">
          <path
             d="M 9.29,-4.46 0,0 9.29,4.46 Z"
             id="path18" />
        </g>
      </g>
      <g
         class="arrow-line"
         id="g30">
        <path
           class="connection real"
           stroke-dasharray="none"
           d="M 47,139.34 V 93.7"
           style="fill:none;fill-opacity:1;stroke:#0067e2;stroke-width:2;stroke-opacity:1"
           id="path24" />
        <g
           stroke="none"
           fill="rgb(0,103,226)"
           fill-opacity="1"
           transform="rotate(-90,95.171875,48.171875)"
           style="fill:#0067e2;stroke:none;stroke-width:2"
           id="g28">
          <path
             d="M 9.29,-4.46 0,0 9.29,4.46 Z"
             id="path26" />
        </g>
      </g>
      <g
         class="arrow-line"
         id="g38">
        <path
           class="connection real"
           stroke-dasharray="none"
           d="M 137.5,139.34 V 93.7"
           style="fill:none;fill-opacity:1;stroke:#0067e2;stroke-width:2;stroke-opacity:1"
           id="path32" />
        <g
           stroke="none"
           fill="rgb(0,103,226)"
           fill-opacity="1"
           transform="rotate(-90,140.42187,2.921875)"
           style="fill:#0067e2;stroke:none;stroke-width:2"
           id="g36">
          <path
             d="M 9.29,-4.46 0,0 9.29,4.46 Z"
             id="path34" />
        </g>
      </g>
      <g
         class="arrow-line"
         id="g46">
        <path
           class="connection real"
           stroke-dasharray="none"
           d="M 47,74.22 V 28.58"
           style="fill:none;fill-opacity:1;stroke:#0067e2;stroke-width:2;stroke-opacity:1"
           id="path40" />
        <g
           stroke="none"
           fill="rgb(0,103,226)"
           fill-opacity="1"
           transform="rotate(-90,62.611527,15.611527)"
           style="fill:#0067e2;stroke:none;stroke-width:2"
           id="g44">
          <path
             d="M 9.29,-4.46 0,0 9.29,4.46 Z"
             id="path42" />
        </g>
      </g>
      <g
         class="arrow-line"
         id="g54">
        <path
           class="connection real"
           stroke-dasharray="none"
           d="M 137.5,74.22 V 28.58"
           style="fill:none;fill-opacity:1;stroke:#0067e2;stroke-width:2;stroke-opacity:1"
           id="path48" />
        <g
           stroke="none"
           fill="rgb(0,103,226)"
           fill-opacity="1"
           transform="rotate(-90,107.86153,-29.638473)"
           style="fill:#0067e2;stroke:none;stroke-width:2"
           id="g52">
          <path
             d="M 9.29,-4.46 0,0 9.29,4.46 Z"
             id="path50" />
        </g>
      </g>
      <g
         class="composite-shape"
         id="g64">
        <path
           class="real"
           d="M 33.53,150.52 C 25.28,142.25 19.29,117.54 19.29,88.35 19.29,61.59 24.32,38.6 31.52,28.58 l 8.07,59.77 z"
           style="fill:none;fill-opacity:1;stroke:none;stroke-width:2;stroke-opacity:1"
           id="path56" />
        <path
           class="real"
           d="M 33.53,150.52 C 25.28,142.25 19.29,117.54 19.29,88.35 19.29,64.26 23.37,43.23 29.43,31.97"
           style="fill:none;fill-opacity:1;stroke:#0067e2;stroke-width:2;stroke-opacity:1"
           id="path58" />
        <g
           stroke="none"
           fill="rgb(0,103,226)"
           fill-opacity="1"
           transform="rotate(119.59,7.4406093,23.465574)"
           style="fill:#0067e2;stroke:none;stroke-width:2"
           id="g62">
          <path
             d="M 9.29,-4.46 0,0 9.29,4.46 Z"
             id="path60" />
        </g>
      </g>
      <g
         class="composite-shape"
         id="g68">
        <path
           class="real"
           d="m 31.52,28.58 c 0,-8.55 6.93,-15.48 15.48,-15.48 8.55,0 15.48,6.93 15.48,15.48 0,8.55 -6.93,15.48 -15.48,15.48 -8.55,0 -15.48,-6.93 -15.48,-15.48 z"
           style="fill:#e6e6e6;fill-opacity:1;stroke:#000000;stroke-width:1"
           id="path66" />
      </g>
      <g
         class="composite-shape"
         id="g72">
        <path
           class="real"
           d="m 122.02,28.58 c 0,-8.55 6.93,-15.48 15.48,-15.48 8.55,0 15.48,6.93 15.48,15.48 0,8.55 -6.93,15.48 -15.48,15.48 -8.55,0 -15.48,-6.93 -15.48,-15.48 z"
           style="fill:#e6e6e6;fill-opacity:1;stroke:#000000;stroke-width:1"
           id="path70" />
      </g>
      <g
         class="composite-shape"
         id="g76">
        <path
           class="real"
           d="m 122.02,93.7 c 0,-8.55 6.93,-15.48 15.48,-15.48 8.55,0 15.48,6.93 15.48,15.48 0,8.55 -6.93,15.48 -15.48,15.48 -8.55,0 -15.48,-6.93 -15.48,-15.48 z"
           style="fill:#e6e6e6;fill-opacity:1;stroke:#000000;stroke-width:1"
           id="path74" />
      </g>
      <g
         class="composite-shape"
         id="g80">
        <path
           class="real"
           d="m 122.02,158.82 c 0,-8.55 6.93,-15.48 15.48,-15.48 8.55,0 15.48,6.93 15.48,15.48 0,8.55 -6.93,15.48 -15.48,15.48 -8.55,0 -15.48,-6.93 -15.48,-15.48 z"
           style="fill:#e6e6e6;fill-opacity:1;stroke:#000000;stroke-width:1"
           id="path78" />
      </g>
      <g
         class="composite-shape"
         id="g84">
        <path
           class="real"
           d="m 31.52,158.82 c 0,-8.55 6.93,-15.48 15.48,-15.48 8.55,0 15.48,6.93 15.48,15.48 0,8.55 -6.93,15.48 -15.48,15.48 -8.55,0 -15.48,-6.93 -15.48,-15.48 z"
           style="fill:#e6e6e6;fill-opacity:1;stroke:#000000;stroke-width:1"
           id="path82" />
      </g>
      <g
         class="composite-shape"
         id="g88">
        <path
           class="real"
           d="m 31.52,93.7 c 0,-8.55 6.93,-15.48 15.48,-15.48 8.55,0 15.48,6.93 15.48,15.48 0,8.55 -6.93,15.48 -15.48,15.48 -8.55,0 -15.48,-6.93 -15.48,-15.48 z"
           style="fill:#e6e6e6;fill-opacity:1;stroke:#000000;stroke-width:1"
           id="path86" />
      </g>
      <g
         class="composite-shape"
         id="g92">
        <path
           class="real"
           d="m 350.42,24.7 c 0,-8.55 6.93,-15.48 15.48,-15.48 8.55,0 15.48,6.93 15.48,15.48 0,8.55 -6.93,15.48 -15.48,15.48 -8.55,0 -15.48,-6.93 -15.48,-15.48 z"
           style="fill:#e6e6e6;fill-opacity:1;stroke:#000000;stroke-width:1"
           id="path90" />
      </g>
      <g
         class="composite-shape"
         id="g96">
        <path
           class="real"
           d="m 411.82,60.15 c 0,-8.55 6.93,-15.48 15.48,-15.48 8.55,0 15.48,6.93 15.48,15.48 0,8.55 -6.93,15.48 -15.48,15.48 -8.55,0 -15.48,-6.93 -15.48,-15.48 z"
           style="fill:#e6e6e6;fill-opacity:1;stroke:#000000;stroke-width:1"
           id="path94" />
      </g>
      <g
         class="composite-shape"
         id="g100">
        <path
           class="real"
           d="m 411.82,131.05 c 0,-8.55 6.93,-15.48 15.48,-15.48 8.55,0 15.48,6.93 15.48,15.48 0,8.55 -6.93,15.48 -15.48,15.48 -8.55,0 -15.48,-6.93 -15.48,-15.48 z"
           style="fill:#e6e6e6;fill-opacity:1;stroke:#000000;stroke-width:1"
           id="path98" />
      </g>
      <g
         class="composite-shape"
         id="g104">
        <path
           class="real"
           d="m 350.42,166.5 c 0,-8.55 6.93,-15.48 15.48,-15.48 8.55,0 15.48,6.93 15.48,15.48 0,8.55 -6.93,15.48 -15.48,15.48 -8.55,0 -15.48,-6.93 -15.48,-15.48 z"
           style="fill:#e6e6e6;fill-opacity:1;stroke:#000000;stroke-width:1"
           id="path102" />
      </g>
      <g
         class="composite-shape"
         id="g108">
        <path
           class="real"
           d="m 289.02,131.05 c 0,-8.55 6.93,-15.48 15.48,-15.48 8.55,0 15.48,6.93 15.48,15.48 0,8.55 -6.93,15.48 -15.48,15.48 -8.55,0 -15.48,-6.93 -15.48,-15.48 z"
           style="fill:#e6e6e6;fill-opacity:1;stroke:#000000;stroke-width:1"
           id="path106" />
      </g>
      <g
         class="composite-shape"
         id="g112">
        <path
           class="real"
           d="m 289.02,60.15 c 0,-8.55 6.93,-15.48 15.48,-15.48 8.55,0 15.48,6.93 15.48,15.48 0,8.55 -6.93,15.48 -15.48,15.48 -8.55,0 -15.48,-6.93 -15.48,-15.48 z"
           style="fill:#e6e6e6;fill-opacity:1;stroke:#000000;stroke-width:1"
           id="path110" />
      </g>
      <g
         class="composite-shape"
         id="g122">
        <path
           class="real"
           d="m 380.84,27.61 c 14.15,3.09 26.69,10.5 36.18,20.76 L 365.9,95.6 Z"
           style="fill:none;fill-opacity:1;stroke:none;stroke-width:2;stroke-opacity:1"
           id="path114" />
        <path
           class="real"
           d="m 380.84,27.61 c 12.81,2.8 24.3,9.13 33.4,17.92"
           style="fill:none;fill-opacity:1;stroke:#f5a623;stroke-width:2;stroke-opacity:1"
           id="path116" />
        <g
           stroke="none"
           fill="rgb(245,166,35)"
           fill-opacity="1"
           transform="rotate(-137.55,217.90581,-56.793868)"
           style="fill:#f5a623;stroke:none;stroke-width:2"
           id="g120">
          <path
             d="M 11.61,-5.58 0,0 11.61,5.58 Z"
             id="path118" />
        </g>
      </g>
      <g
         class="composite-shape"
         id="g132">
        <path
           class="real"
           d="m 432.25,74.54 c 4.4,13.81 4.26,28.37 0.11,41.72 L 365.9,95.6 Z"
           style="fill:none;fill-opacity:1;stroke:none;stroke-width:2;stroke-opacity:1"
           id="path124" />
        <path
           class="real"
           d="m 432.25,74.54 c 3.98,12.5 4.24,25.61 1.18,37.89"
           style="fill:none;fill-opacity:1;stroke:#f5a623;stroke-width:2;stroke-opacity:1"
           id="path126" />
        <g
           stroke="none"
           fill="rgb(245,166,35)"
           fill-opacity="1"
           transform="rotate(-77.55,288.54687,-210.98259)"
           style="fill:#f5a623;stroke:none;stroke-width:2"
           id="g130">
          <path
             d="M 11.61,-5.58 0,0 11.61,5.58 Z"
             id="path128" />
        </g>
      </g>
      <g
         class="composite-shape"
         id="g142">
        <path
           class="real"
           d="m 417.31,142.53 c -9.75,10.72 -22.44,17.88 -36.07,20.96 L 365.9,95.6 Z"
           style="fill:none;fill-opacity:1;stroke:none;stroke-width:2;stroke-opacity:1"
           id="path134" />
        <path
           class="real"
           d="m 417.31,142.53 c -8.83,9.7 -20.05,16.48 -32.22,19.97"
           style="fill:none;fill-opacity:1;stroke:#f5a623;stroke-width:2;stroke-opacity:1"
           id="path136" />
        <g
           stroke="none"
           fill="rgb(245,166,35)"
           fill-opacity="1"
           transform="rotate(-17.55,720.19018,-1153.1335)"
           style="fill:#f5a623;stroke:none;stroke-width:2"
           id="g140">
          <path
             d="M 11.61,-5.58 0,0 11.61,5.58 Z"
             id="path138" />
        </g>
      </g>
      <g
         class="composite-shape"
         id="g152">
        <path
           class="real"
           d="M 350.96,163.59 C 336.81,160.5 324.26,153.1 314.77,142.83 L 365.9,95.6 Z"
           style="fill:none;fill-opacity:1;stroke:none;stroke-width:2;stroke-opacity:1"
           id="path144" />
        <path
           class="real"
           d="m 350.96,163.59 c -12.81,-2.8 -24.3,-9.13 -33.4,-17.91"
           style="fill:none;fill-opacity:1;stroke:#f5a623;stroke-width:2;stroke-opacity:1"
           id="path146" />
        <g
           stroke="none"
           fill="rgb(245,166,35)"
           fill-opacity="1"
           transform="rotate(42.45,-26.492529,476.6561)"
           style="fill:#f5a623;stroke:none;stroke-width:2"
           id="g150">
          <path
             d="M 11.61,-5.58 0,0 11.61,5.58 Z"
             id="path148" />
        </g>
      </g>
      <g
         class="composite-shape"
         id="g162">
        <path
           class="real"
           d="m 299.55,116.66 c -4.4,-13.8 -4.26,-28.37 -0.11,-41.72 L 365.9,95.6 Z"
           style="fill:none;fill-opacity:1;stroke:none;stroke-width:2;stroke-opacity:1"
           id="path154" />
        <path
           class="real"
           d="M 299.55,116.66 C 295.57,104.17 295.3,91.05 298.36,78.78"
           style="fill:none;fill-opacity:1;stroke:#f5a623;stroke-width:2;stroke-opacity:1"
           id="path156" />
        <g
           stroke="none"
           fill="rgb(245,166,35)"
           fill-opacity="1"
           transform="rotate(102.45,119.61862,157.73827)"
           style="fill:#f5a623;stroke:none;stroke-width:2"
           id="g160">
          <path
             d="M 11.61,-5.58 0,0 11.61,5.58 Z"
             id="path158" />
        </g>
      </g>
      <g
         class="composite-shape"
         id="g172">
        <path
           class="real"
           d="M 314.48,48.67 C 324.24,37.96 336.92,30.8 350.56,27.71 L 365.9,95.6 Z"
           style="fill:none;fill-opacity:1;stroke:none;stroke-width:2;stroke-opacity:1"
           id="path164" />
        <path
           class="real"
           d="M 314.48,48.67 C 323.31,38.98 334.54,32.19 346.7,28.7"
           style="fill:none;fill-opacity:1;stroke:#f5a623;stroke-width:2;stroke-opacity:1"
           id="path166" />
        <g
           stroke="none"
           fill="rgb(245,166,35)"
           fill-opacity="1"
           transform="rotate(162.45,173.14192,40.912585)"
           style="fill:#f5a623;stroke:none;stroke-width:2"
           id="g170">
          <path
             d="M 11.61,-5.58 0,0 11.61,5.58 Z"
             id="path168" />
        </g>
      </g>
      <g
         class="composite-shape"
         id="g176">
        <path
           class="real"
           d="m 197.5,100.2 h 44 v -4.5 l 15.5,9 -15.5,9 v -4.5 h -44 z"
           style="fill:#b8e986;fill-opacity:1;stroke:#000000;stroke-width:1"
           id="path174" />
      </g>
      <g
         id="g178" />
    </g>
    <g
       id="g182" />
    <g
       id="g184" />
    <g
       id="g186" />
  </svg>
  <svg
     width="660"
     height="239"
     style="font-family:Asana-Math, Asana"
     version="1.1"
     id="svg386">
    <g
       id="g198">
      <g
         id="g196">
        <g
           id="g194">
          <g
             transform="translate(129,34)"
             id="g192">
            <path
               transform="scale(0.017,-0.017)"
               d="m 418,-3 v 30 l -52,3 c -55,3 -65,14 -65,66 V 700 L 60,598 67,548 217,614 V 96 C 217,44 206,33 152,30 L 96,27 V -3 c 154,3 154,3 165,3 31,0 141,-3 157,-3 z M 762,689 C 607,689 528,566 528,324 c 0,-117 21,-218 56,-267 35,-49 91,-77 153,-77 151,0 227,130 227,386 0,219 -65,323 -202,323 z M 744,654 C 841,654 880,556 880,316 880,103 842,15 750,15 653,15 612,116 612,360 c 0,211 37,294 132,294 z"
               stroke="#000000"
               stroke-opacity="1"
               stroke-width="8"
               fill="#000000"
               fill-opacity="1"
               id="path190" />
          </g>
        </g>
      </g>
    </g>
    <g
       id="g208">
      <g
         id="g206">
        <g
           id="g204">
          <g
             transform="translate(130,99)"
             id="g202">
            <path
               transform="scale(0.017,-0.017)"
               d="m 418,-3 v 30 l -52,3 c -55,3 -65,14 -65,66 V 700 L 60,598 67,548 217,614 V 96 C 217,44 206,33 152,30 L 96,27 V -3 c 154,3 154,3 165,3 31,0 141,-3 157,-3 z m 499,0 v 30 l -52,3 c -55,3 -65,14 -65,66 v 604 l -241,-102 7,-50 150,66 V 96 C 716,44 705,33 651,30 L 595,27 V -3 c 154,3 154,3 165,3 31,0 141,-3 157,-3 z"
               stroke="#000000"
               stroke-opacity="1"
               stroke-width="8"
               fill="#000000"
               fill-opacity="1"
               id="path200" />
          </g>
        </g>
      </g>
    </g>
    <g
       id="g218">
      <g
         id="g216">
        <g
           id="g214">
          <g
             transform="translate(129,164)"
             id="g212">
            <path
               transform="scale(0.017,-0.017)"
               d="m 418,-3 v 30 l -52,3 c -55,3 -65,14 -65,66 V 700 L 60,598 67,548 217,614 V 96 C 217,44 206,33 152,30 L 96,27 V -3 c 154,3 154,3 165,3 31,0 141,-3 157,-3 z m 97,26 V -3 c 187,0 187,3 223,3 36,0 36,-3 229,-3 V 82 C 852,77 806,81 621,77 l 182,193 c 97,103 127,158 127,233 0,115 -78,186 -205,186 -72,0 -121,-20 -170,-70 L 538,483 h 29 l 13,46 c 16,58 52,83 119,83 86,0 141,-54 141,-139 0,-75 -42,-149 -155,-269 z"
               stroke="#000000"
               stroke-opacity="1"
               stroke-width="8"
               fill="#000000"
               fill-opacity="1"
               id="path210" />
          </g>
        </g>
      </g>
    </g>
    <g
       id="g228">
      <g
         id="g226">
        <g
           id="g224">
          <g
             transform="translate(39,34)"
             id="g222">
            <path
               transform="scale(0.017,-0.017)"
               d="M 263,689 C 108,689 29,566 29,324 29,207 50,106 85,57 c 35,-49 91,-77 153,-77 151,0 227,130 227,386 0,219 -65,323 -202,323 z M 245,654 C 342,654 381,556 381,316 381,103 343,15 251,15 154,15 113,116 113,360 c 0,211 37,294 132,294 z m 517,35 C 607,689 528,566 528,324 c 0,-117 21,-218 56,-267 35,-49 91,-77 153,-77 151,0 227,130 227,386 0,219 -65,323 -202,323 z M 744,654 C 841,654 880,556 880,316 880,103 842,15 750,15 653,15 612,116 612,360 c 0,211 37,294 132,294 z"
               stroke="#000000"
               stroke-opacity="1"
               stroke-width="8"
               fill="#000000"
               fill-opacity="1"
               id="path220" />
          </g>
        </g>
      </g>
    </g>
    <g
       id="g238">
      <g
         id="g236">
        <g
           id="g234">
          <g
             transform="translate(39,99)"
             id="g232">
            <path
               transform="scale(0.017,-0.017)"
               d="M 263,689 C 108,689 29,566 29,324 29,207 50,106 85,57 c 35,-49 91,-77 153,-77 151,0 227,130 227,386 0,219 -65,323 -202,323 z M 245,654 C 342,654 381,556 381,316 381,103 343,15 251,15 154,15 113,116 113,360 c 0,211 37,294 132,294 z M 917,-3 v 30 l -52,3 c -55,3 -65,14 -65,66 v 604 l -241,-102 7,-50 150,66 V 96 C 716,44 705,33 651,30 L 595,27 V -3 c 154,3 154,3 165,3 31,0 141,-3 157,-3 z"
               stroke="#000000"
               stroke-opacity="1"
               stroke-width="8"
               fill="#000000"
               fill-opacity="1"
               id="path230" />
          </g>
        </g>
      </g>
    </g>
    <g
       id="g248">
      <g
         id="g246">
        <g
           id="g244">
          <g
             transform="translate(39,164)"
             id="g242">
            <path
               transform="scale(0.017,-0.017)"
               d="M 263,689 C 108,689 29,566 29,324 29,207 50,106 85,57 c 35,-49 91,-77 153,-77 151,0 227,130 227,386 0,219 -65,323 -202,323 z M 245,654 C 342,654 381,556 381,316 381,103 343,15 251,15 154,15 113,116 113,360 c 0,211 37,294 132,294 z M 515,23 V -3 c 187,0 187,3 223,3 36,0 36,-3 229,-3 V 82 C 852,77 806,81 621,77 l 182,193 c 97,103 127,158 127,233 0,115 -78,186 -205,186 -72,0 -121,-20 -170,-70 L 538,483 h 29 l 13,46 c 16,58 52,83 119,83 86,0 141,-54 141,-139 0,-75 -42,-149 -155,-269 z"
               stroke="#000000"
               stroke-opacity="1"
               stroke-width="8"
               fill="#000000"
               fill-opacity="1"
               id="path240" />
          </g>
        </g>
      </g>
    </g>
    <g
       id="g258">
      <g
         id="g256">
        <g
           id="g254">
          <g
             transform="translate(358,30)"
             id="g252">
            <path
               transform="scale(0.017,-0.017)"
               d="M 263,689 C 108,689 29,566 29,324 29,207 50,106 85,57 c 35,-49 91,-77 153,-77 151,0 227,130 227,386 0,219 -65,323 -202,323 z M 245,654 C 342,654 381,556 381,316 381,103 343,15 251,15 154,15 113,116 113,360 c 0,211 37,294 132,294 z m 517,35 C 607,689 528,566 528,324 c 0,-117 21,-218 56,-267 35,-49 91,-77 153,-77 151,0 227,130 227,386 0,219 -65,323 -202,323 z M 744,654 C 841,654 880,556 880,316 880,103 842,15 750,15 653,15 612,116 612,360 c 0,211 37,294 132,294 z"
               stroke="#000000"
               stroke-opacity="1"
               stroke-width="8"
               fill="#000000"
               fill-opacity="1"
               id="path250" />
          </g>
        </g>
      </g>
    </g>
    <g
       id="g268">
      <g
         id="g266">
        <g
           id="g264">
          <g
             transform="translate(420,66)"
             id="g262">
            <path
               transform="scale(0.017,-0.017)"
               d="m 418,-3 v 30 l -52,3 c -55,3 -65,14 -65,66 V 700 L 60,598 67,548 217,614 V 96 C 217,44 206,33 152,30 L 96,27 V -3 c 154,3 154,3 165,3 31,0 141,-3 157,-3 z m 499,0 v 30 l -52,3 c -55,3 -65,14 -65,66 v 604 l -241,-102 7,-50 150,66 V 96 C 716,44 705,33 651,30 L 595,27 V -3 c 154,3 154,3 165,3 31,0 141,-3 157,-3 z"
               stroke="#000000"
               stroke-opacity="1"
               stroke-width="8"
               fill="#000000"
               fill-opacity="1"
               id="path260" />
          </g>
        </g>
      </g>
    </g>
    <g
       id="g278">
      <g
         id="g276">
        <g
           id="g274">
          <g
             transform="translate(419,136)"
             id="g272">
            <path
               transform="scale(0.017,-0.017)"
               d="M 263,689 C 108,689 29,566 29,324 29,207 50,106 85,57 c 35,-49 91,-77 153,-77 151,0 227,130 227,386 0,219 -65,323 -202,323 z M 245,654 C 342,654 381,556 381,316 381,103 343,15 251,15 154,15 113,116 113,360 c 0,211 37,294 132,294 z M 515,23 V -3 c 187,0 187,3 223,3 36,0 36,-3 229,-3 V 82 C 852,77 806,81 621,77 l 182,193 c 97,103 127,158 127,233 0,115 -78,186 -205,186 -72,0 -121,-20 -170,-70 L 538,483 h 29 l 13,46 c 16,58 52,83 119,83 86,0 141,-54 141,-139 0,-75 -42,-149 -155,-269 z"
               stroke="#000000"
               stroke-opacity="1"
               stroke-width="8"
               fill="#000000"
               fill-opacity="1"
               id="path270" />
          </g>
        </g>
      </g>
    </g>
    <g
       id="g288">
      <g
         id="g286">
        <g
           id="g284">
          <g
             transform="translate(357,172)"
             id="g282">
            <path
               transform="scale(0.017,-0.017)"
               d="m 418,-3 v 30 l -52,3 c -55,3 -65,14 -65,66 V 700 L 60,598 67,548 217,614 V 96 C 217,44 206,33 152,30 L 96,27 V -3 c 154,3 154,3 165,3 31,0 141,-3 157,-3 z M 762,689 C 607,689 528,566 528,324 c 0,-117 21,-218 56,-267 35,-49 91,-77 153,-77 151,0 227,130 227,386 0,219 -65,323 -202,323 z M 744,654 C 841,654 880,556 880,316 880,103 842,15 750,15 653,15 612,116 612,360 c 0,211 37,294 132,294 z"
               stroke="#000000"
               stroke-opacity="1"
               stroke-width="8"
               fill="#000000"
               fill-opacity="1"
               id="path280" />
          </g>
        </g>
      </g>
    </g>
    <g
       id="g298">
      <g
         id="g296">
        <g
           id="g294">
          <g
             transform="translate(296,136)"
             id="g292">
            <path
               transform="scale(0.017,-0.017)"
               d="M 263,689 C 108,689 29,566 29,324 29,207 50,106 85,57 c 35,-49 91,-77 153,-77 151,0 227,130 227,386 0,219 -65,323 -202,323 z M 245,654 C 342,654 381,556 381,316 381,103 343,15 251,15 154,15 113,116 113,360 c 0,211 37,294 132,294 z M 917,-3 v 30 l -52,3 c -55,3 -65,14 -65,66 v 604 l -241,-102 7,-50 150,66 V 96 C 716,44 705,33 651,30 L 595,27 V -3 c 154,3 154,3 165,3 31,0 141,-3 157,-3 z"
               stroke="#000000"
               stroke-opacity="1"
               stroke-width="8"
               fill="#000000"
               fill-opacity="1"
               id="path290" />
          </g>
        </g>
      </g>
    </g>
    <g
       id="g308">
      <g
         id="g306">
        <g
           id="g304">
          <g
             transform="translate(296,66)"
             id="g302">
            <path
               transform="scale(0.017,-0.017)"
               d="m 418,-3 v 30 l -52,3 c -55,3 -65,14 -65,66 V 700 L 60,598 67,548 217,614 V 96 C 217,44 206,33 152,30 L 96,27 V -3 c 154,3 154,3 165,3 31,0 141,-3 157,-3 z m 97,26 V -3 c 187,0 187,3 223,3 36,0 36,-3 229,-3 V 82 C 852,77 806,81 621,77 l 182,193 c 97,103 127,158 127,233 0,115 -78,186 -205,186 -72,0 -121,-20 -170,-70 L 538,483 h 29 l 13,46 c 16,58 52,83 119,83 86,0 141,-54 141,-139 0,-75 -42,-149 -155,-269 z"
               stroke="#000000"
               stroke-opacity="1"
               stroke-width="8"
               fill="#000000"
               fill-opacity="1"
               id="path300" />
          </g>
        </g>
      </g>
    </g>
    <g
       id="g354">
      <g
         id="g352">
        <g
           id="g314">
          <g
             transform="translate(64,223)"
             id="g312">
            <path
               transform="scale(0.017,-0.017)"
               d="m 788,173 h -34 l -6,-57 C 741,48 723,44 574,44 H 301 l 486,619 -4,29 c -52,-1 -44,-3 -96,-3 H 477 c -132,0 -265,2 -397,3 4,-54 4,-108 0,-163 h 34 l 6,72 c 3,33 14,47 152,47 H 500 C 478,609 444,568 414,529 L 112,142 C 81,102 47,64 15,25 V -3 c 104,1 358,3 462,3 103,0 207,-2 305,-3 0,57 1,121 6,176 z M 709,648 C 688,609 654,568 624,529 L 322,142 C 296,108 268,76 241,44 h -90 l 474,604 z"
               stroke="#000000"
               stroke-opacity="1"
               stroke-width="8"
               fill="#000000"
               fill-opacity="1"
               id="path310" />
          </g>
        </g>
        <g
           id="g326">
          <g
             id="g324">
            <g
               id="g322">
              <g
                 id="g320">
                <g
                   transform="translate(78.359375,226.00937)"
                   id="g318">
                  <path
                     transform="scale(0.0119,-0.0119)"
                     d="M 16,23 V -3 c 187,0 187,3 223,3 36,0 36,-3 229,-3 V 82 C 353,77 307,81 122,77 l 182,193 c 97,103 127,158 127,233 0,115 -78,186 -205,186 -72,0 -121,-20 -170,-70 L 39,483 h 29 l 13,46 c 16,58 52,83 119,83 86,0 141,-54 141,-139 0,-75 -42,-149 -155,-269 z"
                     stroke="#000000"
                     stroke-opacity="1"
                     stroke-width="8"
                     fill="#000000"
                     fill-opacity="1"
                     id="path316" />
                </g>
              </g>
            </g>
          </g>
        </g>
        <g
           id="g332">
          <g
             transform="translate(88.731384,223)"
             id="g330">
            <path
               transform="scale(0.017,-0.017)"
               d="M 611,37 376,271 611,505 568,547 335,313 101,547 59,505 293,271 59,37 101,-5 335,229 568,-5 Z"
               stroke="#000000"
               stroke-opacity="1"
               stroke-width="8"
               fill="#000000"
               fill-opacity="1"
               id="path328" />
          </g>
        </g>
        <g
           id="g338">
          <g
             transform="translate(103.478,223)"
             id="g336">
            <path
               transform="scale(0.017,-0.017)"
               d="m 788,173 h -34 l -6,-57 C 741,48 723,44 574,44 H 301 l 486,619 -4,29 c -52,-1 -44,-3 -96,-3 H 477 c -132,0 -265,2 -397,3 4,-54 4,-108 0,-163 h 34 l 6,72 c 3,33 14,47 152,47 H 500 C 478,609 444,568 414,529 L 112,142 C 81,102 47,64 15,25 V -3 c 104,1 358,3 462,3 103,0 207,-2 305,-3 0,57 1,121 6,176 z M 709,648 C 688,609 654,568 624,529 L 322,142 C 296,108 268,76 241,44 h -90 l 474,604 z"
               stroke="#000000"
               stroke-opacity="1"
               stroke-width="8"
               fill="#000000"
               fill-opacity="1"
               id="path334" />
          </g>
        </g>
        <g
           id="g350">
          <g
             id="g348">
            <g
               id="g346">
              <g
                 id="g344">
                <g
                   transform="translate(117.84375,226.00937)"
                   id="g342">
                  <path
                     transform="scale(0.0119,-0.0119)"
                     d="m 462,224 c 0,121 -107,142 -154,150 80,62 110,108 110,167 0,89 -74,148 -185,148 -68,0 -113,-19 -161,-67 L 43,498 h 31 l 18,56 c 11,34 74,68 126,68 65,0 118,-53 118,-116 0,-75 -59,-138 -130,-138 -8,0 -19,1 -32,2 l -15,1 -12,-53 7,-6 c 38,17 57,22 84,22 83,0 131,-53 131,-144 C 369,88 308,21 215,21 169,21 128,36 98,64 74,86 61,109 42,163 L 15,153 C 36,92 44,56 50,6 c 53,-18 97,-26 134,-26 123,0 278,107 278,244 z"
                     stroke="#000000"
                     stroke-opacity="1"
                     stroke-width="8"
                     fill="#000000"
                     fill-opacity="1"
                     id="path340" />
                </g>
              </g>
            </g>
          </g>
        </g>
      </g>
    </g>
    <g
       id="g376">
      <g
         id="g374">
        <g
           id="g360">
          <g
             transform="translate(361,223.4)"
             id="g358">
            <path
               transform="scale(0.0204,-0.0204)"
               d="M 45,284 C 45,90 152,-18 343,-18 c 96,0 167,23 257,85 0,0 10,36 10,36 0,0 -10,7 -10,7 C 506,53 454,35 376,35 219,35 133,131 133,309 c 0,138 57,344 285,344 71,0 123,-14 179,-50 v -84 h 27 c 5,57 13,100 27,146 -76,29 -133,41 -195,41 C 276,706 45,578 45,284 Z"
               stroke="#000000"
               stroke-opacity="1"
               stroke-width="8"
               fill="#000000"
               fill-opacity="1"
               id="path356" />
          </g>
        </g>
        <g
           id="g372">
          <g
             id="g370">
            <g
               id="g368">
              <g
                 id="g366">
                <g
                   transform="translate(375.60937,226.99875)"
                   id="g364">
                  <path
                     transform="scale(0.01428,-0.01428)"
                     d="m 131,331 c 21,181 110,280 290,334 l -42,24 C 283,657 242,637 191,593 88,506 32,384 32,247 32,82 112,-20 241,-20 c 130,0 227,103 227,239 0,115 -69,190 -175,190 -77,0 -109,-39 -162,-78 z m 124,18 C 331,349 382,283 382,184 382,80 331,13 254,13 169,13 123,86 123,220 c 0,35 4,54 15,71 22,34 69,58 117,58 z"
                     stroke="#000000"
                     stroke-opacity="1"
                     stroke-width="8"
                     fill="#000000"
                     fill-opacity="1"
                     id="path362" />
                </g>
              </g>
            </g>
          </g>
        </g>
      </g>
    </g>
    <g
       id="g384">
      <g
         id="g382">
        <g
           id="g380">
          <text
             x="201"
             y="75"
             style="font-style:normal;font-weight:400;font-size:15px;font-family:Arial, Helvetica, sans-serif;text-decoration:none;text-decoration-line:none;dominant-baseline:text-before-edge;white-space:pre;fill:#000000;fill-opacity:1;stroke:none"
             id="text378">Unfold</text>
        </g>
      </g>
    </g>
  </svg>
</svg>
