<?xml version="1.0" encoding="UTF-8" standalone="no"?>
<!-- Created with Inkscape (http://www.inkscape.org/) -->

<svg
   version="1.1"
   id="svg1"
   width="220.12222"
   height="220.43279"
   viewBox="0 0 220.12222 220.43279"
   sodipodi:docname="矩阵力量(豆瓣9.3).pdf"
   xmlns:inkscape="http://www.inkscape.org/namespaces/inkscape"
   xmlns:sodipodi="http://sodipodi.sourceforge.net/DTD/sodipodi-0.dtd"
   xmlns="http://www.w3.org/2000/svg"
   xmlns:svg="http://www.w3.org/2000/svg">
  <defs
     id="defs1">
    <clipPath
       clipPathUnits="userSpaceOnUse"
       id="clipPath151">
      <path
         d="M 0,0 H 371.34 V 174.29 H 0 Z"
         id="path151" />
    </clipPath>
    <clipPath
       clipPathUnits="userSpaceOnUse"
       id="clipPath152">
      <path
         d="M 0,0 H 371.34 V 174.29 H 0 Z"
         id="path152" />
    </clipPath>
    <clipPath
       clipPathUnits="userSpaceOnUse"
       id="clipPath153">
      <path
         d="M 0.16165,174.13 H 371.21 V 0.12892 H 0.16165"
         clip-rule="evenodd"
         id="path153" />
    </clipPath>
    <clipPath
       clipPathUnits="userSpaceOnUse"
       id="clipPath154">
      <path
         d="M 0,0 H 371.34 V 174.29 H 0 Z"
         transform="matrix(1.3322828,9.746204e-8,-5.17752e-8,-1.3311184,149.68,544.08)"
         id="path154" />
    </clipPath>
    <clipPath
       clipPathUnits="userSpaceOnUse"
       id="clipPath155">
      <path
         d="m 0.16167,0.12889 h 371.05 v 174 h -371.05 z"
         transform="matrix(1,0,0,-0.99999997,-359.95001,76.784)"
         clip-rule="evenodd"
         id="path155" />
    </clipPath>
    <clipPath
       clipPathUnits="userSpaceOnUse"
       id="clipPath156">
      <path
         d="M 0,0 H 371.34 V 174.29 H 0 Z"
         transform="matrix(1.3322828,9.746204e-8,-5.17752e-8,-1.3311184,149.68,544.08)"
         id="path156" />
    </clipPath>
    <clipPath
       clipPathUnits="userSpaceOnUse"
       id="clipPath157">
      <path
         d="m 0.16167,0.12889 h 371.05 v 174 h -371.05 z"
         transform="matrix(1,0,0,-0.99999997,-363.52001,75.641998)"
         clip-rule="evenodd"
         id="path157" />
    </clipPath>
    <clipPath
       clipPathUnits="userSpaceOnUse"
       id="clipPath158">
      <path
         d="M 0,0 H 371.34 V 174.29 H 0 Z"
         transform="matrix(1.3322828,9.746204e-8,-5.17752e-8,-1.3311184,149.68,544.08)"
         id="path158" />
    </clipPath>
    <clipPath
       clipPathUnits="userSpaceOnUse"
       id="clipPath159">
      <path
         d="m 0.16167,0.12889 h 371.05 v 174 h -371.05 z"
         transform="matrix(1,0,0,-0.99999997,-275.15,163.26)"
         clip-rule="evenodd"
         id="path159" />
    </clipPath>
    <clipPath
       clipPathUnits="userSpaceOnUse"
       id="clipPath160">
      <path
         d="M 0,0 H 371.34 V 174.29 H 0 Z"
         transform="matrix(1.3322828,9.746204e-8,-5.17752e-8,-1.3311184,149.68,544.08)"
         id="path160" />
    </clipPath>
    <clipPath
       clipPathUnits="userSpaceOnUse"
       id="clipPath161">
      <path
         d="m 0.16167,0.12889 h 371.05 v 174 h -371.05 z"
         transform="matrix(1,0,0,-0.99999997,-278.7,162.11999)"
         clip-rule="evenodd"
         id="path161" />
    </clipPath>
    <clipPath
       clipPathUnits="userSpaceOnUse"
       id="clipPath162">
      <path
         d="M 0,0 H 371.34 V 174.29 H 0 Z"
         transform="matrix(1.3322828,9.746204e-8,-5.17752e-8,-1.3311184,149.68,544.08)"
         id="path162" />
    </clipPath>
    <clipPath
       clipPathUnits="userSpaceOnUse"
       id="clipPath163">
      <path
         d="M 0.16159,174.13 H 371.21 V 0.12894 H 0.16159"
         clip-rule="evenodd"
         id="path163" />
    </clipPath>
    <clipPath
       clipPathUnits="userSpaceOnUse"
       id="clipPath164">
      <path
         d="M 0,0 H 371.34 V 174.29 H 0 Z"
         transform="matrix(1.3322828,9.746204e-8,-5.17752e-8,-1.3311184,149.68,544.08)"
         id="path164" />
    </clipPath>
    <clipPath
       clipPathUnits="userSpaceOnUse"
       id="clipPath165">
      <path
         d="M 0.16159,174.13 H 371.21 V 0.12894 H 0.16159"
         clip-rule="evenodd"
         id="path165" />
    </clipPath>
    <clipPath
       clipPathUnits="userSpaceOnUse"
       id="clipPath166">
      <path
         d="M 0,0 H 371.34 V 174.29 H 0 Z"
         transform="matrix(1.3322828,9.746204e-8,-5.17752e-8,-1.3311184,149.68,544.08)"
         id="path166" />
    </clipPath>
    <clipPath
       clipPathUnits="userSpaceOnUse"
       id="clipPath167">
      <path
         d="M 0.16162,174.13 H 371.21 V 0.12888 H 0.16162"
         clip-rule="evenodd"
         id="path167" />
    </clipPath>
    <clipPath
       clipPathUnits="userSpaceOnUse"
       id="clipPath168">
      <path
         d="M 0,0 H 371.34 V 174.29 H 0 Z"
         transform="matrix(1.3322828,9.746204e-8,-5.17752e-8,-1.3311184,149.68,544.08)"
         id="path168" />
    </clipPath>
    <clipPath
       clipPathUnits="userSpaceOnUse"
       id="clipPath169">
      <path
         d="M 0.16162,174.13 H 371.21 V 0.12888 H 0.16162"
         clip-rule="evenodd"
         id="path169" />
    </clipPath>
    <clipPath
       clipPathUnits="userSpaceOnUse"
       id="clipPath170">
      <path
         d="M 0,0 H 371.34 V 174.29 H 0 Z"
         transform="matrix(1.3322828,9.746204e-8,-5.17752e-8,-1.3311184,149.68,544.08)"
         id="path170" />
    </clipPath>
    <clipPath
       clipPathUnits="userSpaceOnUse"
       id="clipPath171">
      <path
         d="M 0,0 H 371.34 V 174.29 H 0 Z"
         id="path171" />
    </clipPath>
    <clipPath
       clipPathUnits="userSpaceOnUse"
       id="clipPath172">
      <path
         d="M 0,0 H 371.34 V 174.29 H 0 Z"
         id="path172" />
    </clipPath>
    <clipPath
       clipPathUnits="userSpaceOnUse"
       id="clipPath173">
      <path
         d="M 0.16166,174.13 H 371.21 V 0.12892 H 0.16166"
         clip-rule="evenodd"
         id="path173" />
    </clipPath>
    <clipPath
       clipPathUnits="userSpaceOnUse"
       id="clipPath174">
      <path
         d="M 0,0 H 371.34 V 174.29 H 0 Z"
         transform="matrix(1.3322828,9.746204e-8,-5.17752e-8,-1.3311184,149.68,544.08)"
         id="path174" />
    </clipPath>
    <clipPath
       clipPathUnits="userSpaceOnUse"
       id="clipPath175">
      <path
         d="m 0.16167,0.12889 h 371.05 v 174 h -371.05 z"
         transform="matrix(1,0,0,-0.99999997,-163.00001,76.784)"
         clip-rule="evenodd"
         id="path175" />
    </clipPath>
    <clipPath
       clipPathUnits="userSpaceOnUse"
       id="clipPath176">
      <path
         d="M 0,0 H 371.34 V 174.29 H 0 Z"
         transform="matrix(1.3322828,9.746204e-8,-5.17752e-8,-1.3311184,149.68,544.08)"
         id="path176" />
    </clipPath>
    <clipPath
       clipPathUnits="userSpaceOnUse"
       id="clipPath177">
      <path
         d="m 0.16167,0.12889 h 371.05 v 174 h -371.05 z"
         transform="matrix(1,0,0,-0.99999997,-166.57001,75.641999)"
         clip-rule="evenodd"
         id="path177" />
    </clipPath>
    <clipPath
       clipPathUnits="userSpaceOnUse"
       id="clipPath178">
      <path
         d="M 0,0 H 371.34 V 174.29 H 0 Z"
         transform="matrix(1.3322828,9.746204e-8,-5.17752e-8,-1.3311184,149.68,544.08)"
         id="path178" />
    </clipPath>
    <clipPath
       clipPathUnits="userSpaceOnUse"
       id="clipPath179">
      <path
         d="m 0.16167,0.12889 h 371.05 v 174 h -371.05 z"
         transform="matrix(1,0,0,-0.99999997,-78.193998,163.26)"
         clip-rule="evenodd"
         id="path179" />
    </clipPath>
    <clipPath
       clipPathUnits="userSpaceOnUse"
       id="clipPath180">
      <path
         d="M 0,0 H 371.34 V 174.29 H 0 Z"
         transform="matrix(1.3322828,9.746204e-8,-5.17752e-8,-1.3311184,149.68,544.08)"
         id="path180" />
    </clipPath>
    <clipPath
       clipPathUnits="userSpaceOnUse"
       id="clipPath181">
      <path
         d="m 0.16167,0.12889 h 371.05 v 174 h -371.05 z"
         transform="matrix(1,0,0,-0.99999997,-81.741,162.11999)"
         clip-rule="evenodd"
         id="path181" />
    </clipPath>
    <clipPath
       clipPathUnits="userSpaceOnUse"
       id="clipPath182">
      <path
         d="M 0,0 H 371.34 V 174.29 H 0 Z"
         transform="matrix(1.3322828,9.746204e-8,-5.17752e-8,-1.3311184,149.68,544.08)"
         id="path182" />
    </clipPath>
    <clipPath
       clipPathUnits="userSpaceOnUse"
       id="clipPath183">
      <path
         d="M 0.16165,174.13 H 371.21 V 0.12894 L 0.16164,0.12892"
         clip-rule="evenodd"
         id="path183" />
    </clipPath>
    <clipPath
       clipPathUnits="userSpaceOnUse"
       id="clipPath184">
      <path
         d="M 0,0 H 371.34 V 174.29 H 0 Z"
         transform="matrix(1.3322828,9.746204e-8,-5.17752e-8,-1.3311184,149.68,544.08)"
         id="path184" />
    </clipPath>
    <clipPath
       clipPathUnits="userSpaceOnUse"
       id="clipPath185">
      <path
         d="M 0.16165,174.13 H 371.21 V 0.12894 L 0.16164,0.12892"
         clip-rule="evenodd"
         id="path185" />
    </clipPath>
    <clipPath
       clipPathUnits="userSpaceOnUse"
       id="clipPath186">
      <path
         d="M 0,0 H 371.34 V 174.29 H 0 Z"
         transform="matrix(1.3322828,9.746204e-8,-5.17752e-8,-1.3311184,149.68,544.08)"
         id="path186" />
    </clipPath>
    <clipPath
       clipPathUnits="userSpaceOnUse"
       id="clipPath187">
      <path
         d="m 0.16167,0.12889 h 371.05 v 174 h -371.05 z"
         transform="matrix(1,0,0,-0.99999997,-205.17,160.42)"
         clip-rule="evenodd"
         id="path187" />
    </clipPath>
    <clipPath
       clipPathUnits="userSpaceOnUse"
       id="clipPath188">
      <path
         d="M 0,0 H 371.34 V 174.29 H 0 Z"
         transform="matrix(1.3322828,9.746204e-8,-5.17752e-8,-1.3311184,149.68,544.08)"
         id="path188" />
    </clipPath>
    <clipPath
       clipPathUnits="userSpaceOnUse"
       id="clipPath191">
      <path
         d="M 0.16166,174.13 H 371.21 V 0.12891 l -371.04836,1e-5"
         clip-rule="evenodd"
         id="path191" />
    </clipPath>
    <clipPath
       clipPathUnits="userSpaceOnUse"
       id="clipPath192">
      <path
         d="M 0,0 H 371.34 V 174.29 H 0 Z"
         transform="matrix(1.3322828,9.746204e-8,-5.17752e-8,-1.3311184,149.68,544.08)"
         id="path192" />
    </clipPath>
    <clipPath
       clipPathUnits="userSpaceOnUse"
       id="clipPath193">
      <path
         d="M 0,0 H 371.34 V 174.29 H 0 Z"
         id="path193" />
    </clipPath>
    <clipPath
       clipPathUnits="userSpaceOnUse"
       id="clipPath194">
      <path
         d="m 0.16167,0.12889 h 371.05 v 174 h -371.05 z"
         transform="matrix(1,0,0,-0.99999997,-120.32,139.67)"
         clip-rule="evenodd"
         id="path194" />
    </clipPath>
    <clipPath
       clipPathUnits="userSpaceOnUse"
       id="clipPath195">
      <path
         d="M 0,0 H 371.34 V 174.29 H 0 Z"
         transform="matrix(1.3322828,9.746204e-8,-5.17752e-8,-1.3311184,149.68,544.08)"
         id="path195" />
    </clipPath>
    <clipPath
       clipPathUnits="userSpaceOnUse"
       id="clipPath196">
      <path
         d="M 0.16167,174.13 H 371.21 V 0.12885 l -371.04833,3e-5"
         clip-rule="evenodd"
         id="path196" />
    </clipPath>
    <clipPath
       clipPathUnits="userSpaceOnUse"
       id="clipPath197">
      <path
         d="M 0,0 H 371.34 V 174.29 H 0 Z"
         transform="matrix(1.3322828,9.746204e-8,-5.17752e-8,-1.3311184,149.68,544.08)"
         id="path197" />
    </clipPath>
    <clipPath
       clipPathUnits="userSpaceOnUse"
       id="clipPath198">
      <path
         d="M 0.16167,174.13 H 371.21 V 0.12885 l -371.04833,3e-5"
         clip-rule="evenodd"
         id="path198" />
    </clipPath>
    <clipPath
       clipPathUnits="userSpaceOnUse"
       id="clipPath199">
      <path
         d="M 0,0 H 371.34 V 174.29 H 0 Z"
         transform="matrix(1.3322828,9.746204e-8,-5.17752e-8,-1.3311184,149.68,544.08)"
         id="path199" />
    </clipPath>
    <clipPath
       clipPathUnits="userSpaceOnUse"
       id="clipPath200">
      <path
         d="m 0.16167,0.12889 h 371.05 v 174 h -371.05 z"
         transform="matrix(1,0,0,-0.99999997,-122.91,98.428)"
         clip-rule="evenodd"
         id="path200" />
    </clipPath>
    <clipPath
       clipPathUnits="userSpaceOnUse"
       id="clipPath201">
      <path
         d="M 0,0 H 371.34 V 174.29 H 0 Z"
         transform="matrix(1.3322828,9.746204e-8,-5.17752e-8,-1.3311184,149.68,544.08)"
         id="path201" />
    </clipPath>
    <clipPath
       clipPathUnits="userSpaceOnUse"
       id="clipPath202">
      <path
         d="m 0.16167,0.12889 h 371.05 v 174 h -371.05 z"
         transform="matrix(1,0,0,-0.99999997,-126.46,97.261996)"
         clip-rule="evenodd"
         id="path202" />
    </clipPath>
    <clipPath
       clipPathUnits="userSpaceOnUse"
       id="clipPath203">
      <path
         d="M 0,0 H 371.34 V 174.29 H 0 Z"
         transform="matrix(1.3322828,9.746204e-8,-5.17752e-8,-1.3311184,149.68,544.08)"
         id="path203" />
    </clipPath>
    <clipPath
       clipPathUnits="userSpaceOnUse"
       id="clipPath204">
      <path
         d="m 0.16167,0.12889 h 371.05 v 174 h -371.05 z"
         transform="matrix(1,0,0,-0.99999997,-50.550999,122.09)"
         clip-rule="evenodd"
         id="path204" />
    </clipPath>
    <clipPath
       clipPathUnits="userSpaceOnUse"
       id="clipPath205">
      <path
         d="M 0,0 H 371.34 V 174.29 H 0 Z"
         transform="matrix(1.3322828,9.746204e-8,-5.17752e-8,-1.3311184,149.68,544.08)"
         id="path205" />
    </clipPath>
    <clipPath
       clipPathUnits="userSpaceOnUse"
       id="clipPath206">
      <path
         d="m 0.16167,0.12889 h 371.05 v 174 h -371.05 z"
         transform="matrix(1,0,0,-0.99999997,-54.097003,120.95)"
         clip-rule="evenodd"
         id="path206" />
    </clipPath>
    <clipPath
       clipPathUnits="userSpaceOnUse"
       id="clipPath207">
      <path
         d="M 0,0 H 371.34 V 174.29 H 0 Z"
         transform="matrix(1.3322828,9.746204e-8,-5.17752e-8,-1.3311184,149.68,544.08)"
         id="path207" />
    </clipPath>
    <clipPath
       clipPathUnits="userSpaceOnUse"
       id="clipPath208">
      <path
         d="M 0.16165,174.13 H 371.21 V 0.12892 H 0.16164"
         clip-rule="evenodd"
         id="path208" />
    </clipPath>
    <clipPath
       clipPathUnits="userSpaceOnUse"
       id="clipPath209">
      <path
         d="M 0,0 H 371.34 V 174.29 H 0 Z"
         transform="matrix(1.3322828,9.746204e-8,-5.17752e-8,-1.3311184,149.68,544.08)"
         id="path209" />
    </clipPath>
    <clipPath
       clipPathUnits="userSpaceOnUse"
       id="clipPath210">
      <path
         d="m 0.16167,0.12889 h 371.05 v 174 h -371.05 z"
         transform="matrix(1,0,0,-0.99999997,-309.28,113.58999)"
         clip-rule="evenodd"
         id="path210" />
    </clipPath>
    <clipPath
       clipPathUnits="userSpaceOnUse"
       id="clipPath211">
      <path
         d="M 0,0 H 371.34 V 174.29 H 0 Z"
         transform="matrix(1.3322828,9.746204e-8,-5.17752e-8,-1.3311184,149.68,544.08)"
         id="path211" />
    </clipPath>
    <clipPath
       clipPathUnits="userSpaceOnUse"
       id="clipPath212">
      <path
         d="m 0.16167,0.12889 h 371.05 v 174 h -371.05 z"
         transform="matrix(1,0,0,-0.99999997,-314.62001,112.42)"
         clip-rule="evenodd"
         id="path212" />
    </clipPath>
    <clipPath
       clipPathUnits="userSpaceOnUse"
       id="clipPath213">
      <path
         d="M 0,0 H 371.34 V 174.29 H 0 Z"
         transform="matrix(1.3322828,9.746204e-8,-5.17752e-8,-1.3311184,149.68,544.08)"
         id="path213" />
    </clipPath>
    <clipPath
       clipPathUnits="userSpaceOnUse"
       id="clipPath214">
      <path
         d="m 0.16167,0.12889 h 371.05 v 174 h -371.05 z"
         transform="matrix(1,0,0,-0.99999997,-238.79,112.27)"
         clip-rule="evenodd"
         id="path214" />
    </clipPath>
    <clipPath
       clipPathUnits="userSpaceOnUse"
       id="clipPath215">
      <path
         d="M 0,0 H 371.34 V 174.29 H 0 Z"
         transform="matrix(1.3322828,9.746204e-8,-5.17752e-8,-1.3311184,149.68,544.08)"
         id="path215" />
    </clipPath>
    <clipPath
       clipPathUnits="userSpaceOnUse"
       id="clipPath216">
      <path
         d="m 0.16167,0.12889 h 371.05 v 174 h -371.05 z"
         transform="matrix(1,0,0,-0.99999997,-244.13,111.13)"
         clip-rule="evenodd"
         id="path216" />
    </clipPath>
    <clipPath
       clipPathUnits="userSpaceOnUse"
       id="clipPath217">
      <path
         d="M 0,0 H 371.34 V 174.29 H 0 Z"
         transform="matrix(1.3322828,9.746204e-8,-5.17752e-8,-1.3311184,149.68,544.08)"
         id="path217" />
    </clipPath>
    <clipPath
       clipPathUnits="userSpaceOnUse"
       id="clipPath218">
      <path
         d="M 0.16159,174.13 H 371.21 V 0.12895 L 0.16159,0.12894"
         clip-rule="evenodd"
         id="path218" />
    </clipPath>
    <clipPath
       clipPathUnits="userSpaceOnUse"
       id="clipPath219">
      <path
         d="M 0,0 H 371.34 V 174.29 H 0 Z"
         transform="matrix(1.3322828,9.746204e-8,-5.17752e-8,-1.3311184,149.68,544.08)"
         id="path219" />
    </clipPath>
    <clipPath
       clipPathUnits="userSpaceOnUse"
       id="clipPath255">
      <path
         d="M 0,0 H 595.32 V 842.04 H 0 Z"
         transform="matrix(1.3333333,0,0,-1.3333333,0,1122.72)"
         clip-rule="evenodd"
         id="path255" />
    </clipPath>
  </defs>
  <sodipodi:namedview
     id="namedview1"
     pagecolor="#ffffff"
     bordercolor="#000000"
     borderopacity="0.25"
     inkscape:showpageshadow="2"
     inkscape:pageopacity="0.0"
     inkscape:pagecheckerboard="0"
     inkscape:deskcolor="#d1d1d1"
     showgrid="false">
    <inkscape:page
       x="0"
       y="0"
       width="220.12222"
       height="220.43279"
       id="page2"
       margin="0"
       bleed="0" />
  </sodipodi:namedview>
  <g
     id="g1"
     inkscape:groupmode="layer"
     inkscape:label="39"
     transform="translate(-154.02017,-322.10354)">
    <g
       id="g150">
      <g
         id="g255"
         clip-path="url(#clipPath255)">
        <path
           d="m 320.63,79.237 c 0,23.483 -19.04,42.523 -42.52,42.523 -23.48,0 -42.52,-19.04 -42.52,-42.523 0,-23.483 19.04,-42.519 42.52,-42.519 23.48,0 42.52,19.036 42.52,42.519 z"
           style="fill:none;stroke:#000000;stroke-width:0.25;stroke-linecap:round;stroke-linejoin:round;stroke-miterlimit:10;stroke-dasharray:3.75, 2.25;stroke-dashoffset:0;stroke-opacity:1"
           transform="matrix(1.3322828,9.746204e-8,-5.17752e-8,-1.3311184,149.68,544.08)"
           clip-path="url(#clipPath151)"
           id="path220" />
        <path
           d="m 200.16,79.237 h 155.9"
           style="fill:none;stroke:#000000;stroke-width:0.25;stroke-linecap:round;stroke-linejoin:round;stroke-miterlimit:10;stroke-dasharray:none;stroke-opacity:1"
           transform="matrix(1.3322828,9.746204e-8,-5.17752e-8,-1.3311184,149.68,544.08)"
           clip-path="url(#clipPath152)"
           id="path221" />
        <g
           clip-path="url(#clipPath154)"
           id="g222">
          <path
             d="M 278.11,157.19 V 1.2847"
             style="fill:none;stroke:#000000;stroke-width:0.25;stroke-linecap:round;stroke-linejoin:round;stroke-miterlimit:10;stroke-dasharray:none;stroke-opacity:1"
             transform="matrix(1.3322828,9.746204e-8,-5.17752e-8,-1.3311184,149.68,544.08)"
             clip-path="url(#clipPath153)"
             id="path222" />
        </g>
        <g
           clip-path="url(#clipPath156)"
           id="g223">
          <text
             xml:space="preserve"
             transform="matrix(1.3322828,9.746204e-8,5.17752e-8,1.3311184,629.2352,441.87144)"
             clip-path="url(#clipPath155)"
             id="text222"><tspan
               style="font-style:italic;font-variant:normal;font-weight:normal;font-size:7.8947px;font-family:'Times New Roman';writing-mode:lr-tb;fill:#000000;fill-opacity:1;fill-rule:nonzero;stroke:none"
               x="0"
               y="0"
               id="tspan222">x</tspan></text>
        </g>
        <g
           clip-path="url(#clipPath158)"
           id="g224">
          <text
             xml:space="preserve"
             transform="matrix(1.3322828,9.746204e-8,5.17752e-8,1.3311184,633.99145,443.39158)"
             clip-path="url(#clipPath157)"
             id="text223"><tspan
               style="font-variant:normal;font-weight:normal;font-size:5.0526px;font-family:'Times New Roman';writing-mode:lr-tb;fill:#000000;fill-opacity:1;fill-rule:nonzero;stroke:none"
               x="0"
               y="0"
               id="tspan223">1</tspan></text>
        </g>
        <g
           clip-path="url(#clipPath160)"
           id="g225">
          <text
             xml:space="preserve"
             transform="matrix(1.3322828,9.746204e-8,5.17752e-8,1.3311184,516.25761,326.76164)"
             clip-path="url(#clipPath159)"
             id="text224"><tspan
               style="font-style:italic;font-variant:normal;font-weight:normal;font-size:7.919px;font-family:'Times New Roman';writing-mode:lr-tb;fill:#000000;fill-opacity:1;fill-rule:nonzero;stroke:none"
               x="0"
               y="0"
               id="tspan224">x</tspan></text>
        </g>
        <g
           clip-path="url(#clipPath162)"
           id="g226">
          <text
             xml:space="preserve"
             transform="matrix(1.3322828,9.746204e-8,5.17752e-8,1.3311184,520.98721,328.27912)"
             clip-path="url(#clipPath161)"
             id="text225"><tspan
               style="font-variant:normal;font-weight:normal;font-size:5.0769px;font-family:'Times New Roman';writing-mode:lr-tb;fill:#000000;fill-opacity:1;fill-rule:nonzero;stroke:none"
               x="0"
               y="0"
               id="tspan225">2</tspan></text>
        </g>
        <g
           clip-path="url(#clipPath164)"
           id="g227">
          <path
             d="m 278.11,79.237 25.04,25.033"
             style="fill:none;stroke:#0070c0;stroke-width:1.5;stroke-linecap:round;stroke-linejoin:round;stroke-miterlimit:10;stroke-dasharray:none;stroke-opacity:1"
             transform="matrix(1.3322828,9.746204e-8,-5.17752e-8,-1.3311184,149.68,544.08)"
             clip-path="url(#clipPath163)"
             id="path226" />
        </g>
        <g
           clip-path="url(#clipPath166)"
           id="g228">
          <path
             d="m 300.55,105.83 8.31,4.16 -4.15,-8.31 z"
             style="fill:#0070c0;fill-opacity:1;fill-rule:evenodd;stroke:none"
             transform="matrix(1.3322828,9.746204e-8,-5.17752e-8,-1.3311184,149.68,544.08)"
             clip-path="url(#clipPath165)"
             id="path227" />
        </g>
        <g
           clip-path="url(#clipPath168)"
           id="g229">
          <path
             d="M 278.11,79.237 253.07,104.27"
             style="fill:none;stroke:#ff0000;stroke-width:1.5;stroke-linecap:round;stroke-linejoin:round;stroke-miterlimit:10;stroke-dasharray:none;stroke-opacity:1"
             transform="matrix(1.3322828,9.746204e-8,-5.17752e-8,-1.3311184,149.68,544.08)"
             clip-path="url(#clipPath167)"
             id="path228" />
        </g>
        <g
           clip-path="url(#clipPath170)"
           id="g230">
          <path
             d="m 251.51,101.68 -4.15,8.31 8.31,-4.16 z"
             style="fill:#ff0000;fill-opacity:1;fill-rule:evenodd;stroke:none"
             transform="matrix(1.3322828,9.746204e-8,-5.17752e-8,-1.3311184,149.68,544.08)"
             clip-path="url(#clipPath169)"
             id="path229" />
        </g>
        <path
           d="m 123.86,79.237 c 0,23.483 -19.04,42.523 -42.525,42.523 -23.483,0 -42.519,-19.04 -42.519,-42.523 0,-23.483 19.036,-42.519 42.519,-42.519 23.485,0 42.525,19.036 42.525,42.519 z"
           style="fill:none;stroke:#000000;stroke-width:0.25;stroke-linecap:round;stroke-linejoin:round;stroke-miterlimit:10;stroke-dasharray:3.75, 2.25;stroke-dashoffset:0;stroke-opacity:1"
           transform="matrix(1.3322828,9.746204e-8,-5.17752e-8,-1.3311184,149.68,544.08)"
           clip-path="url(#clipPath171)"
           id="path230" />
        <path
           d="M 3.3827,79.237 H 159.29"
           style="fill:none;stroke:#000000;stroke-width:0.25;stroke-linecap:round;stroke-linejoin:round;stroke-miterlimit:10;stroke-dasharray:none;stroke-opacity:1"
           transform="matrix(1.3322828,9.746204e-8,-5.17752e-8,-1.3311184,149.68,544.08)"
           clip-path="url(#clipPath172)"
           id="path231" />
        <g
           clip-path="url(#clipPath174)"
           id="g232">
          <path
             d="M 81.335,157.19 V 1.2847"
             style="fill:none;stroke:#000000;stroke-width:0.25;stroke-linecap:round;stroke-linejoin:round;stroke-miterlimit:10;stroke-dasharray:none;stroke-opacity:1"
             transform="matrix(1.3322828,9.746204e-8,-5.17752e-8,-1.3311184,149.68,544.08)"
             clip-path="url(#clipPath173)"
             id="path232" />
        </g>
        <g
           clip-path="url(#clipPath176)"
           id="g233">
          <text
             xml:space="preserve"
             transform="matrix(1.3322828,9.746204e-8,5.17752e-8,1.3311184,366.8421,441.87142)"
             clip-path="url(#clipPath175)"
             id="text232"><tspan
               style="font-style:italic;font-variant:normal;font-weight:normal;font-size:7.8947px;font-family:'Times New Roman';writing-mode:lr-tb;fill:#000000;fill-opacity:1;fill-rule:nonzero;stroke:none"
               x="0"
               y="0"
               id="tspan232">x</tspan></text>
        </g>
        <g
           clip-path="url(#clipPath178)"
           id="g234">
          <text
             xml:space="preserve"
             transform="matrix(1.3322828,9.746204e-8,5.17752e-8,1.3311184,371.59835,443.39156)"
             clip-path="url(#clipPath177)"
             id="text233"><tspan
               style="font-variant:normal;font-weight:normal;font-size:5.0526px;font-family:'Times New Roman';writing-mode:lr-tb;fill:#000000;fill-opacity:1;fill-rule:nonzero;stroke:none"
               x="0"
               y="0"
               id="tspan233">1</tspan></text>
        </g>
        <g
           clip-path="url(#clipPath180)"
           id="g235">
          <text
             xml:space="preserve"
             transform="matrix(1.3322828,9.746204e-8,5.17752e-8,1.3311184,253.85651,326.76162)"
             clip-path="url(#clipPath179)"
             id="text234"><tspan
               style="font-style:italic;font-variant:normal;font-weight:normal;font-size:7.919px;font-family:'Times New Roman';writing-mode:lr-tb;fill:#000000;fill-opacity:1;fill-rule:nonzero;stroke:none"
               x="0"
               y="0"
               id="tspan234">x</tspan></text>
        </g>
        <g
           clip-path="url(#clipPath182)"
           id="g236">
          <text
             xml:space="preserve"
             transform="matrix(1.3322828,9.746204e-8,5.17752e-8,1.3311184,258.58212,328.2791)"
             clip-path="url(#clipPath181)"
             id="text235"><tspan
               style="font-variant:normal;font-weight:normal;font-size:5.0769px;font-family:'Times New Roman';writing-mode:lr-tb;fill:#000000;fill-opacity:1;fill-rule:nonzero;stroke:none"
               x="0"
               y="0"
               id="tspan235">2</tspan></text>
        </g>
        <g
           clip-path="url(#clipPath184)"
           id="g237">
          <path
             d="M 81.335,79.237 111.16,96.455"
             style="fill:none;stroke:#0070c0;stroke-width:1.5;stroke-linecap:round;stroke-linejoin:round;stroke-miterlimit:10;stroke-dasharray:none;stroke-opacity:1"
             transform="matrix(1.3322828,9.746204e-8,-5.17752e-8,-1.3311184,149.68,544.08)"
             clip-path="url(#clipPath183)"
             id="path236" />
        </g>
        <g
           clip-path="url(#clipPath186)"
           id="g238">
          <path
             d="m 109.05,98.633 9.11,1.867 -6.17,-6.959 z"
             style="fill:#0070c0;fill-opacity:1;fill-rule:evenodd;stroke:none"
             transform="matrix(1.3322828,9.746204e-8,-5.17752e-8,-1.3311184,149.68,544.08)"
             clip-path="url(#clipPath185)"
             id="path237" />
        </g>
        <g
           clip-path="url(#clipPath188)"
           id="g239">
          <text
             xml:space="preserve"
             transform="matrix(1.3322828,9.746204e-8,5.17752e-8,1.3311184,423.02446,330.54201)"
             clip-path="url(#clipPath187)"
             id="text238"><tspan
               style="font-variant:normal;font-weight:normal;font-size:7.8947px;font-family:'Times New Roman';writing-mode:lr-tb;fill:#000000;fill-opacity:1;fill-rule:nonzero;stroke:none"
               x="0"
               dx="0 -0.1026311 0.14999931"
               y="0"
               id="tspan238">(b)</tspan></text>
        </g>
        <g
           clip-path="url(#clipPath192)"
           id="g241">
          <path
             d="m 94.719,119.6 c 0.141,2.53 2.071,5.18 4.562,6.61 4.209,2.42 10.019,1.34 15.479,1.48 3.23,0.09 6.34,0.6 8.63,2.35 1.86,1.41 3.18,3.63 4.04,5.2"
             style="fill:none;stroke:#000000;stroke-width:0.25;stroke-linecap:round;stroke-linejoin:round;stroke-miterlimit:10;stroke-dasharray:none;stroke-opacity:1"
             transform="matrix(1.3322828,9.746204e-8,-5.17752e-8,-1.3311184,149.68,544.08)"
             clip-path="url(#clipPath191)"
             id="path240" />
        </g>
        <path
           d="m 116.09,134.92 h 42.52 c 3.91,0 7.09,3.17 7.09,7.09 0,3.91 -3.18,7.08 -7.09,7.08 h -42.52 c -3.91,0 -7.09,-3.17 -7.09,-7.08 0,-3.92 3.18,-7.09 7.09,-7.09 z"
           style="fill:#f2f2f2;fill-opacity:1;fill-rule:evenodd;stroke:#0099ff;stroke-width:1;stroke-linecap:round;stroke-linejoin:round;stroke-miterlimit:10;stroke-dasharray:none;stroke-opacity:1"
           transform="matrix(1.3322828,9.746204e-8,-5.17752e-8,-1.3311184,149.68,544.08)"
           clip-path="url(#clipPath193)"
           id="path241" />
        <g
           clip-path="url(#clipPath195)"
           id="g242">
          <text
             xml:space="preserve"
             transform="matrix(1.3322828,9.746204e-8,5.17752e-8,1.3311184,309.98026,358.16271)"
             clip-path="url(#clipPath194)"
             id="text241"><tspan
               style="font-variant:normal;font-weight:normal;font-size:7.8947px;font-family:'Times New Roman';writing-mode:lr-tb;fill:#000000;fill-opacity:1;fill-rule:nonzero;stroke:none"
               x="0"
               dx="0 0 0.157894 0 0.023684099 -0.078947 0.2763145 0 -0.086841702 -0.031578802"
               y="0"
               id="tspan241">Unit circle</tspan></text>
        </g>
        <g
           clip-path="url(#clipPath197)"
           id="g243">
          <path
             d="M 81.335,79.237 64.118,109.06"
             style="fill:none;stroke:#ff0000;stroke-width:1.5;stroke-linecap:round;stroke-linejoin:round;stroke-miterlimit:10;stroke-dasharray:none;stroke-opacity:1"
             transform="matrix(1.3322828,9.746204e-8,-5.17752e-8,-1.3311184,149.68,544.08)"
             clip-path="url(#clipPath196)"
             id="path242" />
        </g>
        <g
           clip-path="url(#clipPath199)"
           id="g244">
          <path
             d="m 61.939,106.95 -1.863,9.11 6.956,-6.17 z"
             style="fill:#ff0000;fill-opacity:1;fill-rule:evenodd;stroke:none"
             transform="matrix(1.3322828,9.746204e-8,-5.17752e-8,-1.3311184,149.68,544.08)"
             clip-path="url(#clipPath198)"
             id="path243" />
        </g>
        <g
           clip-path="url(#clipPath201)"
           id="g245">
          <text
             xml:space="preserve"
             transform="matrix(1.3322828,9.746204e-8,5.17752e-8,1.3311184,313.43088,413.06069)"
             clip-path="url(#clipPath200)"
             id="text244"><tspan
               style="font-style:italic;font-variant:normal;font-weight:700;font-size:7.919px;font-family:'Times New Roman';writing-mode:lr-tb;fill:#000000;fill-opacity:1;fill-rule:nonzero;stroke:none"
               x="0"
               y="0"
               id="tspan244">v</tspan></text>
        </g>
        <g
           clip-path="url(#clipPath203)"
           id="g246">
          <text
             xml:space="preserve"
             transform="matrix(1.3322828,9.746204e-8,5.17752e-8,1.3311184,318.16048,414.61278)"
             clip-path="url(#clipPath202)"
             id="text245"><tspan
               style="font-variant:normal;font-weight:normal;font-size:5.0526px;font-family:'Times New Roman';writing-mode:lr-tb;fill:#000000;fill-opacity:1;fill-rule:nonzero;stroke:none"
               x="0"
               y="0"
               id="tspan245">1</tspan></text>
        </g>
        <g
           clip-path="url(#clipPath205)"
           id="g247">
          <text
             xml:space="preserve"
             transform="matrix(1.3322828,9.746204e-8,5.17752e-8,1.3311184,217.02822,381.56376)"
             clip-path="url(#clipPath204)"
             id="text246"><tspan
               style="font-style:italic;font-variant:normal;font-weight:700;font-size:7.8947px;font-family:'Times New Roman';writing-mode:lr-tb;fill:#000000;fill-opacity:1;fill-rule:nonzero;stroke:none"
               x="0"
               y="0"
               id="tspan246">v</tspan></text>
        </g>
        <g
           clip-path="url(#clipPath207)"
           id="g248">
          <text
             xml:space="preserve"
             transform="matrix(1.3322828,9.746204e-8,5.17752e-8,1.3311184,221.7525,383.08124)"
             clip-path="url(#clipPath206)"
             id="text247"><tspan
               style="font-variant:normal;font-weight:normal;font-size:5.0526px;font-family:'Times New Roman';writing-mode:lr-tb;fill:#000000;fill-opacity:1;fill-rule:nonzero;stroke:none"
               x="0"
               y="0"
               id="tspan247">2</tspan></text>
        </g>
        <g
           clip-path="url(#clipPath209)"
           id="g249">
          <path
             d="m 76.405,88.932 9.819,5.669 5.67,-9.819"
             style="fill:none;stroke:#000000;stroke-width:0.25;stroke-linecap:round;stroke-linejoin:round;stroke-miterlimit:10;stroke-dasharray:none;stroke-opacity:1"
             transform="matrix(1.3322828,9.746204e-8,-5.17752e-8,-1.3311184,149.68,544.08)"
             clip-path="url(#clipPath208)"
             id="path248" />
        </g>
        <g
           clip-path="url(#clipPath211)"
           id="g250">
          <text
             xml:space="preserve"
             transform="matrix(1.3322828,9.746204e-8,5.17752e-8,1.3311184,561.72842,392.8783)"
             clip-path="url(#clipPath210)"
             id="text249"><tspan
               style="font-style:italic;font-variant:normal;font-weight:700;font-size:7.919px;font-family:'Times New Roman';writing-mode:lr-tb;fill:#000000;fill-opacity:1;fill-rule:nonzero;stroke:none"
               x="0"
               y="0"
               id="tspan249">w</tspan></text>
        </g>
        <g
           clip-path="url(#clipPath213)"
           id="g251">
          <text
             xml:space="preserve"
             transform="matrix(1.3322828,9.746204e-8,5.17752e-8,1.3311184,568.84282,394.4357)"
             clip-path="url(#clipPath212)"
             id="text250"><tspan
               style="font-variant:normal;font-weight:normal;font-size:5.0526px;font-family:'Times New Roman';writing-mode:lr-tb;fill:#000000;fill-opacity:1;fill-rule:nonzero;stroke:none"
               x="0"
               y="0"
               id="tspan250">1</tspan></text>
        </g>
        <g
           clip-path="url(#clipPath215)"
           id="g252">
          <text
             xml:space="preserve"
             transform="matrix(1.3322828,9.746204e-8,5.17752e-8,1.3311184,467.81581,394.63536)"
             clip-path="url(#clipPath214)"
             id="text251"><tspan
               style="font-style:italic;font-variant:normal;font-weight:700;font-size:7.8947px;font-family:'Times New Roman';writing-mode:lr-tb;fill:#000000;fill-opacity:1;fill-rule:nonzero;stroke:none"
               x="0"
               y="0"
               id="tspan251">w</tspan></text>
        </g>
        <g
           clip-path="url(#clipPath217)"
           id="g253">
          <text
             xml:space="preserve"
             transform="matrix(1.3322828,9.746204e-8,5.17752e-8,1.3311184,474.9302,396.15284)"
             clip-path="url(#clipPath216)"
             id="text252"><tspan
               style="font-variant:normal;font-weight:normal;font-size:5.0526px;font-family:'Times New Roman';writing-mode:lr-tb;fill:#000000;fill-opacity:1;fill-rule:nonzero;stroke:none"
               x="0"
               y="0"
               id="tspan252">2</tspan></text>
        </g>
        <g
           clip-path="url(#clipPath219)"
           id="g254">
          <path
             d="m 270.09,87.616 8.02,8.018 8.02,-8.018"
             style="fill:none;stroke:#000000;stroke-width:0.25;stroke-linecap:round;stroke-linejoin:round;stroke-miterlimit:10;stroke-dasharray:none;stroke-opacity:1"
             transform="matrix(1.3322828,9.746204e-8,-5.17752e-8,-1.3311184,149.68,544.08)"
             clip-path="url(#clipPath218)"
             id="path253" />
        </g>
      </g>
    </g>
  </g>
</svg>
