<?xml version="1.0" encoding="UTF-8" standalone="no"?>
<svg
   x="0"
   y="0"
   width="250"
   height="289.33334"
   style="fill:none"
   version="1.1"
   id="svg70"
   sodipodi:docname="Rectangular-Coordinates.svg"
   inkscape:version="1.4.4 (dcaf3e7, 2026-05-05)"
   xmlns:inkscape="http://www.inkscape.org/namespaces/inkscape"
   xmlns:sodipodi="http://sodipodi.sourceforge.net/DTD/sodipodi-0.dtd"
   xmlns="http://www.w3.org/2000/svg"
   xmlns:svg="http://www.w3.org/2000/svg">
  <defs
     id="defs70" />
  <sodipodi:namedview
     id="namedview70"
     pagecolor="#ffffff"
     bordercolor="#000000"
     borderopacity="0.25"
     inkscape:showpageshadow="2"
     inkscape:pageopacity="0.0"
     inkscape:pagecheckerboard="0"
     inkscape:deskcolor="#d1d1d1"
     inkscape:zoom="2.5541474"
     inkscape:cx="184.40596"
     inkscape:cy="175.98828"
     inkscape:window-width="1920"
     inkscape:window-height="974"
     inkscape:window-x="-11"
     inkscape:window-y="-11"
     inkscape:window-maximized="1"
     inkscape:current-layer="svg70" />
  <svg
     class="role-diagram-draw-area"
     version="1.1"
     id="svg44"
     width="100%"
     height="100%">
    <g
       class="shapes-region"
       style="fill:none;stroke:#000000"
       id="g41">
      <g
         class="composite-shape"
         data-amt="diagram/shapes/plot"
         transform="translate(19.5,35.078125)"
         id="g39">
        <g
           id="g38">
          <g
             id="g15">
            <g
               class="test-xgi"
               id="g7">
              <line
                 x1="9.8482924"
                 y1="0"
                 x2="9.8482924"
                 y2="184.95312"
                 fill="none"
                 stroke="#c3c3c3"
                 stroke-width="0.5"
                 id="line1" />
              <line
                 x1="38.07497"
                 y1="0"
                 x2="38.07497"
                 y2="184.95312"
                 fill="none"
                 stroke="#c3c3c3"
                 stroke-width="0.5"
                 id="line2" />
              <line
                 x1="66.301651"
                 y1="0"
                 x2="66.301651"
                 y2="184.95312"
                 fill="none"
                 stroke="#c3c3c3"
                 stroke-width="0.5"
                 id="line3" />
              <line
                 x1="94.528328"
                 y1="0"
                 x2="94.528328"
                 y2="184.95312"
                 fill="none"
                 stroke="#c3c3c3"
                 stroke-width="0.5"
                 id="line4" />
              <line
                 x1="122.75501"
                 y1="0"
                 x2="122.75501"
                 y2="184.95312"
                 fill="none"
                 stroke="#c3c3c3"
                 stroke-width="0.5"
                 id="line5" />
              <line
                 x1="150.98169"
                 y1="0"
                 x2="150.98169"
                 y2="184.95312"
                 fill="none"
                 stroke="#c3c3c3"
                 stroke-width="0.5"
                 id="line6" />
              <line
                 x1="179.20837"
                 y1="0"
                 x2="179.20837"
                 y2="184.95312"
                 fill="none"
                 stroke="#c3c3c3"
                 stroke-width="0.5"
                 id="line7" />
            </g>
            <g
               class="test-ygi"
               id="g14">
              <line
                 x1="0"
                 y1="179.96933"
                 x2="190.83331"
                 y2="179.96933"
                 fill="none"
                 stroke="#c3c3c3"
                 stroke-width="0.5"
                 id="line8" />
              <line
                 x1="0"
                 y1="151.74265"
                 x2="190.83331"
                 y2="151.74265"
                 fill="none"
                 stroke="#c3c3c3"
                 stroke-width="0.5"
                 id="line9" />
              <line
                 x1="0"
                 y1="123.51598"
                 x2="190.83331"
                 y2="123.51598"
                 fill="none"
                 stroke="#c3c3c3"
                 stroke-width="0.5"
                 id="line10" />
              <line
                 x1="0"
                 y1="95.289291"
                 x2="190.83331"
                 y2="95.289291"
                 fill="none"
                 stroke="#c3c3c3"
                 stroke-width="0.5"
                 id="line11" />
              <line
                 x1="0"
                 y1="67.062614"
                 x2="190.83331"
                 y2="67.062614"
                 fill="none"
                 stroke="#c3c3c3"
                 stroke-width="0.5"
                 id="line12" />
              <line
                 x1="0"
                 y1="38.835934"
                 x2="190.83331"
                 y2="38.835934"
                 fill="none"
                 stroke="#c3c3c3"
                 stroke-width="0.5"
                 id="line13" />
              <line
                 x1="0"
                 y1="10.609256"
                 x2="190.83331"
                 y2="10.609256"
                 fill="none"
                 stroke="#c3c3c3"
                 stroke-width="0.5"
                 id="line14" />
            </g>
          </g>
          <g
             id="g37">
            <g
               class="test-xti"
               style="font-family:Asana-Math, Asana"
               id="g21">
              <line
                 x1="0"
                 y1="95.289291"
                 x2="186.83331"
                 y2="95.289291"
                 fill="none"
                 stroke="#4a90e2"
                 stroke-opacity="1"
                 stroke-width="1"
                 id="line15" />
              <line
                 x1="9.8482924"
                 y1="91.289291"
                 x2="9.8482924"
                 y2="99.289291"
                 fill="none"
                 stroke="#4a90e2"
                 stroke-opacity="1"
                 stroke-width="1"
                 id="line16" />
              <line
                 x1="38.07497"
                 y1="91.289291"
                 x2="38.07497"
                 y2="99.289291"
                 fill="none"
                 stroke="#4a90e2"
                 stroke-opacity="1"
                 stroke-width="1"
                 id="line17" />
              <line
                 x1="66.301651"
                 y1="91.289291"
                 x2="66.301651"
                 y2="99.289291"
                 fill="none"
                 stroke="#4a90e2"
                 stroke-opacity="1"
                 stroke-width="1"
                 id="line18" />
              <line
                 x1="122.75501"
                 y1="91.289291"
                 x2="122.75501"
                 y2="99.289291"
                 fill="none"
                 stroke="#4a90e2"
                 stroke-opacity="1"
                 stroke-width="1"
                 id="line19" />
              <line
                 x1="150.98169"
                 y1="91.289291"
                 x2="150.98169"
                 y2="99.289291"
                 fill="none"
                 stroke="#4a90e2"
                 stroke-opacity="1"
                 stroke-width="1"
                 id="line20" />
              <line
                 x1="179.20837"
                 y1="91.289291"
                 x2="179.20837"
                 y2="99.289291"
                 fill="none"
                 stroke="#4a90e2"
                 stroke-opacity="1"
                 stroke-width="1"
                 id="line21" />
              <path
                 d="m 181.83331,91.689294 8,3.6 -8,3.6 z"
                 stroke="none"
                 stroke-width="1"
                 fill="#4a90e2"
                 fill-opacity="1"
                 id="path21" />
            </g>
            <g
               class="test-yti"
               style="font-family:Asana-Math, Asana"
               id="g28">
              <line
                 x1="94.528328"
                 y1="4"
                 x2="94.528328"
                 y2="184.95312"
                 fill="none"
                 stroke="#4a90e2"
                 stroke-opacity="1"
                 stroke-width="1"
                 id="line22" />
              <line
                 x1="90.528328"
                 y1="179.96933"
                 x2="98.528328"
                 y2="179.96933"
                 fill="none"
                 stroke="#4a90e2"
                 stroke-opacity="1"
                 stroke-width="1"
                 id="line23" />
              <line
                 x1="90.528328"
                 y1="151.74265"
                 x2="98.528328"
                 y2="151.74265"
                 fill="none"
                 stroke="#4a90e2"
                 stroke-opacity="1"
                 stroke-width="1"
                 id="line24" />
              <line
                 x1="90.528328"
                 y1="123.51598"
                 x2="98.528328"
                 y2="123.51598"
                 fill="none"
                 stroke="#4a90e2"
                 stroke-opacity="1"
                 stroke-width="1"
                 id="line25" />
              <line
                 x1="90.528328"
                 y1="67.062614"
                 x2="98.528328"
                 y2="67.062614"
                 fill="none"
                 stroke="#4a90e2"
                 stroke-opacity="1"
                 stroke-width="1"
                 id="line26" />
              <line
                 x1="90.528328"
                 y1="38.835934"
                 x2="98.528328"
                 y2="38.835934"
                 fill="none"
                 stroke="#4a90e2"
                 stroke-opacity="1"
                 stroke-width="1"
                 id="line27" />
              <line
                 x1="90.528328"
                 y1="10.609256"
                 x2="98.528328"
                 y2="10.609256"
                 fill="none"
                 stroke="#4a90e2"
                 stroke-opacity="1"
                 stroke-width="1"
                 id="line28" />
              <path
                 d="m 90.92833,9 3.6,-8 3.6,8 z"
                 stroke="none"
                 stroke-width="1"
                 fill="#4a90e2"
                 fill-opacity="1"
                 id="path28" />
            </g>
            <g
               class="test-plot-expression"
               id="g34">
              <defs
                 id="defs28">
                <clipPath
                   id="cpx3j6u1f0n">
                  <rect
                     x="1"
                     y="1"
                     width="188.83331"
                     height="182.95312"
                     id="rect28" />
                </clipPath>
              </defs>
              <g
                 clip-path="url(#cpx3j6u1f0n)"
                 id="g33">
                <g
                   id="g32">
                  <g
                     class="arrow-line"
                     id="g31">
                    <path
                       class="vector-plot real"
                       stroke-dasharray="none"
                       d="M 94.53,95.29 148.15,41.66"
                       style="stroke:#f5a623;stroke-width:2;stroke-opacity:1"
                       id="path29" />
                    <g
                       stroke="none"
                       fill="rgb(245,166,35)"
                       fill-opacity="1"
                       transform="rotate(135,67.447659,50.687299)"
                       style="fill:#f5a623;stroke:none;stroke-width:2"
                       id="g30">
                      <path
                         d="M 11.61,-5.58 0,0 11.61,5.58 Z"
                         id="path30" />
                    </g>
                  </g>
                </g>
              </g>
            </g>
            <g
               class="test-xtl"
               style="font-family:'Open Sans', verdana, arial, sans-serif"
               id="g35" />
            <g
               class="test-ytl"
               style="font-family:'Open Sans', verdana, arial, sans-serif"
               id="g36" />
            <rect
               class="real"
               x="1"
               y="1"
               width="188.83331"
               height="182.95312"
               style="stroke:none"
               id="rect36" />
          </g>
        </g>
      </g>
      <g
         id="g40" />
    </g>
    <!-- react-empty: 97717 -->
    <g
       id="g42" />
    <g
       id="g43" />
    <g
       id="g44" />
  </svg>
  <svg
     width="660"
     height="288"
     style="font-family:Asana-Math, Asana"
     version="1.1"
     id="svg69">
    <g
       id="g48">
      <g
         id="g47">
        <g
           id="g46">
          <g
             transform="translate(111.66669,29.000015)"
             id="g45">
            <path
               transform="scale(0.017,-0.017)"
               d="m -7,-180 c -1,-7 -1,-13 -1,-18 0,-43 37,-78 82,-78 106,0 216,124 275,309 l 141,440 -11,9 C 450,471 427,465 405,463 L 370,331 C 358,284 323,211 290,162 255,111 206,67 184,67 c -12,0 -21,23 -20,48 l 16,207 c 2,31 4,69 4,97 0,45 -7,63 -24,63 -13,0 -27,-7 -75,-40 L 3,386 14,368 64,398 c 5,3 16,12 25,12 14,0 22,-19 22,-52 0,-1 0,-7 -1,-15 L 93,100 92,60 c 0,-42 18,-71 43,-71 37,0 121,85 196,198 L 282,16 c -51,-177 -101,-250 -171,-250 -35,0 -62,27 -62,62 0,5 1,13 2,22 l -10,4 z"
               stroke="#4a90e2"
               stroke-opacity="1"
               stroke-width="8"
               fill="#4a90e2"
               fill-opacity="1"
               id="path44" />
          </g>
        </g>
      </g>
    </g>
    <g
       id="g52">
      <g
         id="g51">
        <g
           id="g50">
          <g
             transform="translate(215.66669,134.00002)"
             id="g49">
            <path
               transform="scale(0.017,-0.017)"
               d="m 9,1 c 15,-8 31,-12 43,-12 33,0 72,29 103,76 l 76,117 11,-69 c 13,-85 36,-124 72,-124 22,0 54,17 86,46 l 49,44 -9,19 C 404,68 379,53 363,53 c -15,0 -28,10 -38,30 -9,19 -20,56 -25,85 l -18,101 35,49 c 47,65 74,88 105,88 16,0 28,-8 33,-23 l 14,4 15,85 c -12,7 -21,10 -30,10 -40,0 -80,-36 -142,-128 l -37,-55 -6,48 c -12,99 -39,135 -98,135 -26,0 -48,-8 -57,-21 L 56,378 73,368 c 30,34 50,48 69,48 33,0 55,-41 72,-139 l 11,-62 -40,-62 C 142,86 108,54 80,54 65,54 54,58 52,63 L 41,91 21,88 C 21,53 13,27 9,1 Z"
               stroke="#4a90e2"
               stroke-opacity="1"
               stroke-width="8"
               fill="#4a90e2"
               fill-opacity="1"
               id="path48" />
          </g>
        </g>
      </g>
    </g>
    <g
       id="g55">
      <g
         id="g54">
        <g
           id="g53">
          <text
             x="29.666656"
             y="254.66667"
             style="font-style:normal;font-weight:400;font-size:15px;font-family:Arial, Helvetica, sans-serif;text-decoration:none;text-decoration-line:none;dominant-baseline:text-before-edge;white-space:pre;fill:#000000;fill-opacity:1;stroke:none"
             id="text52">Rectangular Coordinates</text>
        </g>
      </g>
    </g>
    <g
       id="g69">
      <g
         id="g68">
        <g
           id="g57">
          <g
             transform="translate(181.66669,79.000015)"
             id="g56">
            <path
               transform="scale(0.017,-0.017)"
               d="m 105,664 55,-2 c 24,-1 35,-9 35,-27 L 112,125 C 95,34 94,31 54,28 L 13,25 9,-3 51,-2 c 41,1 72,2 90,2 17,0 46,-1 86,-2 l 53,-1 3,28 -65,3 c -26,1 -36,9 -36,30 0,9 1,16 4,35 l 98,555 c 36,6 52,8 71,8 102,0 151,-44 151,-137 0,-108 -72,-196 -160,-196 -22,0 -42,5 -79,19 l 2,-31 c 37,-18 57,-23 86,-23 129,0 239,117 239,253 0,101 -63,154 -182,151 H 108 Z"
               stroke="#f5a623"
               stroke-opacity="1"
               stroke-width="8"
               fill="#f5a623"
               fill-opacity="1"
               id="path55" />
          </g>
        </g>
        <g
           id="g59">
          <g
             transform="translate(192.04169,79.666672)"
             id="g58">
            <path
               transform="scale(0.017,-0.017)"
               d="m 146,266 c 0,260 97,366 155,434 l -19,26 C 225,675 60,542 60,266 60,159 85,58 133,-32 c 35,-67 67,-106 149,-183 l 19,21 c -46,57 -155,179 -155,460 z"
               stroke="#f5a623"
               stroke-opacity="1"
               stroke-width="8"
               fill="#f5a623"
               fill-opacity="1"
               id="path57" />
          </g>
        </g>
        <g
           id="g61">
          <g
             transform="translate(197.6875,79.000015)"
             id="g60">
            <path
               transform="scale(0.017,-0.017)"
               d="m 9,1 c 15,-8 31,-12 43,-12 33,0 72,29 103,76 l 76,117 11,-69 c 13,-85 36,-124 72,-124 22,0 54,17 86,46 l 49,44 -9,19 C 404,68 379,53 363,53 c -15,0 -28,10 -38,30 -9,19 -20,56 -25,85 l -18,101 35,49 c 47,65 74,88 105,88 16,0 28,-8 33,-23 l 14,4 15,85 c -12,7 -21,10 -30,10 -40,0 -80,-36 -142,-128 l -37,-55 -6,48 c -12,99 -39,135 -98,135 -26,0 -48,-8 -57,-21 L 56,378 73,368 c 30,34 50,48 69,48 33,0 55,-41 72,-139 l 11,-62 -40,-62 C 142,86 108,54 80,54 65,54 54,58 52,63 L 41,91 21,88 C 21,53 13,27 9,1 Z"
               stroke="#f5a623"
               stroke-opacity="1"
               stroke-width="8"
               fill="#f5a623"
               fill-opacity="1"
               id="path59" />
          </g>
        </g>
        <g
           id="g63">
          <g
             transform="translate(206.17706,79.000015)"
             id="g62">
            <path
               transform="scale(0.017,-0.017)"
               d="M 204,123 C 177,114 159,108 106,93 99,17 74,-48 16,-144 l 14,-11 41,19 c 81,105 119,168 147,245 z"
               stroke="#f5a623"
               stroke-opacity="1"
               stroke-width="8"
               fill="#f5a623"
               fill-opacity="1"
               id="path61" />
          </g>
        </g>
        <g
           id="g65">
          <g
             transform="translate(213.8125,79.000015)"
             id="g64">
            <path
               transform="scale(0.017,-0.017)"
               d="m 242,-180 c -1,-7 -1,-13 -1,-18 0,-43 37,-78 82,-78 106,0 216,124 275,309 l 141,440 -11,9 C 699,471 676,465 654,463 L 619,331 C 607,284 572,211 539,162 504,111 455,67 433,67 c -12,0 -21,23 -20,48 l 16,207 c 2,31 4,69 4,97 0,45 -7,63 -24,63 -13,0 -27,-7 -75,-40 l -82,-56 11,-18 50,30 c 5,3 16,12 25,12 14,0 22,-19 22,-52 0,-1 0,-7 -1,-15 L 342,100 341,60 c 0,-42 18,-71 43,-71 37,0 121,85 196,198 L 531,16 c -51,-177 -101,-250 -171,-250 -35,0 -62,27 -62,62 0,5 1,13 2,22 l -10,4 z"
               stroke="#f5a623"
               stroke-opacity="1"
               stroke-width="8"
               fill="#f5a623"
               fill-opacity="1"
               id="path63" />
          </g>
        </g>
        <g
           id="g67">
          <g
             transform="translate(226.53125,79.666672)"
             id="g66">
            <path
               transform="scale(0.017,-0.017)"
               d="M 51,726 32,700 C 87,636 187,526 187,266 187,-10 83,-131 32,-194 l 19,-21 c 53,50 222,192 222,480 0,277 -165,410 -222,461 z"
               stroke="#f5a623"
               stroke-opacity="1"
               stroke-width="8"
               fill="#f5a623"
               fill-opacity="1"
               id="path65" />
          </g>
        </g>
      </g>
    </g>
  </svg>
</svg>
