<?xml version="1.0" encoding="UTF-8" standalone="no"?>
<svg
   x="0"
   y="0"
   width="750"
   height="581.66669"
   style="fill:none"
   version="1.1"
   id="svg123"
   sodipodi:docname="RNN_types.svg"
   inkscape:version="1.4.2 (f4327f4, 2025-05-13)"
   xmlns:inkscape="http://www.inkscape.org/namespaces/inkscape"
   xmlns:sodipodi="http://sodipodi.sourceforge.net/DTD/sodipodi-0.dtd"
   xmlns="http://www.w3.org/2000/svg"
   xmlns:svg="http://www.w3.org/2000/svg">
  <defs
     id="defs123" />
  <sodipodi:namedview
     id="namedview123"
     pagecolor="#ffffff"
     bordercolor="#000000"
     borderopacity="0.25"
     inkscape:showpageshadow="2"
     inkscape:pageopacity="0.0"
     inkscape:pagecheckerboard="0"
     inkscape:deskcolor="#d1d1d1"
     inkscape:zoom="1.2704871"
     inkscape:cx="480.91792"
     inkscape:cy="290.83334"
     inkscape:window-width="1920"
     inkscape:window-height="974"
     inkscape:window-x="-11"
     inkscape:window-y="-11"
     inkscape:window-maximized="1"
     inkscape:current-layer="svg123" />
  <svg
     version="1.1"
     id="svg1"
     width="100%"
     height="100%" />
  <svg
     class="role-diagram-draw-area"
     version="1.1"
     id="svg107"
     width="100%"
     height="100%">
    <g
       class="shapes-region"
       style="fill:none;stroke:#000000"
       id="g104">
      <g
         class="composite-shape"
         id="g1">
        <path
           class="real"
           d="m 65.39,254.22 c -9.71,0.01 -17.61,-7.85 -17.62,-17.57 -0.02,-9.72 7.84,-17.61 17.56,-17.63 9.72,-0.02 17.61,7.85 17.63,17.57 0.02,9.72 -7.85,17.61 -17.57,17.63 z"
           style="fill:#4a90e2;fill-opacity:0.3;stroke:#4a90e2;stroke-width:2;stroke-opacity:1"
           id="path1" />
      </g>
      <g
         class="composite-shape"
         id="g2">
        <path
           class="real"
           d="m 44.33,153.3 c 0,-4.02 3.26,-7.28 7.28,-7.28 h 26.21 c 4.02,0 7.28,3.26 7.28,7.28 v 21.83 c 0,4.02 -3.26,7.28 -7.28,7.28 H 51.61 c -4.02,0 -7.28,-3.26 -7.28,-7.28 z"
           style="fill:#f5a623;fill-opacity:0.3;stroke:#f5a623;stroke-width:2;stroke-opacity:1"
           id="path2" />
      </g>
      <g
         class="composite-shape"
         id="g3">
        <path
           class="real"
           d="m 46.74,91.42 c 0,-9.72 7.87,-17.59 17.59,-17.59 9.72,0 17.6,7.87 17.6,17.59 0,9.72 -7.88,17.6 -17.6,17.6 -9.72,0 -17.59,-7.88 -17.59,-17.6 z"
           style="fill:#d0021b;fill-opacity:0.3;stroke:#d0021b;stroke-width:2;stroke-opacity:1"
           id="path3" />
      </g>
      <g
         class="arrow-line"
         id="g6">
        <path
           class="connection real"
           stroke-dasharray="none"
           d="M 64.33,146.41 V 113.02"
           style="fill:none;fill-opacity:1;stroke:#d0021b;stroke-width:2;stroke-opacity:1"
           id="path4" />
        <g
           stroke="none"
           fill="rgb(208,2,27)"
           fill-opacity="1"
           transform="rotate(90,-22.343758,86.677071)"
           style="fill:#d0021b;stroke:none;stroke-width:2"
           id="g5">
          <path
             d="M 11.61,-5.58 0,0 11.61,5.58 Z"
             id="path5" />
        </g>
      </g>
      <g
         class="arrow-line"
         id="g8">
        <path
           class="connection real"
           stroke-dasharray="none"
           d="M 65.33,219.02 65,186.98"
           style="fill:none;fill-opacity:1;stroke:#4a90e2;stroke-width:2;stroke-opacity:1"
           id="path6" />
        <g
           stroke="none"
           fill="rgb(74,144,226)"
           fill-opacity="1"
           transform="rotate(89.41,-59.954911,124.30439)"
           style="fill:#4a90e2;stroke:none;stroke-width:2"
           id="g7">
          <path
             d="M 11.61,-5.58 0,0 11.61,5.58 Z"
             id="path7" />
        </g>
      </g>
      <g
         class="composite-shape"
         id="g9">
        <path
           class="real"
           d="m 205.39,254.22 c -9.71,0.01 -17.61,-7.85 -17.62,-17.57 -0.02,-9.72 7.84,-17.61 17.56,-17.63 9.72,-0.02 17.61,7.85 17.63,17.57 0.02,9.72 -7.85,17.61 -17.57,17.63 z"
           style="fill:#4a90e2;fill-opacity:0.3;stroke:#4a90e2;stroke-width:2;stroke-opacity:1"
           id="path8" />
      </g>
      <g
         class="composite-shape"
         id="g10">
        <path
           class="real"
           d="m 184.33,153.3 c 0,-4.02 3.26,-7.28 7.28,-7.28 h 26.21 c 4.02,0 7.28,3.26 7.28,7.28 v 21.83 c 0,4.02 -3.26,7.28 -7.28,7.28 h -26.21 c -4.02,0 -7.28,-3.26 -7.28,-7.28 z"
           style="fill:#f5a623;fill-opacity:0.3;stroke:#f5a623;stroke-width:2;stroke-opacity:1"
           id="path9" />
      </g>
      <g
         class="composite-shape"
         id="g11">
        <path
           class="real"
           d="m 186.74,91.42 c 0,-9.72 7.87,-17.59 17.59,-17.59 9.72,0 17.6,7.87 17.6,17.59 0,9.72 -7.88,17.6 -17.6,17.6 -9.72,0 -17.59,-7.88 -17.59,-17.6 z"
           style="fill:#d0021b;fill-opacity:0.3;stroke:#d0021b;stroke-width:2;stroke-opacity:1"
           id="path10" />
      </g>
      <g
         class="arrow-line"
         id="g13">
        <path
           class="connection real"
           stroke-dasharray="none"
           d="M 204.33,146.41 V 113.02"
           style="fill:none;fill-opacity:1;stroke:#d0021b;stroke-width:2;stroke-opacity:1"
           id="path11" />
        <g
           stroke="none"
           fill="rgb(208,2,27)"
           fill-opacity="1"
           transform="rotate(90,47.656242,156.67707)"
           style="fill:#d0021b;stroke:none;stroke-width:2"
           id="g12">
          <path
             d="M 11.61,-5.58 0,0 11.61,5.58 Z"
             id="path12" />
        </g>
      </g>
      <g
         class="arrow-line"
         id="g15">
        <path
           class="connection real"
           stroke-dasharray="none"
           d="M 205.33,219.02 205,186.98"
           style="fill:none;fill-opacity:1;stroke:#4a90e2;stroke-width:2;stroke-opacity:1"
           id="path13" />
        <g
           stroke="none"
           fill="rgb(74,144,226)"
           fill-opacity="1"
           transform="rotate(89.41,10.045089,195.02894)"
           style="fill:#4a90e2;stroke:none;stroke-width:2"
           id="g14">
          <path
             d="M 11.61,-5.58 0,0 11.61,5.58 Z"
             id="path14" />
        </g>
      </g>
      <g
         class="arrow-line"
         id="g17">
        <path
           class="connection real"
           stroke-dasharray="none"
           d="m 226.33,163.02 h 27"
           style="fill:none;fill-opacity:1;stroke:#f5a623;stroke-width:2;stroke-opacity:1"
           id="path15" />
        <g
           stroke="none"
           fill="rgb(245,166,35)"
           fill-opacity="1"
           transform="rotate(180,128.66666,81.510414)"
           style="fill:#f5a623;stroke:none;stroke-width:2"
           id="g16">
          <path
             d="M 11.61,-5.58 0,0 11.61,5.58 Z"
             id="path16" />
        </g>
      </g>
      <g
         class="composite-shape"
         id="g18">
        <path
           class="real"
           d="m 258.33,152.3 c 0,-4.02 3.26,-7.28 7.28,-7.28 h 26.21 c 4.02,0 7.28,3.26 7.28,7.28 v 21.83 c 0,4.02 -3.26,7.28 -7.28,7.28 h -26.21 c -4.02,0 -7.28,-3.26 -7.28,-7.28 z"
           style="fill:#f5a623;fill-opacity:0.3;stroke:#f5a623;stroke-width:2;stroke-opacity:1"
           id="path17" />
      </g>
      <g
         class="composite-shape"
         id="g19">
        <path
           class="real"
           d="m 260.74,90.42 c 0,-9.72 7.87,-17.59 17.59,-17.59 9.72,0 17.6,7.87 17.6,17.59 0,9.72 -7.88,17.6 -17.6,17.6 -9.72,0 -17.59,-7.88 -17.59,-17.6 z"
           style="fill:#d0021b;fill-opacity:0.3;stroke:#d0021b;stroke-width:2;stroke-opacity:1"
           id="path18" />
      </g>
      <g
         class="arrow-line"
         id="g21">
        <path
           class="connection real"
           stroke-dasharray="none"
           d="M 278.33,145.41 V 112.02"
           style="fill:none;fill-opacity:1;stroke:#d0021b;stroke-width:2;stroke-opacity:1"
           id="path19" />
        <g
           stroke="none"
           fill="rgb(208,2,27)"
           fill-opacity="1"
           transform="rotate(90,85.156242,193.17707)"
           style="fill:#d0021b;stroke:none;stroke-width:2"
           id="g20">
          <path
             d="M 11.61,-5.58 0,0 11.61,5.58 Z"
             id="path20" />
        </g>
      </g>
      <g
         class="arrow-line"
         id="g23">
        <path
           class="connection real"
           stroke-dasharray="none"
           d="m 300.33,162.02 h 27"
           style="fill:none;fill-opacity:1;stroke:#f5a623;stroke-width:2;stroke-opacity:1"
           id="path21" />
        <g
           stroke="none"
           fill="rgb(245,166,35)"
           fill-opacity="1"
           transform="rotate(180,165.66666,81.010414)"
           style="fill:#f5a623;stroke:none;stroke-width:2"
           id="g22">
          <path
             d="M 11.61,-5.58 0,0 11.61,5.58 Z"
             id="path22" />
        </g>
      </g>
      <g
         class="composite-shape"
         id="g24">
        <path
           class="real"
           d="m 331.33,150.3 c 0,-4.02 3.26,-7.28 7.28,-7.28 h 26.21 c 4.02,0 7.28,3.26 7.28,7.28 v 21.83 c 0,4.02 -3.26,7.28 -7.28,7.28 h -26.21 c -4.02,0 -7.28,-3.26 -7.28,-7.28 z"
           style="fill:#f5a623;fill-opacity:0.3;stroke:#f5a623;stroke-width:2;stroke-opacity:1"
           id="path23" />
      </g>
      <g
         class="composite-shape"
         id="g25">
        <path
           class="real"
           d="m 333.74,88.42 c 0,-9.72 7.87,-17.59 17.59,-17.59 9.72,0 17.6,7.87 17.6,17.59 0,9.72 -7.88,17.6 -17.6,17.6 -9.72,0 -17.59,-7.88 -17.59,-17.6 z"
           style="fill:#d0021b;fill-opacity:0.3;stroke:#d0021b;stroke-width:2;stroke-opacity:1"
           id="path24" />
      </g>
      <g
         class="arrow-line"
         id="g27">
        <path
           class="connection real"
           stroke-dasharray="none"
           d="M 351.33,143.41 V 110.02"
           style="fill:none;fill-opacity:1;stroke:#d0021b;stroke-width:2;stroke-opacity:1"
           id="path25" />
        <g
           stroke="none"
           fill="rgb(208,2,27)"
           fill-opacity="1"
           transform="rotate(90,122.65624,228.67707)"
           style="fill:#d0021b;stroke:none;stroke-width:2"
           id="g26">
          <path
             d="M 11.61,-5.58 0,0 11.61,5.58 Z"
             id="path26" />
        </g>
      </g>
      <g
         class="composite-shape"
         id="g28">
        <path
           class="real"
           d="m 479.39,252.22 c -9.71,0.01 -17.61,-7.85 -17.62,-17.57 -0.02,-9.72 7.84,-17.61 17.56,-17.63 9.72,-0.02 17.61,7.85 17.63,17.57 0.02,9.72 -7.85,17.61 -17.57,17.63 z"
           style="fill:#4a90e2;fill-opacity:0.3;stroke:#4a90e2;stroke-width:2;stroke-opacity:1"
           id="path27" />
      </g>
      <g
         class="composite-shape"
         id="g29">
        <path
           class="real"
           d="m 458.33,151.3 c 0,-4.02 3.26,-7.28 7.28,-7.28 h 26.21 c 4.02,0 7.28,3.26 7.28,7.28 v 21.83 c 0,4.02 -3.26,7.28 -7.28,7.28 h -26.21 c -4.02,0 -7.28,-3.26 -7.28,-7.28 z"
           style="fill:#f5a623;fill-opacity:0.3;stroke:#f5a623;stroke-width:2;stroke-opacity:1"
           id="path28" />
      </g>
      <g
         class="arrow-line"
         id="g31">
        <path
           class="connection real"
           stroke-dasharray="none"
           d="M 479.33,217.02 479,184.98"
           style="fill:none;fill-opacity:1;stroke:#4a90e2;stroke-width:2;stroke-opacity:1"
           id="path29" />
        <g
           stroke="none"
           fill="rgb(74,144,226)"
           fill-opacity="1"
           transform="rotate(89.41,148.05544,332.44701)"
           style="fill:#4a90e2;stroke:none;stroke-width:2"
           id="g30">
          <path
             d="M 11.61,-5.58 0,0 11.61,5.58 Z"
             id="path30" />
        </g>
      </g>
      <g
         class="arrow-line"
         id="g33">
        <path
           class="connection real"
           stroke-dasharray="none"
           d="m 500.33,161.02 h 27"
           style="fill:none;fill-opacity:1;stroke:#f5a623;stroke-width:2;stroke-opacity:1"
           id="path31" />
        <g
           stroke="none"
           fill="rgb(245,166,35)"
           fill-opacity="1"
           transform="rotate(180,265.66666,80.510414)"
           style="fill:#f5a623;stroke:none;stroke-width:2"
           id="g32">
          <path
             d="M 11.61,-5.58 0,0 11.61,5.58 Z"
             id="path32" />
        </g>
      </g>
      <g
         class="composite-shape"
         id="g34">
        <path
           class="real"
           d="m 532.33,150.3 c 0,-4.02 3.26,-7.28 7.28,-7.28 h 26.21 c 4.02,0 7.28,3.26 7.28,7.28 v 21.83 c 0,4.02 -3.26,7.28 -7.28,7.28 h -26.21 c -4.02,0 -7.28,-3.26 -7.28,-7.28 z"
           style="fill:#f5a623;fill-opacity:0.3;stroke:#f5a623;stroke-width:2;stroke-opacity:1"
           id="path33" />
      </g>
      <g
         class="arrow-line"
         id="g36">
        <path
           class="connection real"
           stroke-dasharray="none"
           d="m 574.33,160.02 h 27"
           style="fill:none;fill-opacity:1;stroke:#f5a623;stroke-width:2;stroke-opacity:1"
           id="path34" />
        <g
           stroke="none"
           fill="rgb(245,166,35)"
           fill-opacity="1"
           transform="rotate(180,302.66666,80.010414)"
           style="fill:#f5a623;stroke:none;stroke-width:2"
           id="g35">
          <path
             d="M 11.61,-5.58 0,0 11.61,5.58 Z"
             id="path35" />
        </g>
      </g>
      <g
         class="composite-shape"
         id="g37">
        <path
           class="real"
           d="m 605.33,148.3 c 0,-4.02 3.26,-7.28 7.28,-7.28 h 26.21 c 4.02,0 7.28,3.26 7.28,7.28 v 21.83 c 0,4.02 -3.26,7.28 -7.28,7.28 h -26.21 c -4.02,0 -7.28,-3.26 -7.28,-7.28 z"
           style="fill:#f5a623;fill-opacity:0.3;stroke:#f5a623;stroke-width:2;stroke-opacity:1"
           id="path36" />
      </g>
      <g
         class="composite-shape"
         id="g38">
        <path
           class="real"
           d="m 607.74,86.42 c 0,-9.72 7.87,-17.59 17.59,-17.59 9.72,0 17.6,7.87 17.6,17.59 0,9.72 -7.88,17.6 -17.6,17.6 -9.72,0 -17.59,-7.88 -17.59,-17.6 z"
           style="fill:#d0021b;fill-opacity:0.3;stroke:#d0021b;stroke-width:2;stroke-opacity:1"
           id="path37" />
      </g>
      <g
         class="arrow-line"
         id="g40">
        <path
           class="connection real"
           stroke-dasharray="none"
           d="M 625.33,141.41 V 108.02"
           style="fill:none;fill-opacity:1;stroke:#d0021b;stroke-width:2;stroke-opacity:1"
           id="path38" />
        <g
           stroke="none"
           fill="rgb(208,2,27)"
           fill-opacity="1"
           transform="rotate(90,260.65624,364.67707)"
           style="fill:#d0021b;stroke:none;stroke-width:2"
           id="g39">
          <path
             d="M 11.61,-5.58 0,0 11.61,5.58 Z"
             id="path39" />
        </g>
      </g>
      <g
         class="composite-shape"
         id="g41">
        <path
           class="real"
           d="m 555.39,251.22 c -9.71,0.01 -17.61,-7.85 -17.62,-17.57 -0.02,-9.72 7.84,-17.61 17.56,-17.63 9.72,-0.02 17.61,7.85 17.63,17.57 0.02,9.72 -7.85,17.61 -17.57,17.63 z"
           style="fill:#4a90e2;fill-opacity:0.3;stroke:#4a90e2;stroke-width:2;stroke-opacity:1"
           id="path40" />
      </g>
      <g
         class="arrow-line"
         id="g43">
        <path
           class="connection real"
           stroke-dasharray="none"
           d="M 555.33,216.02 555,183.98"
           style="fill:none;fill-opacity:1;stroke:#4a90e2;stroke-width:2;stroke-opacity:1"
           id="path41" />
        <g
           stroke="none"
           fill="rgb(74,144,226)"
           fill-opacity="1"
           transform="rotate(89.41,186.56061,370.34034)"
           style="fill:#4a90e2;stroke:none;stroke-width:2"
           id="g42">
          <path
             d="M 11.61,-5.58 0,0 11.61,5.58 Z"
             id="path42" />
        </g>
      </g>
      <g
         class="composite-shape"
         id="g44">
        <path
           class="real"
           d="m 628.39,249.22 c -9.71,0.01 -17.61,-7.85 -17.62,-17.57 -0.02,-9.72 7.84,-17.61 17.56,-17.63 9.72,-0.02 17.61,7.85 17.63,17.57 0.02,9.72 -7.85,17.61 -17.57,17.63 z"
           style="fill:#4a90e2;fill-opacity:0.3;stroke:#4a90e2;stroke-width:2;stroke-opacity:1"
           id="path43" />
      </g>
      <g
         class="arrow-line"
         id="g46">
        <path
           class="connection real"
           stroke-dasharray="none"
           d="M 628.33,214.02 628,181.98"
           style="fill:none;fill-opacity:1;stroke:#4a90e2;stroke-width:2;stroke-opacity:1"
           id="path44" />
        <g
           stroke="none"
           fill="rgb(74,144,226)"
           fill-opacity="1"
           transform="rotate(89.41,224.07097,406.21814)"
           style="fill:#4a90e2;stroke:none;stroke-width:2"
           id="g45">
          <path
             d="M 11.61,-5.58 0,0 11.61,5.58 Z"
             id="path45" />
        </g>
      </g>
      <g
         class="composite-shape"
         id="g47">
        <path
           class="real"
           d="m 48.33,445.32 c 0,-4.02 3.26,-7.28 7.28,-7.28 h 26.21 c 4.02,0 7.28,3.26 7.28,7.28 v 21.83 c 0,4.02 -3.26,7.28 -7.28,7.28 H 55.61 c -4.02,0 -7.28,-3.26 -7.28,-7.28 z"
           style="fill:#f5a623;fill-opacity:0.3;stroke:#f5a623;stroke-width:2;stroke-opacity:1"
           id="path46" />
      </g>
      <g
         class="composite-shape"
         id="g48">
        <path
           class="real"
           d="m 50.74,383.44 c 0,-9.71 7.87,-17.59 17.59,-17.59 9.72,0 17.6,7.88 17.6,17.59 0,9.72 -7.88,17.6 -17.6,17.6 -9.72,0 -17.59,-7.88 -17.59,-17.6 z"
           style="fill:#d0021b;fill-opacity:0.3;stroke:#d0021b;stroke-width:2;stroke-opacity:1"
           id="path47" />
      </g>
      <g
         class="arrow-line"
         id="g50">
        <path
           class="connection real"
           stroke-dasharray="none"
           d="M 68.33,438.43 V 405.04"
           style="fill:none;fill-opacity:1;stroke:#d0021b;stroke-width:2;stroke-opacity:1"
           id="path48" />
        <g
           stroke="none"
           fill="rgb(208,2,27)"
           fill-opacity="1"
           transform="rotate(90,-166.35418,234.68749)"
           style="fill:#d0021b;stroke:none;stroke-width:2"
           id="g49">
          <path
             d="M 11.61,-5.58 0,0 11.61,5.58 Z"
             id="path49" />
        </g>
      </g>
      <g
         class="arrow-line"
         id="g52">
        <path
           class="connection real"
           stroke-dasharray="none"
           d="m 90.33,455.04 h 27"
           style="fill:none;fill-opacity:1;stroke:#f5a623;stroke-width:2;stroke-opacity:1"
           id="path50" />
        <g
           stroke="none"
           fill="rgb(245,166,35)"
           fill-opacity="1"
           transform="rotate(180,60.666656,227.52083)"
           style="fill:#f5a623;stroke:none;stroke-width:2"
           id="g51">
          <path
             d="M 11.61,-5.58 0,0 11.61,5.58 Z"
             id="path51" />
        </g>
      </g>
      <g
         class="composite-shape"
         id="g53">
        <path
           class="real"
           d="m 122.33,444.32 c 0,-4.02 3.26,-7.28 7.28,-7.28 h 26.21 c 4.02,0 7.28,3.26 7.28,7.28 v 21.83 c 0,4.02 -3.26,7.28 -7.28,7.28 h -26.21 c -4.02,0 -7.28,-3.26 -7.28,-7.28 z"
           style="fill:#f5a623;fill-opacity:0.3;stroke:#f5a623;stroke-width:2;stroke-opacity:1"
           id="path52" />
      </g>
      <g
         class="composite-shape"
         id="g54">
        <path
           class="real"
           d="m 124.74,382.44 c 0,-9.71 7.87,-17.59 17.59,-17.59 9.72,0 17.6,7.88 17.6,17.59 0,9.72 -7.88,17.6 -17.6,17.6 -9.72,0 -17.59,-7.88 -17.59,-17.6 z"
           style="fill:#d0021b;fill-opacity:0.3;stroke:#d0021b;stroke-width:2;stroke-opacity:1"
           id="path53" />
      </g>
      <g
         class="arrow-line"
         id="g56">
        <path
           class="connection real"
           stroke-dasharray="none"
           d="M 142.33,437.43 V 404.04"
           style="fill:none;fill-opacity:1;stroke:#d0021b;stroke-width:2;stroke-opacity:1"
           id="path54" />
        <g
           stroke="none"
           fill="rgb(208,2,27)"
           fill-opacity="1"
           transform="rotate(90,-128.85418,271.18749)"
           style="fill:#d0021b;stroke:none;stroke-width:2"
           id="g55">
          <path
             d="M 11.61,-5.58 0,0 11.61,5.58 Z"
             id="path55" />
        </g>
      </g>
      <g
         class="arrow-line"
         id="g58">
        <path
           class="connection real"
           stroke-dasharray="none"
           d="m 164.33,454.04 h 27"
           style="fill:none;fill-opacity:1;stroke:#f5a623;stroke-width:2;stroke-opacity:1"
           id="path56" />
        <g
           stroke="none"
           fill="rgb(245,166,35)"
           fill-opacity="1"
           transform="rotate(180,97.666656,227.02083)"
           style="fill:#f5a623;stroke:none;stroke-width:2"
           id="g57">
          <path
             d="M 11.61,-5.58 0,0 11.61,5.58 Z"
             id="path57" />
        </g>
      </g>
      <g
         class="composite-shape"
         id="g59">
        <path
           class="real"
           d="m 195.33,442.32 c 0,-4.02 3.26,-7.28 7.28,-7.28 h 26.21 c 4.02,0 7.28,3.26 7.28,7.28 v 21.83 c 0,4.02 -3.26,7.28 -7.28,7.28 h -26.21 c -4.02,0 -7.28,-3.26 -7.28,-7.28 z"
           style="fill:#f5a623;fill-opacity:0.3;stroke:#f5a623;stroke-width:2;stroke-opacity:1"
           id="path58" />
      </g>
      <g
         class="composite-shape"
         id="g60">
        <path
           class="real"
           d="m 197.74,380.44 c 0,-9.71 7.87,-17.59 17.59,-17.59 9.72,0 17.6,7.88 17.6,17.59 0,9.72 -7.88,17.6 -17.6,17.6 -9.72,0 -17.59,-7.88 -17.59,-17.6 z"
           style="fill:#d0021b;fill-opacity:0.3;stroke:#d0021b;stroke-width:2;stroke-opacity:1"
           id="path59" />
      </g>
      <g
         class="arrow-line"
         id="g62">
        <path
           class="connection real"
           stroke-dasharray="none"
           d="M 215.33,435.43 V 402.04"
           style="fill:none;fill-opacity:1;stroke:#d0021b;stroke-width:2;stroke-opacity:1"
           id="path60" />
        <g
           stroke="none"
           fill="rgb(208,2,27)"
           fill-opacity="1"
           transform="rotate(90,-91.354176,306.68749)"
           style="fill:#d0021b;stroke:none;stroke-width:2"
           id="g61">
          <path
             d="M 11.61,-5.58 0,0 11.61,5.58 Z"
             id="path61" />
        </g>
      </g>
      <g
         class="composite-shape"
         id="g63">
        <path
           class="real"
           d="m 68.39,546.22 c -9.71,0.01 -17.61,-7.85 -17.62,-17.57 -0.02,-9.72 7.84,-17.61 17.56,-17.63 9.72,-0.02 17.61,7.85 17.63,17.57 0.02,9.72 -7.85,17.61 -17.57,17.63 z"
           style="fill:#4a90e2;fill-opacity:0.3;stroke:#4a90e2;stroke-width:2;stroke-opacity:1"
           id="path62" />
      </g>
      <g
         class="arrow-line"
         id="g65">
        <path
           class="connection real"
           stroke-dasharray="none"
           d="M 68.33,511.02 68,478.98"
           style="fill:none;fill-opacity:1;stroke:#4a90e2;stroke-width:2;stroke-opacity:1"
           id="path63" />
        <g
           stroke="none"
           fill="rgb(74,144,226)"
           fill-opacity="1"
           transform="rotate(89.41,-205.96613,271.81991)"
           style="fill:#4a90e2;stroke:none;stroke-width:2"
           id="g64">
          <path
             d="M 11.61,-5.58 0,0 11.61,5.58 Z"
             id="path64" />
        </g>
      </g>
      <g
         class="composite-shape"
         id="g66">
        <path
           class="real"
           d="m 144.39,545.22 c -9.71,0.01 -17.61,-7.85 -17.62,-17.57 -0.02,-9.72 7.84,-17.61 17.56,-17.63 9.72,-0.02 17.61,7.85 17.63,17.57 0.02,9.72 -7.85,17.61 -17.57,17.63 z"
           style="fill:#4a90e2;fill-opacity:0.3;stroke:#4a90e2;stroke-width:2;stroke-opacity:1"
           id="path65" />
      </g>
      <g
         class="arrow-line"
         id="g68">
        <path
           class="connection real"
           stroke-dasharray="none"
           d="M 144.33,510.02 144,477.98"
           style="fill:none;fill-opacity:1;stroke:#4a90e2;stroke-width:2;stroke-opacity:1"
           id="path66" />
        <g
           stroke="none"
           fill="rgb(74,144,226)"
           fill-opacity="1"
           transform="rotate(89.41,-167.46096,309.71324)"
           style="fill:#4a90e2;stroke:none;stroke-width:2"
           id="g67">
          <path
             d="M 11.61,-5.58 0,0 11.61,5.58 Z"
             id="path67" />
        </g>
      </g>
      <g
         class="composite-shape"
         id="g69">
        <path
           class="real"
           d="m 217.39,543.22 c -9.71,0.01 -17.61,-7.85 -17.62,-17.57 -0.02,-9.72 7.84,-17.61 17.56,-17.63 9.72,-0.02 17.61,7.85 17.63,17.57 0.02,9.72 -7.85,17.61 -17.57,17.63 z"
           style="fill:#4a90e2;fill-opacity:0.3;stroke:#4a90e2;stroke-width:2;stroke-opacity:1"
           id="path68" />
      </g>
      <g
         class="arrow-line"
         id="g71">
        <path
           class="connection real"
           stroke-dasharray="none"
           d="M 217.33,508.02 217,475.98"
           style="fill:none;fill-opacity:1;stroke:#4a90e2;stroke-width:2;stroke-opacity:1"
           id="path69" />
        <g
           stroke="none"
           fill="rgb(74,144,226)"
           fill-opacity="1"
           transform="rotate(89.41,-129.95061,345.59105)"
           style="fill:#4a90e2;stroke:none;stroke-width:2"
           id="g70">
          <path
             d="M 11.61,-5.58 0,0 11.61,5.58 Z"
             id="path70" />
        </g>
      </g>
      <g
         class="composite-shape"
         id="g72">
        <path
           class="real"
           d="m 315.33,441.32 c 0,-4.02 3.26,-7.28 7.28,-7.28 h 26.21 c 4.02,0 7.28,3.26 7.28,7.28 v 21.83 c 0,4.02 -3.26,7.28 -7.28,7.28 h -26.21 c -4.02,0 -7.28,-3.26 -7.28,-7.28 z"
           style="fill:#f5a623;fill-opacity:0.3;stroke:#f5a623;stroke-width:2;stroke-opacity:1"
           id="path71" />
      </g>
      <g
         class="arrow-line"
         id="g74">
        <path
           class="connection real"
           stroke-dasharray="none"
           d="m 357.33,451.04 h 27"
           style="fill:none;fill-opacity:1;stroke:#f5a623;stroke-width:2;stroke-opacity:1"
           id="path72" />
        <g
           stroke="none"
           fill="rgb(245,166,35)"
           fill-opacity="1"
           transform="rotate(180,194.16666,225.52083)"
           style="fill:#f5a623;stroke:none;stroke-width:2"
           id="g73">
          <path
             d="M 11.61,-5.58 0,0 11.61,5.58 Z"
             id="path73" />
        </g>
      </g>
      <g
         class="composite-shape"
         id="g75">
        <path
           class="real"
           d="m 389.33,440.32 c 0,-4.02 3.26,-7.28 7.28,-7.28 h 26.21 c 4.02,0 7.28,3.26 7.28,7.28 v 21.83 c 0,4.02 -3.26,7.28 -7.28,7.28 h -26.21 c -4.02,0 -7.28,-3.26 -7.28,-7.28 z"
           style="fill:#f5a623;fill-opacity:0.3;stroke:#f5a623;stroke-width:2;stroke-opacity:1"
           id="path74" />
      </g>
      <g
         class="arrow-line"
         id="g77">
        <path
           class="connection real"
           stroke-dasharray="none"
           d="m 431.33,450.04 h 27"
           style="fill:none;fill-opacity:1;stroke:#f5a623;stroke-width:2;stroke-opacity:1"
           id="path75" />
        <g
           stroke="none"
           fill="rgb(245,166,35)"
           fill-opacity="1"
           transform="rotate(180,231.16666,225.02083)"
           style="fill:#f5a623;stroke:none;stroke-width:2"
           id="g76">
          <path
             d="M 11.61,-5.58 0,0 11.61,5.58 Z"
             id="path76" />
        </g>
      </g>
      <g
         class="composite-shape"
         id="g78">
        <path
           class="real"
           d="m 462.33,438.32 c 0,-4.02 3.26,-7.28 7.28,-7.28 h 26.21 c 4.02,0 7.28,3.26 7.28,7.28 v 21.83 c 0,4.02 -3.26,7.28 -7.28,7.28 h -26.21 c -4.02,0 -7.28,-3.26 -7.28,-7.28 z"
           style="fill:#f5a623;fill-opacity:0.3;stroke:#f5a623;stroke-width:2;stroke-opacity:1"
           id="path77" />
      </g>
      <g
         class="composite-shape"
         id="g79">
        <path
           class="real"
           d="m 335.39,542.22 c -9.71,0.01 -17.61,-7.85 -17.62,-17.57 -0.02,-9.72 7.84,-17.61 17.56,-17.63 9.72,-0.02 17.61,7.85 17.63,17.57 0.02,9.72 -7.85,17.61 -17.57,17.63 z"
           style="fill:#4a90e2;fill-opacity:0.3;stroke:#4a90e2;stroke-width:2;stroke-opacity:1"
           id="path78" />
      </g>
      <g
         class="arrow-line"
         id="g81">
        <path
           class="connection real"
           stroke-dasharray="none"
           d="M 335.33,507.02 335,474.98"
           style="fill:none;fill-opacity:1;stroke:#4a90e2;stroke-width:2;stroke-opacity:1"
           id="path79" />
        <g
           stroke="none"
           fill="rgb(74,144,226)"
           fill-opacity="1"
           transform="rotate(89.41,-70.445431,404.70175)"
           style="fill:#4a90e2;stroke:none;stroke-width:2"
           id="g80">
          <path
             d="M 11.61,-5.58 0,0 11.61,5.58 Z"
             id="path80" />
        </g>
      </g>
      <g
         class="composite-shape"
         id="g82">
        <path
           class="real"
           d="m 411.39,541.22 c -9.71,0.01 -17.61,-7.85 -17.62,-17.57 -0.02,-9.72 7.84,-17.61 17.56,-17.63 9.72,-0.02 17.61,7.85 17.63,17.57 0.02,9.72 -7.85,17.61 -17.57,17.63 z"
           style="fill:#4a90e2;fill-opacity:0.3;stroke:#4a90e2;stroke-width:2;stroke-opacity:1"
           id="path81" />
      </g>
      <g
         class="arrow-line"
         id="g84">
        <path
           class="connection real"
           stroke-dasharray="none"
           d="M 411.33,506.02 411,473.98"
           style="fill:none;fill-opacity:1;stroke:#4a90e2;stroke-width:2;stroke-opacity:1"
           id="path82" />
        <g
           stroke="none"
           fill="rgb(74,144,226)"
           fill-opacity="1"
           transform="rotate(89.41,-31.940255,442.59508)"
           style="fill:#4a90e2;stroke:none;stroke-width:2"
           id="g83">
          <path
             d="M 11.61,-5.58 0,0 11.61,5.58 Z"
             id="path83" />
        </g>
      </g>
      <g
         class="composite-shape"
         id="g85">
        <path
           class="real"
           d="m 484.39,539.22 c -9.71,0.01 -17.61,-7.85 -17.62,-17.57 -0.02,-9.72 7.84,-17.61 17.56,-17.63 9.72,-0.02 17.61,7.85 17.63,17.57 0.02,9.72 -7.85,17.61 -17.57,17.63 z"
           style="fill:#4a90e2;fill-opacity:0.3;stroke:#4a90e2;stroke-width:2;stroke-opacity:1"
           id="path84" />
      </g>
      <g
         class="arrow-line"
         id="g87">
        <path
           class="connection real"
           stroke-dasharray="none"
           d="M 484.33,504.02 484,471.98"
           style="fill:none;fill-opacity:1;stroke:#4a90e2;stroke-width:2;stroke-opacity:1"
           id="path85" />
        <g
           stroke="none"
           fill="rgb(74,144,226)"
           fill-opacity="1"
           transform="rotate(89.41,5.5700956,478.47288)"
           style="fill:#4a90e2;stroke:none;stroke-width:2"
           id="g86">
          <path
             d="M 11.61,-5.58 0,0 11.61,5.58 Z"
             id="path86" />
        </g>
      </g>
      <g
         class="arrow-line"
         id="g89">
        <path
           class="connection real"
           stroke-dasharray="none"
           d="m 504.33,450.04 h 27"
           style="fill:none;fill-opacity:1;stroke:#f5a623;stroke-width:2;stroke-opacity:1"
           id="path87" />
        <g
           stroke="none"
           fill="rgb(245,166,35)"
           fill-opacity="1"
           transform="rotate(180,267.66666,225.02083)"
           style="fill:#f5a623;stroke:none;stroke-width:2"
           id="g88">
          <path
             d="M 11.61,-5.58 0,0 11.61,5.58 Z"
             id="path88" />
        </g>
      </g>
      <g
         class="composite-shape"
         id="g90">
        <path
           class="real"
           d="m 609.33,439.32 c 0,-4.02 3.26,-7.28 7.28,-7.28 h 26.21 c 4.02,0 7.28,3.26 7.28,7.28 v 21.83 c 0,4.02 -3.26,7.28 -7.28,7.28 h -26.21 c -4.02,0 -7.28,-3.26 -7.28,-7.28 z"
           style="fill:#f5a623;fill-opacity:0.3;stroke:#f5a623;stroke-width:2;stroke-opacity:1"
           id="path89" />
      </g>
      <g
         class="composite-shape"
         id="g91">
        <path
           class="real"
           d="m 611.74,377.44 c 0,-9.71 7.87,-17.59 17.59,-17.59 9.72,0 17.6,7.88 17.6,17.59 0,9.72 -7.88,17.6 -17.6,17.6 -9.72,0 -17.59,-7.88 -17.59,-17.6 z"
           style="fill:#d0021b;fill-opacity:0.3;stroke:#d0021b;stroke-width:2;stroke-opacity:1"
           id="path90" />
      </g>
      <g
         class="arrow-line"
         id="g93">
        <path
           class="connection real"
           stroke-dasharray="none"
           d="M 628.33,432.43 V 399.04"
           style="fill:none;fill-opacity:1;stroke:#d0021b;stroke-width:2;stroke-opacity:1"
           id="path91" />
        <g
           stroke="none"
           fill="rgb(208,2,27)"
           fill-opacity="1"
           transform="rotate(90,116.64582,511.68749)"
           style="fill:#d0021b;stroke:none;stroke-width:2"
           id="g92">
          <path
             d="M 11.61,-5.58 0,0 11.61,5.58 Z"
             id="path92" />
        </g>
      </g>
      <g
         class="arrow-line"
         id="g95">
        <path
           class="connection real"
           stroke-dasharray="none"
           d="m 651.33,449.04 h 27"
           style="fill:none;fill-opacity:1;stroke:#f5a623;stroke-width:2;stroke-opacity:1"
           id="path93" />
        <g
           stroke="none"
           fill="rgb(245,166,35)"
           fill-opacity="1"
           transform="rotate(180,341.16666,224.52083)"
           style="fill:#f5a623;stroke:none;stroke-width:2"
           id="g94">
          <path
             d="M 11.61,-5.58 0,0 11.61,5.58 Z"
             id="path94" />
        </g>
      </g>
      <g
         class="composite-shape"
         id="g96">
        <path
           class="real"
           d="m 683.33,438.32 c 0,-4.02 3.26,-7.28 7.28,-7.28 h 26.21 c 4.02,0 7.28,3.26 7.28,7.28 v 21.83 c 0,4.02 -3.26,7.28 -7.28,7.28 h -26.21 c -4.02,0 -7.28,-3.26 -7.28,-7.28 z"
           style="fill:#f5a623;fill-opacity:0.3;stroke:#f5a623;stroke-width:2;stroke-opacity:1"
           id="path95" />
      </g>
      <g
         class="composite-shape"
         id="g97">
        <path
           class="real"
           d="m 685.74,376.44 c 0,-9.71 7.87,-17.59 17.59,-17.59 9.72,0 17.6,7.88 17.6,17.59 0,9.72 -7.88,17.6 -17.6,17.6 -9.72,0 -17.59,-7.88 -17.59,-17.6 z"
           style="fill:#d0021b;fill-opacity:0.3;stroke:#d0021b;stroke-width:2;stroke-opacity:1"
           id="path96" />
      </g>
      <g
         class="arrow-line"
         id="g99">
        <path
           class="connection real"
           stroke-dasharray="none"
           d="M 703.33,431.43 V 398.04"
           style="fill:none;fill-opacity:1;stroke:#d0021b;stroke-width:2;stroke-opacity:1"
           id="path97" />
        <g
           stroke="none"
           fill="rgb(208,2,27)"
           fill-opacity="1"
           transform="rotate(90,154.64582,548.68749)"
           style="fill:#d0021b;stroke:none;stroke-width:2"
           id="g98">
          <path
             d="M 11.61,-5.58 0,0 11.61,5.58 Z"
             id="path98" />
        </g>
      </g>
      <g
         class="composite-shape"
         id="g100">
        <path
           class="real"
           d="m 535.33,439.32 c 0,-4.02 3.26,-7.28 7.28,-7.28 h 26.21 c 4.02,0 7.28,3.26 7.28,7.28 v 21.83 c 0,4.02 -3.26,7.28 -7.28,7.28 h -26.21 c -4.02,0 -7.28,-3.26 -7.28,-7.28 z"
           style="fill:#f5a623;fill-opacity:0.3;stroke:#f5a623;stroke-width:2;stroke-opacity:1"
           id="path99" />
      </g>
      <g
         class="arrow-line"
         id="g102">
        <path
           class="connection real"
           stroke-dasharray="none"
           d="m 577.33,451.04 h 27"
           style="fill:none;fill-opacity:1;stroke:#f5a623;stroke-width:2;stroke-opacity:1"
           id="path100" />
        <g
           stroke="none"
           fill="rgb(245,166,35)"
           fill-opacity="1"
           transform="rotate(180,304.16666,225.52083)"
           style="fill:#f5a623;stroke:none;stroke-width:2"
           id="g101">
          <path
             d="M 11.61,-5.58 0,0 11.61,5.58 Z"
             id="path101" />
        </g>
      </g>
      <g
         id="g103" />
    </g>
    <g
       id="g105" />
    <g
       id="g106" />
    <g
       id="g107" />
  </svg>
  <svg
     width="960"
     height="580.33337"
     style="font-family:Asana-Math, Asana"
     version="1.1"
     id="svg122">
    <g
       id="g110">
      <g
         id="g109">
        <g
           id="g108">
          <text
             x="29.666672"
             y="24.666656"
             style="font-style:normal;font-weight:400;font-size:18px;font-family:Arial, Helvetica, sans-serif;text-decoration:none;text-decoration-line:none;text-decoration-style:solid;text-decoration-color:#000000;dominant-baseline:text-before-edge;white-space:pre;fill:#000000;fill-opacity:1;stroke:none"
             id="text107">one to one</text>
        </g>
      </g>
    </g>
    <g
       id="g113">
      <g
         id="g112">
        <g
           id="g111">
          <text
             x="237.66667"
             y="23.666656"
             style="font-style:normal;font-weight:400;font-size:18px;font-family:Arial, Helvetica, sans-serif;text-decoration:none;text-decoration-line:none;text-decoration-style:solid;text-decoration-color:#000000;dominant-baseline:text-before-edge;white-space:pre;fill:#000000;fill-opacity:1;stroke:none"
             id="text110">one to many</text>
        </g>
      </g>
    </g>
    <g
       id="g116">
      <g
         id="g115">
        <g
           id="g114">
          <text
             x="503.66669"
             y="23.666656"
             style="font-style:normal;font-weight:400;font-size:18px;font-family:Arial, Helvetica, sans-serif;text-decoration:none;text-decoration-line:none;text-decoration-style:solid;text-decoration-color:#000000;dominant-baseline:text-before-edge;white-space:pre;fill:#000000;fill-opacity:1;stroke:none"
             id="text113">many to one</text>
        </g>
      </g>
    </g>
    <g
       id="g119">
      <g
         id="g118">
        <g
           id="g117">
          <text
             x="87.666672"
             y="314.68753"
             style="font-style:normal;font-weight:400;font-size:18px;font-family:Arial, Helvetica, sans-serif;text-decoration:none;text-decoration-line:none;text-decoration-style:solid;text-decoration-color:#000000;dominant-baseline:text-before-edge;white-space:pre;fill:#000000;fill-opacity:1;stroke:none"
             id="text116">many to many</text>
        </g>
      </g>
    </g>
    <g
       id="g122">
      <g
         id="g121">
        <g
           id="g120">
          <text
             x="429.66669"
             y="310.68753"
             style="font-style:normal;font-weight:400;font-size:18px;font-family:Arial, Helvetica, sans-serif;text-decoration:none;text-decoration-line:none;text-decoration-style:solid;text-decoration-color:#000000;dominant-baseline:text-before-edge;white-space:pre;fill:#000000;fill-opacity:1;stroke:none"
             id="text119">many to many</text>
        </g>
      </g>
    </g>
  </svg>
</svg>
