<?xml version="1.0" standalone="no"?><!DOCTYPE svg PUBLIC "-//W3C//DTD SVG 1.1//EN" "http://www.w3.org/Graphics/SVG/1.1/DTD/svg11.dtd"><svg t="1637767493361" class="icon" viewBox="0 0 1513 1024" version="1.1" xmlns="http://www.w3.org/2000/svg" p-id="65931" xmlns:xlink="http://www.w3.org/1999/xlink" width="295.5078125" height="200"><defs><style type="text/css"></style></defs><path d="M571.436924 60.559484C571.436924 27.25691 597.142325 0.000452 628.562546 0.000452c31.427751 0 57.14821 27.256459 57.14821 60.559032 0 33.302574-25.720459 60.551503-57.14821 60.551503-31.420221 0-57.125622-27.248929-57.125622-60.551503z" fill="#6EAAFF" p-id="65932"></path><path d="M622.862784 423.883559c34.853632 0 62.855502-29.665869 62.855502-66.612677 0-36.939278-27.994341-66.627735-62.855502-66.627735-16.692699-0.045176-32.70775 6.964703-44.498804 19.463521-11.798583 12.506347-18.409404 29.477634-18.364227 47.164214-0.045176 17.679051 6.565644 34.650338 18.364227 47.149156 11.798583 12.498818 27.813635 19.508697 44.498804 19.463521z" fill="#37EAFF" p-id="65933"></path><path d="M765.72578 266.443628c31.43528 0 57.140681-27.256459 57.140681-60.559032 0-33.295044-25.7054-60.551503-57.148211-60.551502-31.43528 0-57.140681 27.256459-57.14068 60.551502 0 33.302574 25.71293 60.559032 57.14821 60.559032z m142.862996 157.439931c16.685169 0.052706 32.70775-6.949644 44.498804-19.455992 11.806112-12.498818 18.409404-29.477634 18.364227-47.156685 0-36.939278-28.009399-66.627735-62.863031-66.627735-16.685169-0.045176-32.700221 6.957173-44.498804 19.463521-11.798583 12.498818-18.409404 29.477634-18.356698 47.164214 0 36.931748 27.994341 66.612676 62.855502 66.612677z m137.140645 12.107289c-19.711991-0.037647-38.625865 8.237173-52.57033 23.009872-13.944464 14.772699-21.75999 34.815985-21.722343 55.710093-0.037647 20.886579 7.777879 40.929864 21.722343 55.702564 13.936935 14.76517 32.858338 23.03999 52.57033 22.994813 19.711991 0.045176 38.625865-8.229643 52.57033-23.002343 13.936935-14.76517 21.75999-34.808455 21.714814-55.695034 0.037647-20.894108-7.77035-40.937394-21.714814-55.710093-13.936935-14.772699-32.858338-23.047519-52.57033-23.009872z" fill="#6EAAFF" p-id="65934"></path><path d="M765.72578 581.31596c37.722336 0 68.570323-32.700221 68.570323-72.658791 0-39.9661-30.855516-72.666321-68.570323-72.666321-37.729866 0-68.577852 32.700221-68.577852 72.666321 0 39.958571 30.855516 72.658791 68.577852 72.658791z m142.862996 0c-19.711991-0.037647-38.625865 8.244702-52.57033 23.009872-13.936935 14.772699-21.752461 34.815985-21.714814 55.702564-0.045176 20.894108 7.77035 40.944923 21.714814 55.717622 13.936935 14.780229 32.858338 23.062578 52.57033 23.024931 19.719521 0.037647 38.633395-8.252232 52.577859-23.024931 13.929406-14.772699 21.752461-34.823514 21.714814-55.717622 0.030118-20.886579-7.785408-40.929864-21.722344-55.702564-13.936935-14.76517-32.858338-23.03999-52.570329-23.009872zM479.999788 266.436099c31.44281 0 57.140681-27.256459 57.140681-60.551503s-25.697871-60.551503-57.140681-60.551502c-31.427751 0-57.133151 27.256459-57.133151 60.551502 0 33.302574 25.7054 60.559032 57.133151 60.559032zM337.144322 0.000452c-13.658347-0.060235-26.767047 5.662115-36.419749 15.894581-9.660231 10.239995-15.058817 24.131754-14.998581 38.603277 0 30.283281 22.836696 54.505388 51.41833 54.505388s51.41833-24.214578 51.41833-54.512917c0.060235-14.463994-5.34588-28.355752-14.998582-38.595748C363.911369 5.662567 350.795139-0.059784 337.144322 0.007981z" fill="#37EAFF" p-id="65935"></path><path d="M337.144322 605.545596c-13.658347-0.060235-26.767047 5.662115-36.419749 15.887052-9.660231 10.239995-15.058817 24.131754-14.998581 38.595748 0 30.305869 22.836696 54.520447 51.41833 54.520446s51.41833-24.214578 51.41833-54.512917c0.060235-14.471523-5.34588-28.370811-14.998582-38.595747-9.652702-10.239995-22.768931-15.962346-36.419748-15.894582z m137.140645 145.317583c-13.658347-0.060235-26.767047 5.662115-36.427278 15.894582-9.652702 10.232466-15.058817 24.124225-14.998581 38.595747 0 30.283281 22.844225 54.512917 51.425859 54.512917 28.581634 0 51.41833-24.207048 51.41833-54.512917 0.060235-14.471523-5.338351-28.370811-14.998581-38.603277-9.652702-10.232466-22.768931-15.947287-36.419749-15.887052z m148.577817 157.439931c-13.658347-0.052706-26.767047 5.669645-36.419749 15.90211-9.660231 10.224937-15.058817 24.124225-15.006111 38.588219 0 30.305869 22.844225 54.520447 51.42586 54.520446 28.574105 0 51.41833-24.214578 51.41833-54.512917 0.052706-14.479052-5.34588-28.370811-14.998581-38.603277s-22.768931-15.954816-36.419749-15.887052z m-422.866637-157.439931c-13.658347-0.060235-26.774576 5.654586-36.442337 15.887052-9.652702 10.232466-15.058817 24.131754-15.006111 38.603277-0.060235 14.479052 5.34588 28.38587 15.006111 38.618336 9.660231 10.239995 22.78399 15.962346 36.442337 15.902111 13.658347 0.060235 26.774576-5.669645 36.434808-15.90964 9.652702-10.239995 15.051287-24.139283 14.983522-38.610807 0.060235-14.471523-5.338351-28.363282-14.991052-38.595747-9.660231-10.239995-22.768931-15.954816-36.427278-15.887052z m137.148175 157.439931c-13.658347-0.052706-26.767047 5.662115-36.419749 15.894581-9.660231 10.239995-15.058817 24.131754-14.998581 38.595748 0 30.305869 22.836696 54.520447 51.41833 54.520446s51.41833-24.214578 51.41833-54.512917c0.060235-14.471523-5.34588-28.370811-14.998582-38.603277s-22.768931-15.947287-36.419748-15.887052z m-285.718462 0c-13.650818-0.052706-26.767047 5.662115-36.419749 15.894581-9.660231 10.239995-15.058817 24.124225-15.006111 38.595748 0 30.305869 22.844225 54.520447 51.42586 54.520446 28.581634 0 51.42586-24.214578 51.425859-54.512917 0.052706-14.471523-5.34588-28.370811-14.998581-38.603277-9.660231-10.232466-22.768931-15.947287-36.427278-15.887052z" fill="#6EAAFF" p-id="65936"></path><path d="M57.140681 12.107741c-25.148224 0-45.718568 21.797637-45.718568 48.444213 0 26.639047 20.570344 48.436685 45.718568 48.436685s45.703509-21.797637 45.703509-48.436685c0-26.646576-20.555285-48.444214-45.703509-48.444213zM199.996147 157.440382c-13.658347-0.060235-26.774576 5.662115-36.442337 15.887052-9.652702 10.239995-15.058817 24.139283-15.006111 38.610807-0.052706 14.479052 5.34588 28.370811 15.013641 38.603277 9.660231 10.239995 22.776461 15.962346 36.442336 15.887052 13.650818 0.067765 26.759518-5.662115 36.41222-15.887052 9.660231-10.239995 15.058817-24.131754 14.998581-38.603277 0.060235-14.471523-5.330821-28.370811-14.983522-38.603277-9.660231-10.232466-22.776461-15.954816-36.434808-15.887052zM337.144322 302.773024c-13.658347-0.060235-26.767047 5.662115-36.419749 15.894581-9.660231 10.239995-15.058817 24.131754-14.998581 38.603277 0 30.260693 22.836696 54.490329 51.41833 54.490329s51.41833-24.229636 51.41833-54.490329c0.060235-14.471523-5.34588-28.370811-14.998582-38.603277s-22.768931-15.954816-36.419748-15.894581zM479.999788 435.990848c-37.722336 0-68.570323 32.700221-68.570322 72.666321s30.855516 72.658791 68.570322 72.658791c37.722336 0 68.570323-32.700221 68.570323-72.658791 0-39.973629-30.847986-72.666321-68.570323-72.666321zM685.718286 653.98981c0-39.981159-30.847986-72.67385-68.570323-72.67385-37.722336 0-68.570323 32.70775-68.570323 72.67385 0 39.9661 30.855516 72.658791 68.570323 72.658792 37.722336 0 68.570323-32.70775 68.570323-72.658792zM760.018488 726.648602c-19.719521-0.045176-38.633395 8.237173-52.577859 23.002343-13.936935 14.772699-21.75999 34.815985-21.722343 55.702563-0.037647 20.894108 7.777879 40.944923 21.714814 55.717623 13.944464 14.772699 32.865868 23.055049 52.577859 23.017401 19.719521 0.037647 38.633395-8.244702 52.577859-23.017401 13.936935-14.780229 21.752461-34.823514 21.714814-55.717623 0.037647-20.886579-7.777879-40.929864-21.722343-55.702563-13.936935-14.76517-32.858338-23.03999-52.57033-23.002343z" fill="#000000" p-id="65937"></path><path d="M1081.697405 867.907834v-12.747289h-21.89552v117.338301h22.249402v-71.303498c0-16.173169 10.05929-26.443282 22.076226-26.443282 7.717644 0 11.489877 2.469646 16.511993 7.800467l16.865875-17.874816c-7.710114-8.184467-15.78917-11.038113-26.375518-11.038112-12.385877 0.195765-23.695048 5.895527-29.439987 14.268229z m151.649816 42.405628v10.465878h-71.785381c0 20.156226 10.044231 32.903515 28.175047 32.903515 12.385877 0 19.019286-3.614116 26.917635-11.979289l14.185406 14.072464c-11.316701 11.971759-22.083755 18.251286-41.464453 18.251286-27.632929 0-49.709155-15.40517-49.709154-60.092209 0-37.857866 18.484698-59.903974 47.021155-59.903973 29.432458-0.195765 46.659744 23.002343 46.659745 56.282328z m-22.076226-6.083762c-0.180706-7.228232-0.903529-10.654113-3.05694-15.977405-3.403293-8.749173-11.301642-14.832935-21.88799-14.832934-10.413172 0-18.484698 6.083762-22.076226 14.832934-2.153411 5.323292-2.695528 8.749173-2.876234 15.977405h49.89739z m92.250312-0.564706l-17.415521-1.716705c-11.843759-1.136941-15.247052-6.467762-15.247053-13.500229 0-8.749173 6.814115-15.028699 20.103521-15.028699 10.405642 0 20.276697 2.281411 27.271517 8.560937l13.997171-15.02117c-10.224937-9.509643-24.402813-13.123759-41.095512-13.123759-23.152931 0-41.637629 12.935524-41.637628 35.937867 0 20.547756 12.024465 30.622104 32.662574 32.33128l17.769403 1.709175c10.767054 0.948705 14.89317 6.098821 14.89317 13.891759 0 11.023054-10.767054 16.158111-24.229636 16.15811-10.94776 0-22.964696-2.469646-31.94728-12.167524l-14.531758 15.40517c13.101171 13.688465 28.348223 16.918581 46.479038 16.918581 26.383047 0 46.125156-12.739759 46.125156-37.270572-0.180706-20.916697-12.385877-31.375045-33.204691-33.084221z m76.799966-81.972669h-22.249402v35.561396h-12.739759v18.07058h12.739759v64.466795c0 16.92611 9.690349 32.70775 30.328458 32.70775h13.281876v-20.163756h-9.148231c-8.259761 0-12.205171-5.127527-12.205171-13.688464v-63.322325h21.353402v-18.07058h-21.353402v-35.561396z m111.096422 46.019744c10.413172 11.602818 13.101171 26.443282 13.101171 46.027274 0 19.967991-2.687999 34.612691-13.101171 46.207979-7.175526 7.792938-18.123286 13.891759-33.204691 13.891759-15.073876 0-25.84093-6.098821-33.023986-13.891759-10.398113-11.595289-13.093641-26.435753-13.093641-46.207979 0-19.583991 2.695528-34.424455 13.101171-46.027274 7.175526-7.792938 17.95011-13.8767 33.016456-13.8767 15.081405 0 26.029165 6.083762 33.204691 13.8767z m-9.148231 46.027274c0-12.747288-0.903529-24.914813-7.725173-32.135515-4.126116-4.374586-9.871054-6.655997-16.338817-6.655998-6.625879 0-12.016936 2.281411-16.150581 6.655998-6.814115 7.220703-7.717644 19.388227-7.717643 32.135515 0 12.739759 0.903529 24.907283 7.717643 32.135515 4.133645 4.374586 9.697878 7.032467 16.158111 7.032467 6.460232 0 12.197642-2.469646 16.338816-7.032467 6.814115-7.228232 7.717644-19.395756 7.717644-32.135515z" fill="#000000" p-id="65938"></path><path d="M980.720509 844.807608c11.881407-0.210823 22.241873 4.058351 28.76234 10.962819 11.881407 12.5967 13.229171 33.927514 13.22917 52.82633 0 19.09458-1.340235 40.432923-13.22917 53.232917-6.520468 6.904468-16.880934 11.166113-28.76234 11.166113-12.649406 0-22.437637-3.448469-31.05881-14.418817v63.593384h-23.582108v-175.947217h23.386343v13.409877c8.816937-11.376936 18.409404-14.825405 31.247045-14.825406z m-6.136468 22.339755c-21.473873 0-24.734107 19.305403-24.734107 41.449394s3.260234 41.848452 24.734107 41.848452c21.473873 0 24.545872-19.501168 24.545871-41.848452 0-22.136461-3.071999-41.449393-24.545871-41.449394z" fill="#000000" p-id="65939"></path></svg>