<svg width="1920" height="600" xmlns="http://www.w3.org/2000/svg" t="1643443143042" class="icon" version="1.1" p-id="15924">
 <g id="Layer_1">
  <title>Layer 1</title>
  <g id="svg_1" stroke="null">
   <g id="svg_2" fill="none" fill-rule="evenodd" stroke="null">
    <path id="svg_3" fill="#E25A1C" d="m1442.70234,302.70901c-0.99495,-2.10998 -1.45812,-3.1907 -2.00705,-4.2028c-14.58116,-27.34396 -29.128,-54.72222 -43.82924,-81.99756c-1.49242,-2.72753 -1.30373,-4.35719 0.72048,-6.69018c23.19262,-26.7264 46.26515,-53.55573 69.37199,-80.3679c0.80625,-0.92633 1.54389,-1.93844 1.85266,-3.6024c-6.75879,1.73258 -13.51759,3.44801 -20.25923,5.21491c-28.03013,7.32489 -56.06026,14.63262 -84.05608,22.04328c-2.60745,0.68617 -3.7911,-0.05146 -5.09483,-2.19575c-15.90204,-26.21177 -31.907,-52.37208 -47.89481,-78.53239c-0.82341,-1.37234 -1.71543,-2.69323 -3.46517,-3.82541c-1.28657,6.9818 -2.60745,13.9636 -3.85972,20.9454l-13.32889,74.00366c-0.48032,2.67607 -1.14934,5.31783 -1.37234,8.01106c-0.24016,2.53884 -1.54389,3.48232 -3.89403,4.2028c-33.02203,10.22396 -66.00975,20.55085 -99.01463,30.87774c-1.44096,0.44601 -2.86477,1.02926 -4.40866,2.41876l81.38001,31.907c-0.99495,0.77194 -1.64681,1.37234 -2.36729,1.85266c-16.87983,10.7729 -33.79397,21.49434 -50.60519,32.3187c-2.02421,1.28657 -3.61956,1.47527 -5.88393,0.46317c-20.1563,-8.93739 -40.39838,-17.72039 -60.57184,-26.62348c-9.07463,-3.99695 -17.22292,-9.29763 -23.57001,-16.94845c-14.35815,-17.32584 -11.52769,-37.01898 7.59936,-49.0613c6.26132,-3.94549 13.38035,-6.87887 20.44793,-9.1604c32.35301,-10.39551 64.8261,-20.41362 97.26489,-30.48319c2.72753,-0.84056 3.99695,-2.04136 4.49443,-4.94044c4.32288,-24.70219 8.81731,-49.35292 13.31174,-74.02081c2.41876,-13.1745 3.70533,-26.70925 10.20681,-38.76872c2.50453,-4.66597 5.48938,-9.21186 9.05747,-13.10589c12.86573,-14.10084 30.86059,-14.64977 44.4811,-1.2008c4.59735,4.52874 8.54284,9.88088 11.9737,15.3531c14.99286,24.1361 29.76271,48.42659 44.42964,72.73424c1.74974,2.89908 3.31078,3.46517 6.51863,2.62461c36.19558,-9.5721 72.42546,-18.98981 108.63819,-28.42468c7.47928,-1.95559 15.02717,-2.65892 22.69514,-1.25226c16.70829,3.08777 24.01602,15.61041 18.3551,31.52961c-2.57315,7.23912 -7.01611,13.38035 -12.00801,19.1442c-25.26829,29.33386 -50.50226,58.66771 -75.85632,87.91579c-2.07567,2.4016 -2.12713,4.11703 -0.68617,6.7931c15.13009,28.13305 30.12295,56.31757 45.18443,84.48493c3.6024,6.74164 6.34709,13.72344 6.43286,21.47719c0.17154,17.61747 -12.86573,32.02708 -30.62043,34.58307c-9.94949,1.44096 -19.17851,-0.65186 -28.47614,-3.48232c-22.69514,-6.93034 -45.42459,-13.72344 -68.17119,-20.46508c-2.10998,-0.63471 -2.91623,-1.44096 -3.27647,-3.68817c-2.62461,-15.78196 -5.47222,-31.52961 -8.23406,-47.29441c-0.06862,-0.42886 0.05146,-0.89202 0.12008,-1.86982l78.27508,21.30564" stroke="null"/>
    <path id="svg_4" fill="#FFF" d="m1398.47855,532.61095c-20.46508,-0.03431 -40.93016,-0.13723 -61.4124,-0.05146c-2.69323,0 -4.21996,-0.77194 -5.72954,-3.03631c-24.22187,-36.40143 -48.54667,-72.71708 -72.87147,-109.04989c-0.77194,-1.16649 -1.59535,-2.28152 -2.98485,-4.21996l-15.47318,116.08316l-53.59004,0c0.63471,-5.14629 1.18365,-10.12104 1.83551,-15.09579c5.23206,-39.38628 10.48128,-78.80686 15.74765,-118.19314c5.00906,-37.65369 10.00096,-75.30738 15.09579,-112.96107c0.15439,-1.11503 0.90918,-2.53884 1.83551,-3.13924c18.44087,-11.83647 36.95036,-23.60432 55.4427,-35.37217c0.27447,-0.17154 0.65186,-0.1887 1.6125,-0.46317l-16.70829,125.6381l0.65186,0.44601l87.70994,-95.89254l2.33298,13.24312c2.07567,11.9737 4.06557,23.9474 6.29563,35.8868c0.44601,2.4016 -0.1887,3.91118 -1.81836,5.57515c-18.76681,19.38436 -37.48215,38.82018 -56.19749,58.25601l-2.52168,2.72753c0.6004,0.94349 1.09788,1.85266 1.71543,2.69323l96.87034,134.04371c0.58325,0.82341 1.42381,1.45812 2.16144,2.1786l0,0.68617m-635.18947,-116.16893c-0.82341,-4.11703 -1.40665,-10.1725 -3.25932,-15.81627c-8.9717,-27.30965 -37.39638,-42.28535 -66.79885,-35.52656c-32.25009,7.3935 -55.30547,32.42163 -58.6334,64.87757c-2.47022,24.01602 10.63567,47.15717 35.01193,55.83725c19.64167,6.99895 38.54571,4.06557 56.09456,-6.31278c23.29554,-13.7749 35.90395,-34.22283 37.56792,-63.05921l0.01715,0l0.00001,0zm-141.66022,101.502c-1.59535,11.7507 -3.12208,22.81522 -4.59735,33.91405c-1.95559,14.71839 -3.91118,29.45394 -5.79815,44.18948c-0.22301,1.71543 -0.75479,2.48737 -2.62461,2.47022c-14.71839,-0.05146 -29.43678,-0.05146 -44.15517,-0.06862c-0.34309,0 -0.66902,-0.17154 -1.45812,-0.39455c0.87487,-6.96465 1.74974,-13.92929 2.67607,-20.89394c3.25932,-24.44488 6.48433,-48.8726 9.77795,-73.30033c3.77395,-27.9272 6.75879,-55.99164 11.57915,-83.7473c8.56,-49.12992 50.81104,-91.48389 100.42128,-102.03378c28.75061,-6.10693 56.26611,-3.27647 81.36285,12.69418c25.04528,15.90204 39.40343,38.99173 42.6799,68.05111c4.63166,41.0674 -10.70428,75.17015 -40.2783,103.37182c-19.41867,18.52665 -42.66275,30.2945 -69.47492,34.27429c-27.61842,4.09988 -53.59004,-0.44601 -76.88558,-16.50244c-0.85772,-0.58325 -1.76689,-1.09788 -3.22501,-2.02421m-23.99887,-233.48719l-48.39228,35.52656c-2.57315,-3.99695 -4.88898,-7.9939 -7.5822,-11.71639c-6.93034,-9.55495 -15.5418,-16.69114 -28.08159,-17.566c-10.41266,-0.72048 -19.31574,2.67607 -26.41762,10.24112c-6.34709,6.77595 -7.1705,16.41667 -1.23511,24.06748c6.51863,8.40561 13.65482,16.39951 20.9454,24.20472c12.09378,12.91719 24.7365,25.35406 36.74451,38.35702c10.92729,11.81931 19.62452,25.07959 22.31775,41.23894c3.20785,19.21282 -0.68617,37.51646 -9.89803,54.39629c-17.05138,31.25514 -43.91501,49.40439 -79.3558,55.06531c-15.66188,2.50453 -31.27229,2.00705 -46.55677,-2.43591c-20.27638,-5.88393 -34.36007,-18.97266 -43.45184,-37.4993c-3.20785,-6.51863 -5.66092,-13.44897 -8.57715,-20.46508l52.49216,-27.7042c0.6004,1.44096 1.02926,2.64176 1.59535,3.77395c2.98485,5.88393 5.43791,12.12809 9.12609,17.54885c10.9616,16.07358 28.64768,20.96256 46.62539,13.03727c4.59735,-2.05852 9.04032,-4.94044 12.83142,-8.23406c11.57915,-10.13819 13.7406,-24.23903 5.1806,-36.98467c-4.92328,-7.32489 -11.08168,-13.89498 -17.06853,-20.46508c-14.32384,-15.67903 -29.23093,-30.87774 -43.22884,-46.83124c-9.62356,-11.01306 -16.17651,-23.84448 -18.25218,-38.59718c-2.26437,-16.09073 0.99495,-31.27229 9.48633,-44.82419c21.09979,-33.67389 51.80599,-51.20559 92.37591,-49.74747c23.124,0.82341 41.54772,11.49338 55.8544,29.21377c4.21996,5.24922 8.19976,10.70428 12.52264,16.39951m391.97578,180.82349c-2.67607,20.29354 -5.21491,39.57497 -7.85667,58.83925c-0.13723,0.9778 -0.90918,2.29868 -1.74974,2.69323c-39.95237,18.23502 -92.54746,15.69619 -125.34648,-21.04833c-17.63462,-19.72745 -25.02813,-43.16022 -23.9131,-69.23476c2.55599,-60.33168 53.26411,-112.99538 113.92171,-120.35458c35.44079,-4.30573 66.52438,5.14629 90.52325,32.28439c16.34805,18.49234 23.9131,40.58708 22.79807,64.96334c-0.73763,16.09073 -3.29363,32.13001 -5.31783,48.15212c-2.88192,22.69514 -6.03831,45.37313 -9.07463,68.05111c-0.10293,0.80625 -0.27447,1.6125 -0.44601,2.62461l-47.79188,0c0.63471,-5.21491 1.21796,-10.30974 1.88697,-15.40456c3.46517,-26.19462 7.27342,-52.35493 10.29258,-78.60101c1.88697,-16.33089 0.70333,-32.55886 -6.86172,-47.68896c-8.06252,-16.10789 -21.59727,-24.61642 -39.36912,-26.46909c-36.79598,-3.84256 -71.8079,21.37426 -79.64742,57.08951c-5.1806,23.57001 2.98485,46.16222 22.02612,58.66771c18.5438,12.17955 38.42563,12.21386 58.6334,4.30573c10.25827,-3.99695 18.98981,-10.32689 27.29249,-18.86973m201.21995,-144.52499l-6.51863,48.85545c-10.12104,0 -20.01907,-0.05146 -29.9171,0.03431c-8.02821,0.05146 -15.3531,5.16344 -17.77186,12.55695c-0.94349,2.88192 -1.28657,5.98685 -1.69828,9.02316c-5.02621,37.51646 -10.00096,75.03291 -14.99286,112.56652c-1.26942,9.45202 -2.48737,18.92119 -3.75679,28.5276l-49.73032,0c0.92633,-7.20481 1.8012,-14.20376 2.74469,-21.16841c3.22501,-24.3248 6.45002,-48.63244 9.72649,-72.94009c2.83046,-21.03117 5.35214,-42.11381 8.69723,-63.07637c4.46012,-28.09875 32.79902,-53.05825 61.54963,-54.27621c13.72344,-0.6004 27.48119,-0.10293 41.6678,-0.10293" stroke="null"/>
    <path id="svg_5" fill="#FFF" fill-rule="nonzero" d="m1457.0948,532.30218l0,-20.70524l-0.10293,0l-8.23406,20.70524l-2.64176,0l-8.23406,-20.70524l-0.12008,0l0,20.68809l-4.15134,0l0,-24.80512l6.39855,0l7.51358,18.85258l7.37635,-18.85258l6.34709,0l0,24.82227l-4.13419,0l-0.01715,0zm-36.4872,-21.49434l0,21.49434l-4.15134,0l0,-21.49434l-7.89098,0l0,-3.31078l19.89899,0l0,3.31078l-7.85667,0m-756.3503,-261.20854l12.3511,0l-2.91623,-18.40657l-9.43487,18.40657zm14.27238,11.90509l-20.51654,0l-6.51863,12.59126l-14.52969,0l32.04423,-59.06226l14.01506,0l10.91014,59.06226l-13.46613,0l-1.93844,-12.59126m73.40325,-34.56592l-7.30773,0l-2.45307,13.62052l7.29058,0c4.40866,0 7.94244,-2.84761 7.94244,-8.23406c0,-3.56809 -2.23006,-5.38645 -5.47222,-5.38645l0,-0.00001zm-17.70324,-11.90509l19.21282,0c10.03527,0 17.06853,5.91823 17.06853,16.07358c0,12.7628 -9.1604,21.35711 -22.18051,21.35711l-8.28553,0l-3.87687,21.61442l-12.48833,0l10.5499,-59.0451m78.7554,34.56592l12.33394,0l-2.91623,-18.40657l-9.43487,18.40657l0.01715,0l0.00001,0zm14.25522,11.90509l-20.49939,0l-6.51863,12.59126l-14.52969,0l32.04423,-59.06226l13.99791,0l10.92729,59.06226l-13.48328,0l-1.93844,-12.59126m81.12269,10.49843c-4.21996,1.90413 -8.88593,3.05347 -13.5519,3.05347c-15.85057,0 -25.81722,-11.73354 -25.81722,-26.41762c0,-18.74965 16.03927,-34.56592 35.06339,-34.56592c4.75174,0 9.05747,1.13218 12.5741,3.03631l-1.74974,14.16945c-2.64176,-2.86477 -6.86172,-4.87182 -12.1624,-4.87182c-10.91014,0 -20.58516,9.74364 -20.58516,21.01402c0,8.61146 5.45507,15.30164 14.06653,15.30164c5.30068,0 10.39551,-2.00705 13.82637,-4.78605l-1.66397,14.06653m76.40526,-21.70019l-26.05738,0l-4.23711,23.79302l-12.48833,0l10.5499,-59.06226l12.50549,0l-4.21996,23.36416l26.05738,0l4.21996,-23.36416l12.50549,0l-10.5499,59.06226l-12.50549,0l4.21996,-23.79302m45.85345,23.79302l10.56705,-59.06226l33.19357,0l-2.10998,11.90509l-20.70524,0l-2.09282,11.45907l19.00697,0l-2.10998,11.90509l-19.02412,0l-2.10998,11.88793l20.68809,0l-2.10998,11.90509l-33.19357,0" stroke="null"/>
   </g>
  </g>
 </g>

</svg>