<?xml version="1.0" standalone="no"?><!DOCTYPE svg PUBLIC "-//W3C//DTD SVG 1.1//EN" "http://www.w3.org/Graphics/SVG/1.1/DTD/svg11.dtd">
<svg t="1637837451760" class="icon" viewBox="0 0 1024 1024" version="1.1" xmlns="http://www.w3.org/2000/svg" p-id="21160" xmlns:xlink="http://www.w3.org/1999/xlink" width="200" height="200">
<defs><style type="text/css"></style></defs>
<path d="M0 0m170.666667 0l682.666666 0q170.666667 0 170.666667 170.666667l0 682.666666q0 170.666667-170.666667 170.666667l-682.666666 0q-170.666667 0-170.666667-170.666667l0-682.666666q0-170.666667 170.666667-170.666667Z" fill="#FB7299" p-id="21161"></path>
<path d="M330.666667 152.746667c12.117333-6.058667 24.32-4.053333 32.426666 6.101333l99.242667 99.370667h97.28l99.285333-99.413334a23.296 23.296 0 0 1 34.474667 0 23.338667 23.338667 0 0 1 0 34.517334l-58.794667 58.794666h129.706667c70.912 0 129.706667 56.746667 131.712 127.744v322.432c0 70.997333-58.752 129.792-129.706667 129.792h-16.213333a43.605333 43.605333 0 0 1-40.533333 40.533334c-24.32 2.048-44.544-16.213333-46.592-40.533334H363.093333c0 22.314667-20.266667 42.581333-42.538666 42.581334-22.314667 0-42.538667-18.261333-42.538667-42.581334H257.706667c-70.954667 0-129.706667-58.794667-129.706667-127.744V381.866667c0-70.997333 58.752-129.792 129.706667-129.792h129.706666L326.528 191.274667a23.338667 23.338667 0 0 1 0-34.474667c2.048-2.005333 2.048-4.053333 4.053333-4.053333z m427.52 174.421333H263.765333c-26.325333 0-48.64 22.272-48.64 48.64l2.048 328.533333c2.005333 26.368 22.272 48.64 48.64 48.64h494.421334c26.325333 0 46.592-20.266667 48.64-48.64l-2.048-328.533333c-2.005333-26.368-22.272-48.64-48.64-48.64z m-247.210667 271.701333c18.261333 20.309333 18.261333 42.581333 44.586667 42.581334 18.261333 0 30.421333-22.272 30.421333-22.272 2.005333-4.096 8.106667-8.106667 12.117333-8.106667 8.106667-2.048 14.208 4.010667 16.213334 12.16v4.053333c0 2.005333 0 6.058667-2.005334 8.106667-10.154667 22.314667-32.426667 36.48-58.752 38.528-16.213333 0-32.426667-8.106667-42.581333-20.266667-12.16 12.16-26.325333 20.266667-42.538667 20.266667a74.112 74.112 0 0 1-58.752-38.528c0-2.048-2.048-4.053333-2.048-8.106667 0-8.106667 6.101333-14.208 14.208-16.213333h2.005334c6.101333 0 10.154667 2.005333 12.16 8.106667 0 0 16.213333 22.272 30.378666 22.272 28.373333 0 28.373333-24.32 44.586667-42.581334z m-85.077333-160.170666l12.117333 60.8-162.090667 30.421333-12.16-60.8 162.133334-30.421333z m168.149333 0l162.133333 30.421333-12.16 60.8-162.133333-30.421333 12.16-60.8z" fill="white" p-id="21162"></path>
</svg>