<?xml version="1.0" standalone="no"?><!DOCTYPE svg PUBLIC "-//W3C//DTD SVG 1.1//EN" "http://www.w3.org/Graphics/SVG/1.1/DTD/svg11.dtd"><svg class="icon" width="200px" height="175.04px" viewBox="0 0 1170 1024" version="1.1" xmlns="http://www.w3.org/2000/svg"><path d="M0 0v1024h881.590857L1170.285714 512l-288.694857-512z" fill="#FFCC00" /><path d="M655.945143 186.368a106.422857 106.422857 0 1 1-18.944 211.090286l-47.104 175.908571a158.427429 158.427429 0 0 0-20.845714-7.899428l46.665142-174.153143a106.422857 106.422857 0 0 1 40.228572-204.946286z" fill="#FF0000" /><path d="M398.848 186.368a106.422857 106.422857 0 0 1 41.837714 204.214857l46.08 172.251429c-7.241143 1.682286-14.336 3.876571-21.211428 6.509714l-46.08-172.178286a106.422857 106.422857 0 1 1-20.626286-210.797714zM239.177143 381.366857A70.948571 70.948571 0 0 1 299.373714 490.057143l113.078857 113.152c-5.339429 5.12-10.24 10.605714-14.848 16.384L284.672 506.88a70.948571 70.948571 0 1 1-45.421714-125.366857zM815.542857 372.516571a70.948571 70.948571 0 1 1-38.985143 130.194286L653.165714 626.102857a160.402286 160.402286 0 0 0-14.116571-17.261714l121.124571-121.051429a70.948571 70.948571 0 0 1 55.369143-115.273143z" fill="#FFFFFF" /><path d="M522.971429 718.336m-159.597715 0a159.597714 159.597714 0 1 0 319.195429 0 159.597714 159.597714 0 1 0-319.195429 0Z" fill="#FF0000" /></svg>