<?xml version="1.0" standalone="no"?>
<svg t="1633436455164"
    class="icon" viewBox="0 -120 1400 1400" version="1.1" xmlns="http://www.w3.org/2000/svg" p-id="36000"
    xmlns:xlink="http://www.w3.org/1999/xlink" width="100%" height="100%">
    <defs>
        <style type="text/css"></style>
    </defs>
    <path
        d="M393.5744 583.9872c-14.08 0-25.4976 13.704533-25.4976 30.600533 0 16.896 11.434667 30.600533 25.4976 30.600534 14.097067 0 25.514667-13.704533 25.514667-30.600534 0-16.896-11.434667-30.600533-25.514667-30.600533m605.7472 0c-14.08 0-25.514667 13.704533-25.514667 30.600533 0 16.896 11.434667 30.600533 25.514667 30.600534 14.08 0 25.4976-13.704533 25.4976-30.600534 0-16.896-11.4176-30.600533-25.4976-30.600533"
        fill="#202D40" p-id="36001"></path>
    <path
        d="M1297.800533 611.106133c-22.9888 8.072533-45.789867 0.8192-50.909866-16.213333-5.12-17.032533 9.386667-37.376 32.375466-45.4656 22.9888-8.072533 45.789867-0.8192 50.909867 16.213333 5.12 17.032533-9.386667 37.376-32.375467 45.4656M708.266667 955.733333C467.797333 955.374933 273.066667 844.458667 273.066667 685.7216a200.4992 200.4992 0 0 1 2.167466-28.791467l0.119467-0.887466c4.846933-31.197867 17.237333-78.813867 35.959467-106.257067C356.283733 486.126933 436.48 443.733333 527.991467 443.733333c70.434133 0 134.144 25.173333 180.2752 65.774934C754.414933 468.906667 818.107733 443.733333 888.541867 443.733333c91.511467 0 171.707733 42.3936 216.6784 106.052267 18.722133 27.4432 31.112533 75.0592 35.959466 106.257067l0.119467 0.887466a193.467733 193.467733 0 0 1 1.877333 18.875734c0.170667 3.293867 0.290133 6.587733 0.290134 9.898666 0 158.7712-194.730667 269.653333-435.2 270.0288M152.576 594.8928c-5.12 17.032533-27.921067 24.285867-50.909867 16.213333-23.005867-8.0896-37.495467-28.433067-32.375466-45.4656 5.12-17.032533 27.921067-24.285867 50.909866-16.213333 23.005867 8.0896 37.495467 28.433067 32.375467 45.4656m1142.869333-168.994133c-37.410133 0-70.1952 23.432533-88.5248 58.606933-62.3616-133.632-192.085333-257.4336-352.426666-308.411733C768 141.9776 707.242667 76.509867 699.733333 0c-7.509333 76.509867-68.266667 141.994667-154.7776 176.093867-160.324267 50.978133-290.065067 174.779733-352.426666 308.411733-18.3296-35.157333-51.0976-58.606933-88.507734-58.606933C46.574933 425.898667 0 481.160533 0 549.3248s46.574933 123.4432 104.021333 123.4432a90.845867 90.845867 0 0 0 48.384-14.165333C157.354667 879.9232 400.384 1023.607467 699.733333 1024c299.349333-0.375467 542.378667-144.059733 547.328-365.397333 14.455467 9.0112 30.890667 14.165333 48.384 14.165333 57.4464 0 104.021333-55.278933 104.021334-123.4432 0-68.164267-46.574933-123.426133-104.021334-123.426133"
        fill="#202D40" p-id="36002"></path>
</svg>