<?xml version="1.0" encoding="utf-8"?>
<!-- Generator: Adobe Illustrator 22.0.0, SVG Export Plug-In . SVG Version: 6.00 Build 0)  -->
<svg version="1.1" id="图层_1" xmlns="http://www.w3.org/2000/svg" xmlns:xlink="http://www.w3.org/1999/xlink" x="0px" y="0px"
	 viewBox="0 0 50.4 49.9" style="enable-background:new 0 0 50.4 49.9;" xml:space="preserve">
<style type="text/css">
	.st0{fill:#1E69FF;}
	.st1{fill:#FFCC01;}
</style>
<g id="编组" transform="translate(360.000000, 14.000000)">
	<path id="Fill-1" class="st0" d="M-347-3.7h-5.2c-3.3,0-6,2.7-6,6v7.2h2.3c1.8,0,3.2-1.5,3.2-3.2v-4c0-0.2,0.2-0.4,0.4-0.4h5.2
		c1.4,0,2.7,0.4,3.7,0.7c1.3,0.5,2.8,0.1,3.6-1l1.9-2.5C-337.8-0.8-341.3-3.7-347-3.7"/>
	<path id="Fill-3" class="st0" d="M-314,26.5h-8.4c-1.7,0-3.3-0.3-4.8-0.8c-2-0.7-2.8-3-1.6-4.7l1.1-1.7c1.6,1.1,3.4,1.6,5.3,1.6
		h5.4c1.7,0,3.1,1.4,3.1,3.1V26.5z"/>
	<path id="Fill-5" class="st0" d="M-314-3.7h-8.4c-8.3,0-15.1,6.7-15.1,15.1v1.2c0,3.2-1.6,6.3-4.4,7.9c-4.5,2.7-9.2,0.3-10.4-3.6
		c-0.4-1.3-1.6-2.1-2.9-2.1h-3c0,6.8,5.5,12.4,12.4,12.4c7.7,0,13.9-6.3,13.9-13.9v-2c0-5.2,4.2-9.5,9.5-9.5h5.2
		c1.8,0,3.2-1.4,3.2-3.2V-3.7z"/>
	<path id="Fill-7" class="st1" d="M-321.2,9.6c0,1.3-1.1,2.4-2.4,2.4c-1.3,0-2.4-1.1-2.4-2.4s1.1-2.4,2.4-2.4
		C-322.2,7.2-321.2,8.3-321.2,9.6"/>
</g>
</svg>
