<?xml version="1.0" standalone="no"?><!DOCTYPE svg PUBLIC "-//W3C//DTD SVG 1.1//EN" "http://www.w3.org/Graphics/SVG/1.1/DTD/svg11.dtd"><svg t="1633580191688" class="icon" viewBox="0 0 1024 1024" version="1.1" xmlns="http://www.w3.org/2000/svg" p-id="26954" xmlns:xlink="http://www.w3.org/1999/xlink" width="200" height="200"><defs><style type="text/css"></style></defs><path d="M132.672 494.912a378.112 378.112 0 1 0 756.288 0 378.112 378.112 0 0 0-756.288 0z" fill="#E9EAEB" p-id="26955"></path><path d="M161.344 749.504l22.272-22.272L294.4 838.08l-22.272 22.272-110.784-110.848z m346.88-311.04l22.272-22.272L605.248 490.88l-22.272 22.272L508.16 438.464z m-63.552 28.352l22.272-22.272 110.08 110.08-22.208 22.336-110.08-110.08z m-28.416 63.616l22.208-22.272L513.28 582.912l-22.272 22.272-74.688-74.752z m314.24-350.08l22.208-22.272L863.552 268.8l-22.272 22.272-110.784-110.784z m-26.88 65.728l22.272-22.272 72.128 72.128-22.272 22.272-72.192-72.128zM226.88 722.56l22.272-22.272 72.128 72.128-22.272 22.272-72.128-72.128z" fill="#0061C8" p-id="26956"></path><path d="M937.92 294.848l-38.656 38.592c-53.12 53.184-114.944 52.352-227.904-3.072-104.32-51.2-224.64-89.6-327.616 13.44l61.44 61.44c53.184-53.12 115.008-52.288 227.968 3.2 104.192 50.944 224.512 89.28 327.552-13.824l38.4-38.528-61.184-61.248z" fill="#FFFFFF" p-id="26957"></path><path d="M810.56 474.944c-64.704 0-128.832-25.28-184.32-52.48-120.96-59.52-168.704-47.36-209.92-6.144l-22.272-22.272c58.24-58.24 127.168-58.24 246.016 0 99.072 48.704 213.312 85.312 309.504-10.624l27.264-27.328-38.912-39.04-27.52 27.52c-58.24 58.24-127.168 58.24-245.952 0-104.192-51.136-213.76-85.312-309.504 10.432l-22.272-22.272c110.016-109.952 236.48-70.016 345.728-16.384 120.832 59.52 168.704 47.232 209.92 6.08l49.728-49.728 83.2 83.392-49.792 49.728c-50.432 50.88-105.856 69.12-160.896 69.12z" fill="#0061C8" p-id="26958"></path><path d="M691.2 350.08c-55.488-112.96-56.32-174.72-3.2-227.904l38.656-38.656-60.928-61.184-38.528 38.4c-103.68 102.784-65.152 223.68-13.952 327.68 55.424 112.896 56.32 174.72 3.072 227.84l61.312 61.44c103.04-103.04 64.64-223.424 13.568-327.616z" fill="#D0E6FF" p-id="26959"></path><path d="M688.832 688.832l-22.272-22.272c95.68-95.68 61.568-205.312 10.432-309.504-58.24-118.784-58.368-187.776 0-246.016l27.52-27.456-38.784-39.04-27.712 27.328c-96.064 96.064-59.328 210.432-10.624 309.504 58.304 118.848 58.368 187.776 0 246.016l-22.272-22.272c41.152-41.152 53.44-88.704-6.08-209.92-50.432-102.656-94.08-234.88 16.896-345.408L665.728 0l83.2 83.52-49.792 49.792c-41.152 41.152-53.376 88.64 6.08 209.92 53.76 109.12 93.696 235.584-16.384 345.6z" fill="#0061C8" p-id="26960"></path><path d="M616.32 616.32c-53.184 53.12-115.008 52.032-227.904-3.136-104.256-51.456-224.64-89.408-327.68 13.568l-38.4 38.528 61.248 61.248 38.656-38.592c53.12-53.184 114.944-52.352 227.904 3.072 104.256 51.2 224.64 89.6 327.616-13.44l-61.44-61.248z" fill="#D0E6FF" p-id="26961"></path><path d="M528.064 758.72c-63.168 0-126.464-24.768-184.896-53.44-120.832-59.52-168.704-47.36-209.92-6.144l-49.728 49.792-83.456-83.584 49.792-49.728c110.528-110.784 242.688-67.008 345.664-16.64 120.896 59.52 168.64 47.36 209.92 6.144l22.208 22.272c-58.24 58.24-127.168 58.24-246.016 0-99.072-48.64-213.248-85.312-309.504 10.624l-27.52 27.264 38.912 39.04 27.584-27.456c58.24-58.24 127.296-58.24 246.016 0 104.256 51.2 213.76 85.376 309.504-10.432l22.272 22.272c-51.2 51.2-105.92 70.016-160.832 70.016z" fill="#0061C8" p-id="26962"></path><path d="M408.256 632.832C352.896 520.128 352 458.24 405.184 405.312l-61.376-61.44c-102.912 103.04-64.64 223.424-13.44 327.616 55.488 112.96 56.32 174.72 3.2 227.968l-38.656 38.592 61.248 61.248 38.528-38.4c103.04-103.168 64.832-223.552 13.568-328.064z" fill="#FFFFFF" p-id="26963"></path><path d="M356.096 1021.376l-83.52-83.456 49.792-49.792c41.152-41.152 53.312-88.704-6.144-209.92-53.568-109.44-93.568-235.584 16.448-345.6l22.272 22.272C259.2 450.56 293.376 560.192 344.448 664.32c58.304 118.784 58.432 187.776 0 246.016l-27.136 27.52 38.976 38.976 27.456-27.328c95.872-96.32 59.072-210.112 10.368-309.632-58.304-118.848-58.304-187.776 0-246.016l22.272 22.208c-41.216 41.216-53.44 88.768 6.08 209.92 50.496 102.72 94.144 234.624-16.576 345.728l-49.792 49.6z" fill="#0061C8" p-id="26964"></path><path d="M38.016 203.52a55.168 55.168 0 1 0 110.272-0.128 55.168 55.168 0 0 0-110.272 0.128z" fill="#FFFFFF" p-id="26965"></path><path d="M93.184 274.368a71.104 71.104 0 1 1 0-142.208 71.104 71.104 0 0 1 0 142.208z m0-110.272a39.36 39.36 0 1 0-0.256 78.784 39.36 39.36 0 0 0 0.256-78.72z" fill="#BCC0C4" p-id="26966"></path><path d="M819.904 596.096a57.28 57.28 0 1 0 114.624 0 57.28 57.28 0 0 0-114.56 0z" fill="#FFFFFF" p-id="26967"></path><path d="M877.248 669.12a73.024 73.024 0 1 1 72.896-72.96 72.512 72.512 0 0 1-73.088 72.96h0.192z m0-114.56a41.536 41.536 0 1 0 0 83.008 41.536 41.536 0 0 0 0-83.072z" fill="#BCC0C4" p-id="26968"></path><path d="M85.312 447.744a47.296 47.296 0 1 0 94.592 0 47.296 47.296 0 0 0-94.592 0z" fill="#FFFFFF" p-id="26969"></path><path d="M132.48 510.72a63.04 63.04 0 1 1 0.256-126.08 63.04 63.04 0 0 1-0.256 126.08z m0-94.592a31.488 31.488 0 1 0 0.384 63.04 31.488 31.488 0 0 0-0.384-63.04z" fill="#BCC0C4" p-id="26970"></path><path d="M256.512 128.512a77.568 77.568 0 1 0 155.136 0 77.568 77.568 0 0 0-155.136 0z" fill="#FFFFFF" p-id="26971"></path><path d="M334.08 221.824A93.376 93.376 0 1 1 333.952 35.2a93.376 93.376 0 0 1 0.128 186.688z m0-155.136a61.76 61.76 0 1 0 0 123.52 61.76 61.76 0 0 0 0-123.52z" fill="#BCC0C4" p-id="26972"></path></svg>