<svg width="125" height="125" xmlns="http://www.w3.org/2000/svg" xmlns:xlink="http://www.w3.org/1999/xlink" version="1.1">
 <!-- Generator: Sketch 48.2 (47327) - http://www.bohemiancoding.com/sketch -->
 <title>icon</title>
 <desc>Created with Sketch.</desc>
 <defs>
  <path id="path-1" d="m144.45329,104c32.5848,0 59,-26.4152 59,-59c0,-32.5848 -26.4152,-59 -59,-59c-32.5848,0 -29.85008,27.67548 -29.85008,60.26028c0,32.5848 -2.73472,57.73972 29.85008,57.73972z"/>
  <filter id="filter-2" filterUnits="objectBoundingBox" height="111.9%" width="115.7%" y="-5.9%" x="-7.9%"/>
 </defs>
 <g>
  <title>Layer 1</title>
  <g fill-rule="evenodd" fill="none" id="Page-1">
   <g id="icon">
    <g transform="rotate(-90 62.5 50.4516) translate(-159 -45)" id="body">
     <use id="svg_1" x="62.50001" y="50.45159" xlink:href="#path-1" fill-rule="evenodd" fill="#F461A9"/>
     <use id="svg_2" x="62.50001" y="50.45159" xlink:href="#path-1" filter="url(#filter-2)" fill="black"/>
     <use id="svg_3" x="62.50001" y="50.45159" xlink:href="#path-1" stroke-width="4" stroke="#0F1420"/>
    </g>
    <circle r="7" cy="43.45159" cx="42.50001" fill="#000000" id="left-eye"/>
    <circle r="7" cy="43.45159" cx="86.50001" fill="#000000" id="right-eye"/>
    <g fill="#FFFFFF" id="light">
     <circle id="svg_4" r="2" cy="43.45159" cx="17.50001"/>
     <path transform="rotate(-48 -67.2286 29.8478)" id="light-line" d="m17.11382,80.04398c0.1397,-0.52668 -0.19041,-0.95364 -0.75642,-0.95364l-1.98127,0c-0.55746,0 -1.12863,0.43815 -1.26663,0.96112c0,0 -1.16855,4.12938 -1.6436,8.10056c-0.47506,3.97118 -0.41407,4.00742 -0.41407,5.72039c0,4.76309 2.1095,14.26066 2.1095,14.26066c0.11346,0.52868 0.64879,0.95727 1.2148,0.95727l1.98127,0c0.55746,0 0.89491,-0.42701 0.75473,-0.96607c0,0 -1.16922,-4.20124 -1.70724,-8.44421c-0.53801,-4.24296 -0.34551,-2.68765 -0.59858,-5.61351c-0.37287,-4.31102 2.30751,-14.02257 2.30751,-14.02257z"/>
    </g>
    <path fill="#000000" id="mouth" d="m63.00001,83.7566c9.66498,0 17.5,-7.83502 17.5,-17.5c0,-9.66498 -7.31127,-4.34333 -16.97626,-4.34333c-9.66498,0 -18.02374,-5.32165 -18.02374,4.34333c0,9.66498 7.83502,17.5 17.5,17.5z"/>
   </g>
  </g>
 </g>
</svg>