<svg width="450" height="450" xmlns="http://www.w3.org/2000/svg" xmlns:xlink="http://www.w3.org/1999/xlink">
 <g>
  <title>Layer 1</title>
  <g id="svg_1">
   <path id="svg_2" fill="#fff" d="m91.20425,396.7004c-5.7041,0 -10.3442,-4.3127 -10.3442,-9.6129l0,-324.1763c0,-5.3002 4.6401,-9.6117 10.3442,-9.6117l204.0055,0c3.0347,0 9.3959,0.5498 11.7506,2.6302l0.3545,0.3442l58.905,63.2912c2.3101,2.491 2.9202,8.4928 2.9202,11.3184l0,256.2039c0,5.3002 -4.6407,9.6129 -10.3436,9.6129l-267.5922,0l0,0.0001z"/>
   <g id="svg_3">
    <g id="svg_4">
     <g id="svg_5">
      <path id="svg_6" fill="#767676" d="m358.79625,397.9348l-267.5925,0c-6.3839,0 -11.5786,-4.8658 -11.5786,-10.8474l0,-324.1761c0,-5.9804 5.1947,-10.8461 11.5786,-10.8461l204.0062,0c0.377,0 9.2786,0.0329 12.568,2.9389l0.3947,0.3833l58.9508,63.337c3.2135,3.4652 3.2514,11.7924 3.2514,12.1593l0,256.2036c0,5.9817 -5.1947,10.8475 -11.5786,10.8475zm-267.9366,-11.2877c0.0848,0.0278 0.1999,0.0531 0.3441,0.0531l267.5925,0c0.1442,0 0.2581,-0.0253 0.3441,-0.0531l0,-255.7633c-0.0076,-0.9033 -0.3593,-3.7347 -0.7034,-5.0037l-57.6527,-61.9416c-1.4651,-0.3176 -4.4533,-0.6389 -5.5742,-0.6389l-204.0063,0c-0.143,0 -0.2594,0.024 -0.3441,0.0531l0,323.2944zm267.4533,-261.149zm-56.9291,-61.3989l0,0.0013l0,-0.0013z"/>
     </g>
    </g>
   </g>
   <g id="svg_7">
    <g id="svg_8">
     <path id="svg_9" fill="#5b7fc0" d="m163.43915,184.9036l0.0012,-0.0012c7.7751,0.0012 15.0295,4.1862 18.932,10.9234c1.9177,3.3159 2.9305,7.1011 2.9293,10.9378c0,5.8394 -2.2733,11.3304 -6.4032,15.4604c-4.1288,4.1288 -9.6186,6.4032 -15.458,6.4032s-11.328,-2.2733 -15.458,-6.4032s-6.4032,-9.6186 -6.4056,-15.4628c0.0012,-6.025 2.454,-11.4897 6.4116,-15.4473c3.9586,-3.9587 9.4234,-6.4115 15.4507,-6.4103zm7.993,21.8576c0.0012,-1.4042 -0.3687,-2.7868 -1.063,-3.9887c-1.4293,-2.4684 -4.0833,-3.9995 -6.9299,-4.0019c-4.4077,0.0024 -7.993,3.5877 -7.993,7.993c0,2.1356 0.832,4.1431 2.3427,5.6539c1.5083,1.5083 3.5159,2.3403 5.6503,2.3415c2.1356,0 4.1443,-0.8308 5.6539,-2.3403s2.3402,-3.5183 2.339,-5.6575z"/>
     <path id="svg_10" fill="#fff" opacity="0.3" d="m163.44155,184.9042c7.7763,0 15.0283,4.1826 18.926,10.9151c1.9201,3.3136 2.9377,7.0988 2.9353,10.9462c0.0024,12.0643 -9.8065,21.8636 -21.8613,21.8613c-12.0547,0.0024 -21.8636,-9.8066 -21.8612,-21.8613c0,-6.0285 2.4516,-11.4921 6.4116,-15.452c3.9575,-3.9577 9.421,-6.4093 15.4496,-6.4093zm7.9941,21.8612c0,-1.4078 -0.3711,-2.7892 -1.0702,-3.9959c-1.4269,-2.466 -4.0797,-3.9983 -6.924,-3.9983c-4.4005,-0.0048 -7.9918,3.5817 -7.9942,7.9942c0.0024,4.4077 3.5865,7.9918 7.9942,7.9942c2.2027,0 4.2018,-0.8978 5.6479,-2.3439c1.4485,-1.4485 2.3463,-3.4476 2.3463,-5.6503z"/>
     <g id="svg_11">
      <defs transform="translate(0 6.72835) translate(-10.9815 0) translate(-1.33334 0) translate(-1.33334 0) translate(-1.33334 0) translate(-1.33334 0) translate(-1.33334 0) translate(-1.33334 0) translate(-1.33334 0) translate(-1.33334 0) translate(-1.33334 0) translate(-1.33334 0) translate(-1.33334 0) translate(0 -1.33334) translate(0 -1.33334) translate(0 -1.33334) translate(0 -1.33334) translate(0 -1.33334) translate(0 -1.33334) translate(0 -1.33334) translate(0 -1.33334) translate(0 -1.33334) translate(0 -1.33334) translate(0 -1.33334) translate(0 -1.33334) translate(0 -1.33334) translate(0 -1.33334) translate(0 -1.33334) translate(0 -1.33334) translate(0 -1.33334) translate(0 -1.33334) translate(0 -1.33334) translate(0 -1.33334) translate(0 -1.33334) translate(0 -1.33334) translate(0 -1.33334) translate(0 -1.33334)">
       <path d="m194.7376,237.6875c-1.4461,1.4461 -3.4452,2.3439 -5.6479,2.3439c-4.4077,-0.0024 -7.9918,-3.5865 -7.9942,-7.9942c0.0024,-4.4125 3.5937,-7.999 7.9942,-7.9942c2.8443,0 5.497,1.5323 6.924,3.9983c0.6991,1.2067 1.0702,2.5881 1.0702,3.9959c0,2.2027 -0.8978,4.2018 -2.3463,5.6503z" id="SVGID_1_"/>
      </defs>
      <clipPath transform="translate(0 6.72835) translate(-10.9815 0) translate(-1.33334 0) translate(-1.33334 0) translate(-1.33334 0) translate(-1.33334 0) translate(-1.33334 0) translate(-1.33334 0) translate(-1.33334 0) translate(-1.33334 0) translate(-1.33334 0) translate(-1.33334 0) translate(-1.33334 0) translate(0 -1.33334) translate(0 -1.33334) translate(0 -1.33334) translate(0 -1.33334) translate(0 -1.33334) translate(0 -1.33334) translate(0 -1.33334) translate(0 -1.33334) translate(0 -1.33334) translate(0 -1.33334) translate(0 -1.33334) translate(0 -1.33334) translate(0 -1.33334) translate(0 -1.33334) translate(0 -1.33334) translate(0 -1.33334) translate(0 -1.33334) translate(0 -1.33334) translate(0 -1.33334) translate(0 -1.33334) translate(0 -1.33334) translate(0 -1.33334) translate(0 -1.33334) translate(0 -1.33334)" id="SVGID_2_">
       <use x="-25.64825" y="-25.2718" id="svg_12" xlink:href="#SVGID_1_"/>
      </clipPath>
      <path id="svg_13" fill="#fff" clip-path="url(#SVGID_2_)" d="m164.42215,199.7519c-4.4005,-0.0048 -7.9918,3.5817 -7.9942,7.9942c0.0011,1.9546 0.7088,3.7452 1.8782,5.1354c-1.7447,-1.4674 -2.8575,-3.663 -2.8588,-6.116c0.0024,-4.4125 3.5936,-7.999 7.9942,-7.9942c2.3802,-0.0001 4.616,1.0833 6.1218,2.8788c-1.4231,-1.1972 -3.2342,-1.8982 -5.1412,-1.8982z"/>
      <path id="svg_14" fill="#020202" clip-path="url(#SVGID_2_)" opacity="0.13" d="m164.42215,199.7519c-4.4005,-0.0048 -7.9918,3.5817 -7.9942,7.9942c0.0011,1.9546 0.7088,3.7452 1.8782,5.1354c-1.7447,-1.4674 -2.8575,-3.663 -2.8588,-6.116c0.0024,-4.4125 3.5936,-7.999 7.9942,-7.9942c2.3802,-0.0001 4.616,1.0833 6.1218,2.8788c-1.4231,-1.1972 -3.2342,-1.8982 -5.1412,-1.8982z"/>
     </g>
     <g id="svg_15">
      <defs transform="translate(0 6.72835) translate(-10.9815 0) translate(-1.33334 0) translate(-1.33334 0) translate(-1.33334 0) translate(-1.33334 0) translate(-1.33334 0) translate(-1.33334 0) translate(-1.33334 0) translate(-1.33334 0) translate(-1.33334 0) translate(-1.33334 0) translate(-1.33334 0) translate(0 -1.33334) translate(0 -1.33334) translate(0 -1.33334) translate(0 -1.33334) translate(0 -1.33334) translate(0 -1.33334) translate(0 -1.33334) translate(0 -1.33334) translate(0 -1.33334) translate(0 -1.33334) translate(0 -1.33334) translate(0 -1.33334) translate(0 -1.33334) translate(0 -1.33334) translate(0 -1.33334) translate(0 -1.33334) translate(0 -1.33334) translate(0 -1.33334) translate(0 -1.33334) translate(0 -1.33334) translate(0 -1.33334) translate(0 -1.33334) translate(0 -1.33334) translate(0 -1.33334)">
       <path d="m189.0898,210.176c7.7763,0 15.0283,4.1826 18.926,10.9151c1.9201,3.3136 2.9377,7.0988 2.9353,10.9462c0.0024,12.0643 -9.8065,21.8636 -21.8613,21.8613c-12.0547,0.0024 -21.8636,-9.8066 -21.8612,-21.8613c0,-6.0285 2.4516,-11.4921 6.4116,-15.452c3.9575,-3.9577 9.421,-6.4093 15.4496,-6.4093zm7.9941,21.8612c0,-1.4078 -0.3711,-2.7892 -1.0702,-3.9959c-1.4269,-2.466 -4.0797,-3.9983 -6.924,-3.9983c-4.4005,-0.0048 -7.9918,3.5817 -7.9942,7.9942c0.0024,4.4077 3.5865,7.9918 7.9942,7.9942c2.2027,0 4.2018,-0.8978 5.6479,-2.3439c1.4485,-1.4485 2.3463,-3.4476 2.3463,-5.6503z" id="SVGID_3_"/>
      </defs>
      <clipPath transform="translate(0 6.72835) translate(-10.9815 0) translate(-1.33334 0) translate(-1.33334 0) translate(-1.33334 0) translate(-1.33334 0) translate(-1.33334 0) translate(-1.33334 0) translate(-1.33334 0) translate(-1.33334 0) translate(-1.33334 0) translate(-1.33334 0) translate(-1.33334 0) translate(0 -1.33334) translate(0 -1.33334) translate(0 -1.33334) translate(0 -1.33334) translate(0 -1.33334) translate(0 -1.33334) translate(0 -1.33334) translate(0 -1.33334) translate(0 -1.33334) translate(0 -1.33334) translate(0 -1.33334) translate(0 -1.33334) translate(0 -1.33334) translate(0 -1.33334) translate(0 -1.33334) translate(0 -1.33334) translate(0 -1.33334) translate(0 -1.33334) translate(0 -1.33334) translate(0 -1.33334) translate(0 -1.33334) translate(0 -1.33334) translate(0 -1.33334) translate(0 -1.33334)" id="SVGID_4_">
       <use x="-25.64825" y="-25.2718" id="svg_16" xlink:href="#SVGID_3_"/>
      </clipPath>
      <path id="svg_17" fill="#5b7fc0" clip-path="url(#SVGID_4_)" d="m147.01125,190.3327c-3.96,3.96 -6.4116,9.4235 -6.4116,15.452c-0.0024,12.0547 9.8066,21.8636 21.8613,21.8612c12.0547,0.0024 21.8636,-9.797 21.8613,-21.8612c0.0024,-3.8475 -1.0151,-7.6326 -2.9353,-10.9462c-3.8977,-6.7324 -11.1497,-10.9151 -18.926,-10.9151c-6.0286,0.0001 -11.4921,2.4518 -15.4497,6.4093z"/>
     </g>
    </g>
    <rect id="svg_18" fill="#5b7fc0" height="13.8671" width="122.6266" y="199.8325" x="173.24695"/>
   </g>
   <g id="svg_19">
    <path id="svg_20" fill="#d95140" d="m163.43915,130.4893l0.0012,-0.0012c7.7751,0.0012 15.0295,4.1862 18.932,10.9234c1.9177,3.3159 2.9305,7.1011 2.9293,10.9378c0,5.8394 -2.2733,11.3304 -6.4032,15.4604c-4.1288,4.1288 -9.6186,6.4032 -15.458,6.4032s-11.328,-2.2733 -15.458,-6.4032s-6.4032,-9.6186 -6.4056,-15.4628c0.0012,-6.0249 2.454,-11.4897 6.4116,-15.4473c3.9586,-3.9586 9.4234,-6.4115 15.4507,-6.4103zm7.993,21.8577c0.0012,-1.4042 -0.3687,-2.7868 -1.063,-3.9887c-1.4293,-2.4684 -4.0833,-3.9995 -6.9299,-4.0019c-4.4077,0.0024 -7.993,3.5877 -7.993,7.993c0,2.1356 0.832,4.1431 2.3427,5.6539c1.5083,1.5083 3.5159,2.3403 5.6503,2.3415c2.1356,0 4.1443,-0.8308 5.6539,-2.3403c1.5094,-1.5096 2.3402,-3.5183 2.339,-5.6575z"/>
    <path id="svg_21" fill="#fff" opacity="0.3" d="m163.44155,130.4899c7.7763,0 15.0283,4.1826 18.926,10.9151c1.9201,3.3135 2.9377,7.0987 2.9353,10.9462c0.0024,12.0643 -9.8065,21.8636 -21.8613,21.8613c-12.0547,0.0024 -21.8636,-9.8066 -21.8612,-21.8613c0,-6.0285 2.4516,-11.4921 6.4116,-15.452c3.9575,-3.9576 9.421,-6.4093 15.4496,-6.4093zm7.9941,21.8613c0,-1.4078 -0.3711,-2.7892 -1.0702,-3.9959c-1.4269,-2.466 -4.0797,-3.9983 -6.924,-3.9983c-4.4005,-0.0048 -7.9918,3.5817 -7.9942,7.9942c0.0024,4.4077 3.5865,7.9918 7.9942,7.9942c2.2027,0 4.2018,-0.8978 5.6479,-2.3439c1.4485,-1.4485 2.3463,-3.4477 2.3463,-5.6503z"/>
    <g id="svg_22">
     <defs transform="translate(0 6.72835) translate(-10.9815 0) translate(-1.33334 0) translate(-1.33334 0) translate(-1.33334 0) translate(-1.33334 0) translate(-1.33334 0) translate(-1.33334 0) translate(-1.33334 0) translate(-1.33334 0) translate(-1.33334 0) translate(-1.33334 0) translate(-1.33334 0) translate(0 -1.33334) translate(0 -1.33334) translate(0 -1.33334) translate(0 -1.33334) translate(0 -1.33334) translate(0 -1.33334) translate(0 -1.33334) translate(0 -1.33334) translate(0 -1.33334) translate(0 -1.33334) translate(0 -1.33334) translate(0 -1.33334) translate(0 -1.33334) translate(0 -1.33334) translate(0 -1.33334) translate(0 -1.33334) translate(0 -1.33334) translate(0 -1.33334) translate(0 -1.33334) translate(0 -1.33334) translate(0 -1.33334) translate(0 -1.33334) translate(0 -1.33334) translate(0 -1.33334)">
      <path d="m194.7376,183.2733c-1.4461,1.4461 -3.4452,2.3439 -5.6479,2.3439c-4.4077,-0.0024 -7.9918,-3.5865 -7.9942,-7.9942c0.0024,-4.4125 3.5937,-7.9989 7.9942,-7.9942c2.8443,0 5.497,1.5323 6.924,3.9983c0.6991,1.2067 1.0702,2.5881 1.0702,3.9959c0,2.2026 -0.8978,4.2018 -2.3463,5.6503z" id="SVGID_5_"/>
     </defs>
     <clipPath transform="translate(0 6.72835) translate(-10.9815 0) translate(-1.33334 0) translate(-1.33334 0) translate(-1.33334 0) translate(-1.33334 0) translate(-1.33334 0) translate(-1.33334 0) translate(-1.33334 0) translate(-1.33334 0) translate(-1.33334 0) translate(-1.33334 0) translate(-1.33334 0) translate(0 -1.33334) translate(0 -1.33334) translate(0 -1.33334) translate(0 -1.33334) translate(0 -1.33334) translate(0 -1.33334) translate(0 -1.33334) translate(0 -1.33334) translate(0 -1.33334) translate(0 -1.33334) translate(0 -1.33334) translate(0 -1.33334) translate(0 -1.33334) translate(0 -1.33334) translate(0 -1.33334) translate(0 -1.33334) translate(0 -1.33334) translate(0 -1.33334) translate(0 -1.33334) translate(0 -1.33334) translate(0 -1.33334) translate(0 -1.33334) translate(0 -1.33334) translate(0 -1.33334)" id="SVGID_6_">
      <use x="-25.64825" y="-25.2718" id="svg_23" xlink:href="#SVGID_5_"/>
     </clipPath>
     <path id="svg_24" fill="#fff" clip-path="url(#SVGID_6_)" d="m164.42215,145.3377c-4.4005,-0.0048 -7.9918,3.5817 -7.9942,7.9942c0.0011,1.9546 0.7088,3.7452 1.8782,5.1354c-1.7447,-1.4674 -2.8575,-3.663 -2.8588,-6.116c0.0024,-4.4125 3.5936,-7.999 7.9942,-7.9942c2.3802,-0.0001 4.616,1.0833 6.1218,2.8788c-1.4231,-1.1973 -3.2342,-1.8982 -5.1412,-1.8982z"/>
     <path id="svg_25" fill="#020202" clip-path="url(#SVGID_6_)" opacity="0.13" d="m164.42215,145.3377c-4.4005,-0.0048 -7.9918,3.5817 -7.9942,7.9942c0.0011,1.9546 0.7088,3.7452 1.8782,5.1354c-1.7447,-1.4674 -2.8575,-3.663 -2.8588,-6.116c0.0024,-4.4125 3.5936,-7.999 7.9942,-7.9942c2.3802,-0.0001 4.616,1.0833 6.1218,2.8788c-1.4231,-1.1973 -3.2342,-1.8982 -5.1412,-1.8982z"/>
    </g>
    <g id="svg_26">
     <defs transform="translate(0 6.72835) translate(-10.9815 0) translate(-1.33334 0) translate(-1.33334 0) translate(-1.33334 0) translate(-1.33334 0) translate(-1.33334 0) translate(-1.33334 0) translate(-1.33334 0) translate(-1.33334 0) translate(-1.33334 0) translate(-1.33334 0) translate(-1.33334 0) translate(0 -1.33334) translate(0 -1.33334) translate(0 -1.33334) translate(0 -1.33334) translate(0 -1.33334) translate(0 -1.33334) translate(0 -1.33334) translate(0 -1.33334) translate(0 -1.33334) translate(0 -1.33334) translate(0 -1.33334) translate(0 -1.33334) translate(0 -1.33334) translate(0 -1.33334) translate(0 -1.33334) translate(0 -1.33334) translate(0 -1.33334) translate(0 -1.33334) translate(0 -1.33334) translate(0 -1.33334) translate(0 -1.33334) translate(0 -1.33334) translate(0 -1.33334) translate(0 -1.33334)">
      <path d="m189.0898,155.7617c7.7763,0 15.0283,4.1826 18.926,10.9151c1.9201,3.3135 2.9377,7.0987 2.9353,10.9462c0.0024,12.0643 -9.8065,21.8636 -21.8613,21.8613c-12.0547,0.0024 -21.8636,-9.8066 -21.8612,-21.8613c0,-6.0285 2.4516,-11.4921 6.4116,-15.452c3.9575,-3.9576 9.421,-6.4093 15.4496,-6.4093zm7.9941,21.8613c0,-1.4078 -0.3711,-2.7892 -1.0702,-3.9959c-1.4269,-2.466 -4.0797,-3.9983 -6.924,-3.9983c-4.4005,-0.0048 -7.9918,3.5817 -7.9942,7.9942c0.0024,4.4077 3.5865,7.9918 7.9942,7.9942c2.2027,0 4.2018,-0.8978 5.6479,-2.3439c1.4485,-1.4485 2.3463,-3.4477 2.3463,-5.6503z" id="SVGID_7_"/>
     </defs>
     <clipPath transform="translate(0 6.72835) translate(-10.9815 0) translate(-1.33334 0) translate(-1.33334 0) translate(-1.33334 0) translate(-1.33334 0) translate(-1.33334 0) translate(-1.33334 0) translate(-1.33334 0) translate(-1.33334 0) translate(-1.33334 0) translate(-1.33334 0) translate(-1.33334 0) translate(0 -1.33334) translate(0 -1.33334) translate(0 -1.33334) translate(0 -1.33334) translate(0 -1.33334) translate(0 -1.33334) translate(0 -1.33334) translate(0 -1.33334) translate(0 -1.33334) translate(0 -1.33334) translate(0 -1.33334) translate(0 -1.33334) translate(0 -1.33334) translate(0 -1.33334) translate(0 -1.33334) translate(0 -1.33334) translate(0 -1.33334) translate(0 -1.33334) translate(0 -1.33334) translate(0 -1.33334) translate(0 -1.33334) translate(0 -1.33334) translate(0 -1.33334) translate(0 -1.33334)" id="SVGID_8_">
      <use x="-25.64825" y="-25.2718" id="svg_27" xlink:href="#SVGID_7_"/>
     </clipPath>
     <path id="svg_28" fill="#d95140" clip-path="url(#SVGID_8_)" d="m147.01125,135.9185c-3.96,3.96 -6.4116,9.4235 -6.4116,15.452c-0.0024,12.0547 9.8066,21.8636 21.8613,21.8613c12.0547,0.0024 21.8636,-9.797 21.8613,-21.8613c0.0024,-3.8474 -1.0151,-7.6326 -2.9353,-10.9462c-3.8977,-6.7324 -11.1497,-10.9151 -18.926,-10.9151c-6.0286,0.0001 -11.4921,2.4517 -15.4497,6.4093z"/>
    </g>
    <rect id="svg_29" fill="#d95140" height="13.8671" width="122.6266" y="145.4182" x="173.24695"/>
   </g>
   <g id="svg_30">
    <g id="svg_31">
     <path id="svg_32" fill="#56a55c" d="m163.88965,239.3429l0.0012,-0.0012c7.7751,0.0012 15.0294,4.1862 18.932,10.9235c1.9177,3.3159 2.9305,7.1011 2.9293,10.9378c0,5.8394 -2.2733,11.3304 -6.4032,15.4604c-4.1288,4.1288 -9.6186,6.4032 -15.458,6.4032c-5.8394,0 -11.3281,-2.2733 -15.458,-6.4032c-4.13,-4.13 -6.4032,-9.6186 -6.4056,-15.4628c0.0012,-6.0249 2.454,-11.4897 6.4116,-15.4472c3.9586,-3.9589 9.4233,-6.4117 15.4507,-6.4105zm7.993,21.8576c0.0012,-1.4042 -0.3687,-2.7868 -1.063,-3.9887c-1.4293,-2.4684 -4.0833,-3.9995 -6.9299,-4.0019c-4.4077,0.0024 -7.993,3.5877 -7.993,7.993c0,2.1356 0.832,4.1431 2.3427,5.6538c1.5083,1.5083 3.5159,2.3403 5.6503,2.3415c2.1356,0 4.1443,-0.8308 5.6539,-2.3403c1.5094,-1.5095 2.3402,-3.5182 2.339,-5.6574z"/>
     <path id="svg_33" fill="#fff" opacity="0.3" d="m163.89205,239.3435c7.7763,0 15.0283,4.1826 18.926,10.9151c1.9201,3.3135 2.9377,7.0987 2.9353,10.9462c0.0024,12.0643 -9.8065,21.8636 -21.8613,21.8613c-12.0547,0.0024 -21.8636,-9.8065 -21.8612,-21.8613c0,-6.0285 2.4516,-11.492 6.4116,-15.452c3.9575,-3.9577 9.421,-6.4093 15.4496,-6.4093zm7.9941,21.8612c0,-1.4078 -0.3711,-2.7892 -1.0702,-3.9959c-1.4269,-2.466 -4.0797,-3.9983 -6.924,-3.9983c-4.4005,-0.0048 -7.9918,3.5817 -7.9942,7.9941c0.0024,4.4077 3.5865,7.9918 7.9942,7.9942c2.2027,0 4.2018,-0.8978 5.6479,-2.3439c1.4485,-1.4484 2.3463,-3.4475 2.3463,-5.6502z"/>
     <g id="svg_34">
      <defs transform="translate(0 6.72835) translate(-10.9815 0) translate(-1.33334 0) translate(-1.33334 0) translate(-1.33334 0) translate(-1.33334 0) translate(-1.33334 0) translate(-1.33334 0) translate(-1.33334 0) translate(-1.33334 0) translate(-1.33334 0) translate(-1.33334 0) translate(-1.33334 0) translate(0 -1.33334) translate(0 -1.33334) translate(0 -1.33334) translate(0 -1.33334) translate(0 -1.33334) translate(0 -1.33334) translate(0 -1.33334) translate(0 -1.33334) translate(0 -1.33334) translate(0 -1.33334) translate(0 -1.33334) translate(0 -1.33334) translate(0 -1.33334) translate(0 -1.33334) translate(0 -1.33334) translate(0 -1.33334) translate(0 -1.33334) translate(0 -1.33334) translate(0 -1.33334) translate(0 -1.33334) translate(0 -1.33334) translate(0 -1.33334) translate(0 -1.33334) translate(0 -1.33334)">
       <path d="m195.1881,292.1268c-1.4461,1.4461 -3.4452,2.3439 -5.6479,2.3439c-4.4077,-0.0024 -7.9918,-3.5865 -7.9942,-7.9942c0.0024,-4.4125 3.5937,-7.9989 7.9942,-7.9941c2.8443,0 5.497,1.5323 6.924,3.9983c0.6991,1.2067 1.0702,2.5881 1.0702,3.9959c0,2.2026 -0.8978,4.2017 -2.3463,5.6502z" id="SVGID_9_"/>
      </defs>
      <clipPath transform="translate(0 6.72835) translate(-10.9815 0) translate(-1.33334 0) translate(-1.33334 0) translate(-1.33334 0) translate(-1.33334 0) translate(-1.33334 0) translate(-1.33334 0) translate(-1.33334 0) translate(-1.33334 0) translate(-1.33334 0) translate(-1.33334 0) translate(-1.33334 0) translate(0 -1.33334) translate(0 -1.33334) translate(0 -1.33334) translate(0 -1.33334) translate(0 -1.33334) translate(0 -1.33334) translate(0 -1.33334) translate(0 -1.33334) translate(0 -1.33334) translate(0 -1.33334) translate(0 -1.33334) translate(0 -1.33334) translate(0 -1.33334) translate(0 -1.33334) translate(0 -1.33334) translate(0 -1.33334) translate(0 -1.33334) translate(0 -1.33334) translate(0 -1.33334) translate(0 -1.33334) translate(0 -1.33334) translate(0 -1.33334) translate(0 -1.33334) translate(0 -1.33334)" id="SVGID_10_">
       <use x="-25.64825" y="-25.2718" id="svg_35" xlink:href="#SVGID_9_"/>
      </clipPath>
      <path id="svg_36" fill="#fff" clip-path="url(#SVGID_10_)" d="m164.87265,254.1912c-4.4005,-0.0048 -7.9918,3.5817 -7.9942,7.9941c0.0011,1.9547 0.7088,3.7452 1.8782,5.1354c-1.7446,-1.4674 -2.8575,-3.6631 -2.8588,-6.1161c0.0024,-4.4125 3.5936,-7.999 7.9942,-7.9941c2.3802,-0.0001 4.616,1.0833 6.1218,2.8788c-1.4231,-1.1971 -3.2342,-1.8981 -5.1412,-1.8981z"/>
      <path id="svg_37" fill="#020202" clip-path="url(#SVGID_10_)" opacity="0.13" d="m164.87265,254.1912c-4.4005,-0.0048 -7.9918,3.5817 -7.9942,7.9941c0.0011,1.9547 0.7088,3.7452 1.8782,5.1354c-1.7446,-1.4674 -2.8575,-3.6631 -2.8588,-6.1161c0.0024,-4.4125 3.5936,-7.999 7.9942,-7.9941c2.3802,-0.0001 4.616,1.0833 6.1218,2.8788c-1.4231,-1.1971 -3.2342,-1.8981 -5.1412,-1.8981z"/>
     </g>
     <g id="svg_38">
      <defs transform="translate(0 6.72835) translate(-10.9815 0) translate(-1.33334 0) translate(-1.33334 0) translate(-1.33334 0) translate(-1.33334 0) translate(-1.33334 0) translate(-1.33334 0) translate(-1.33334 0) translate(-1.33334 0) translate(-1.33334 0) translate(-1.33334 0) translate(-1.33334 0) translate(0 -1.33334) translate(0 -1.33334) translate(0 -1.33334) translate(0 -1.33334) translate(0 -1.33334) translate(0 -1.33334) translate(0 -1.33334) translate(0 -1.33334) translate(0 -1.33334) translate(0 -1.33334) translate(0 -1.33334) translate(0 -1.33334) translate(0 -1.33334) translate(0 -1.33334) translate(0 -1.33334) translate(0 -1.33334) translate(0 -1.33334) translate(0 -1.33334) translate(0 -1.33334) translate(0 -1.33334) translate(0 -1.33334) translate(0 -1.33334) translate(0 -1.33334) translate(0 -1.33334)">
       <path d="m189.5403,264.6153c7.7763,0 15.0283,4.1826 18.926,10.9151c1.9201,3.3135 2.9377,7.0987 2.9353,10.9462c0.0024,12.0643 -9.8065,21.8636 -21.8613,21.8613c-12.0547,0.0024 -21.8636,-9.8065 -21.8612,-21.8613c0,-6.0285 2.4516,-11.492 6.4116,-15.452c3.9575,-3.9577 9.421,-6.4093 15.4496,-6.4093zm7.9941,21.8612c0,-1.4078 -0.3711,-2.7892 -1.0702,-3.9959c-1.4269,-2.466 -4.0797,-3.9983 -6.924,-3.9983c-4.4005,-0.0048 -7.9918,3.5817 -7.9942,7.9941c0.0024,4.4077 3.5865,7.9918 7.9942,7.9942c2.2027,0 4.2018,-0.8978 5.6479,-2.3439c1.4485,-1.4484 2.3463,-3.4475 2.3463,-5.6502z" id="SVGID_11_"/>
      </defs>
      <clipPath transform="translate(0 6.72835) translate(-10.9815 0) translate(-1.33334 0) translate(-1.33334 0) translate(-1.33334 0) translate(-1.33334 0) translate(-1.33334 0) translate(-1.33334 0) translate(-1.33334 0) translate(-1.33334 0) translate(-1.33334 0) translate(-1.33334 0) translate(-1.33334 0) translate(0 -1.33334) translate(0 -1.33334) translate(0 -1.33334) translate(0 -1.33334) translate(0 -1.33334) translate(0 -1.33334) translate(0 -1.33334) translate(0 -1.33334) translate(0 -1.33334) translate(0 -1.33334) translate(0 -1.33334) translate(0 -1.33334) translate(0 -1.33334) translate(0 -1.33334) translate(0 -1.33334) translate(0 -1.33334) translate(0 -1.33334) translate(0 -1.33334) translate(0 -1.33334) translate(0 -1.33334) translate(0 -1.33334) translate(0 -1.33334) translate(0 -1.33334) translate(0 -1.33334)" id="SVGID_12_">
       <use x="-25.64825" y="-25.2718" id="svg_39" xlink:href="#SVGID_11_"/>
      </clipPath>
      <path id="svg_40" fill="#56a55c" clip-path="url(#SVGID_12_)" d="m147.46175,244.7721c-3.96,3.96 -6.4116,9.4235 -6.4116,15.452c-0.0024,12.0547 9.8066,21.8636 21.8613,21.8613c12.0547,0.0024 21.8636,-9.797 21.8613,-21.8613c0.0024,-3.8474 -1.0151,-7.6326 -2.9353,-10.9462c-3.8977,-6.7325 -11.1497,-10.9151 -18.926,-10.9151c-6.0286,0 -11.4921,2.4517 -15.4497,6.4093z"/>
     </g>
    </g>
    <rect id="svg_41" fill="#56a55c" height="13.8671" width="122.6266" y="254.2718" x="173.69735"/>
   </g>
   <g id="svg_42">
    <g id="svg_43">
     <path id="svg_44" fill="#f1bc42" d="m163.43915,293.449l0.0012,-0.0012c7.7751,0.0012 15.0295,4.1862 18.932,10.9234c1.9177,3.3159 2.9305,7.1011 2.9293,10.9378c0,5.8394 -2.2733,11.3305 -6.4032,15.4604c-4.1288,4.1288 -9.6186,6.4032 -15.458,6.4032s-11.328,-2.2733 -15.458,-6.4032s-6.4032,-9.6186 -6.4056,-15.4628c0.0012,-6.025 2.454,-11.4897 6.4116,-15.4472c3.9586,-3.9588 9.4234,-6.4116 15.4507,-6.4104zm7.993,21.8576c0.0012,-1.4042 -0.3687,-2.7868 -1.063,-3.9887c-1.4293,-2.4684 -4.0833,-3.9995 -6.9299,-4.0019c-4.4077,0.0024 -7.993,3.5877 -7.993,7.993c0,2.1356 0.832,4.1431 2.3427,5.6539c1.5083,1.5083 3.5159,2.3403 5.6503,2.3415c2.1356,0 4.1443,-0.8308 5.6539,-2.3403s2.3402,-3.5183 2.339,-5.6575z"/>
     <path id="svg_45" fill="#fff" opacity="0.3" d="m163.44155,293.4496c7.7763,0 15.0283,4.1826 18.926,10.915c1.9201,3.3136 2.9377,7.0988 2.9353,10.9462c0.0024,12.0643 -9.8065,21.8636 -21.8613,21.8612c-12.0547,0.0024 -21.8636,-9.8065 -21.8612,-21.8612c0,-6.0285 2.4516,-11.4921 6.4116,-15.452c3.9575,-3.9576 9.421,-6.4092 15.4496,-6.4092zm7.9941,21.8612c0,-1.4078 -0.3711,-2.7892 -1.0702,-3.9959c-1.4269,-2.466 -4.0797,-3.9983 -6.924,-3.9983c-4.4005,-0.0048 -7.9918,3.5817 -7.9942,7.9942c0.0024,4.4077 3.5865,7.9918 7.9942,7.9942c2.2027,0 4.2018,-0.8978 5.6479,-2.3439c1.4485,-1.4485 2.3463,-3.4476 2.3463,-5.6503z"/>
     <g id="svg_46">
      <defs transform="translate(0 6.72835) translate(-10.9815 0) translate(-1.33334 0) translate(-1.33334 0) translate(-1.33334 0) translate(-1.33334 0) translate(-1.33334 0) translate(-1.33334 0) translate(-1.33334 0) translate(-1.33334 0) translate(-1.33334 0) translate(-1.33334 0) translate(-1.33334 0) translate(0 -1.33334) translate(0 -1.33334) translate(0 -1.33334) translate(0 -1.33334) translate(0 -1.33334) translate(0 -1.33334) translate(0 -1.33334) translate(0 -1.33334) translate(0 -1.33334) translate(0 -1.33334) translate(0 -1.33334) translate(0 -1.33334) translate(0 -1.33334) translate(0 -1.33334) translate(0 -1.33334) translate(0 -1.33334) translate(0 -1.33334) translate(0 -1.33334) translate(0 -1.33334) translate(0 -1.33334) translate(0 -1.33334) translate(0 -1.33334) translate(0 -1.33334) translate(0 -1.33334)">
       <path d="m194.7376,346.2329c-1.4461,1.4461 -3.4452,2.3439 -5.6479,2.3439c-4.4077,-0.0024 -7.9918,-3.5865 -7.9942,-7.9942c0.0024,-4.4125 3.5937,-7.999 7.9942,-7.9942c2.8443,0 5.497,1.5323 6.924,3.9983c0.6991,1.2067 1.0702,2.5881 1.0702,3.9959c0,2.2027 -0.8978,4.2018 -2.3463,5.6503z" id="SVGID_13_"/>
      </defs>
      <clipPath transform="translate(0 6.72835) translate(-10.9815 0) translate(-1.33334 0) translate(-1.33334 0) translate(-1.33334 0) translate(-1.33334 0) translate(-1.33334 0) translate(-1.33334 0) translate(-1.33334 0) translate(-1.33334 0) translate(-1.33334 0) translate(-1.33334 0) translate(-1.33334 0) translate(0 -1.33334) translate(0 -1.33334) translate(0 -1.33334) translate(0 -1.33334) translate(0 -1.33334) translate(0 -1.33334) translate(0 -1.33334) translate(0 -1.33334) translate(0 -1.33334) translate(0 -1.33334) translate(0 -1.33334) translate(0 -1.33334) translate(0 -1.33334) translate(0 -1.33334) translate(0 -1.33334) translate(0 -1.33334) translate(0 -1.33334) translate(0 -1.33334) translate(0 -1.33334) translate(0 -1.33334) translate(0 -1.33334) translate(0 -1.33334) translate(0 -1.33334) translate(0 -1.33334)" id="SVGID_14_">
       <use x="-25.64825" y="-25.2718" id="svg_47" xlink:href="#SVGID_13_"/>
      </clipPath>
      <path id="svg_48" fill="#fff" clip-path="url(#SVGID_14_)" d="m164.42215,308.2973c-4.4005,-0.0048 -7.9918,3.5817 -7.9942,7.9942c0.0011,1.9547 0.7088,3.7452 1.8782,5.1354c-1.7447,-1.4674 -2.8575,-3.6631 -2.8588,-6.1161c0.0024,-4.4125 3.5936,-7.999 7.9942,-7.9942c2.3802,-0.0001 4.616,1.0834 6.1218,2.8788c-1.4231,-1.1971 -3.2342,-1.8981 -5.1412,-1.8981z"/>
      <path id="svg_49" fill="#020202" clip-path="url(#SVGID_14_)" opacity="0.13" d="m164.42215,308.2973c-4.4005,-0.0048 -7.9918,3.5817 -7.9942,7.9942c0.0011,1.9547 0.7088,3.7452 1.8782,5.1354c-1.7447,-1.4674 -2.8575,-3.6631 -2.8588,-6.1161c0.0024,-4.4125 3.5936,-7.999 7.9942,-7.9942c2.3802,-0.0001 4.616,1.0834 6.1218,2.8788c-1.4231,-1.1971 -3.2342,-1.8981 -5.1412,-1.8981z"/>
     </g>
     <g id="svg_50">
      <defs transform="translate(0 6.72835) translate(-10.9815 0) translate(-1.33334 0) translate(-1.33334 0) translate(-1.33334 0) translate(-1.33334 0) translate(-1.33334 0) translate(-1.33334 0) translate(-1.33334 0) translate(-1.33334 0) translate(-1.33334 0) translate(-1.33334 0) translate(-1.33334 0) translate(0 -1.33334) translate(0 -1.33334) translate(0 -1.33334) translate(0 -1.33334) translate(0 -1.33334) translate(0 -1.33334) translate(0 -1.33334) translate(0 -1.33334) translate(0 -1.33334) translate(0 -1.33334) translate(0 -1.33334) translate(0 -1.33334) translate(0 -1.33334) translate(0 -1.33334) translate(0 -1.33334) translate(0 -1.33334) translate(0 -1.33334) translate(0 -1.33334) translate(0 -1.33334) translate(0 -1.33334) translate(0 -1.33334) translate(0 -1.33334) translate(0 -1.33334) translate(0 -1.33334)">
       <path d="m189.0898,318.7214c7.7763,0 15.0283,4.1826 18.926,10.915c1.9201,3.3136 2.9377,7.0988 2.9353,10.9462c0.0024,12.0643 -9.8065,21.8636 -21.8613,21.8612c-12.0547,0.0024 -21.8636,-9.8065 -21.8612,-21.8612c0,-6.0285 2.4516,-11.4921 6.4116,-15.452c3.9575,-3.9576 9.421,-6.4092 15.4496,-6.4092zm7.9941,21.8612c0,-1.4078 -0.3711,-2.7892 -1.0702,-3.9959c-1.4269,-2.466 -4.0797,-3.9983 -6.924,-3.9983c-4.4005,-0.0048 -7.9918,3.5817 -7.9942,7.9942c0.0024,4.4077 3.5865,7.9918 7.9942,7.9942c2.2027,0 4.2018,-0.8978 5.6479,-2.3439c1.4485,-1.4485 2.3463,-3.4476 2.3463,-5.6503z" id="SVGID_15_"/>
      </defs>
      <clipPath transform="translate(0 6.72835) translate(-10.9815 0) translate(-1.33334 0) translate(-1.33334 0) translate(-1.33334 0) translate(-1.33334 0) translate(-1.33334 0) translate(-1.33334 0) translate(-1.33334 0) translate(-1.33334 0) translate(-1.33334 0) translate(-1.33334 0) translate(-1.33334 0) translate(0 -1.33334) translate(0 -1.33334) translate(0 -1.33334) translate(0 -1.33334) translate(0 -1.33334) translate(0 -1.33334) translate(0 -1.33334) translate(0 -1.33334) translate(0 -1.33334) translate(0 -1.33334) translate(0 -1.33334) translate(0 -1.33334) translate(0 -1.33334) translate(0 -1.33334) translate(0 -1.33334) translate(0 -1.33334) translate(0 -1.33334) translate(0 -1.33334) translate(0 -1.33334) translate(0 -1.33334) translate(0 -1.33334) translate(0 -1.33334) translate(0 -1.33334) translate(0 -1.33334)" id="SVGID_16_">
       <use x="-25.64825" y="-25.2718" id="svg_51" xlink:href="#SVGID_15_"/>
      </clipPath>
      <path id="svg_52" fill="#f1bc42" clip-path="url(#SVGID_16_)" d="m147.01125,298.8782c-3.96,3.96 -6.4116,9.4235 -6.4116,15.452c-0.0024,12.0547 9.8066,21.8636 21.8613,21.8612c12.0547,0.0024 21.8636,-9.797 21.8613,-21.8612c0.0024,-3.8474 -1.0151,-7.6327 -2.9353,-10.9462c-3.8977,-6.7324 -11.1497,-10.9151 -18.926,-10.9151c-6.0286,0 -11.4921,2.4517 -15.4497,6.4093z"/>
     </g>
    </g>
    <rect id="svg_53" fill="#f1bc42" height="13.8671" width="122.6266" y="308.3779" x="173.24695"/>
   </g>
  </g>
 </g>
</svg>