<svg width="64" height="64" xmlns="http://www.w3.org/2000/svg" >
<rect width="64" height="64" fill="blue" />
 <g>
  <path id="svg_1" fill="white" d="m46.1269,19l2.9856,0l0.9116,2.3171l11.6688,0l0,2.5235l0,2.9594l-2.4842,0l0,-2.9594l-20.5571,0l0,2.9594l-2.4842,0l0,-5.46l0.1595,0l0,-0.0229l10.7116,0l-0.9116,-2.3171zm3.8772,17.3693l0,5.5952c2.4903,0.5133 7.2911,0.542 10.7537,0.5626l0.5993,0.0037l0.5963,0l0,2.4692l-0.5963,0l-0.6881,0c-3.7155,0 -8.509,-0.0227 -11.2612,-0.6117c-4.4954,-0.9514 -7.3164,-3.1713 -8.876,-4.8477c-0.1835,0.5437 -0.367,1.0874 -0.5963,1.5857c-0.6422,1.4725 -1.445,2.7637 -2.3853,3.851l-1.9037,-1.5177c0.8487,-0.9061 1.5826,-2.0388 2.156,-3.3753c0.4587,-1.11 0.8486,-2.3332 1.1238,-3.6697c0.3211,-1.6537 0.4128,-3.0355 0.4358,-3.7151l2.3394,0c-0.0229,0.6796 -0.0918,2.0161 -0.3899,3.6698c0.2293,0.3851 2.0183,3.2167 6.1925,4.8477l0,-11.1679l-8.142,0l0,-2.4691l19.4492,0l0,2.4691l-8.8072,0l0,3.851l8.8072,0l0,2.4692l-8.8072,0zm-29.7618,-17.1093l-2.987,0l0.912,2.2966l-6.70365,0l0,-1.5008l-8.50499,1.3871l0,2.2966l3.57985,-0.5685l0,3.7291l-3.57985,0l0,2.2966l3.05541,0l-3.96747,12.6426l2.32576,0l2.16615,-6.8215l0,9.9822l2.48537,0l0,-15.8033l2.43977,0l0,-2.2966l-2.43977,0l0,-4.1384l2.43977,-0.4093l0,1.7054l17.67125,0l0,-2.5012l-7.9806,0l-0.912,-2.2966zm4.6189,9.2436l0,2.6658l1.7826,0l2.491,0l0,2.5064l0,11.3242l-2.491,0l0,-11.3242l-1.7826,0l0,5.9697l0,2.4836l-9.1872,0l0,-0.2735l0,-8.2026l-1.7597,0l0,11.3242l-2.49104,0l0,-11.3242l0,-2.4836l2.49104,0l1.7597,0l0,-2.6658l0,-2.4836l2.3768,0l4.4336,0l2.3768,0l0,2.4836zm-2.3768,0l-4.4336,0l0,2.6658l4.4336,0l0,-2.6658zm0,11.1191l-4.4336,0l0,-5.9697l4.4336,0l0,5.9697z" clip-rule="evenodd" fill-rule="evenodd"/>
 </g>
</svg>