<?xml version="1.0" standalone="no"?><!DOCTYPE svg PUBLIC "-//W3C//DTD SVG 1.1//EN" "http://www.w3.org/Graphics/SVG/1.1/DTD/svg11.dtd"><svg t="1633436900720" class="icon" viewBox="0 0 1024 1024" version="1.1" xmlns="http://www.w3.org/2000/svg" p-id="38243" xmlns:xlink="http://www.w3.org/1999/xlink" width="200" height="200"><defs><style type="text/css"></style></defs><path d="M460.873143 758.198857a29.988571 29.988571 0 0 1 29.959314 29.944686 29.988571 29.988571 0 0 1-29.959314 29.944686 29.988571 29.988571 0 0 1-29.944686-29.944686 29.973943 29.973943 0 0 1 29.944686-29.944686m470.367086-185.504914a29.988571 29.988571 0 0 1-29.959315-29.944686 29.988571 29.988571 0 0 1 29.959315-29.959314 29.988571 29.988571 0 0 1 29.944685 29.959314 29.973943 29.973943 0 0 1-29.944685 29.944686m0-122.704457a92.862171 92.862171 0 0 0-92.759772 92.759771c0 9.962057 1.653029 19.880229 4.9152 29.520457L536.9856 735.378286a92.379429 92.379429 0 0 0-76.141714-39.950629 92.891429 92.891429 0 0 0-83.178057 51.843657L102.385371 602.141257c-29.0816-15.286857-50.848914-63.195429-48.5376-106.788571 1.199543-22.747429 9.055086-40.389486 21.021258-47.2064 7.592229-4.315429 16.735086-3.935086 26.433828 1.141028l1.8432 0.965486c72.923429 38.429257 311.647086 164.161829 321.696914 168.828343 15.506286 7.168 24.137143 10.079086 50.556343-2.442972L968.850286 360.009143c7.226514-2.735543 15.6672-9.654857 15.6672-20.187429 0-14.599314-15.096686-20.348343-15.140572-20.348343-28.0576-13.458286-71.197257-33.660343-113.283657-53.3504-89.936457-42.115657-191.868343-89.834057-236.631771-113.283657-38.648686-20.231314-69.749029-3.1744-75.307886 0.277943l-10.781257 5.339429C331.907657 258.091886 62.288457 391.621486 46.928457 400.954514 19.441371 417.674971 2.413714 450.998857 0.219429 492.368457c-3.437714 65.579886 30.017829 133.9392 77.838628 159.0272l291.079314 150.1184a92.789029 92.789029 0 0 0 91.721143 79.418514 92.862171 92.862171 0 0 0 92.745143-91.3408l320.585143-173.743542a92.891429 92.891429 0 0 0 57.051429 19.675428c51.141486 0 92.759771-41.618286 92.759771-92.759771s-41.618286-92.7744-92.759771-92.7744" fill="#3884FF" p-id="38244"></path></svg>