<?xml version="1.0" standalone="no"?><!DOCTYPE svg PUBLIC "-//W3C//DTD SVG 1.1//EN" "http://www.w3.org/Graphics/SVG/1.1/DTD/svg11.dtd"><svg t="1633436380432" class="icon" viewBox="0 0 1026 1024" version="1.1" xmlns="http://www.w3.org/2000/svg" p-id="35612" xmlns:xlink="http://www.w3.org/1999/xlink" width="200.390625" height="200"><defs><style type="text/css"></style></defs><path d="M60.44416 384h908.8L514.84416 992z" fill="#FD6F1A" p-id="35613"></path><path d="M514.84416 992L22.04416 614.4 2.84416 595.2c-6.4-6.4 0-19.2 0-25.6L60.44416 384 514.84416 992zM329.24416 384H706.84416l-192 608L329.24416 384zM214.04416 12.8L329.24416 384H60.44416L175.64416 19.2c6.4-12.8 12.8-19.2 19.2-19.2s12.8 6.4 19.2 12.8zM1026.84416 569.6v25.6c0 6.4-6.4 12.8-12.8 19.2L514.84416 992 969.24416 384l57.6 185.6zM969.24416 384H706.84416L822.04416 19.2c0-12.8 6.4-19.2 12.8-19.2s12.8 6.4 19.2 12.8L969.24416 384z" fill="#E34524" p-id="35614"></path><path d="M514.84416 992L22.04416 614.4 2.84416 595.2c-6.4-6.4 0-19.2 0-25.6L60.44416 384 514.84416 992zM329.24416 384H706.84416l-192 608L329.24416 384z m0 0H60.44416h268.8zM1026.84416 569.6v25.6c0 6.4-6.4 12.8-12.8 19.2L514.84416 992 969.24416 384l57.6 185.6zM969.24416 384H706.84416h262.4z" fill="#FDA50F" p-id="35615"></path><path d="M329.24416 384h371.2L514.84416 992z" fill="#E34524" p-id="35616"></path></svg>