<svg width="70" height="70" xmlns="http://www.w3.org/2000/svg" xml:space="preserve" version="1.1">

 <g>
  <title>Layer 1</title>
  <g id="svg_1" fill="purple">
   <path id="svg_2" d="m35,0c9.6,0 17.9,3.4 24.7,10.3c6.8,6.8 10.3,15 10.3,24.7c0,9.7 -3.4,17.9 -10.3,24.7c-6.8,6.8 -15,10.3 -24.7,10.3c-9.7,0 -17.9,-3.4 -24.7,-10.3c-6.9,-6.9 -10.3,-15.1 -10.3,-24.8c0,-9.6 3.4,-17.9 10.3,-24.7c6.8,-6.8 15,-10.2 24.7,-10.2zm-12.7,63.7c0.3,-7.4 0.3,-14.7 0,-22.1c-2.1,-0.4 -4,-0.4 -5.9,0c-0.2,0.8 -0.2,2.5 -0.1,4.9c0.1,2.3 0,3.9 -0.3,4.8c-1.7,-0.6 -2.7,-2.1 -3.1,-4.6c-0.1,-0.7 -0.1,-3.3 -0.1,-8c0,-14.5 -0.1,-23 -0.3,-25.6c-3.6,4.1 -5.6,7 -5.9,8.5l0,10.9c0,4.5 0.1,8.1 0.2,10.9c0,0.4 0,1.3 -0.1,2.8c-0.1,1.2 0,2.1 0.1,2.6c0.1,0.6 1.1,2.1 2.8,4.7c3.6,5.2 7.9,8.7 12.7,10.2zm22.3,1.7c0.3,-5 0.2,-12.9 -0.1,-23.6c-2.1,-0.3 -4.1,-0.3 -5.9,0c-0.2,2 -0.2,5.1 -0.1,9.5c0.1,4.3 0,7.5 -0.1,9.5c-2.9,0.4 -5,0.3 -6.2,-0.1c-0.2,-5.6 -0.2,-15.2 -0.1,-28.7c0.1,-12.4 0,-21.8 -0.3,-28.3c-2.4,0.1 -4.3,0.6 -5.7,1.3c-0.1,7.7 -0.2,17.7 -0.1,30.1c0,16.5 0,26.6 0,30.3c2.3,1.1 5.4,1.7 9.4,1.7c3.5,-0.2 6.7,-0.7 9.2,-1.7zm3.5,-1.3c9.7,-4.6 15.7,-12 18,-22.2c-1.8,-0.2 -3.8,-0.3 -6.1,-0.3c-1.6,3.9 -2.6,6.3 -3.2,7.2c-1.1,1.7 -2,2.5 -2.7,2.5c-0.1,-5.3 -0.1,-12.2 -0.1,-20.8c0,-11.5 0,-18.4 0,-20.9c-1.4,-1.4 -3.3,-2.5 -5.7,-3.4c-0.2,0.1 -0.3,0.2 -0.3,0.5c0,3.5 0,13.1 0,28.8c-0.1,11.7 0,21.3 0.1,28.6z"/>
  </g>
 </g>
</svg>