<?xml version="1.0" standalone="no"?><!DOCTYPE svg PUBLIC "-//W3C//DTD SVG 1.1//EN" "http://www.w3.org/Graphics/SVG/1.1/DTD/svg11.dtd"><svg t="1637752380034" class="icon" viewBox="0 0 1242 1024" version="1.1" xmlns="http://www.w3.org/2000/svg" p-id="1326" xmlns:xlink="http://www.w3.org/1999/xlink" width="242.578125" height="200"><defs><style type="text/css"></style></defs><path d="M189.046154 938.262722c-32.719527-5.150296-64.833136-30.598817-79.981065-63.318343-10.300592-22.115976-10.300592-22.115976-11.512426-75.739645l-1.211835-53.926627h45.140829c42.111243 0 46.049704-0.605917 55.744379-6.968048 29.084024-19.389349 22.418935-49.685207-13.330178-61.500592-12.118343-3.938462-22.418935-4.847337-51.2-3.332544l-35.749112 1.514793v-78.163314h41.505325c49.685207 0 63.621302-4.544379 73.921893-24.539645l5.756214-11.815384-6.059172-12.421302c-10.300592-19.692308-23.024852-23.933728-73.618935-23.933728H96.643787l0.908876-133.907692 0.908875-134.210651 9.997634-20.601183c12.421302-25.448521 27.872189-41.505325 51.805917-53.32071 19.389349-9.997633 48.776331-16.056805 64.833136-13.330178 9.391716 1.514793 11.209467 0 27.569231-19.389349 22.115976-25.448521 49.382249-51.805917 56.956213-54.229586 3.029586-0.908876 5.453254-2.726627 5.453254-3.938461 0-1.514793 7.876923-6.059172 17.571598-10.300592 14.542012-6.665089 19.692308-7.573964 27.56923-5.150296 20.904142 5.756213 75.436686 52.108876 93.008285 78.769231 4.544379 6.665089 11.209467 13.027219 15.147928 13.936094s35.143195 1.211834 69.377515 0.605918l62.409468-0.908876-0.908876 28.781065-0.908876 28.781065-51.502958-0.908876c-54.532544-1.211834-65.742012 0.605917-74.83077 12.421302-4.24142 5.756213-4.544379 7.573964-0.605917 14.542012 6.36213 12.421302 18.177515 14.84497 76.345562 14.84497h53.017752l-2.423669 21.813018c-0.908876 12.118343-2.726627 23.024852-3.332544 24.236686-0.908876 1.514793-24.539645 2.423669-52.714793 2.423669-48.776331 0-51.502959 0.302959-57.56213 6.665089-7.573964 8.179882-7.573964 12.118343-0.605917 20.298225 8.48284 10.906509 35.749112 12.72426 152.691124 11.815384l107.247337-0.908875 8.179882-8.785799c9.391716-9.997633 9.088757-9.391716 5.150296-16.965681-6.36213-11.512426-15.147929-13.633136-68.165681-15.147929l-51.502958-1.514793V265.088757l51.502958 1.211835c57.259172 1.211834 71.195266-1.817751 77.860355-16.056805 2.726627-6.665089 2.423669-8.785799-2.12071-13.936095-9.694675-10.906509-23.933728-13.027219-76.951479-11.815384l-50.291124 1.211834-0.908876-28.781065-0.908876-28.781065 66.650888 0.908876 66.347929 1.211834 20.601183-22.115976c32.416568-34.537278 53.017751-53.017751 69.377515-62.712426 23.630769-13.936095 30.901775-14.239053 53.32071-1.211835 18.480473 10.906509 67.559763 56.047337 80.586982 74.527811 5.756213 8.179882 7.573964 8.785799 28.781065 9.694674 63.621302 1.817751 108.156213 40.899408 117.547929 102.702959 2.12071 14.239053 2.726627 113.609467 2.12071 298.414201-1.211834 298.111243-0.605917 282.660355-16.056804 312.956213-6.36213 11.815385-35.749112 41.505325-41.505326 41.505326-2.423669 0-5.150296 2.12071-6.36213 4.544378-0.908876 2.423669-4.544379 4.544379-7.876923 4.544379-3.635503 0-9.088757 1.514793-12.118343 3.029586-6.968047 3.635503-845.557396 5.756213-868.27929 2.12071z m556.231953-117.547929c7.573964-1.817751 16.056805-3.635503 19.08639-4.24142 12.118343-2.726627 41.505325-20.904142 54.532544-34.23432 28.781065-29.689941 41.505325-73.315976 28.781066-99.067455-6.059172-11.512426-51.502959-59.076923-56.956214-59.076923-1.514793 0-4.544379-1.817751-6.968047-4.241421-2.12071-2.423669-11.209467-7.876923-19.692308-12.421301-8.785799-4.544379-16.662722-9.391716-17.571597-10.906509-2.726627-4.544379-7.271006-3.029586-5.453255 1.817751 3.635503 9.391716-9.391716 4.544379-13.936094-5.453254-2.423669-5.150296-8.179882-11.512426-12.724261-13.633136-4.847337-2.12071-8.48284-5.150296-8.48284-6.968048 0-1.514793-2.726627-2.726627-6.059171-2.726627s-6.059172-1.211834-6.059172-2.423668c0-1.514793-6.665089-5.756213-15.147929-9.694675-8.179882-3.938462-15.147929-8.179882-15.147929-9.694675 0-1.211834-2.726627-2.423669-6.059172-2.423668s-6.059172-1.211834-6.059171-2.726627-6.665089-5.453254-14.844971-9.088758c-8.179882-3.332544-15.450888-7.271006-16.056804-8.48284-0.302959-1.514793-9.694675-7.271006-20.601184-12.72426-10.906509-5.756213-20.298225-11.209467-21.2071-12.421302-2.423669-3.029586-23.327811-12.118343-27.87219-12.118343-2.423669 0-8.179882 4.24142-13.330177 9.391716-8.785799 9.088757-8.785799 9.391716-10.300592 53.623668-1.211834 38.47574-2.12071 44.534911-6.665089 45.443787-2.726627 0.605917-5.453254-1.211834-6.059171-3.635503-0.605917-3.635503-7.876923-0.605917-31.204734 12.724261-44.534911 25.751479-53.017751 31.507692-71.801184 49.988165-19.389349 18.783432-26.660355 33.022485-26.660355 51.805917 0 15.450888 6.059172 38.778698 14.239054 54.835503 6.665089 12.72426 29.084024 37.869822 33.628402 37.869823 1.514793 0 5.756213 2.726627 9.694675 6.059171 6.059172 5.453254 27.266272 12.72426 45.443787 16.056805 16.96568 3.029586 244.487574 1.817751 257.514793-1.211834z m384.757396-111.791716v-36.35503h-36.960947c-41.808284 0-55.744379 2.726627-68.771597 13.633136-18.783432 16.056805-16.662722 37.566864 5.453254 52.108876 9.391716 6.36213 13.633136 6.968047 55.138462 6.968048h45.140828v-36.35503z m0-148.449704v-36.35503h-41.505325c-55.44142 0.302959-71.801183 6.665089-75.739645 31.204734-2.12071 14.542012 5.150296 27.266272 20.904142 35.143195 11.512426 5.453254 18.177515 6.36213 54.835503 6.36213h41.505325v-36.355029z" fill="#EFC721" p-id="1327"></path><path d="M96.946746 708.923077v-45.140828l46.352662 0.605917c50.594083 0.605917 63.621302 4.24142 75.739645 20.601183 13.936095 19.086391 7.876923 48.776331-12.72426 62.409468-9.694675 6.665089-13.330178 6.968047-59.68284 6.968047H96.946746v-45.443787zM1020.667456 747.398817c-28.478107-19.086391-26.660355-58.471006 3.635503-76.345563 9.088757-5.150296 16.96568-6.059172 62.712426-6.968047l52.108875-1.211834v91.493491h-54.229585c-50.897041 0-54.532544-0.302959-64.227219-6.968047zM536.236686 718.92071c-5.756213-3.029586-12.421302-9.088757-14.542011-13.633136-5.756213-12.118343-6.968047-46.95858-4.847338-130.878107l2.12071-75.739645 9.694675-10.300591c7.573964-8.48284 11.815385-10.60355 21.510059-10.603551 10.300592-0.302959 33.325444 7.876923 37.566864 13.027219 0.908876 1.211834 10.300592 6.665089 21.207101 12.421302 10.906509 5.453254 20.298225 11.209467 20.601183 12.724261 0.605917 1.211834 7.876923 5.150296 16.056805 8.48284 8.179882 3.635503 14.84497 7.573964 14.84497 9.088757s2.726627 2.726627 6.059172 2.726627 6.059172 1.211834 6.059171 2.423669c0 1.514793 6.968047 5.756213 15.147929 9.694675 8.48284 3.938462 15.147929 8.179882 15.147929 9.694674 0 1.211834 2.726627 2.423669 6.059172 2.423669s6.059172 1.514793 6.059172 3.029586c0 1.817751 3.332544 4.544379 7.271005 6.059171 17.268639 6.36213 23.933728 34.537278 12.118344 50.594083-3.635503 4.544379-27.266272 20.601183-53.017752 35.143195-25.751479 14.84497-54.229586 31.204734-63.318343 36.960947-27.569231 16.359763-53.623669 29.084024-62.712426 30.598817-4.544379 0.605917-13.330178-1.211834-19.086391-3.938462zM96.946746 560.473373v-45.443787h46.352662c38.778698 0 48.170414 0.908876 58.773965 5.756213 32.719527 15.147929 32.719527 63.015385 0 78.769231-11.512426 5.756213-18.480473 6.36213-59.076923 6.36213H96.946746v-45.443787zM1024.302959 599.252071c-31.507692-15.450888-31.810651-61.500592-0.302959-77.254438 12.421302-6.36213 17.571598-6.968047 64.227219-6.968047h50.897041v90.887574h-50.594082c-46.049704 0-52.108876-0.605917-64.227219-6.665089zM492.913609 361.732544c-0.908876-0.908876-3.938462-2.12071-7.271005-2.423668-8.179882-1.211834-19.389349-19.692308-17.874557-29.084024 1.514793-9.997633 7.876923-20.601183 13.936095-23.024852 2.423669-0.908876 26.660355-1.514793 53.926627-1.211834 37.869822 0.302959 49.382249-0.605917 50.291124-3.635503 0.605917-2.12071 2.12071-9.088757 3.029586-15.147929l1.514793-11.512426h-52.411834c-30.598817 0-56.350296-1.514793-62.106509-3.332545-16.359763-5.756213-23.630769-28.478107-13.633136-43.626035 7.573964-11.512426 19.995266-13.936095 75.436686-13.330178l51.2 0.302959 0.302959-23.933728v-23.630769h56.956213l0.302958 23.933728 0.302959 23.630769 56.653254 0.605917c52.108876 0.302959 57.259172 0.908876 65.136095 6.665089 10.60355 7.876923 14.239053 23.327811 8.179882 35.446154-7.876923 14.84497-19.692308 17.571598-77.860355 17.268639l-52.108876-0.605917v26.357396l51.502959 1.514793c56.047337 1.514793 62.106509 3.332544 69.983432 18.480473 5.453254 10.906509 2.726627 22.418935-8.482841 33.628403l-6.968047 6.968047-129.060355 0.605917c-71.195266 0.302959-129.969231 0-130.878107-0.908876z" fill="#462E2D" p-id="1328"></path>
</svg>