<?xml version="1.0" standalone="no"?><!DOCTYPE svg PUBLIC "-//W3C//DTD SVG 1.1//EN" "http://www.w3.org/Graphics/SVG/1.1/DTD/svg11.dtd"><svg t="1633436463658" class="icon" viewBox="0 0 1024 1024" version="1.1" xmlns="http://www.w3.org/2000/svg" p-id="36128" xmlns:xlink="http://www.w3.org/1999/xlink" width="200" height="200"><defs><style type="text/css"></style></defs><path d="M582.17 22.06c208.91 13.54 394.79 191.22 420.84 402.29 0.57 43.21-29.78 44.67-60.79 45.28C812.77 345.2 688.47 215.43 559.91 89.87c-5.27-26.78 3-49.11 22.26-67.81z" fill="#4E57E8" p-id="36129"></path><path d="M27.81 424.58c-2.32-5.14-1.77-9.95 1.67-14.43 97.19 2.45 139.15 73.38 180.28 145.49 30.92 131.11 126.05 207.65 232.87 274.32 21.76 31.47 42.33 63.64 68.1 92.24 16.23 18 36.6 37.89 26.65 64.7-11.69 31.48-42.12 15.49-64.61 18.82-10.69 1.58-21.8 0.28-32.66-0.2-75.05-77.68-144.7-160.39-222.11-236.1-61.7-60.34-125.93-117.43-191.24-173.54l0.23 0.23c-9.83-57.23-11.43-114.41 0.82-171.53z" fill="#A114FD" p-id="36130"></path><path d="M26.76 595.88c31.68-3.88 53.7 18.57 72.29 35.63 111.87 102.65 226.44 203.09 316.7 326.75 7.7 10.55 10.15 24.96 15.03 37.57-5.24 7.98-11.62 9.47-19.32 3.39-197.7-30.79-371.86-213.4-384.7-403.34z" fill="#AB0AFD" p-id="36131"></path><path d="M193.77 561.21c-37.04-69.69-94.39-117.22-164.29-151.06 8.2-70.09 36.87-131.32 80.26-186.2 75.75 10.48 111.77 62.72 134.94 128.63-20.09 68.76-10.29 144.88-50.91 208.63z" fill="#8B26FD" p-id="36132"></path><path d="M229.97 107.82c41.51-37.51 89.28-61.85 145.12-69.24 77.6 7.3 130.38 68.03 130.95 150.58-43.69 36.8-96.77 49.79-151.2 59.36-47.8-41.32-97.72-80.88-124.87-140.7z" fill="#5E4BFE" p-id="36133"></path><path d="M229.97 107.82c45.21 37.38 95.27 70.33 117.26 128.89-18.79 57.05-56.94 94.51-113.92 112.92-31.94-51.01-74.49-91.57-123.57-125.69 31.85-47.24 68.4-89.61 120.23-116.12z" fill="#7439FE" p-id="36134"></path><path d="M783.71 931.62c-38.77 34.03-84.22 53.64-134.64 62.51-17.89-12.68-34.85-26.29-46.96-45.05-28.98-44.9-62.33-81.93-121.55-86.11-18.3-1.29-47.05-7.97-28.01-40.97 73.1-22.29 150.9-17.91 224.06-40.08 93.01 39.36 120.14 77.34 107.1 149.7z" fill="#8928FD" p-id="36135"></path><path d="M987.63 662.93c-8.26 57.99-36.27 106.1-74.35 149.18-78.28-2.54-114.67-54.71-140.85-119.13 11.19-48.89 24.49-96.93 58.14-136.29 81.85-8.39 108.6 65.02 157.06 106.24z" fill="#6446FE" p-id="36136"></path><path d="M987.63 662.93c-69.5-5.49-84.69-92.07-151.42-101.7-22.07-17.72-20.75-39.85-11.99-63.42 29.52-33.52 64.62-50.79 110.08-37.38 27.6-3.05 51.92-12.35 68.69-36.08 24.41 81.44 17.16 160.83-15.36 238.58z" fill="#5258FD" p-id="36137"></path><path d="M783.9 698.42c35.68 46.4 74.86 88.8 129.39 113.69-32.21 51.78-73.77 93.39-129.58 119.51-0.47-71.56-58.83-98.92-103.87-136.46 21.96-45.97 47.81-87.75 104.06-96.74z" fill="#7738FE" p-id="36138"></path><path d="M448.2 832.34c105.17 6.35 165.81 68.14 200.87 161.78-78.7 25.32-157.77 33.07-237.61 5.1 6.44-1.12 12.88-2.23 19.32-3.37 11.13 0.62 22.48 2.97 33.33 1.52 20.48-2.74 49.1 11.96 58.77-16.01 7.29-21.09-16.16-33.31-29.35-46.44-30.05-29.92-58.18-60.42-62.39-105.43 6.44-3.58 12.16-2.84 17.06 2.85z" fill="#9B1AFD" p-id="36139"></path><path d="M498.25 189.91c-11.1-74.87-64.71-115.05-123.14-151.32C442.44 11.99 510.99 0.5 582.17 22.06c2.41 24.94-4.95 47.51-16.74 69 21.85 44.6 2.28 77.33-30.32 106.38-13.76 4.78-26.35 3.69-36.86-7.53z" fill="#535CFD" p-id="36140"></path><path d="M27.81 424.58c-0.27 57.18-0.54 114.35-0.82 171.53-20.8-57.28-19.76-114.45 0.82-171.53z" fill="#8B26FD" p-id="36141"></path><path d="M529.47 196.17c11.98-35.04 23.97-70.07 35.95-105.11 38.49 0.76 56.34 32.32 79.33 54.95 80.86 79.59 160.88 160.04 240.6 240.77 20.89 21.15 48.74 38.42 48.96 73.66-34.89 12.13-69.78 24.27-104.67 36.4-13.32 28.09-35.15 31.96-61.9 21.91-81.8-93.6-179.46-172.22-256.73-270.31-7.17-22.12 2.91-38.17 18.46-52.27z" fill="#3C6DF0" p-id="36142"></path><path d="M529.47 196.17c-3.22 15.63-6.43 31.26-9.65 46.88 4.39 13.24 9.4 27.66 3.39 40.41-36.53 77.44-19.45 129.76 48.27 190.11 50.3 44.82 84.6 70.74 146.86 41.33 15.17-7.17 32.34-5.76 48.82-2.15 20.83-5.31 41.65-10.61 62.48-15.92 2.19 21.47 4.38 42.93 6.58 64.4-17.44 45.73-34.88 91.45-52.32 137.18-34.68 32.25-69.37 64.49-104.05 96.74-73.47 35.82-151.42 43.67-231.65 37.18l-17.05-2.85c-127.5-46.5-207.5-135.14-237.37-268.28-3.74-73.7 9.94-144.13 39.53-211.58 37.98-37.63 75.95-75.27 113.92-112.91 48.5-21.56 98-39.89 151.02-46.81 10.41 2.1 20.81 4.18 31.22 6.27z" fill="#FEFDFE" p-id="36143"></path><path d="M767.16 512.75c-28.03 11.14-56.88 20.58-83.9 33.77-50.71 24.75-87.01 22.75-103.13-41.5-4.24-16.89-20.72-39.11-35.97-43.46-107.54-30.7-71.42-98.49-45.71-164.47 7.03-18.05 14.24-36.03 21.37-54.04 83.72 88.73 189.7 156.99 247.34 269.7z" fill="#2A89F9" p-id="36144"></path><path d="M431.15 494.14c59.67-10.06 98.07 14.14 102.72 74.76 4.41 57.51-21.98 94.69-85.92 92.88-29.66-53.46-43.77-108.48-16.8-167.64z" fill="#DE3ECA" p-id="36145"></path><path d="M431.15 494.14c8.63 55.58 23.21 110.55 16.79 167.64-51.16 3.08-79.11-24.9-84.91-71.94-6.12-49.8 12.23-87.52 68.12-95.7z" fill="#ED47B4" p-id="36146"></path></svg>