<?xml version="1.0" standalone="no"?><!DOCTYPE svg PUBLIC "-//W3C//DTD SVG 1.1//EN" "http://www.w3.org/Graphics/SVG/1.1/DTD/svg11.dtd"><svg t="1569380109475" class="icon" viewBox="0 0 1024 1024" version="1.1" xmlns="http://www.w3.org/2000/svg" p-id="28361" xmlns:xlink="http://www.w3.org/1999/xlink" width="128" height="128"><defs><style type="text/css"></style></defs><path d="M667.56640625 519.67057292v73.828125c0 29.00390625-23.73046875 52.734375-52.734375 52.734375h-73.828125V886.17447917c195.1171875-13.18359375 353.3203125-171.38671875 366.50390625-366.50390625h-239.94140625z" fill="#66D01F" p-id="28362"></path><path d="M387.83463542 647.63053386c-29.00390625 0-52.734375-23.73046875-52.734375-52.734375V518.43131511H95.15885417c13.18359375 195.1171875 171.38671875 353.3203125 366.50390625 366.50390625v-237.3046875h-73.828125z" fill="#F95352" p-id="28363"></path><path d="M335.10026042 366.50130209c0-29.00390625 23.73046875-52.734375 52.734375-52.734375h73.828125V73.82552084C266.54557292 87.00911459 108.34244792 245.21223959 95.15885417 440.32942709h239.94140625v-73.828125z" fill="#FFC716" p-id="28364"></path><path d="M613.64550781 314.26790365c29.00390625 0 52.734375 23.73046875 52.734375 52.734375v73.828125h239.94140625C893.13769531 245.71321615 737.57128906 87.51009115 539.81738281 74.3264974v239.94140625h73.828125z" fill="#5283EF" p-id="28365"></path></svg>