<svg width="100" height="100" xmlns="http://www.w3.org/2000/svg" xml:space="preserve" enable-background="new 0 0 300 75.51" version="1.1">

 <g>
  <title>Layer 1</title>
  <path id="svg_2" d="m61.992,14.7875c-4.785,2.309 -8.374,6.2 -10.995,10.612c-4.214,-7.084 -10.913,-12.829 -21.059,-12.829c-10.15,0 -22.594,8.614 -22.594,23.165c0,14.732 12.293,21.715 18.382,25.658c6.508,4.211 17.613,11.867 25.27,26.036c7.66,-14.168 18.763,-21.825 25.273,-26.036c4.574,-2.965 12.655,-7.647 16.387,-16.047l-30.664,-30.559zm-0.367,31.395l0,-27.684l27.684,27.683l-27.684,0l0,0.001z" fill="#E5322D"/>
  <polygon id="svg_8" points="93.946,33.938 93.946,6.254 121.63,33.938  " fill="#FFFFFF"/>
 </g>
</svg>