<?xml version="1.0" standalone="no"?><!DOCTYPE svg PUBLIC "-//W3C//DTD SVG 1.1//EN" "http://www.w3.org/Graphics/SVG/1.1/DTD/svg11.dtd"><svg t="1637751916372" class="icon" viewBox="0 0 1034 1024" version="1.1" xmlns="http://www.w3.org/2000/svg" p-id="21442" xmlns:xlink="http://www.w3.org/1999/xlink" width="201.953125" height="200"><defs><style type="text/css"></style></defs><path d="M731 1024H313c-167.342 0-303-135.658-303-303V303C10 135.658 145.658 0 313 0h418c167.342 0 303 135.658 303 303v418c0 167.342-135.658 303-303 303z" fill="#DE4A3F" p-id="21443"></path><path d="M478.832 134.503c32.273 31.188 59.418 68.567 75.461 110.688 9.191 24.617 13.527 51.316 10.387 77.531-3.075 38.16-10.871 75.965-10.59 114.363 0.238 19.321 16.051 36.899 35.215 39.254 18.34 2.859 37.48-8.824 43.82-26.164 5.316-13.133 2.254-28.031-5.316-39.594 33.195 35.688 58.707 78.45 75.535 124.153 15.191 35.695 19.976 75.605 14.168 113.929-3.586 32.801-14.422 64.641-30.672 93.321-25.914 45.855-64.11 83.582-105.899 115.113-15.027 11.059-30.179 22.129-46.379 31.402 1.606-2.14 3.747-3.738 5.77-5.453 20.488-17.765 37.582-39.492 49.801-63.719 27.965-54.406 30.191-121.23 5.906-177.382-17.41 14.66-39.355 24.066-62.141 25.543-26.675 2.023-53.949-6.54-74.718-23.391-21.614-17.188-36.094-42.984-39.516-70.391-2.519-18.281 0.203-37.043 6.887-54.187-48.395 43.75-73.406 111.351-66.133 176.101 4.203 41.055 21.016 80.668 47.52 112.289 4.394 5.747 10.265 10.329 13.707 16.778-41.184-33.895-76.512-76.168-98.008-125.293-14.871-34.067-22.059-71.606-19.696-108.758 1.606-27.965 8.364-55.492 18.7-81.492 22.246-53.77 51.421-104.535 85.656-151.555 15.336-21.203 30.695-42.402 44.672-64.535 30.363-46.184 39.465-105.106 25.863-158.551z m0 0" fill="#FFFFFF" p-id="21444"></path></svg>