<svg width="1100" height="1100" xmlns="http://www.w3.org/2000/svg" p-id="2291" version="1.1" class="icon" t="1646063219903">

 <g>
  <title>Layer 1</title>
  <path id="svg_1" p-id="2292" fill="#CC0000" d="m418.47857,1061.87202c-14.84475,0 -29.40156,-2.68741 -43.51048,-8.06224c-58.64317,-22.3951 -89.74037,-86.15715 -73.6159,-145.12025l-0.63986,-0.25595l3.83917,-9.62989l298.46271,-774.96648c4.47902,-11.51748 2.43146,-38.80751 0.25594,-54.03618a20.85944,20.85944 0 0 1 0.35192,-10.23776l0.35193,-0.99178l0.25594,-0.63986l0,-0.28794l0.38392,-0.79982c4.60699,-12.44528 19.1958,-18.71591 42.99859,-18.71591c28.69772,0 68.33705,8.95804 108.8082,24.44266c34.00856,13.08513 64.97779,29.40156 86.73303,45.84597c25.69038,19.1958 35.92814,36.44003 30.1694,51.1888l-1.31172,1.91958l-0.67185,0.63986c-1.91958,2.59143 -3.83916,5.11888 -6.3986,7.03846c-13.40507,11.54947 -32.60087,31.35314 -35.83216,40.31118l-301.2781,785.78011l-0.67185,-0.25594a122.5332,122.5332 0 0 1 -108.48827,66.57744l-0.25594,0l0.12797,0.25594l-0.06399,0zm-93.29159,-158.58931l-0.86381,2.14353a100.77796,100.77796 0 0 0 58.19527,128.73984c11.54947,4.47902 23.51486,6.55857 35.70419,6.55857c41.43094,0 78.06292,-24.95455 93.32358,-63.98601l1.15175,-2.59143l296.86306,-771.6712c6.23864,-16.63636 35.83217,-43.51048 41.75087,-48.62936l0.67186,-0.67185c0.51188,-0.63986 0.86381,-0.63986 0.86381,-1.27972c0,-2.55944 -2.59144,-11.51748 -23.7708,-27.51398c-20.44353,-15.35665 -49.23723,-30.71329 -81.23023,-42.87063c-37.01591,-13.98094 -75.40751,-23.00296 -101.00191,-23.00296c-16.63636,0 -22.36311,3.48723 -23.25891,5.37482l0,1.69563c0.67185,4.44702 6.27062,44.15034 -1.43969,64.62586l-296.99103,773.07889l0.03199,0zm381.77249,-490.86862s-41.11101,47.31765 -78.60681,64.36992c-37.52779,16.98828 -65.23373,12.50926 -98.95435,32.24894a158.14141,158.14141 0 0 0 -50.67691,47.06171l-137.154,356.68997c-14.84476,40.27919 7.16643,87.43688 47.9895,103.24142a80.30243,80.30243 0 0 0 102.88949,-45.04615l214.51308,-558.56581zm-210.32199,425.92283c4.44702,-1.75962 9.5979,0 11.35751,4.47902c1.79161,4.44703 0,9.46993 -4.47902,11.26153c-4.44702,1.82361 -9.5979,0 -11.35751,-4.44702a8.7021,8.7021 0 0 1 4.47902,-11.29353zm-43.25454,-76.84719a12.63724,12.63724 0 0 1 -16.9243,-6.62255a12.63724,12.63724 0 0 1 6.55857,-16.9243a12.66923,12.66923 0 0 1 16.98828,6.52657c3.16731,6.3986 0.35192,13.40507 -6.62255,16.63636l0,0.38392zm12.18933,-46.77377a24.85856,24.85856 0 0 1 12.25332,-32.34492c12.15734,-5.27885 26.23426,0 31.993,12.15734a24.85856,24.85856 0 0 1 -12.15734,32.28093a24.95454,24.95454 0 0 1 -32.63286,-12.15734l0.54388,0.032l0,0.03199zm103.49736,-96.29893a12.60524,12.60524 0 0 1 16.98829,6.39859a12.73321,12.73321 0 0 1 -6.52658,17.02028a12.66923,12.66923 0 0 1 -17.02027,-6.62255a12.47727,12.47727 0 0 1 6.55856,-16.9243l0,0.12797l0,0.00001zm-55.15593,-58.83514c4.47902,-1.7916 9.62989,0 11.35751,4.47902c1.8236,4.44703 0,9.6299 -4.44702,11.35752c-4.44703,1.79161 -9.6299,0 -11.29353,-4.44703a8.73409,8.73409 0 0 1 4.38304,-11.38951zm143.77655,-472.85656c4.25507,-11.13356 42.35873,-6.91049 85.10138,9.6299c42.61468,16.38041 73.74387,38.77551 69.52079,49.90908c-4.44702,11.26153 -42.5187,7.00646 -85.13337,-9.43794c-42.87063,-16.41241 -73.96782,-38.80751 -69.61678,-50.16502l0.12798,0l0,0.06398z"/>
 </g>
</svg>