<?xml version="1.0" standalone="no"?>
<!DOCTYPE svg PUBLIC "-//W3C//DTD SVG 1.1//EN" "http://www.w3.org/Graphics/SVG/1.1/DTD/svg11.dtd"><svg t="1637753842319"
    class="icon" viewBox="0 0 1024 1024" version="1.1" xmlns="http://www.w3.org/2000/svg" p-id="1771"
    xmlns:xlink="http://www.w3.org/1999/xlink" width="200" height="200">
    <defs>
        <style type="text/css"></style>
    </defs>
    <circle
        cx="512" cy="512" r="512"
        fill="#ea6f5a" p-id="1772"></circle>
    <path
        d="M235.52 456.817778h70.731852v370.346666h-70.731852V456.817778z m40.011852-112.450371c17.825185 32.995556 29.202963 65.801481 34.512592 98.797037h77.17926c-10.619259-42.097778-23.893333-74.903704-39.822223-98.797037h-71.869629z m0 0"
        fill="#FFFFFF" p-id="1773"></path>
    <path
        d="M427.804444 278.565926h85.143704v-46.648889h-154.358518c1.706667-3.602963 4.361481-10.05037 7.964444-19.152593 1.706667-7.395556 3.602963-12.705185 5.30963-16.497777H292.02963c-12.325926 49.303704-40.77037 85.902222-85.143704 109.795555V352.711111c58.595556-14.601481 100.124444-39.253333 124.965926-73.955555h26.548148c8.912593 23.703704 14.222222 46.648889 15.928889 68.645925h74.524444c-5.12-25.78963-12.325926-48.734815-21.048889-68.835555zM393.102222 426.666667h320.663704v301.70074c1.706667 27.496296-10.619259 40.201481-37.167407 38.305186h-43.994075v54.802963h63.905186c62.008889 1.896296 92.16-26.548148 90.453333-85.143704V371.863704H393.102222V426.666667z m0 0"
        fill="#FFFFFF" p-id="1774"></path>
    <path
        d="M643.223704 476.16H382.482963v277.048889h180.906667c56.699259 1.896296 83.437037-25.6 79.834074-82.299259V476.16z m-188.871111 49.303704h117.001481v63.146666h-117.001481v-63.146666z m82.488888 178.251852h-82.488888V635.259259h117.001481v32.995556c1.706667 25.41037-9.671111 37.357037-34.512593 35.460741z m109.037038-474.453334c0-1.896296 0.948148-4.551111 2.654814-8.154074l7.964445-24.651852h-79.834074c-12.515556 51.2-39.822222 89.694815-82.488889 115.294815v43.804445c54.992593-14.601481 96.711111-40.201481 124.965926-76.8h37.167407c8.912593 23.703704 14.222222 46.648889 15.928889 68.645925h71.86963c-1.706667-18.204444-8.912593-41.14963-21.238519-68.645925h93.108148v-49.303704h-170.097777z m0 0"
        fill="#FFFFFF" p-id="1775"></path>
</svg>