<?xml version="1.0" standalone="no"?><!DOCTYPE svg PUBLIC "-//W3C//DTD SVG 1.1//EN" "http://www.w3.org/Graphics/SVG/1.1/DTD/svg11.dtd"><svg t="1637500980366" class="icon" viewBox="0 0 1024 1024" version="1.1" xmlns="http://www.w3.org/2000/svg" p-id="3894" xmlns:xlink="http://www.w3.org/1999/xlink" width="200" height="200"><defs><style type="text/css"></style></defs><path d="M803.72 1017.96c-1.02 4.02-5.02 6.02-12.02 6.02h-133.84c-8.04 0-15.02-3.5-21.04-10.54L415.76 732.28l-61.64 58.64v218.04c0 10.04-5.02 15.04-15.04 15.04H235.32C225.28 1024 220.28 1019 220.28 1008.96V15.02C220.28 5.02 225.28 0 235.32 0H339.08c10.02 0 15.04 5.02 15.04 15.02v612l264.64-267.64c7.02-7 14.04-10.52 21.04-10.52h138.36c13.92 0 15.8 15.74 10.52 21.04L508.98 640.52l291.72 362.4" fill="#1296db" p-id="3895"></path></svg>