<?xml version="1.0" standalone="no"?><!DOCTYPE svg PUBLIC "-//W3C//DTD SVG 1.1//EN" "http://www.w3.org/Graphics/SVG/1.1/DTD/svg11.dtd"><svg t="1637752170366" class="icon" viewBox="0 0 1024 1024" version="1.1" xmlns="http://www.w3.org/2000/svg" p-id="24330" xmlns:xlink="http://www.w3.org/1999/xlink" width="200" height="200"><defs><style type="text/css"></style></defs><path d="M1008.64 0H15.36C2.56 0 0 2.56 0 15.36V1024h1024V17.92c0-15.36-2.56-17.92-15.36-17.92z m-220.16 880.64H235.52c-56.32 0-89.6-33.28-89.6-92.16V512 232.96C145.92 179.2 179.2 145.92 235.52 145.92h552.96c58.88 0 89.6 33.28 89.6 89.6v552.96c2.56 58.88-30.72 92.16-89.6 92.16z" fill="#204E36" p-id="24331"></path><path d="M750.08 217.6H271.36c-40.96 0-53.76 15.36-53.76 56.32v478.72c0 40.96 15.36 56.32 56.32 56.32h209.92c20.48 0 28.16-5.12 25.6-25.6-2.56-12.8 2.56-20.48 17.92-20.48h225.28c15.36 0 20.48 5.12 17.92 20.48v12.8c0 12.8 2.56 12.8 12.8 7.68 17.92-10.24 23.04-28.16 23.04-46.08V279.04c2.56-46.08-12.8-61.44-56.32-61.44z m-455.68 61.44c17.92-12.8 38.4-28.16 56.32-40.96 5.12-2.56 10.24-2.56 12.8 2.56 2.56 5.12 10.24 10.24 5.12 15.36-20.48 17.92-43.52 30.72-61.44 46.08-10.24 0-12.8-5.12-15.36-10.24-5.12-5.12-2.56-10.24 2.56-12.8z m-33.28 99.84c-7.68 5.12-12.8 7.68-20.48 0-7.68-10.24-5.12-15.36 5.12-20.48 40.96-28.16 81.92-58.88 125.44-87.04 10.24-7.68 23.04 0 23.04 12.8 0 5.12-5.12 7.68-10.24 10.24l-122.88 84.48z m143.36-53.76c-28.16 20.48-58.88 40.96-87.04 61.44-7.68 5.12-15.36 5.12-20.48-2.56-5.12-7.68-5.12-12.8 2.56-17.92 30.72-20.48 61.44-43.52 92.16-64 7.68-5.12 20.48 0 23.04 10.24 0 5.12-5.12 7.68-10.24 12.8z m291.84 202.24c-81.92 48.64-161.28 97.28-243.2 145.92-7.68 5.12-15.36 12.8-23.04 7.68-7.68-5.12-5.12-15.36-5.12-25.6V360.96c0-7.68-2.56-17.92 10.24-20.48l15.36 7.68c81.92 48.64 163.84 99.84 245.76 148.48 23.04 15.36 23.04 17.92 0 30.72z" fill="#204E36" p-id="24332"></path></svg>