<?xml version="1.0" encoding="UTF-8" standalone="no"?>
<!-- Creator: CorelDRAW 2020 (64-Bit Evaluation Version) -->

<svg
   xml:space="preserve"
   width="5000"
   height="3000"
   version="1.1"
   style="clip-rule:evenodd;fill-rule:evenodd;image-rendering:optimizeQuality;shape-rendering:geometricPrecision;text-rendering:geometricPrecision"
   viewBox="0 0 4971.5754 2983.8941"
   id="svg38"
   sodipodi:docname="LightGBM_cover.svg"
   inkscape:version="1.2.2 (b0a8486, 2022-12-01)"
   xmlns:inkscape="http://www.inkscape.org/namespaces/inkscape"
   xmlns:sodipodi="http://sodipodi.sourceforge.net/DTD/sodipodi-0.dtd"
   xmlns="http://www.w3.org/2000/svg"
   xmlns:svg="http://www.w3.org/2000/svg"><sodipodi:namedview
   id="namedview40"
   pagecolor="#ffffff"
   bordercolor="#000000"
   borderopacity="0.25"
   inkscape:showpageshadow="2"
   inkscape:pageopacity="0.0"
   inkscape:pagecheckerboard="0"
   inkscape:deskcolor="#d1d1d1"
   showgrid="false"
   inkscape:zoom="0.15190636"
   inkscape:cx="2323.8"
   inkscape:cy="1589.7952"
   inkscape:window-width="1280"
   inkscape:window-height="677"
   inkscape:window-x="0"
   inkscape:window-y="25"
   inkscape:window-maximized="0"
   inkscape:current-layer="图层_x0020_1" />
 <defs
   id="defs4">
  <style
   type="text/css"
   id="style2">
   <![CDATA[
    .fil0 {fill:none}
    .fil5 {fill:#1B9AD7}
    .fil2 {fill:#76B644}
    .fil1 {fill:#EF4927}
    .fil4 {fill:#FCB518}
    .fil3 {fill:#4B4B4D;fill-rule:nonzero}
   ]]>
  </style>
 </defs>
 <g
   id="图层_x0020_1"
   inkscape:label="图层 1"
   inkscape:groupmode="layer">
  <metadata
   id="CorelCorpID_0Corel-Layer" />
  <rect
   class="fil0"
   width="4645.4399"
   height="1052.3199"
   id="rect7"
   x="174.21771"
   y="929.76788" />
  <polygon
   class="fil1"
   points="0,403.33 629.73,0.27 0,0.27 "
   id="polygon9"
   transform="translate(174.21771,929.76789)" />
  <polygon
   class="fil2"
   points="629.75,503.23 262.04,431.06 629.75,192.72 "
   id="polygon11"
   transform="translate(174.21771,929.76789)" />
  <g
   id="g15"
   transform="translate(174.21771,929.76789)">
   <path
   class="fil3"
   d="m 4645.44,837.58 h -103.46 l 4.34,-529.43 c -6.44,27.4 -12.13,47.17 -17.07,59.14 L 4341.5,837.58 h -71.87 L 4081.42,370.89 c -5.24,-13.78 -10.93,-34.74 -16.77,-62.74 H 4063 c 2.25,25.16 3.45,66.18 3.45,123.23 v 406.2 h -96.42 V 208.59 h 146.88 l 165.29,418.93 c 12.58,32.19 20.82,56.15 24.71,71.87 h 2.1 c 10.93,-33.09 19.61,-57.65 26.34,-73.67 L 4503.8,208.59 h 141.64 z m -375.81,0 -253.66,-628.99 h 100.94 l 192.1,490.8 z m 322.98,-628.99 h -88.81 z m 0,0 -251.11,628.99 -33.01,-139.52 195.31,-489.47 z"
   id="path13" />
  </g>
  <path
   class="fil3"
   d="m 3623.5878,1764.5179 v -625.48 h 198.47 c 60.45,0 108.4,13.25 143.68,39.6 35.29,26.51 53.01,61.05 53.01,103.48 0,35.44 -10.13,66.26 -30.08,92.46 -20.1,26.21 -47.94,44.82 -83.38,55.84 v 1.78 c 43.03,4.92 77.42,20.85 103.18,47.65 25.76,26.95 38.57,61.94 38.57,104.96 0,53.46 -21,96.78 -63.13,129.99 -42.29,33.2 -95.44,49.72 -159.76,49.72 z m 103.39,-534.58 0.2,136.51 c 0.04,24.18 -2.1,34.43 28.69,34.19 l 38.2,-0.3 c 36.03,-0.28 64.32,-8.49 84.87,-25.61 20.55,-16.97 30.67,-41.09 30.67,-72.21 0,-53.45 -35.73,-80.25 -107.2,-80.25 h -66.2 c -6.79,0 -9.25,0.65 -9.23,7.67 z m -0.06,264.61 v 154.26 c 0,26.53 -0.42,32.78 28.85,32.78 h 59.74 c 38.56,0 68.49,-8.93 89.63,-26.8 21,-17.86 31.57,-42.43 31.57,-73.85 0,-64.91 -44.97,-97.37 -134.75,-97.37 h -63.23 c -8.81,0 -11.81,2.15 -11.81,10.98 z"
   id="path17" />
  <path
   class="fil3"
   d="m 3525.6878,1713.6979 c -63.06,34.27 -133.19,51.4 -210.51,51.4 -89.42,0 -161.85,-27.79 -217.29,-83.51 -55.43,-55.58 -83.08,-129.31 -83.08,-221.03 0,-93.59 30.24,-170.48 90.86,-230.53 60.62,-60.04 137.66,-90.14 230.96,-90.14 63.51,0 117.52,8.86 161.89,26.47 8.49,3.37 7.73,1.48 7.73,10.2 v 96.24 c -46.36,-30.82 -101.65,-46.37 -165.73,-46.37 -64.51,0 -117.21,21.31 -158.39,63.65 -41.18,42.47 -61.92,97.48 -61.92,165.01 0,69.4 17.86,124.12 53.28,163.86 35.42,39.89 83.52,59.76 144.28,59.76 36.83,0 69.27,-6.32 97.3,-18.85 13.55,-6.06 10.69,-4.56 10.69,-19.42 v -118.76 c 0,-9.58 -4.78,-10.86 -13.69,-10.86 h -113.74 v -66.84 c 0,-14.7 3.11,-17.54 18.89,-17.54 h 208.47 z"
   id="path19" />
  <path
   class="fil3"
   d="m 2947.9478,1751.5379 c -19.51,9.22 -45.03,13.83 -76.43,13.83 -87.14,0 -130.71,-41.77 -130.71,-125.47 v -253.93 h -37.51 v -79.81 h 37.51 l -0.08,-113.52 c 0,-7.1 2.14,-11.35 9.03,-14.4 l 92.74,-41.07 0.12,168.99 h 107.36 v 79.81 h -107.36 v 224.59 c 0,26.65 4.79,45.66 14.37,57.04 9.74,11.38 25.76,17.07 48.37,17.07 17.22,0 32.04,-4.94 44.62,-14.82 v 78.4 c 0,2.65 0.39,2.15 -2.03,3.29 z"
   id="path21" />
  <path
   class="fil3"
   d="m 2639.0778,1767.3479 h -101.66 v -245.7 c 0,-88.78 -29.8,-133.25 -89.09,-133.25 -29.79,0 -54.95,12.87 -75.46,38.63 -20.51,25.6 -30.69,58.54 -30.69,98.67 v 241.65 h -102.27 v -624.07 c 0,-5.64 3.31,-4.95 8.1,-4.95 h 90.21 c 2.37,0 3.96,-0.37 3.96,2.55 v 251.86 h 1.79 c 33.84,-56.75 82.5,-85.05 145.54,-85.05 99.71,0 149.57,60.94 149.57,182.82 z"
   id="path23" />
  <path
   class="fil3"
   d="m 2176.7678,1718.8079 c 0,164.85 -82.95,247.35 -248.69,247.35 -58.55,0 -109.6,-9.73 -153.17,-29.35 l 83.52,-58.21 c 18.34,7.63 38.08,7.31 56.47,7.31 106.76,0 160.06,-52.56 160.06,-157.52 v -49.11 h -1.8 c -33.54,57.35 -84.14,85.95 -151.67,85.95 -54.65,0 -98.82,-19.92 -132.36,-59.89 -33.39,-39.83 -50.16,-93.43 -50.16,-160.66 0,-76.36 17.97,-137 53.9,-182.07 36.09,-45.06 85.5,-67.52 148.38,-67.52 59.29,0 103.31,24.25 131.91,72.76 h 1.8 v -49.59 c 0,-10.62 1.64,-12.69 12.25,-12.69 h 76.07 c 12.33,0 13.49,-0.94 13.49,11.4 z m -100.91,-169.79 v -58.39 c 0,-31.59 -10.48,-58.54 -31.3,-80.85 -20.96,-22.46 -47.01,-33.54 -78.3,-33.54 -38.63,0 -68.88,14.22 -90.59,42.67 -21.86,28.6 -32.79,68.43 -32.79,119.63 0,44.17 10.48,79.36 31.45,105.86 20.81,26.5 48.66,39.67 83.09,39.67 35.04,0 63.64,-12.57 85.5,-37.88 22.01,-25.3 32.94,-57.64 32.94,-97.17 z"
   id="path25" />
  <path
   class="fil3"
   d="m 1673.3778,1767.3479 h -101.81 v -441.66 c 0,-5.84 1.24,-7.51 7.73,-7.51 h 84.14 c 8.97,0 9.94,-0.28 9.94,8.05 z"
   id="path27" />
  <path
   class="fil3"
   d="m 1621.5778,1234.2779 c -13.77,0 -25.56,-4.47 -35.36,-13.4 -9.93,-9.06 -14.77,-20.35 -14.77,-34.25 0,-13.77 4.84,-25.31 14.77,-34.49 9.8,-9.18 21.59,-13.77 35.36,-13.77 14.27,0 26.43,4.59 36.35,13.77 9.93,9.18 14.89,20.72 14.89,34.49 0,13.16 -4.96,24.32 -14.89,33.63 -9.92,9.31 -22.08,14.02 -36.35,14.02 z"
   id="path29" />
  <path
   class="fil3"
   d="m 1159.1377,1767.3479 v -622.86 c 0,-6.28 2.75,-6.13 8.19,-6.13 h 88.4801 c 5.21,0 7.69,-0.29 7.69,5.73 v 531.65 c 0,4.06 1.5,3.42 4.8,3.42 h 230.79 c 4.41,0 8.31,-0.51 8.31,5.47 v 82.64 z"
   id="path31" />
  <polygon
   class="fil4"
   points="629.75,644.55 0.02,1047.61 629.75,1047.61 "
   id="polygon33"
   transform="translate(174.21771,929.76789)" />
  <polygon
   class="fil5"
   points="0,546.82 367.7,618.99 0,857.33 "
   id="polygon35"
   transform="translate(174.21771,929.76789)" />
 </g>
</svg>
