<svg height='512px' width='512px'  fill="#d32f2f" xmlns="http://www.w3.org/2000/svg" version="1.1" viewBox="0 0 16 16" x="0px" y="0px"><path d="M14.9,12H14v1.3C14.3,12.9,14.7,12.5,14.9,12z M16,8c0,0.7-0.1,1.4-0.3,2H14V8H16z M10,10V8h2v2H10z M14.9,4 c0.4,0.6,0.6,1.3,0.8,2H14V4H14.9z M12,14.9V14h1.3C12.9,14.3,12.5,14.7,12,14.9z M14,10v2h-2v-2H14z M10,0.3c0.7,0.2,1.4,0.5,2,0.8 V2h-2V0.3z M10,4h2v2h-2V4z M12,12v2h-2v-2H12z M12,2h1.3c0.3,0.2,0.5,0.5,0.7,0.7V4h-2V2z M8,4v2h2v2H8v2h2v2H8v2h2v1.7 C9.4,15.9,8.7,16,8,16c-4.4,0-8-3.6-8-8s3.6-8,8-8v2h2v2H8z M12,8V6h2v2H12z"></path></svg>