<?xml version="1.0" encoding="utf-8"?>
<!-- Generator: Adobe Illustrator 16.0.0, SVG Export Plug-In . SVG Version: 6.00 Build 0)  -->
<!DOCTYPE svg PUBLIC "-//W3C//DTD SVG 1.1//EN" "http://www.w3.org/Graphics/SVG/1.1/DTD/svg11.dtd">
<svg version="1.1" id="Layer_1" xmlns="http://www.w3.org/2000/svg" xmlns:xlink="http://www.w3.org/1999/xlink" x="0px" y="0px"
	 width="40px" height="50px" viewBox="0 0 189 222" enable-background="new 0 0 189 222" xml:space="preserve">
<g>
	<path fill="#4caf50" d="M149.737,86.424l-0.283-1.701c-0.351-2.062-1.969-3.504-3.621-3.227l-95.247,16.01l2.228,13.222
		l6.139-1.028c2.186-0.37,4.33,1.541,4.786,4.265l4.315,25.66c0.455,2.725-0.943,5.234-3.129,5.605l-20.587,3.45
		c-2.186,0.371-4.33-1.545-4.791-4.264l-4.311-25.655c-0.461-2.729,0.943-5.239,3.129-5.6l6.139-1.028l-2.228-13.227l-33.078,5.561
		c-1.657,0.278-2.71,2.169-2.364,4.226l0.577,3.436c6.329,37.645,28.229,68.378,54.817,77.288
		c-3.602,0.79,64.913-10.722,61.268-10.293c5.156-3.982,9.708-8.973,13.544-14.787c8.202-1.993,18.359-5.692,26.874-11.239
		c19.197-12.53,21.029-28.257,19.188-39.252C179.827,94.422,167.429,84.299,149.737,86.424z M147.062,142.691
		c3.641-11.809,5.269-25.1,4.625-38.931c15.167-2.076,16.937,8.412,17.608,12.409C171.337,128.309,159.558,137.262,147.062,142.691z
		"/>
</g>
<g transform="matrix(2.654321,0,0,-2.654321,-230.92593,1554.3519)">
	<path id="alpha_13_" fill="white" d="M128.54,547.009l3.507,0.589l-0.54-9.787c-0.108-1.862-0.209-3.009-0.294-3.439
		c0.969-2.405,1.976-3.518,3.018-3.344c1.24,0.209,1.737,1.157,1.495,2.85l0.742,0.125c0.22-1.583,0.145-2.899-0.235-3.962
		c-0.378-1.063-1.006-1.667-1.884-1.818c-0.731-0.119-1.324,0.075-1.777,0.604c-0.455,0.525-1.043,1.653-1.757,3.39
		c-0.935-3.21-3.015-5.092-6.263-5.641c-2.216-0.375-4.117,0.185-5.709,1.667s-2.655,3.814-3.189,6.992
		c-0.524,3.12-0.219,5.67,0.918,7.646c1.139,1.976,2.71,3.134,4.722,3.474c1.418,0.239,2.66-0.064,3.737-0.903
		c1.074-0.839,2.152-2.315,3.232-4.442L128.54,547.009z M128.064,538.724c-1.012,2.077-2.022,3.658-3.024,4.756
		c-1.003,1.094-2.061,1.548-3.174,1.362c-2.516-0.424-3.29-3.538-2.311-9.346c0.928-5.51,2.595-8.066,5-7.662
		c2.093,0.354,3.23,3.041,3.415,8.07L128.064,538.724z"/>
</g>
<path fill="#4caf50" d="M33.594,198.661c-0.838,0.853,0.059,3.548,1.134,5.507c1.062,1.959,1.896,4.654,2.738,5.508
	c0.5,0.497,1.185,0.809,1.942,0.809h120.145c0.755,0,1.438-0.316,1.93-0.813c0.839-0.849,1.667-3.539,2.739-5.503
	c1.067-1.959,1.974-4.649,1.131-5.507c-0.497-0.507-1.18-0.819-1.949-0.819H35.536C34.775,197.847,34.094,198.164,33.594,198.661z"
	/>
<path fill="#4caf50" d="M62.391,51.572c-2.866,2.968-11.578,11.975-8.13,21.005C58.304,83.149,76,83.89,79.509,83.929
	c0.234,0,0.454-0.015,0.668-0.054c1.933-0.322,3.383-2.135,3.349-4.333c-0.034-2.452-1.896-4.469-4.162-4.484
	c-6.319-0.073-16.205-2.14-17.553-5.678c-0.634-1.657,0.699-5.488,6.318-11.302c7.392-7.647,10.226-13.125,9.478-18.315
	c-0.863-5.946-5.925-8.846-11.278-11.921c-5.6-3.211-11.39-6.531-13.86-13.3c-0.839-2.295-3.197-3.47-5.325-2.627
	c-2.096,0.848-3.119,3.402-2.28,5.702c3.623,9.923,11.818,14.617,17.786,18.042c2.971,1.701,6.652,3.816,6.862,5.239
	C69.586,41.377,69.571,44.15,62.391,51.572z"/>
<path fill="#4caf50" d="M73.285,62.913c0.005,2.452,1.845,4.479,4.106,4.542c1.353,0.039,2.914-0.063,4.562-0.336
	c8.585-1.442,19.802-7.715,19.816-24.846c0.01-2.456-1.822-4.499-4.086-4.571c-2.291-0.098-4.092,1.862-4.097,4.303
	C93.562,58.386,79.005,58.62,77.348,58.586C75.081,58.547,73.28,60.472,73.285,62.913z"/>
</svg>
