<svg width="114" height="114" xmlns="http://www.w3.org/2000/svg" xmlns:xlink="http://www.w3.org/1999/xlink" version="1.1">
 <defs>
  <linearGradient y2="-0.05782" x2="0.43638" y1="1.00818" x1="0.47434" xlink:href="#id1" id="id2"/>
  <linearGradient id="id1">
   <stop stop-color="#f4e63e" offset="0"/>
   <stop stop-color="#eadd0d" offset="0.29"/>
   <stop stop-color="#f5faad" offset="0.524"/>
   <stop stop-color="#ddf553" offset="0.919"/>
   <stop stop-color="#f2b815" offset="1"/>
  </linearGradient>
  <linearGradient y2="-0.03139" x2="0.51353" y1="1.00606" x1="0.51151" xlink:href="#id1" id="id4"/>
  <linearGradient y2="0.04696" x2="0.46926" y1="0.95566" x1="0.48986" xlink:href="#id1" id="id6"/>
  <linearGradient y2="-0.00041" x2="0.47208" y1="0.93425" x1="0.44139" xlink:href="#id1" id="id8"/>
  <linearGradient y2="-0.04507" x2="-0.07435" y1="0.99585" x1="0.62778" xlink:href="#id1" id="id10"/>
  <linearGradient y2="0.01969" x2="0.44747" y1="1.00075" x1="0.55133" xlink:href="#id1" id="id12"/>
  <linearGradient y2="0.03055" x2="0.58262" y1="0.95759" x1="0.50973" xlink:href="#id1" id="id14"/>
  <linearGradient y2="0.0111" x2="0.50853" y1="0.9656" x1="0.45244" xlink:href="#id1" id="id16"/>
  <linearGradient y2="-0.00547" x2="0.41386" y1="0.96155" x1="0.37608" xlink:href="#id1" id="id18"/>
  <linearGradient y2="-0.05782" x2="0.43638" y1="1.00818" x1="0.47434" xlink:href="#id1" id="id3"/>
  <linearGradient y2="-0.03139" x2="0.51353" y1="1.00606" x1="0.51151" xlink:href="#id1" id="id5"/>
  <linearGradient y2="0.04696" x2="0.46926" y1="0.95566" x1="0.48986" xlink:href="#id1" id="id7"/>
  <linearGradient y2="-0.00041" x2="0.47208" y1="0.93425" x1="0.44139" xlink:href="#id1" id="id9"/>
  <linearGradient y2="-0.04507" x2="-0.07435" y1="0.99585" x1="0.62778" xlink:href="#id1" id="id11"/>
  <linearGradient y2="0.01969" x2="0.44747" y1="1.00075" x1="0.55133" xlink:href="#id1" id="id13"/>
  <linearGradient y2="0.03055" x2="0.58262" y1="0.95759" x1="0.50973" xlink:href="#id1" id="id15"/>
  <linearGradient y2="0.0111" x2="0.50853" y1="0.9656" x1="0.45244" xlink:href="#id1" id="id17"/>
  <linearGradient y2="-0.00547" x2="0.41386" y1="0.96155" x1="0.37608" xlink:href="#id1" id="id19"/>
 </defs>
 <g>
  <title>Layer 1</title>
  <g id="svg_1">
   <rect id="svg_2" stroke-width="2.68" fill="#204a87" transform="matrix(0.989139 -0.146981 0.18425 0.982879 0 0)" height="49" width="49" y="32.83394" x="6.44291"/>
   <rect id="svg_3" stroke-width="2.68" fill="#00aeef" transform="matrix(0.131934 -0.991259 0.994847 0.101383 0 0)" height="37.1" width="66.1" y="49.4417" x="-83.59864"/>
   <path id="svg_4" fill="#1586ce" d="m8.3,59.76703l-3.2,-24.4l27.8,-3.2l2.6,13.9l3.5,-10.2l8.6,-0.1l0.6,-5.9l23.4,0.9l0,4.6l16,1l-2.4,24.1l-23.1,-1.4l0.4,-5.2l-6.2,-0.5l2.2,6.6l-26.5,-0.4l-0.2,-2.8l-23.5,3z"/>
   <path id="svg_5" fill="#2b5dac" d="m45.5,83.96703l2.7,-23.9l18.7,1.9l-0.3,2.3l16.6,-0.7l0,-1.7l25.2,-0.5l0.5,23.5l-23.1,1c0,0 -3.9,2.1 -9.5,2.3c-13.8,0.4 -12.4,-10.8 -12.4,-10.8l-6.7,-0.3l-1.1,7.7l-10.6,-0.8z"/>
   <path id="svg_6" fill="#1586ce" d="m85.2,27.66703l8.8,-2.1l5.2,17.5l3.3,0l4.9,12.5c0,0 -0.9,5.6 -5.9,6.1c-3,0.9 -9.9,-0.1 -9.9,-0.1l-3.9,-12.4c0,-3.1 1.6,-4.4 1.9,-4.1l-4.4,-17.4z"/>
   <g id="svg_7" stroke-width="1px" fill="url(#id2)" font-size="48.1px" font-weight="bold" font-family="Arial" transform="matrix(0.595093 -0.0704631 0.0791432 0.529826 169.987 192.836)">
    <path id="svg_8" fill="url(#id3)" d="m-228.1232,-322.43342l10.4,0l7.2,18.8l7.2,-18.8l10.3,0l0,35.1l-7.7,0l0,-25.7l-7.3,18.9l-5.2,0l-7.3,-18.9l0,25.7l-7.7,0l0,-35.1l0.1,0z"/>
   </g>
   <g id="svg_9" stroke-width="1px" fill="url(#id4)" font-size="48.1px" font-weight="bold" font-family="Arial" transform="matrix(0.600332 0 0 0.534491 169.987 192.836)">
    <path id="svg_10" fill="url(#id5)" d="m-203.64288,-260.04689l-12.7,0l-2,6.4l-8.2,0l11.7,-35.1l9.7,0l11.7,35.1l-8.2,0l-2,-6.4zm-10.7,-6.5l8.6,0l-4.3,-14l-4.3,14z"/>
   </g>
   <g id="svg_11" stroke-width="1px" fill="url(#id6)" font-size="48.1px" font-weight="bold" font-family="Arial" transform="matrix(0.599801 0.0224768 -0.0252456 0.534018 169.987 192.836)">
    <path id="svg_12" fill="url(#id7)" d="m-211.70885,-292.33881l29.1,0l0,6.8l-10.5,0l0,28.2l-8.2,0l0,-28.2l-10.5,0l0,-6.8l0.1,0z"/>
   </g>
   <g id="svg_13" stroke-width="1px" fill="url(#id8)" font-size="48.1px" font-weight="bold" font-family="Arial" transform="matrix(0.598456 0.0270756 -0.041778 0.534276 169.987 192.836)">
    <path id="svg_14" fill="url(#id9)" d="m-191.38596,-280.72089l8.2,0l0,13.4l12,0l0,-13.4l8.1,0l0,35.1l-8.1,0l0,-14.9l-12,0l0,14.9l-8.2,0l0,-35.1z"/>
   </g>
   <g id="svg_15" stroke-width="1px" fill="url(#id10)" font-size="37.4px" font-weight="bold" font-family="Arial" transform="matrix(0.583956 -0.120178 0.139021 0.520869 169.987 192.836)">
    <path id="svg_16" fill="url(#id11)" d="m-61.68998,-321.03356l5.9,0l0,20.5l-5.9,0l0,-20.5zm0,-8l5.9,0l0,5.3l-5.9,0l0,-5.3z"/>
   </g>
   <g id="svg_17" stroke-width="1px" fill="url(#id12)" font-size="37.4px" font-weight="bold" font-family="Arial" transform="matrix(0.583956 -0.120178 0.139021 0.520869 169.987 192.836)">
    <path id="svg_18" fill="url(#id13)" d="m-49.38998,-294.93356l0,5.8q-2,-1 -3.9,-1.5q-1.9,-0.5 -3.6,-0.5q-2.3,0 -3.4,0.7q-1.1,0.7 -1.1,2.2q0,1.1 0.7,1.7q0.7,0.6 2.7,1l2.7,0.6q4.1,0.9 5.8,2.8q1.7,1.9 1.7,5.3q0,4.5 -2.4,6.7q-2.4,2.2 -7.3,2.2q-2.3,0 -4.7,-0.5q-2.3,-0.5 -4.7,-1.5l0,-5.9q2.4,1.4 4.5,2.1q2.2,0.7 4.2,0.7q2.1,0 3.2,-0.8q1.1,-0.8 1.1,-2.2q0,-1.3 -0.7,-2q-0.7,-0.7 -3,-1.2l-2.4,-0.6q-3.7,-0.9 -5.4,-2.8q-1.7,-1.9 -1.7,-5.2q0,-4.1 2.4,-6.3q2.4,-2.2 6.8,-2.2q2,0 4.2,0.3q2.1,0.3 4.4,1l-0.1,0.1z"/>
   </g>
   <g id="svg_19" stroke-width="1px" fill="url(#id14)" font-size="48.1px" font-weight="bold" font-family="Arial" transform="matrix(0.597905 0.0480151 -0.0539298 0.532329 169.987 192.836)">
    <path id="svg_20" fill="url(#id15)" d="m-220.53601,-224.24101l22,0l0,6.8l-13.8,0l0,6.5l13,0l0,6.8l-13,0l0,14.9l-8.2,0l0,-35.1l0,0.1z"/>
   </g>
   <g id="svg_21" stroke-width="1px" fill="url(#id16)" font-size="48.1px" font-weight="bold" font-family="Arial" transform="matrix(0.599815 -0.0221883 0.0249216 0.53403 169.987 192.836)">
    <path id="svg_22" fill="url(#id17)" d="m-163.07754,-243.62657l8.2,0l0,21q0,4.3 1.3,6.2q1.3,1.9 4.2,1.9q2.9,0 4.2,-1.9q1.3,-1.9 1.3,-6.2l0,-21l8.2,0l0,21q0,7.4 -3.4,11.1q-3.4,3.6 -10.2,3.6q-6.9,0 -10.2,-3.6q-3.4,-3.6 -3.4,-11.1l0,-21l-0.2,0z"/>
   </g>
   <g id="svg_23" stroke-width="1px" fill="url(#id18)" font-size="48.1px" font-weight="bold" font-family="Arial" transform="matrix(0.599659 -0.0253088 0.0284265 0.533891 169.987 192.836)">
    <path id="svg_24" fill="url(#id19)" d="m-127.29598,-246.48495l9.1,0l11.5,24.1l0,-24.1l7.7,0l0,35.1l-9.1,0l-11.5,-24.1l0,24.1l-7.7,0l0,-35.1z"/>
   </g>
  </g>
 </g>
</svg>