<svg width="1100" height="1100" xmlns="http://www.w3.org/2000/svg" p-id="3066" version="1.1" class="icon" t="1646319915142">

 <g>
  <title>Layer 1</title>
  <path id="svg_1" p-id="3067" d="m1011.06153,311.14288q22.85714,32.57143 10.28571,73.71428l-157.14286,517.71429q-10.85714,36.57143 -43.71428,61.42857t-70,24.85714l-527.42857,0q-44,0 -84.85715,-30.57143t-56.85714,-75.14285q-13.71429,-38.28572 -1.14286,-72.57143q0,-2.28571 1.71429,-15.42857t2.28571,-21.14286q0.57143,-4.57143 -1.71428,-12.28571t-1.71429,-11.14286q1.14286,-6.28572 4.57143,-12t9.42857,-13.42857t9.42857,-13.42857q13.14286,-21.71429 25.71429,-52.28572t17.14286,-52.28571q1.71428,-5.71429 0.28571,-17.14286t-0.28571,-16q1.71428,-6.28571 9.71428,-16t9.71429,-13.14286q12,-20.57143 24,-52.57143t14.28571,-51.42857q0.57143,-5.14285 -1.42857,-18.28571t0.28572,-16q2.28571,-7.42857 12.57142,-17.42857t12.57143,-12.85715q10.85715,-14.85714 24.28572,-48.28571t15.71428,-55.14286q0.57143,-4.57143 -1.71428,-14.57143t-1.14286,-15.14285q1.14286,-4.57143 5.14286,-10.28572t10.28571,-13.14285t9.71429,-12q4.57143,-6.85715 9.42857,-17.42858t8.57143,-20t9.14285,-20.57142t11.14286,-18.28572t15.14286,-13.42857t20.57143,-6.57143t27.14285,3.14286l-0.57142,1.71428q21.71428,-5.14285 29.14285,-5.14285l434.85715,0q42.28571,0 65.14285,32t10.28572,74.28571l-156.57143,517.71429q-20.57143,68 -40.85714,87.71428t-73.42858,19.71429l-496.57142,0q-15.42857,0 -21.71429,8.57143q-6.28571,9.14285 -0.57143,24.57143q13.71429,40 82.28572,40l527.42857,0q16.57143,0 32,-8.85715t20,-23.71428l171.42857,-564q4,-12.57143 2.85714,-32.57143q21.71429,8.57143 33.71429,24.57143zm-608,1.14285q-2.28572,7.42857 1.14285,12.85715t11.42858,5.42857l347.42857,0q7.42857,0 14.57143,-5.42857t9.42857,-12.85715l12,-36.57142q2.28571,-7.42858 -1.14286,-12.85715t-11.42857,-5.42857l-347.42857,0q-7.42857,0 -14.57143,5.42857t-9.42857,12.85715l-12,36.57142zm-47.42857,146.28572q-2.28572,7.42857 1.14285,12.85714t11.42857,5.42857l347.42858,0q7.42857,0 14.57142,-5.42857t9.42858,-12.85714l12,-36.57143q2.28571,-7.42857 -1.14286,-12.85714t-11.42857,-5.42857l-347.42857,0q-7.42857,0 -14.57143,5.42857t-9.42857,12.85714l-12,36.57143z"/>
 </g>
</svg>