<?xml version="1.0" standalone="no"?><!DOCTYPE svg PUBLIC "-//W3C//DTD SVG 1.1//EN" "http://www.w3.org/Graphics/SVG/1.1/DTD/svg11.dtd"><svg t="1637751880970" class="icon" viewBox="0 0 1126 1024" version="1.1" xmlns="http://www.w3.org/2000/svg" p-id="20608" xmlns:xlink="http://www.w3.org/1999/xlink" width="219.921875" height="200"><defs><style type="text/css"></style></defs><path d="M460.8 747.52c0-63.488-3.072-83.968-15.36-88.064-8.192-4.096-15.36-12.288-15.36-20.48 0-21.504 67.584-18.432 138.24 6.144 32.768 11.264 61.44 20.48 64.512 20.48s3.072-75.776 0-168.96l-5.12-169.984 26.624 6.144c14.336 3.072 63.488-3.072 108.544-14.336s108.544-23.552 141.312-26.624l58.368-7.168v205.824c0 156.672-3.072 206.848-12.288 209.92-7.168 2.048-57.344 11.264-110.592 21.504-53.248 9.216-158.72 36.864-233.472 62.464-74.752 24.576-137.216 45.056-140.288 45.056s-5.12-36.864-5.12-81.92z" fill="#4E9FFE" p-id="20609"></path><path d="M363.52 637.952c-51.2-12.288-116.736-25.6-145.408-29.696l-54.272-6.144V393.216c0-169.984 3.072-208.896 14.336-208.896 40.96 0 202.752 34.816 285.696 61.44 126.976 40.96 199.68 82.944 199.68 115.712 0 20.48-8.192 27.648-37.888 36.864-20.48 6.144-59.392 25.6-88.064 44.032l-51.2 33.792-3.072 89.088c-2.048 57.344-7.168 89.088-15.36 92.16-7.168 2.048-53.248-6.144-104.448-19.456z" fill="#00C358" p-id="20610"></path><path d="M563.2 685.056c-41.984-15.36-84.992-27.648-95.232-24.576-16.384 3.072-17.408-5.12-15.36-105.472l3.072-108.544 44.032-29.696c23.552-16.384 70.656-39.936 104.448-53.248l60.416-23.552-2.048 185.344c-1.024 113.664-6.144 185.344-12.288 186.368-5.12 1.024-45.056-10.24-87.04-26.624z" fill="#348AC4" p-id="20611"></path></svg>