<?xml version="1.0" encoding="utf-8"?>
<!-- Generator: Adobe Illustrator 22.0.0, SVG Export Plug-In . SVG Version: 6.00 Build 0)  -->
<svg version="1.1" id="图层_1" xmlns="http://www.w3.org/2000/svg" xmlns:xlink="http://www.w3.org/1999/xlink" x="0px" y="0px"
	 viewBox="0 0 105.8 95" style="enable-background:new 0 0 105.8 95;" xml:space="preserve">
<style type="text/css">
	.st0{fill:#4DABCF;}
	.st1{fill:#4D77CF;}
</style>
<g id="Layer_1" transform="scale(1 -1)">
	<path marker-start="none" marker-end="none" class="st0" d="M46.9-22.8l-13.2,6.6l-14.4-7.2l13.5-6.8L46.9-22.8z"/>
	<path marker-start="none" marker-end="none" class="st0" d="M53-25.8l13.8-7L52.4-40l-13.5,6.8L53-25.8z"/>
	<path marker-start="none" marker-end="none" class="st0" d="M71.4-16.2l14.2-7.1l-12.7-6.4l-13.8,7L71.4-16.2z"/>
	<path marker-start="none" marker-end="none" class="st0" d="M65.3-13.2L52.5-6.8l-12.6-6.3L53-19.7L65.3-13.2z"/>
	<path marker-start="none" marker-end="none" class="st0" d="M55.3-68.1v-17.4l15.5,7.7l0,17.4L55.3-68.1z"/>
	<path marker-start="none" marker-end="none" class="st0" d="M70.7-54.3l0,17.2l-15.4-7.7V-62L70.7-54.3z"/>
	<path marker-start="none" marker-end="none" class="st0" d="M89.3-51.1v-17.5l-13.2-6.6l0,17.4L89.3-51.1z"/>
	<path marker-start="none" marker-end="none" class="st0" d="M89.3-45v17.1l-13.2-6.6l0-17.3L89.3-45z"/>
	<path marker-start="none" marker-end="none" class="st1" d="M49.8-44.8l-10.4,5.2v-22.6c0,0-12.7,27.1-13.9,29.5
		c-0.2,0.3-0.8,0.7-0.9,0.7c-2.3,1.2-9,4.6-9,4.6v-40l9.3-5v20.9c0,0,12.6-24.2,12.7-24.5c0.1-0.3,1.4-2.8,2.7-3.7
		c1.8-1.2,9.5-5.8,9.5-5.8L49.8-44.8z"/>
</g>
</svg>
