<svg width="3200" height="1000.0000000000001" xmlns="http://www.w3.org/2000/svg" class="icon" version="1.1">
 <g>
  <title>Layer 1</title>
  <g id="svg_3">
   <path d="m1454.63532,491.7816c8.93024,-1.48838 17.8605,-2.48063 26.79075,-2.48063l-7.44188,0l241.61288,0c10.41862,0 20.34112,-1.48837 30.26362,-3.969c44.65125,-12.40312 77.3955,-52.09312 77.3955,-101.2095l0,-202.91512c0,-57.5505 -49.11637,-101.2095 -107.65913,-110.63588c-37.20937,-5.9535 -91.287,-8.93025 -128.00025,-8.93025c-36.71325,0 -71.93812,3.47288 -103.194,8.93025c-91.28699,15.876 -107.65912,49.11638 -107.65912,110.63588l0,66.48075l223.25625,0l0,37.20937l-295.6905,0c-82.85287,0 -150.32587,99.225 -150.822,221.27175l0,1.9845c0,22.32562 1.9845,43.659 6.44963,63.504c18.35662,92.27925 75.90712,159.75225 144.37237,159.75225l35.22488,0l0,-106.66687c0,-62.51175 46.63574,-120.55838 115.101,-132.9615zm23.814,-283.7835c-22.32563,0 -40.68226,-18.35663 -40.18613,-40.68225c0,-22.32563 17.8605,-40.68226 40.18613,-40.68226s40.68225,18.35663 40.68225,40.68226c-0.49613,22.82175 -18.35663,40.68225 -40.68225,40.68225z" fill="#0075AA" id="svg_1"/>
   <path d="m2037.08607,430.2621c-21.33338,-84.83738 -76.40326,-145.36463 -141.39563,-145.36463l-35.22487,0l0,94.75988c0,78.88387 -51.597,135.93825 -115.101,145.86075c-6.44963,0.99224 -12.89926,1.48837 -19.34888,1.48837l-241.61288,0c-10.41862,0 -20.34112,1.48838 -30.26362,3.969c-44.65125,11.907 -77.3955,48.62025 -77.3955,96.74438l0,202.91512c0,57.5505 58.04663,91.78313 115.101,108.15525c67.96912,19.845 142.38787,23.31788 224.2485,0c54.07763,-15.37987 107.163,-46.63575 107.163,-108.15525l0,-61.5195l-223.25625,0l0,-37.7055l295.6905,0c58.54275,0 109.64362,-49.6125 134.44987,-122.04675c10.41863,-30.26362 16.37213,-64.49625 16.37213,-101.2095c0,-27.28688 -3.47288,-53.5815 -9.42638,-77.89162l0.00001,0zm-316.52775,372.58987c22.32562,0 40.18612,18.35663 40.18612,40.68225c0,22.32562 -18.35662,40.68225 -40.18612,40.68225c-22.32563,0 -40.68226,-18.35662 -40.68225,-40.68225c0.49612,-22.32562 18.35662,-40.68225 40.68225,-40.68225z" fill="#FFD400" id="svg_2"/>
  </g>
 </g>

</svg>