<?xml version="1.0" standalone="no"?><!DOCTYPE svg PUBLIC "-//W3C//DTD SVG 1.1//EN" "http://www.w3.org/Graphics/SVG/1.1/DTD/svg11.dtd"><svg t="1636785503700" class="icon" viewBox="0 0 1024 1024" version="1.1" xmlns="http://www.w3.org/2000/svg" p-id="32192" xmlns:xlink="http://www.w3.org/1999/xlink" width="200" height="200"><defs><style type="text/css"></style></defs><path d="M512 0v148.935111l-27.306667 27.249778h0.341334L303.445333 356.238222a318.407111 318.407111 0 0 0-113.038222 243.484445c0 176.583111 143.985778 319.715556 321.592889 319.715555 177.607111 0 321.592889-143.132444 321.592889-319.715555 0-88.120889-35.84-167.822222-93.696-225.678223l74.183111-74.012444A421.831111 421.831111 0 0 1 938.666667 599.608889C938.666667 834.048 747.633778 1024 512 1024 276.366222 1024 85.333333 833.991111 85.333333 599.665778 85.333333 476.387556 138.24 365.340444 222.663111 287.857778L512 0z m150.300444 169.073778c30.72 0 55.694222 24.803556 55.694223 55.409778a55.523556 55.523556 0 0 1-55.751111 55.409777 55.523556 55.523556 0 0 1-55.637334-55.409777c0-30.606222 24.917333-55.409778 55.694222-55.409778z" fill="#FF3912" p-id="32193"></path></svg>