<svg width="1080" height="720" xmlns="http://www.w3.org/2000/svg" t="1636776370606" class="icon" version="1.1" p-id="1922">
 <g id="Layer_1">
  <title>Layer 1</title>
  <g stroke="null">
   <defs stroke="null" transform="translate(-12.2809 0) translate(-7.40739 -1.23456) translate(-27.1604 -13.5802) translate(19.753 2.46913) translate(-111.111 -61.7282) translate(92 -6) translate(268 0) translate(144.5 0) translate(0 86.745) translate(144.59 87.745) scale(0.726464 0.726464) translate(-144.59 -87.745) translate(1429.4 961.035) scale(0.643845 0.643845) translate(-1429.4 -961.035)">
    <linearGradient stroke="null" gradientTransform="matrix(0.6277077198028564,0,0,0.6277077198028564,255.03521347045898,146.22718811035156)" gradientUnits="userSpaceOnUse" y2="341.13" x2="367.45" y1="-122.39" x1="366.15" id="svg_4">
     <stop stroke="null" stop-opacity="0.83" stop-color="#fff" offset="0"/>
     <stop stroke="null" stop-opacity="0.37" stop-color="#fff" offset="0.56"/>
     <stop stroke="null" stop-opacity="0" stop-color="#fff" offset="1"/>
    </linearGradient>
   </defs>
   <title stroke="null">hms</title>
   <path stroke="null" fill="#36a85d" d="m570.20156,517.42171l0,-182.63439l23.50341,-13.56416l134.64533,-77.72731l0,0l134.97742,77.92843l23.17133,13.36304l0,182.63439l-158.14874,91.3055l-158.14874,-91.3055z" class="cls-1"/>
   <path stroke="null" fill="#e6b35a" d="m728.12112,523.23559c0.13564,-0.13564 0.28532,-0.27596 0.43967,-0.41628l-0.12161,0c-0.08887,0.14032 -0.19645,0.28064 -0.31806,0.41628z" class="cls-2"/>
   <path stroke="null" fill="#fff" d="m669.42105,462.87508l6.58563,0l0,22.6007l0.14967,0a12.22178,12.22178 0 0 1 4.72407,-4.63988a13.56416,13.56416 0 0 1 6.73531,-1.87092c4.86439,0 12.6287,2.99347 12.6287,15.49121l0,21.55298l-6.57628,0l0,-20.79058c0,-5.83727 -2.17027,-10.75778 -8.38172,-10.75778c-4.26569,0 -7.63335,2.99347 -8.83074,6.58563a7.9514,7.9514 0 0 0 -0.46773,3.14314l0,21.85233l-6.56692,0l0,-53.16683z" class="cls-3"/>
   <path stroke="null" fill="#fff" d="m708.56066,489.60583c0,-3.74184 -0.07484,-6.81014 -0.29935,-9.82232l5.76243,0l0.29935,5.83727l0.23386,0c2.02059,-3.44249 5.38825,-6.66047 11.37518,-6.66047c4.93922,0 8.68106,2.99347 10.25263,7.25916l0.14967,0a14.92058,14.92058 0 0 1 4.04118,-4.71471c2.17027,-1.64641 4.56504,-2.54445 8.00753,-2.54445c4.78955,0 11.89904,3.14314 11.89904,15.71572l0,21.32847l-6.43596,0l0,-20.50059c0,-6.95982 -2.54445,-11.15067 -7.85786,-11.15067c-3.74184,0 -6.66047,2.76896 -7.78302,5.98694a10.84665,10.84665 0 0 0 -0.52386,3.27411l0,22.37619l-6.44531,0l0,-21.70266c0,-5.76243 -2.54445,-9.95329 -7.55851,-9.95329c-4.11602,0 -7.10949,3.27411 -8.1572,6.58563a9.07863,9.07863 0 0 0 -0.52386,3.21798l0,21.85233l-6.43596,0l0,-26.38463z" class="cls-3"/>
   <path stroke="null" fill="#fff" d="m767.68169,509.27386a17.25922,17.25922 0 0 0 8.68106,2.61929c4.78955,0 7.01594,-2.39478 7.01594,-5.38825c0,-3.14314 -1.87092,-4.86439 -6.73531,-6.66047c-6.5108,-2.33865 -9.5791,-5.9121 -9.5791,-10.25263c0,-5.83727 4.71471,-10.62682 12.49774,-10.62682a18.07775,18.07775 0 0 1 8.88686,2.2451l-1.64641,4.78955a14.09737,14.09737 0 0 0 -7.40884,-2.09543c-3.89151,0 -6.08049,2.2451 -6.08049,4.93922c0,2.99347 2.17027,4.34053 6.88498,6.13661c6.28629,2.39478 9.50427,5.53792 9.50427,10.92616c0,6.36112 -4.93922,10.85133 -13.56416,10.85133c-3.96635,0 -7.63335,-0.97288 -10.1778,-2.46961l1.72125,-5.01406z" class="cls-3"/>
   <path stroke="null" fill="#fff" d="m744.49165,591.76266c-0.33209,-0.57531 -0.63144,-1.06642 -0.93546,-1.50141l0.77643,-0.46773l0.58934,0.93546l0.0421,0a1.69786,1.69786 0 0 1 0.72966,-1.87092a1.10384,1.10384 0 0 1 0.27128,-0.11693l0.46773,0.83724a1.57625,1.57625 0 0 0 -0.32273,0.145a1.44996,1.44996 0 0 0 -0.52386,1.83818a2.72686,2.72686 0 0 0 0.20112,0.43967l1.51544,2.60525l-0.87933,0.50983l-1.93172,-3.35362z" class="cls-3"/>
   <path stroke="null" fill="#fff" d="m749.11282,592.36603a2.66606,2.66606 0 0 0 1.37513,-0.33209c0.64547,-0.37418 0.7624,-0.87465 0.52853,-1.2769s-0.63611,-0.50983 -1.43593,-0.36951c-1.06175,0.19645 -1.75866,-0.04677 -2.09543,-0.63144c-0.46773,-0.79046 -0.20112,-1.80544 0.85127,-2.41816a2.77364,2.77364 0 0 1 1.3798,-0.39757l0.14967,0.77643a2.19365,2.19365 0 0 0 -1.16465,0.29935a0.82788,0.82788 0 0 0 -0.43031,1.14126c0.23854,0.40692 0.63611,0.41628 1.40319,0.28999c1.03836,-0.17306 1.72125,0 2.1422,0.72498c0.50047,0.86062 0.18709,1.87092 -0.97288,2.53042a3.24604,3.24604 0 0 1 -1.57157,0.46773l-0.15903,-0.80449z" class="cls-3"/>
   <path stroke="null" fill="#fff" d="m751.17083,583.95625l0.81385,1.40319l1.2769,-0.73901l0.39289,0.67353l-1.27222,0.74369l1.53415,2.63332c0.3508,0.60805 0.72498,0.85127 1.22077,0.56595a2.11414,2.11414 0 0 0 0.46773,-0.36483l0.43031,0.64547a2.60058,2.60058 0 0 1 -0.71563,0.57998a1.43125,1.43125 0 0 1 -1.17868,0.18709a2.10946,2.10946 0 0 1 -1.08513,-1.07578l-1.55286,-2.66606l-0.75772,0.43967l-0.39289,-0.67821l0.75772,-0.43967l-0.68289,-1.16932l0.74369,-0.73901z" class="cls-3"/>
   <path stroke="null" fill="#fff" d="m760.42252,585.20976c0.29467,0.50515 0.56128,0.93546 0.81853,1.30964l-0.79046,0.46773l-0.5145,-0.76708l0,0a2.13752,2.13752 0 0 1 -1.08981,1.87092c-0.76708,0.46773 -1.93172,0.5566 -2.93266,-1.15997l-1.66512,-2.85783l0.88869,-0.51918l1.57625,2.70815c0.54257,0.93546 1.18803,1.40319 1.99721,0.93546a1.4827,1.4827 0 0 0 0.70159,-1.49206a1.44528,1.44528 0 0 0 -0.18241,-0.50047l-1.74931,-3.00282l0.88869,-0.5145l2.05333,3.522z" class="cls-3"/>
   <path stroke="null" fill="#fff" d="m762.73311,576.05162l3.43781,5.9121c0.25257,0.43031 0.55192,0.93546 0.77643,1.23948l-0.79982,0.46773l-0.53321,-0.82788l0,0a2.10478,2.10478 0 0 1 -1.10852,1.93172c-1.18336,0.68756 -2.67541,0.21516 -3.53604,-1.26755c-0.95885,-1.62302 -0.53321,-3.20863 0.6595,-3.90554a1.90366,1.90366 0 0 1 1.91301,-0.11226l0,0l-1.70254,-2.91863l0.89336,-0.51918zm1.59496,4.78955a1.58093,1.58093 0 0 0 -2.13752,-0.63144c-0.93546,0.53321 -0.99626,1.66044 -0.36483,2.7409c0.57531,0.99159 1.53883,1.5248 2.49768,0.9682a1.54351,1.54351 0 0 0 0.68289,-1.81947a1.55754,1.55754 0 0 0 -0.18241,-0.40692l-0.49579,-0.85127z" class="cls-3"/>
   <path stroke="null" fill="#fff" d="m765.71722,575.52308a0.63611,0.63611 0 0 1 -1.09916,0.64547a0.62676,0.62676 0 0 1 0.22919,-0.87933a0.60805,0.60805 0 0 1 0.86998,0.23386zm2.6567,6.84288l-2.83444,-4.89245l0.88869,-0.5145l2.85315,4.88777l-0.9074,0.51918z" class="cls-3"/>
   <path stroke="null" fill="#fff" d="m773.7154,575.92533c1.05239,1.81011 0.26193,3.32556 -0.93546,4.0178c-1.32367,0.76708 -2.90928,0.39289 -3.80732,-1.15529c-0.93546,-1.63238 -0.43967,-3.21798 0.91207,-4.00377s2.96073,-0.3508 3.83071,1.14126zm-3.84941,2.31058c0.62676,1.0711 1.71189,1.52012 2.58187,1.01497s1.01965,-1.66512 0.37886,-2.76428c-0.46773,-0.82788 -1.51077,-1.63705 -2.56316,-1.02433s-0.94014,1.84285 -0.39757,2.77364z" class="cls-3"/>
   <path stroke="null" fill="#fff" d="m775.52551,577.4969a0.69224,0.69224 0 0 1 0.23386,-0.98691a0.73901,0.73901 0 1 1 -0.23386,0.98691z" class="cls-3"/>
   <path stroke="null" fill="#fff" d="m781.51713,574.47069a3.83538,3.83538 0 0 1 -1.23948,1.09916c-1.47803,0.86062 -3.01686,0.41628 -3.89151,-1.07578a2.87654,2.87654 0 0 1 1.11787,-4.12538a3.38169,3.38169 0 0 1 1.3798,-0.46773l0.19645,0.80449a2.41816,2.41816 0 0 0 -1.16465,0.36951c-1.12255,0.65482 -1.24416,1.8335 -0.65014,2.85315c0.65482,1.13191 1.7914,1.40319 2.7596,0.84191a2.92799,2.92799 0 0 0 0.93546,-0.87933l0.5566,0.57998z" class="cls-3"/>
   <path stroke="null" fill="#fff" d="m785.57702,569.01696c1.05707,1.81011 0.26193,3.33024 -0.93546,4.0178c-1.32367,0.76708 -2.9046,0.39289 -3.80732,-1.15061c-0.93546,-1.63705 -0.43967,-3.22266 0.91207,-4.00844s2.97008,-0.3508 3.83071,1.14126zm-3.84941,2.31058c0.62676,1.0711 1.71189,1.52012 2.58187,1.01497s1.01965,-1.66044 0.37886,-2.76428c-0.46773,-0.82788 -1.50609,-1.63705 -2.55848,-1.02433s-0.94014,1.84753 -0.40225,2.77364z" class="cls-3"/>
   <path stroke="null" fill="#fff" d="m786.07282,567.28636c-0.29467,-0.50515 -0.54724,-0.93546 -0.80917,-1.30029l0.77643,-0.46773l0.50047,0.79514l0.02806,0a1.95511,1.95511 0 0 1 1.01497,-1.7914a1.66979,1.66979 0 0 1 1.95043,0.17306l0.02339,0a2.33865,2.33865 0 0 1 0.17306,-0.93546a1.9364,1.9364 0 0 1 0.87933,-0.97288c0.65014,-0.37886 1.87092,-0.50983 2.8438,1.18803l1.67447,2.87654l-0.8653,0.50515l-1.59496,-2.83444c-0.54724,-0.93546 -1.22077,-1.30497 -1.9364,-0.88401a1.32367,1.32367 0 0 0 -0.57998,1.40319a1.66979,1.66979 0 0 0 0.18709,0.46773l1.75866,3.02153l-0.86998,0.50515l-1.70254,-2.92799c-0.46773,-0.78111 -1.12723,-1.14594 -1.80544,-0.75304a1.54819,1.54819 0 0 0 -0.40225,2.00656l1.72125,2.95137l-0.86998,0.50515l-2.09543,-3.53136z" class="cls-3"/>
   <path stroke="null" fill="#fff" d="m727.41952,237.59777c-2.71283,0 -9.56507,5.89807 -9.27976,11.7634l0,0.02806l10.21054,-5.89339l0,0l10.20586,5.89339c-0.21983,-4.80826 -7.05804,-11.79146 -11.13664,-11.79146" class="cls-3"/>
   <path stroke="null" fill="#c3e5cf" d="m728.3503,243.49585l0,0l-10.21054,5.89339l0,26.35656q4.0178,-0.21048 8.09172,-0.21048c4.15344,0 8.25543,0.21516 12.32935,0.53321l0,-26.44543c0,-0.07951 0,-0.15435 0,-0.23386l-10.20586,-5.89339" class="cls-4"/>
   <path stroke="null" fill="#fff" d="m738.56084,602.83382l-10.21054,5.89339l-10.21054,-5.89339l0,0.16838c2.17494,3.09169 8.11511,9.23766 10.82794,9.23766c4.15344,0 7.7456,-6.00097 9.59313,-8.9196l0,-0.46773" class="cls-3"/>
   <path stroke="null" fill="#c3e5cf" d="m726.2502,576.41645c-2.71283,0 -5.40695,0.08419 -8.09172,0.20112l0,26.21625l10.21054,5.89339l10.21054,-5.89339l0,-25.95432c-4.08328,-0.27596 -8.18527,-0.46773 -12.32935,-0.46773" class="cls-4"/>
   <path stroke="null" fill="#fff" d="m653.71001,286.61116q-4.71004,2.53509 -9.24234,5.32744l0,0l9.24234,-5.32744" class="cls-3"/>
   <path stroke="null" fill="#c3e5cf" d="m655.09449,285.85344l-1.40319,0.73434l-9.23766,5.3368l13.19465,22.84859q5.17309,-3.22733 10.62682,-6.04774l-13.19933,-22.87198" class="cls-4"/>
   <path stroke="null" fill="#fff" d="m576.37091,331.24193c-1.62302,0.09355 -6.63241,0.0421 -7.63335,1.7914s0.20112,5.2947 1.46399,8.58752l0,-6.83353l6.16935,-3.5641" class="cls-3"/>
   <path stroke="null" fill="#c3e5cf" d="m576.38494,331.24193l0,0l-6.18339,3.54539l0,6.81482c0.02806,0.07484 0.05613,0.15435 0.08887,0.22919l22.87198,13.19933c1.89431,-3.62023 3.91957,-7.16562 6.08049,-10.60811l-22.85795,-13.18062" class="cls-4"/>
   <path stroke="null" fill="#c3e5cf" d="m596.80602,418.28641l-26.39398,0c-0.12629,2.77831 -0.21048,5.56131 -0.21048,8.37236c0,4.05522 0.17774,8.05898 0.43967,12.04404l26.44543,0c-0.30402,-3.98038 -0.50983,-7.98882 -0.50983,-12.04404c0,-2.80638 0.08419,-5.61276 0.22919,-8.37236" class="cls-4"/>
   <path stroke="null" fill="#fff" d="m570.20156,510.57882c-0.21516,0.60337 -5.34615,4.90181 -5.14503,5.21519c1.65576,2.94202 6.82418,4.31714 8.63897,7.16094a0.05145,0.05145 0 0 0 0.04677,0.02339c0.18241,0 0.77643,-0.49579 1.37045,-0.99159a7.25449,7.25449 0 0 1 1.31432,-0.98691l-6.20209,-3.57813l0,-6.84288" class="cls-3"/>
   <path stroke="null" fill="#c3e5cf" d="m593.0408,497.3374l-22.83924,13.18998s0,0.02806 0,0.05145l0,6.84288l6.20209,3.57813l0.05145,0a0.0608,0.0608 0 0 1 0.05145,0l22.85795,-13.19933c-2.23575,-3.40507 -4.35456,-6.89433 -6.3237,-10.47714" class="cls-4"/>
   <path stroke="null" fill="#fff" d="m646.66132,561.56603l0,0c3.48926,2.10946 6.95046,4.20957 10.58004,6.08049l-10.56134,-6.08049" class="cls-3"/>
   <path stroke="null" fill="#c3e5cf" d="m659.83259,538.75018l-13.17127,22.81585l10.56134,6.08049l0,0l13.33029,-23.0123c-3.65765,-1.83818 -7.24513,-3.77926 -10.72036,-5.90275" class="cls-4"/>
   <path stroke="null" fill="#fff" d="m804.08041,287.21921l3.9149,2.25913l0.1029,-0.17774q-2.02995,-1.01497 -4.0178,-2.0814" class="cls-3"/>
   <path stroke="null" fill="#c3e5cf" d="m797.37317,283.39786l-13.1853,22.85795c3.48926,2.10478 6.95046,4.20957 10.58004,6.08049l13.22739,-22.82988l-3.9149,-2.25913c-2.27317,-1.2161 -4.51359,-2.48364 -6.70724,-3.82135" class="cls-4"/>
   <path stroke="null" fill="#fff" d="m812.8176,559.96172l-10.13102,5.84662l0.05145,0.08419c3.43781,-1.87092 6.78208,-3.85877 10.07957,-5.93081" class="cls-3"/>
   <path stroke="null" fill="#c3e5cf" d="m800.07664,536.81846c-3.42846,2.18897 -6.93643,4.27973 -10.54263,6.20677l13.15256,22.78311l10.13102,-5.84662l0.46773,-0.28532l-13.19465,-22.85795" class="cls-4"/>
   <path stroke="null" fill="#fff" d="m886.49905,510.44786l0,6.97385l-6.19274,3.57345l0,0a3.99441,3.99441 0 0 0 1.31432,0.21983c4.42472,0 8.92428,-6.96917 4.86907,-10.75778l0,0" class="cls-3"/>
   <path stroke="null" fill="#c3e5cf" d="m863.63642,497.24853q-2.88121,5.40695 -6.17403,10.56134l22.84392,13.1853l6.19274,-3.57345l0,-6.97385l-22.86262,-13.19933" class="cls-4"/>
   <path stroke="null" fill="#fff" d="m886.76098,418.28641l-0.26193,0l0,20.4164l0.03274,0c0.26193,-3.98506 0.43967,-7.98882 0.43967,-12.04404c0,-2.80638 -0.08419,-5.61276 -0.21048,-8.37236" class="cls-3"/>
   <path stroke="null" fill="#c3e5cf" d="m886.49905,418.28641l-26.13673,0c0.14967,2.76896 0.23386,5.56131 0.23386,8.37236c0,4.05522 -0.2058,8.06366 -0.50983,12.04404l26.41269,0l0,-20.4164" class="cls-4"/>
   <path stroke="null" fill="#fff" d="m883.74412,330.32518a5.61276,5.61276 0 0 0 -3.18056,0.99626l-0.04677,0.02806l5.98226,3.43781l0,7.21707c5.87468,-5.95888 1.87092,-11.69324 -2.75493,-11.69324" class="cls-3"/>
   <path stroke="null" fill="#c3e5cf" d="m880.51679,331.3495l-22.79714,13.16659c2.11882,3.47523 4.06925,7.06272 5.90743,10.70633l22.87198,-13.19933l0,-7.23578l-5.98226,-3.45652" class="cls-4"/>
   <path stroke="null" fill="#c3e5cf" d="m783.96336,325.50288l-2.33865,-1.21142a0.88869,0.88869 0 0 0 -0.4116,-0.09822c-0.73901,0 -1.68383,0.78111 -2.30123,1.96914l-32.10964,59.57472l-15.57072,28.89634a14.61655,14.61655 0 0 0 -2.69412,-0.28999l-0.23854,0a14.71477,14.71477 0 0 0 -9.68668,3.62958l-49.32209,-28.16668a4.39666,4.39666 0 0 0 -2.1422,-0.67353a1.25819,1.25819 0 0 0 -1.14594,0.50047l-1.35174,2.25446c-0.43967,0.73434 0.32741,1.99721 1.70721,2.80638l47.65697,30.57081a14.81767,14.81767 0 0 0 1.08046,10.55198c0.69692,1.61834 2.36203,3.68103 4.6773,5.32276c0.07484,0.05613 0.15435,0.11226 0.23854,0.16371s0.22919,0.15903 0.3508,0.23386l0.13564,0.08887a14.20027,14.20027 0 0 0 7.56319,2.30123a12.74096,12.74096 0 0 0 1.44996,-0.08419a14.68203,14.68203 0 0 0 8.92896,-4.02715a13.06837,13.06837 0 0 0 4.24231,-7.57254a14.67736,14.67736 0 0 0 0.32273,-3.18992c0,-0.30402 0,-0.60805 0,-0.9074a14.70074,14.70074 0 0 0 -4.20957,-9.39201l17.10487,-34.06475l28.06378,-55.88434c0.75304,-1.43593 0.75304,-2.9046 0,-3.30217zm-49.29403,103.69098a6.37048,6.37048 0 0 1 -6.35177,6.27225l-0.11226,0a6.34241,6.34241 0 0 1 -4.03183,-1.51544a5.37889,5.37889 0 0 1 -0.44434,-0.42096a6.44999,6.44999 0 0 1 -1.79608,-4.4294l0,-0.1029a6.31903,6.31903 0 0 1 1.4827,-3.9757l0,0l0.0608,-0.07484l0,0c0.07951,-0.08887 0.16371,-0.17306 0.24322,-0.25725l0,0c0.08419,-0.08419 0.16371,-0.16838 0.2479,-0.2479l0,0l0.07951,-0.06548l0,0l0.13096,-0.11693l0,0a6.35645,6.35645 0 0 1 4.09263,-1.51077l0.11693,0a6.36112,6.36112 0 0 1 4.87842,2.37139c0.12629,0.15903 0.2479,0.32741 0.36015,0.49579a6.3658,6.3658 0 0 1 1.03368,3.48459c0.00935,0.03274 0.00935,0.06548 0.00935,0.09355z" class="cls-4"/>
   <path stroke="null" fill="#22834a" d="m728.30353,422.72049l0,0a6.35645,6.35645 0 0 0 -4.09263,1.51077l0,0l-0.13096,0.11693l0,0l-0.07951,0.06548l0,0c-0.08419,0.07951 -0.16371,0.16371 -0.2479,0.2479l0,0c-0.07951,0.08419 -0.16371,0.16838 -0.24322,0.25725l0,0l-0.0608,0.07484l0,0a6.31903,6.31903 0 0 0 -1.4827,3.9757l0,0.1029a6.44999,6.44999 0 0 0 1.79608,4.4294a5.37889,5.37889 0 0 0 0.44434,0.42096a6.34241,6.34241 0 0 0 4.03183,1.51544l0.11226,0a6.37048,6.37048 0 0 0 6.31903,-6.24419l0,0c0,-0.02806 0,-0.0608 0,-0.09355a6.3658,6.3658 0 0 0 -1.03368,-3.48459c-0.11226,-0.16838 -0.23386,-0.33677 -0.36015,-0.49579a6.36112,6.36112 0 0 0 -4.86907,-2.39945l-0.1029,0" class="cls-5"/>
   <path stroke="null" fill="#22834a" d="m900.20353,524.86329l0,-198.4343l-13.70448,-7.91399l-129.93529,-75.01916l-28.20877,-16.28635l-28.20877,16.28635l-129.94465,75.02383l-13.69512,7.90931l0,198.4343l13.69512,7.90931l131.56299,75.95462l26.59043,15.35556l26.59043,-15.35556l131.55364,-75.94994l13.70448,-7.91399zm-330.00197,-7.44158l0,-182.63439l23.50341,-13.56416l134.64533,-77.72731l0,0l134.97742,77.92843l23.17133,13.36304l0,182.63439l-158.14874,91.3055l-158.14874,-91.3055z" class="cls-5"/>
   <path stroke="null" fill="url(#svg_2)" opacity="0.25" d="m728.07434,385.97097c59.97697,0 111.58626,-26.66059 134.61727,-64.9162l-134.33663,-77.55893l0,0l-134.76226,77.80215c23.11052,38.12932 74.63094,64.67298 134.48162,64.67298z" class="cls-6"/>
  </g>
  <g stroke="null">

   <title stroke="null">lubridate</title>
   <path stroke="null" fill="#36a85d" d="m219.49811,458.2312l0,-245.10103l31.54231,-18.20352l180.69822,-104.31247l0,0l181.14389,104.58238l31.09664,17.93361l0,245.10103l-212.24053,122.5411l-212.24053,-122.5411z" class="cls-1"/>
   <path stroke="null" fill="url(#svg_4)" opacity="0.25" d="m431.36829,281.82651c80.49096,0 149.74595,-35.77934 180.66055,-87.11955l-180.28393,-104.09277l0,0l-180.85514,104.4129c31.00876,51.17701 100.18843,86.79942 180.47852,86.79942z" class="cls-2"/>
   <path stroke="null" fill="#22834a" d="m662.36473,468.21803l0,-266.30499l-18.39184,-10.62081l-174.3772,-100.67804l-37.85705,-21.85678l-37.85705,21.85678l-174.38975,100.68432l-18.37928,10.61454l0,266.30499l18.37928,10.61454l176.56162,101.93345l35.68518,20.60764l35.68518,-20.60764l176.54907,-101.92718l18.39184,-10.62081zm-442.87289,-9.98683l0,-245.10103l31.54231,-18.20352l180.69822,-104.31247l0,0l181.14389,104.58238l31.09664,17.93361l0,245.10103l-212.24053,122.53482l-212.24053,-122.53482z" class="cls-3"/>
   <path stroke="null" fill="#e6b35a" d="m431.42479,466.03361c0.18204,-0.18204 0.3829,-0.37035 0.59005,-0.55866l-0.1632,0c-0.11926,0.18831 -0.26364,0.37662 -0.42684,0.55866z" class="cls-4"/>
   <path stroke="null" fill="#fff" d="m261.66124,385.02793l8.83812,0l0,71.3076l-8.83812,0l0,-71.3076z" class="cls-5"/>
   <path stroke="null" fill="#fff" d="m322.83135,443.07834c0,5.02166 0.09416,9.41562 0.40173,13.25719l-7.84635,0l-0.50217,-7.93423l-0.21342,0a18.2914,18.2914 0 0 1 -16.06932,9.03899c-7.63293,0 -16.77235,-4.2182 -16.77235,-21.29185l0,-28.42888l8.83812,0l0,26.91611c0,9.23986 2.81213,15.46672 10.84679,15.46672c5.92556,0 10.04332,-4.11776 11.65653,-8.03466a12.9245,12.9245 0 0 0 0.79719,-4.5195l0,-29.82867l8.86323,0l0,35.35878z" class="cls-5"/>
   <path stroke="null" fill="#fff" d="m333.86645,456.33552c0.20087,-3.3143 0.40173,-8.23553 0.40173,-12.55415l0,-58.75344l8.73769,0l0,30.5317l0.20087,0c3.13854,-5.42339 8.73769,-8.93856 16.57148,-8.93856c12.05199,0 20.58881,10.04332 20.48838,24.80701c0,17.37495 -10.94722,26.01221 -21.79401,26.01221c-7.03033,0 -12.65459,-2.7117 -16.27018,-9.13942l-0.3013,0l-0.40173,8.03466l-7.63293,0zm9.13942,-19.45894a16.54638,16.54638 0 0 0 0.40173,3.21386c1.70736,6.10132 6.82946,10.31324 13.25719,10.31324c9.23986,0 14.76369,-7.53249 14.76369,-18.68058c0,-9.74202 -5.02166,-18.07798 -14.43728,-18.07798c-6.02599,0 -11.65026,4.11776 -13.45805,10.84679a17.41889,17.41889 0 0 0 -0.50217,3.6156l-0.02511,8.76908z" class="cls-5"/>
   <path stroke="null" fill="#fff" d="m388.20083,422.89126c0,-5.72469 -0.10043,-10.67103 -0.40173,-15.16542l7.73336,0l0.3013,9.54116l0.40173,0c2.20953,-6.52816 7.53249,-10.67103 13.45805,-10.67103a9.55999,9.55999 0 0 1 2.51083,0.3013l0,8.35479a13.27602,13.27602 0 0 0 -3.013,-0.3013c-6.22686,0 -10.67103,4.72036 -11.85112,11.34896a24.87606,24.87606 0 0 0 -0.40173,4.11776l0,25.91177l-8.73769,0l0,-33.43799z" class="cls-5"/>
   <path stroke="null" fill="#fff" d="m428.07283,394.06692c0.10043,3.013 -2.1091,5.42339 -5.64937,5.42339a5.25391,5.25391 0 0 1 -5.32296,-5.42339a5.38573,5.38573 0 0 1 5.52383,-5.52383c3.3394,0 5.4485,2.4104 5.4485,5.52383zm-9.8299,62.2686l0,-48.61596l8.83812,0l0,48.60968l-8.83812,0.00628z" class="cls-5"/>
   <path stroke="null" fill="#fff" d="m480.49897,385.02793l0,58.75344c0,4.31863 0.10043,9.23986 0.40173,12.55415l-7.93423,0l-0.40173,-8.44267l-0.20087,0c-2.7117,5.42339 -8.63726,9.54116 -16.57148,9.54116c-11.75069,0 -20.78968,-9.94289 -20.78968,-24.70658c-0.10043,-16.16975 9.94289,-26.11264 21.79401,-26.11264c7.43206,0 12.45372,3.51516 14.66325,7.43206l0.20087,0l0,-29.01893l8.83812,0zm-8.83812,42.48326a15.59854,15.59854 0 0 0 -0.40173,-3.71603a12.99983,12.99983 0 0 0 -12.75502,-10.24419c-9.13942,0 -14.56282,8.03466 -14.56282,18.78101c0,9.84246 4.8208,17.97755 14.36195,17.97755c5.92556,0 11.34896,-3.9169 12.95589,-10.54549a15.35373,15.35373 0 0 0 0.40173,-3.81646l0,-8.43639z" class="cls-5"/>
   <path stroke="null" fill="#fff" d="m518.86447,456.33552l-0.70303,-6.12643l-0.3013,0c-2.7117,3.81646 -7.93423,7.23119 -14.86412,7.23119c-9.84246,0 -14.86412,-6.90478 -14.86412,-13.96022c0,-11.75069 10.44506,-18.20352 29.22607,-18.07798l0,-1.00433c0,-4.01733 -1.10477,-11.24852 -11.04766,-11.24852a24.21696,24.21696 0 0 0 -12.65459,3.6156l-2.00866,-5.82513c4.01733,-2.61126 9.84246,-4.31863 15.96888,-4.31863c14.86412,0 18.47971,10.14376 18.47971,19.88578l0,18.20352a68.42014,68.42014 0 0 0 0.80347,11.65026l-8.03466,-0.02511zm-1.30563,-24.80701c-9.64159,-0.20087 -20.58881,1.5065 -20.58881,10.94722c0,5.72469 3.81646,8.43639 8.33596,8.43639a12.09593,12.09593 0 0 0 11.75069,-8.1602a9.2273,9.2273 0 0 0 0.50217,-2.81213l0,-8.41128z" class="cls-5"/>
   <path stroke="null" fill="#fff" d="m547.38751,393.76562l0,13.95394l12.65459,0l0,6.72903l-12.65459,0l0,26.21307c0,6.02599 1.70736,9.41562 6.62859,9.41562a19.65981,19.65981 0 0 0 5.12209,-0.62771l0.40173,6.62859a21.63708,21.63708 0 0 1 -7.83379,1.2052c-4.11776,0 -7.43206,-1.30563 -9.54116,-3.71603c-2.51083,-2.61126 -3.41473,-6.90478 -3.41473,-12.65459l0,-26.45788l-7.51994,0l0,-6.7353l7.53249,0l0,-11.64398l8.6247,-2.30996z" class="cls-5"/>
   <path stroke="null" fill="#fff" d="m571.08975,433.63761c0.20087,11.92645 7.83379,16.87278 16.67192,16.87278c6.32729,0 10.14376,-1.10477 13.45805,-2.51083l1.5065,6.32729c-3.13854,1.40607 -8.43639,3.013 -16.16975,3.013c-14.96455,0 -23.90311,-9.84246 -23.90311,-24.4806s8.63726,-26.21307 22.79834,-26.21307c15.86845,0 20.08665,13.96022 20.08665,22.89878a33.33756,33.33756 0 0 1 -0.3013,4.11776l-34.1473,-0.02511zm25.91177,-6.32729c0.10043,-5.64937 -2.30996,-14.36195 -12.25285,-14.36195c-8.93856,0 -12.85545,8.23553 -13.55849,14.36195l25.81134,0z" class="cls-5"/>
   <path stroke="null" fill="#fff" d="m430.50206,568.59477l2.81213,2.82468c0.62771,0.62771 1.18637,1.19892 1.70109,1.8078l0.03766,0c-0.23225,-0.75325 -0.42684,-1.58182 -0.62771,-2.4104l-0.87879,-3.97339l1.00433,-0.58377l2.92512,2.68659c0.70303,0.62771 1.29308,1.25542 1.83291,1.80152l0.03766,0a23.25657,23.25657 0 0 1 -0.73442,-2.41667l-0.9855,-3.84157l1.18009,-0.6842l1.71364,7.74591l-1.08593,0.62771l-2.82468,-2.54849a23.85289,23.85289 0 0 1 -1.83918,-1.81408l-0.03139,0a20.52604,20.52604 0 0 1 0.66537,2.51083l0.75953,3.73486l-1.07966,0.62771l-5.80002,-5.41084l1.21775,-0.6842z" class="cls-5"/>
   <path stroke="null" fill="#fff" d="m440.64581,562.68804l2.81213,2.83096c0.62771,0.62771 1.18637,1.19264 1.70109,1.80152l0.03766,0c-0.23225,-0.75325 -0.42684,-1.58182 -0.62771,-2.4104l-0.87879,-3.97339l1.00433,-0.58377l2.92512,2.68659c0.70303,0.62771 1.29308,1.25542 1.83291,1.80152l0.03766,0a24.29857,24.29857 0 0 1 -0.7407,-2.41667l-0.97922,-3.84157l1.18009,-0.6842l1.70736,7.78985l-1.08593,0.62771l-2.82468,-2.54849a23.85289,23.85289 0 0 1 -1.83918,-1.81408l-0.03139,0a23.52021,23.52021 0 0 1 0.67165,2.51083l0.75325,3.76625l-1.07966,0.62771l-5.79374,-5.46733l1.21775,-0.70303z" class="cls-5"/>
   <path stroke="null" fill="#fff" d="m450.78957,556.78131l2.81213,2.83096c0.62771,0.62771 1.18637,1.19264 1.70109,1.80152l0.03766,0c-0.23225,-0.74697 -0.42684,-1.58182 -0.62771,-2.4104l-0.87879,-3.97339l1.00433,-0.58377l2.95023,2.66776c0.70303,0.62771 1.29308,1.25542 1.83291,1.80152l0.03766,0a24.97649,24.97649 0 0 1 -0.7407,-2.42295l-0.97922,-3.84157l1.18009,-0.6842l1.70736,7.79613l-1.08593,0.62771l-2.82468,-2.54849a23.85289,23.85289 0 0 1 -1.83918,-1.81408l0,0a23.52021,23.52021 0 0 1 0.67165,2.51083l0.75325,3.76625l-1.07966,0.62771l-5.80002,-5.41084l1.16754,-0.7407z" class="cls-5"/>
   <path stroke="null" fill="#fff" d="m462.89177,557.5785a0.93528,0.93528 0 0 1 0.31385,-1.33074a0.99178,0.99178 0 0 1 0.9855,1.71992a0.92901,0.92901 0 0 1 -1.29935,-0.38918z" class="cls-5"/>
   <path stroke="null" fill="#fff" d="m463.76429,551.96679c-0.45195,-0.77208 -0.84741,-1.43117 -1.25542,-2.01494l1.04199,-0.62771l0.79091,1.25542l0.05649,0a2.25975,2.25975 0 0 1 0.97922,-2.51083a1.45,1.45 0 0 1 0.35779,-0.15693l0.65909,1.1236a2.11537,2.11537 0 0 0 -0.43312,0.19459a1.93334,1.93334 0 0 0 -0.70303,2.46689a3.85413,3.85413 0 0 0 0.26364,0.58377l2.04005,3.50261l-1.16754,0.70303l-2.6301,-4.5195z" class="cls-5"/>
   <path stroke="null" fill="#fff" d="m469.95349,552.77654a3.65326,3.65326 0 0 0 1.85174,-0.44567c0.86624,-0.50217 1.02316,-1.17381 0.70303,-1.71992s-0.84741,-0.6842 -1.92079,-0.49589c-1.4249,0.26991 -2.36018,-0.05649 -2.81841,-0.84741c-0.62771,-1.05455 -0.26364,-2.41667 1.14243,-3.23897a3.76625,3.76625 0 0 1 1.85174,-0.53355l0.20714,1.04199a2.93139,2.93139 0 0 0 -1.56299,0.40173a1.10477,1.10477 0 0 0 -0.57749,1.53161c0.31385,0.54611 0.85368,0.55866 1.88312,0.38918c1.39351,-0.23225 2.30369,0 2.8749,0.97295c0.67165,1.15498 0.25108,2.51083 -1.31191,3.3959a4.31863,4.31863 0 0 1 -2.10282,0.62771l-0.2197,-1.07966z" class="cls-5"/>
   <path stroke="null" fill="#fff" d="m472.7154,541.49035l1.09849,1.88312l1.70736,-0.99806l0.52727,0.91018l-1.70736,0.99806l2.06516,3.53399c0.47078,0.81602 0.97295,1.14243 1.63204,0.75325a2.74308,2.74308 0 0 0 0.62771,-0.48333l0.57749,0.86624a3.44612,3.44612 0 0 1 -0.96667,0.77836a1.88312,1.88312 0 0 1 -1.57555,0.24481a2.77447,2.77447 0 0 1 -1.45628,-1.43745l-2.08399,-3.57793l-1.01689,0.59005l-0.53355,-0.91018l1.02316,-0.59005l-0.91645,-1.56927l0.99806,-0.99178z" class="cls-5"/>
   <path stroke="null" fill="#fff" d="m485.13773,543.17261c0.39546,0.67792 0.75325,1.25542 1.09221,1.75758l-1.05455,0.62771l-0.69048,-1.02944l0,0a2.84352,2.84352 0 0 1 -1.45628,2.51083c-1.02944,0.62771 -2.59243,0.74697 -3.93573,-1.55672l-2.23464,-3.83529l1.19264,-0.69676l2.08399,3.60932c0.72814,1.25542 1.59438,1.88312 2.68031,1.25542a2.01494,2.01494 0 0 0 0.94156,-2.00239a2.07771,2.07771 0 0 0 -0.24481,-0.67165l-2.34763,-4.02988l1.19264,-0.69048l2.78075,4.75175z" class="cls-5"/>
   <path stroke="null" fill="#fff" d="m488.21978,530.88209l4.61993,7.93423c0.33896,0.57749 0.7407,1.25542 1.04199,1.65715l-1.07338,0.62771l-0.71559,-1.11104l0,0a2.81841,2.81841 0 0 1 -1.48139,2.59243c-1.5881,0.92273 -3.59049,0.28875 -4.75175,-1.70109c-1.25542,-2.17815 -0.70931,-4.30607 0.89134,-5.24136a2.54222,2.54222 0 0 1 2.56105,-0.15065l0.03139,0l-2.28486,-3.9169l1.16126,-0.69048zm2.14676,6.42773a2.74308,2.74308 0 0 0 -0.34524,-0.47078a2.04005,2.04005 0 0 0 -2.51083,-0.37662c-1.25542,0.71559 -1.33074,2.22836 -0.48961,3.67837c0.77836,1.33074 2.06516,2.04633 3.35196,1.29935a2.07771,2.07771 0 0 0 0.92273,-2.44178a2.61126,2.61126 0 0 0 -0.24481,-0.54611l-0.6842,-1.14243z" class="cls-5"/>
   <path stroke="null" fill="#fff" d="m492.24339,530.17278a0.85368,0.85368 0 0 1 -1.48139,0.85996a0.84113,0.84113 0 0 1 0.31385,-1.18009a0.8223,0.8223 0 0 1 1.16754,0.32013zm3.56538,9.18336l-3.82274,-6.56582l1.19264,-0.69048l3.82274,6.55955l-1.19264,0.69676z" class="cls-5"/>
   <path stroke="null" fill="#fff" d="m502.98346,530.71261c1.41234,2.42923 0.34524,4.463 -1.25542,5.38573c-1.77641,1.03572 -3.90434,0.53355 -5.11582,-1.54416c-1.25542,-2.19698 -0.59005,-4.31863 1.25542,-5.37946s3.942,-0.4645 5.11582,1.53788zm-5.16603,3.10088c0.83485,1.43745 2.29741,2.04005 3.45867,1.36213s1.3684,-2.23464 0.50844,-3.70975c-0.62771,-1.11104 -2.02122,-2.19698 -3.43356,-1.38096s-1.26797,2.47945 -0.53983,3.72858l0.00628,0z" class="cls-5"/>
   <path stroke="null" fill="#fff" d="m505.40642,532.82171a0.93528,0.93528 0 1 1 1.29935,0.38918a0.92273,0.92273 0 0 1 -1.29935,-0.38918z" class="cls-5"/>
   <path stroke="null" fill="#fff" d="m513.44108,528.76044a5.02166,5.02166 0 0 1 -1.66343,1.47511c-1.97728,1.15498 -4.04871,0.55866 -5.21625,-1.44373a3.85413,3.85413 0 0 1 1.50022,-5.53638a4.51322,4.51322 0 0 1 1.84546,-0.62771l0.26991,1.07966a3.21386,3.21386 0 0 0 -1.56927,0.49589c-1.50022,0.87251 -1.6697,2.46061 -0.87251,3.82902c0.88507,1.51905 2.40412,1.88312 3.70975,1.12987a3.92945,3.92945 0 0 0 1.25542,-1.18009l0.7407,0.77836z" class="cls-5"/>
   <path stroke="null" fill="#fff" d="m518.89586,521.44137c1.41234,2.42923 0.35152,4.463 -1.25542,5.39201c-1.77641,1.02944 -3.90434,0.52727 -5.10954,-1.55044c-1.25542,-2.1907 -0.59632,-4.31863 1.22403,-5.37318s3.97339,-0.45823 5.14093,1.53161zm-5.16603,3.10088c0.83485,1.43745 2.29741,2.04005 3.46495,1.36213s1.3684,-2.23464 0.50844,-3.70975c-0.62771,-1.11104 -2.0275,-2.19698 -3.43356,-1.37468s-1.24286,2.47317 -0.53983,3.72231z" class="cls-5"/>
   <path stroke="null" fill="#fff" d="m519.56123,519.11257c-0.39546,-0.67165 -0.73442,-1.25542 -1.09221,-1.73875l1.04827,-0.62771l0.66537,1.02316l0.04394,0a2.61754,2.61754 0 0 1 1.35585,-2.40412a2.25347,2.25347 0 0 1 2.62382,0.23225l0,0a3.21386,3.21386 0 0 1 0.23853,-1.25542a2.59871,2.59871 0 0 1 1.18009,-1.30563c0.86624,-0.50844 2.51083,-0.6842 3.81646,1.5881l2.24719,3.86668l-1.16126,0.67792l-2.16559,-3.71603c-0.73442,-1.25542 -1.63832,-1.7513 -2.59871,-1.18637a1.77641,1.77641 0 0 0 -0.77836,1.88312a2.24092,2.24092 0 0 0 0.25108,0.62771l2.36018,4.05499l-1.16754,0.67792l-2.26602,-3.942c-0.62771,-1.04827 -1.5065,-1.53788 -2.41667,-1.01061a2.05888,2.05888 0 0 0 -0.53983,2.69287l2.30369,3.96711l-1.16126,0.67792l-2.78702,-4.78313z" class="cls-5"/>
   <rect stroke="null" fill="#298f4d" height="119.51555" width="144.71173" y="230.62439" x="368.32133" class="cls-6"/>
   <path stroke="null" fill="#298f4d" d="m507.18283,389.38422c-0.08788,0 -0.18831,0.0816 -0.25108,0.05649a0.18204,0.18204 0 0 1 -0.03139,-0.32641a0.25108,0.25108 0 0 1 0.23853,0c0.05022,0.06277 0.03139,0.18204 0.04394,0.26991z" class="cls-6"/>
   <path stroke="null" fill="#298f4d" d="m514.86597,351.77198c0,-0.19459 -0.03139,-0.39546 -0.03139,-0.59632l0,-32.50898q0,-14.76369 0,-29.50226q0,-12.30935 0,-24.60614q0,-15.73036 -0.05649,-31.46071q0,-13.35134 0,-26.69013c0,-1.2052 0,-1.22403 -1.25542,-1.25542q-4.55088,0 -9.10176,0c-3.13854,0 -6.27708,0 -9.41562,0c-0.70303,0 -1.01689,-0.24481 -0.97922,-0.94156c0,-0.20087 0,-0.40173 0,-0.59632c0,-2.51083 -0.06277,-5.07188 0,-7.60782c0,-0.83485 -0.24481,-1.04827 -1.02316,-0.96667a11.5561,11.5561 0 0 1 -2.08399,0c-1.46884,-0.11299 -1.30563,0.1632 -1.30563,1.25542c0,2.57988 0,5.16603 0,7.75219c0,0.67792 -0.06905,1.08593 -0.96667,1.05455c-1.76386,-0.05649 -1.77014,0 -1.77641,-1.81408c0,-0.19459 0,-0.39546 0,-0.62771c0,-2.13421 0,-4.27469 0,-6.4089c0,-1.25542 0,-1.25542 -1.33074,-1.25542c-0.74697,0 -1.48767,0 -2.23464,0c-0.62771,0 -0.87879,0.23853 -0.85368,0.87251c0.03766,0.89762 0,1.79524 0,2.68659c0,1.88312 0,3.76625 0,5.64937c0,0.62771 -0.16948,0.94784 -0.84741,0.85368a4.80824,4.80824 0 0 0 -0.59632,0.03139q-13.85979,0 -27.73213,0l-35.64124,0l-17.88967,0c-1.5065,0 -1.5065,0 -1.5065,-1.57555c0,-0.19459 0,-0.39546 0,-0.59632c0,-2.28486 -0.03139,-4.56971 0,-6.85457c0,-0.7407 -0.1381,-1.11732 -0.99806,-1.04827a19.10742,19.10742 0 0 1 -2.68031,0c-0.62771,-0.03766 -0.81602,0.19459 -0.74697,0.77836a5.93184,5.93184 0 0 1 0,0.74697c0,2.51083 0,4.97145 0,7.45089c0,0.3829 0.10043,0.92901 -0.35779,1.04827a3.21386,3.21386 0 0 1 -2.04633,-0.03139c-0.55866,-0.23853 -0.33896,-0.88507 -0.33896,-1.35585c0,-2.51083 0,-4.97145 0,-7.45717c0,-1.16754 -0.04394,-1.16754 -1.14243,-1.16754c-0.74697,0 -1.49394,0.03766 -2.24092,0s-1.04199,0.17576 -1.02316,1.01061c0.05022,2.51083 0,4.97145 0,7.45717c0,1.5881 0,1.61949 -1.60693,1.62576c-5.81885,0 -11.63142,0 -17.45027,0.03139c-1.22403,0 -1.21148,0 -1.51905,1.14243a5.02166,5.02166 0 0 0 -0.13182,1.33074c0,1.09221 0.03139,2.18442 0.03139,3.27663q0,14.46866 0,28.93105q0,17.96499 0,35.93627q0,5.9695 0,11.92645c1.01689,-0.99178 2.0526,-1.97728 3.07577,-2.98161a3.56538,3.56538 0 0 1 0.74697,-0.55866q0,-7.28769 0,-14.5691c0,-7.40695 -0.07532,-14.8139 -0.04394,-22.22085c0,-2.21581 -0.42056,-1.96473 2.00866,-1.96473c11.82601,0 23.6583,0 35.49059,0q14.43728,0 28.92477,0l42.64646,0l31.70552,0c0.31385,0 0.37035,0.28247 0.37035,0.62771c0,0.89762 0.06277,1.78897 0.06277,2.68659q0,14.83273 -0.05022,29.67174q0,15.57971 0,31.16569c0,3.07577 0,6.15781 0,9.23986c0,1.1236 -0.03139,1.16126 -1.12987,1.16754c-3.92317,0 -7.85262,0 -11.78207,0l-16.46477,0c-1.30563,0 -1.32446,0 -1.32446,1.29308c0,3.87923 0,7.75219 0,11.63142q0,7.97816 0,15.95005c0,1.25542 -0.03139,1.25542 -1.31819,1.25542c-14.76369,0 -28.73018,0.06277 -43.49387,0.07532q-14.43728,0 -28.87455,0a3.66581,3.66581 0 0 1 -0.59005,0.89134a14.58793,14.58793 0 0 1 -3.87296,2.90001q13.54593,0 27.10442,0q19.54054,0 39.06853,0l44.29106,0c1.91451,-0.03766 2.20325,-0.3013 2.3288,-2.18442zm-5.17859,-1.6697l-22.34639,0.03766a0.69676,0.69676 0 0 1 -0.62771,-0.26364l24.14792,-24.18558a3.40845,3.40845 0 0 1 0.23853,1.91451c0,7.05543 0,14.10459 0,21.16003c-0.02511,1.33702 -0.01255,1.33074 -1.41234,1.33702z" class="cls-6"/>
   <path stroke="null" fill="#298f4d" d="m440.61443,320.22339c-2.9565,0 -5.91928,0 -8.88206,0c-1.03572,0 -1.54416,-0.12554 -1.53788,-0.91645c0.05649,-4.01105 0.03766,-8.01583 0,-12.02688c0,-0.62771 0.27619,-0.86624 1.25542,-0.86624q9.2273,0.03766 18.45461,0c0.97922,0 1.25542,0.24481 1.25542,0.85996q-0.03766,6.06993 0,12.13987c0,0.67792 -0.45195,0.81602 -1.34957,0.80974c-3.04438,-0.01255 -6.12015,0 -9.19592,0z" class="cls-6"/>
   <path stroke="null" fill="#298f4d" d="m412.47429,306.45776c2.90629,0 5.8063,0 8.70631,0c1.19892,0 1.5881,0.27619 1.58182,1.04827q-0.06277,5.85024 0,11.68792c0,0.78463 -0.41429,1.04199 -1.59438,1.03572q-8.88206,-0.03766 -17.75785,0c-1.19892,0 -1.5881,-0.26991 -1.58182,-1.04827q0.06905,-5.83768 0,-11.68164c0,-0.79091 0.41429,-1.05455 1.59438,-1.04199c3.01927,0.02511 6.03227,0 9.05155,0z" class="cls-6"/>
   <path stroke="null" fill="#298f4d" d="m440.65209,301.5428c-3.01927,0 -6.03855,0 -9.05155,0c-1.02316,0 -1.40607,-0.19459 -1.39979,-0.89134q0.05649,-6.01344 0,-12.02688c0,-0.70303 0.39546,-0.89134 1.40607,-0.88507q9.13942,0 18.27885,0c0.94156,0 1.31191,0.18831 1.30563,0.83485q-0.05022,6.07621 0,12.13987c0,0.62771 -0.37662,0.83485 -1.31191,0.82857c-3.07577,-0.01883 -6.15154,0 -9.2273,0z" class="cls-6"/>
   <path stroke="null" fill="#298f4d" d="m422.74359,294.6443c0,1.94589 -0.03139,3.89179 0,5.83768c0,0.77836 -0.38918,1.06083 -1.58182,1.05455q-8.88206,-0.04394 -17.76413,0c-1.17381,0 -1.60693,-0.25108 -1.59438,-1.03572q0.05649,-5.83768 0,-11.68164c0,-0.77836 0.3829,-1.05455 1.58182,-1.04827q8.87579,0.03766 17.75785,0c1.17381,0 1.61949,0.25108 1.59438,1.04199c-0.03139,1.93334 0.00628,3.87923 0.00628,5.8314z" class="cls-6"/>
   <path stroke="null" fill="#298f4d" d="m440.74625,269.07148c3.01927,0 6.03855,0 9.05782,0c1.01689,0 1.39979,0.19459 1.39351,0.89762q-0.05649,6.00716 0,12.0206c0,0.70931 -0.39546,0.89134 -1.40607,0.89134q-9.13942,-0.03766 -18.27885,0c-0.94784,0 -1.31191,-0.18831 -1.30563,-0.83485q0.03766,-6.06366 0,-12.13359c0,-0.62771 0.37662,-0.84113 1.31191,-0.83485c3.07577,0.00628 6.18292,-0.00628 9.2273,-0.00628z" class="cls-6"/>
   <path stroke="null" fill="#298f4d" d="m412.39897,269.08404c2.90001,0 5.8063,0.03139 8.71258,0c1.2868,0 1.66343,0.29502 1.65087,1.11104q-0.06277,5.79374 0,11.58121c0,0.84113 -0.43312,1.09849 -1.68853,1.09221q-8.78791,-0.05649 -17.57582,0c-1.25542,0 -1.68226,-0.27619 -1.6697,-1.10477q0.07532,-5.78747 0,-11.57493c0,-0.84113 0.42684,-1.11104 1.68226,-1.09221c2.96278,0.04394 5.92556,0 8.88834,0l0,-0.01255z" class="cls-6"/>
   <path stroke="null" fill="#298f4d" d="m468.84872,306.45776c2.90629,0 5.8063,0 8.71258,0c1.19264,0 1.58182,0.27619 1.57555,1.04827q-0.05649,5.85024 0,11.68792c0,0.78463 -0.41429,1.04199 -1.59438,1.03572q-8.87579,-0.03766 -17.75785,0c-1.19892,0 -1.5881,-0.26991 -1.58182,-1.04827q0.06277,-5.83768 0,-11.68164c0,-0.79091 0.41429,-1.05455 1.59438,-1.04199c3.013,0.02511 6.03855,0 9.05155,0z" class="cls-6"/>
   <path stroke="null" fill="#298f4d" d="m479.13057,294.6443c0,1.94589 -0.03139,3.89179 0,5.83768c0,0.77836 -0.38918,1.06083 -1.58182,1.05455q-8.87579,-0.04394 -17.76413,0c-1.17381,0 -1.60693,-0.25108 -1.59438,-1.03572q0.06277,-5.83768 0,-11.68164c0,-0.77836 0.3829,-1.05455 1.58182,-1.04827q8.88206,0.03766 17.75785,0c1.18009,0 1.61949,0.25108 1.59438,1.04199c-0.04394,1.93334 0.00628,3.87923 0.00628,5.8314z" class="cls-6"/>
   <path stroke="null" fill="#298f4d" d="m468.77339,269.08404c2.90001,0 5.8063,0.03139 8.71258,0c1.2868,0 1.66343,0.29502 1.65715,1.11104q-0.07532,5.79374 0,11.58121c0,0.84113 -0.43312,1.09849 -1.68853,1.09221q-8.78791,-0.05649 -17.57582,0c-1.25542,0 -1.68226,-0.27619 -1.6697,-1.10477q0.07532,-5.78747 0,-11.57493c0,-0.84113 0.42684,-1.11104 1.68853,-1.09221c2.9565,0.04394 5.91928,0 8.88206,0l-0.00628,-0.01255z" class="cls-6"/>
   <circle stroke="null" fill="#298f4d" r="38.08303" cy="321.96214" cx="380.6244" class="cls-6"/>
   <polygon stroke="null" fill="#298f4d" points="350.13039779663086,303.39453125 350.1241111755371,303.4007873535156 350.11782455444336,303.4007873535156 350.13039779663086,303.39453125 " class="cls-6"/>
   <path stroke="null" fill="#298f4d" d="m420.12605,324.74288a39.21918,39.21918 0 1 0 -41.20273,37.03475a39.11247,39.11247 0 0 0 41.20273,-37.03475zm-4.31235,7.98444a35.56592,35.56592 0 0 1 -3.59049,8.28574c-0.06277,0.10671 -0.10671,0.2197 -0.1632,0.32641l0,0l-0.1381,0l0,0a0.85368,0.85368 0 0 0 -0.49589,-0.62771c-1.05455,-0.62771 -2.09654,-1.25542 -3.13854,-1.88312a2.20325,2.20325 0 0 0 -0.37662,-0.20714a0.33896,0.33896 0 0 0 -0.43312,0.1632a0.31385,0.31385 0 0 0 0.04394,0.40173a1.21775,1.21775 0 0 0 0.28247,0.2197c1.08593,0.66537 2.1907,1.31191 3.27036,1.98356a0.73442,0.73442 0 0 0 0.84741,0l0,0l0,0.27619a0.35152,0.35152 0 0 0 -0.16948,0.28247l0,0a49.24995,49.24995 0 0 1 -3.13854,4.23703a36.31289,36.31289 0 0 1 -9.01388,7.55132c-0.0816,0.05022 -0.16948,0.09416 -0.25108,0.15065c-0.23853,0.16948 -0.37662,0.08788 -0.50217,-0.15693c-0.43312,-0.83485 -0.87879,-1.6697 -1.32446,-2.51083c-0.11926,-0.23225 -0.24481,-0.47078 -0.37662,-0.69676s-0.35779,-0.35779 -0.62771,-0.20087s-0.16948,0.37035 -0.06905,0.57749c0.44567,0.91645 0.91018,1.81408 1.33074,2.73681s0.62771,0.77208 -0.49589,1.34329a36.40705,36.40705 0 0 1 -13.08143,3.76625c-0.93528,0.09416 -1.88312,0.12554 -2.82468,0.15693c-0.7658,0 -0.77208,0 -0.73442,-0.7407l0.20714,-3.98594c0,-0.58377 -0.08788,-0.82857 -0.37035,-0.78463c-0.44567,0.06905 -0.36407,0.45195 -0.37662,0.74697c-0.0816,1.37468 -0.14437,2.74936 -0.2197,4.13032c-0.03766,0.58377 -0.05022,0.59005 -0.62771,0.56494a34.98843,34.98843 0 0 1 -11.8574,-2.58616a35.74168,35.74168 0 0 1 -4.8208,-2.36646a1.88312,1.88312 0 0 0 0.17576,-0.25736l2.30369,-3.76625c0.25736,-0.42684 0.25736,-0.69676 0,-0.80974c-0.3829,-0.15065 -0.50217,0.17576 -0.62771,0.41429c-0.62771,1.02944 -1.63832,2.67403 -2.26602,3.70975a1.44373,1.44373 0 0 0 -0.1632,0.32641a37.24818,37.24818 0 0 1 -3.83529,-2.68659a35.42155,35.42155 0 0 1 -8.43011,-9.76713c-0.27619,-0.47078 -0.27619,-0.48333 0.20087,-0.7658l3.62187,-2.13421a4.33746,4.33746 0 0 0 0.48961,-0.31385a0.33269,0.33269 0 0 0 0.10043,-0.50217a0.37662,0.37662 0 0 0 -0.51472,-0.11926l-0.50217,0.28875q-1.71364,1.01689 -3.43356,2.0275c-0.62771,0.36407 -0.62771,0.36407 -0.95412,-0.25736a38.17718,38.17718 0 0 1 -2.40412,-5.89418a37.2419,37.2419 0 0 1 -1.53788,-7.9405c-0.0816,-0.94156 -0.0816,-1.88312 -0.12554,-2.82468c0,-0.37035 0.17576,-0.44567 0.49589,-0.42684l3.54655,0.14437l0.50844,0c0.45823,0 0.67792,-0.1381 0.62771,-0.40173c-0.04394,-0.38918 -0.35779,-0.39546 -0.62771,-0.41429a9.08921,9.08921 0 0 0 -1.01061,0c-0.99806,0.04394 -1.98356,-0.03766 -2.97533,-0.07532c-0.521,0 -0.521,-0.04394 -0.51472,-0.55238a26.69641,26.69641 0 0 1 0.37662,-3.76625a35.46549,35.46549 0 0 1 1.88312,-7.27513a36.68324,36.68324 0 0 1 2.51083,-5.36062a1.36213,1.36213 0 0 0 0.10671,-0.26364a0.34524,0.34524 0 0 0 0.10671,-0.17576l0.69048,0.40801l3.27663,1.99611c0.24481,0.14437 0.53983,0.37035 0.74697,0s-0.13182,-0.50844 -0.37035,-0.65909c-1.0671,-0.62771 -2.14676,-1.29935 -3.22014,-1.93962l-0.7658,-0.42684l0,-0.04394c0.06905,-0.08788 0.05649,-0.23225 0.18831,-0.28247a51.21467,51.21467 0 0 1 3.35824,-4.44417a36.25012,36.25012 0 0 1 9.08921,-7.46344c0.42684,-0.25108 0.44567,-0.24481 0.69676,0.20087c0.62771,1.13615 1.25542,2.2723 1.92706,3.40845c0.15065,0.26364 0.25736,0.62771 0.6842,0.48961c0.25736,-0.08788 0.24481,-0.37662 -0.03139,-0.88507c-0.62771,-1.11732 -1.25542,-2.23464 -1.88312,-3.35824c-0.26364,-0.47706 -0.26364,-0.49589 0.23225,-0.74697a36.23757,36.23757 0 0 1 13.62753,-3.88551c1.03572,-0.09416 2.07144,-0.10671 3.13854,-0.1381c0.44567,0 0.48333,0.03766 0.47078,0.50844c-0.04394,1.25542 -0.10043,2.46061 -0.14437,3.69092a1.71992,1.71992 0 0 0 0.03139,0.62771c0.05649,0.17576 0.14437,0.32013 0.34524,0.31385a0.37662,0.37662 0 0 0 0.37035,-0.29502a2.17815,2.17815 0 0 0 0.05649,-0.57121c0.03139,-1.21148 0.05022,-2.41667 0.08788,-3.62187c0,-0.62771 0.03139,-0.62771 0.67792,-0.59632a35.77934,35.77934 0 0 1 13.58987,3.50261c1.03572,0.50217 2.02122,1.05455 2.98789,1.63832l-0.03766,0.05649l-0.521,0.85368c-0.62771,1.02944 -1.25542,2.0526 -1.88312,3.07577a0.92901,0.92901 0 0 0 -0.21342,0.52727a0.35152,0.35152 0 0 0 0.35779,0.37035c0.22597,0 0.32641,-0.18204 0.42684,-0.35152c0.67792,-1.10477 1.79524,-2.94395 2.46689,-4.05499a0.521,0.521 0 0 0 0.04394,-0.0816a35.71029,35.71029 0 0 1 10.89701,10.59571c0.40173,0.62771 0.77836,1.21775 1.15498,1.83918s0.32013,0.55866 -0.21342,0.86624l-2.97533,1.66343a4.49439,4.49439 0 0 0 -0.54611,0.35152a0.32641,0.32641 0 0 0 -0.06905,0.45823a0.32641,0.32641 0 0 0 0.43312,0.15065a3.13854,3.13854 0 0 0 0.38918,-0.18204l2.96906,-1.6697c0.77836,-0.42684 0.62771,-0.50844 1.07966,0.35152a36.27523,36.27523 0 0 1 3.85413,15.61737c0,1.47511 0.13182,1.2052 -1.16126,1.18009l-3.04438,-0.05649a1.69481,1.69481 0 0 0 -0.35779,0a0.35152,0.35152 0 0 0 -0.29502,0.36407a0.31385,0.31385 0 0 0 0.3013,0.33896c0.19459,0 0.38918,0 0.58377,0.04394l3.32685,0.1381c0.59005,0 0.59632,0.03139 0.57121,0.62771a33.89622,33.89622 0 0 1 -1.29935,8.18531l0.00628,0z" class="cls-6"/>
   <path stroke="null" fill="#298f4d" d="m403.03984,335.92236a5.12837,5.12837 0 0 0 -1.36213,-0.80347l0,0a5.81257,5.81257 0 0 0 -1.45,-0.94156a8.57449,8.57449 0 0 0 -1.52533,-0.96667l0,0c-0.06905,0 -0.10671,-0.08788 -0.15693,-0.13182l0,0a0.29502,0.29502 0 0 0 -0.26991,-0.15693l0,0a0.3013,0.3013 0 0 0 -0.26991,-0.1632a12.28424,12.28424 0 0 1 -0.55866,-0.33269a0.17576,0.17576 0 0 0 -0.14437,-0.1381l0,0a0.30758,0.30758 0 0 0 -0.27619,-0.16948a0.32013,0.32013 0 0 0 -0.28247,-0.1632a0.28875,0.28875 0 0 0 -0.27619,-0.1632a0.3013,0.3013 0 0 0 -0.28247,-0.1632a0.18831,0.18831 0 0 0 -0.15065,-0.13182l0,0a0.3013,0.3013 0 0 0 -0.26991,-0.18204a0.32013,0.32013 0 0 0 -0.28247,-0.1632a0.1632,0.1632 0 0 0 -0.15065,-0.11926l0.15065,0.12554l0,0c-0.06277,0 -0.10043,-0.0816 -0.15065,-0.12554l0,0a0.31385,0.31385 0 0 0 -0.26991,-0.1632l0,0a22.19574,22.19574 0 0 0 -2.28486,-1.51905c-3.06321,-1.98356 -6.13898,-3.93573 -9.20847,-5.90045c-0.47078,-0.3013 -0.92901,-0.62771 -1.40607,-0.9039a0.44567,0.44567 0 0 1 -0.1632,-0.71559c0.06277,-0.10043 0.12554,-0.20714 0.18204,-0.31385l3.52144,-6.23941l0,0a0.27619,0.27619 0 0 0 0.15065,-0.28247l0,0a0.21342,0.21342 0 0 0 0.03139,-0.10671a0.20714,0.20714 0 0 0 0.12554,-0.17576l0,0a0.14437,0.14437 0 0 0 0.03766,-0.10043a0.21342,0.21342 0 0 0 0.12554,-0.18204l0,0a0.32013,0.32013 0 0 0 0.1632,-0.27619l0,0a0.26364,0.26364 0 0 0 0.14437,-0.28247l0,0a0.25108,0.25108 0 0 0 0.04394,-0.11299a13.24463,13.24463 0 0 0 1.25542,-2.13421a4.01733,4.01733 0 0 0 0.62771,-1.1236s0,0 0,0a4.29352,4.29352 0 0 0 0.32641,-0.50217c0.08788,-0.18204 0.28875,-0.32641 0.28247,-0.67792a2.24719,2.24719 0 0 0 -0.62771,1.04199l0,0a3.76625,3.76625 0 0 0 -0.77208,1.14243l0,0a14.24269,14.24269 0 0 0 -1.29308,2.08399l0,0a0.17576,0.17576 0 0 0 -0.12554,0.15065l0.12554,-0.15065l0,0c0,0.06277 -0.08788,0.09416 -0.12554,0.15065l0,0a0.25736,0.25736 0 0 0 -0.17576,0.25736a0.33269,0.33269 0 0 0 -0.16948,0.28247a0.14437,0.14437 0 0 0 -0.10671,0.14437l0.11299,-0.14437l0,0l-0.11299,0.14437a0.15693,0.15693 0 0 0 -0.05022,0.11299a0.20087,0.20087 0 0 0 -0.11926,0.16948l0,0c-0.14437,0.19459 -0.3013,0.37662 -0.43312,0.58377c-1.2868,1.97728 -2.56732,3.96711 -3.85413,5.94439c-0.35152,0.53983 -0.35779,0.53355 -0.92273,0.1632l-0.37035,-0.22597c-0.521,-0.3013 -0.521,-0.3013 -0.82857,0.18204c-0.50217,0.78463 -0.50217,0.78463 0.28875,1.21775c0.0816,0.05022 0.16948,0.08788 0.25736,0.13182c0.40801,0.22597 0.41429,0.25736 0.18204,0.65909c-0.05649,0.10671 -0.13182,0.20087 -0.19459,0.3013c-0.30758,0.45823 -0.30758,0.45823 0.18831,0.7407s0.4645,0.27619 0.75325,-0.2197a3.04438,3.04438 0 0 0 0.18204,-0.30758c0.1381,-0.31385 0.32641,-0.37035 0.62771,-0.18831c0.43312,0.26991 0.87879,0.51472 1.31819,0.7658q3.9169,2.25975 7.83379,4.50694c1.40607,0.79719 2.76819,1.66343 4.22447,2.36646a0.56494,0.56494 0 0 1 0.17576,0.12554a0.09416,0.09416 0 0 0 0.09416,0.03766a0.25736,0.25736 0 0 0 0.18831,0.13182l0,0a0.3013,0.3013 0 0 0 0.26991,0.1632l0,0a0.50844,0.50844 0 0 0 0.41429,0.18831a0.15065,0.15065 0 0 0 0.14437,0.11299l-0.14437,-0.11926l0,0a1.32446,1.32446 0 0 1 0.14437,0.11926a0.10671,0.10671 0 0 0 0.10043,0.03766a0.24481,0.24481 0 0 0 0.18831,0.13182l0,0a0.08788,0.08788 0 0 0 0.08788,0.03139a0.26364,0.26364 0 0 0 0.19459,0.1381l0,0a0.30758,0.30758 0 0 0 0.27619,0.1632a0.27619,0.27619 0 0 0 0.28247,0.14437l0,0a0.10671,0.10671 0 0 0 0.10043,0.03139a0.22597,0.22597 0 0 0 0.18204,0.12554l0,0a0.09416,0.09416 0 0 0 0.09416,0.03766a0.25736,0.25736 0 0 0 0.19459,0.13182l0,0a0.3013,0.3013 0 0 0 0.26991,0.1632l0,0a0.32641,0.32641 0 0 0 0.28247,0.1632l0,0a11.38662,11.38662 0 0 0 1.67598,0.96667l1.25542,0.78463a11.08532,11.08532 0 0 0 1.70736,0.95412a2.40412,2.40412 0 0 0 1.35585,0.62771l-1.34957,-0.79091l0.02511,-0.00628z" class="cls-6"/>
   <path stroke="null" fill="#298f4d" d="m394.81687,331.29615a0.20714,0.20714 0 0 0 0.17576,0.12554l-0.17576,-0.12554z" class="cls-6"/>
   <path stroke="null" fill="#298f4d" d="m398.69611,333.21694a0.16948,0.16948 0 0 0 -0.15693,-0.13182l0.15693,0.13182z" class="cls-6"/>
   <rect stroke="null" fill="#36a85d" height="119.51555" width="144.71173" y="224.97502" x="365.18279" class="cls-1"/>
   <path stroke="null" fill="#fff" d="m504.04429,383.73485c-0.08788,0 -0.18831,0.0816 -0.25108,0.05649a0.18204,0.18204 0 0 1 -0.03139,-0.32641a0.25108,0.25108 0 0 1 0.23853,0c0.05022,0.06277 0.03139,0.18204 0.04394,0.26991z" class="cls-5"/>
   <path stroke="null" fill="#fff" d="m511.72743,346.12261c0,-0.19459 -0.03139,-0.39546 -0.03139,-0.59632l0,-32.50898q0,-14.76369 0,-29.50226q0,-12.30935 0,-24.60614q0,-15.73036 -0.05649,-31.46071q0,-13.35134 0,-26.69013c0,-1.2052 0,-1.22403 -1.25542,-1.25542q-4.55088,0 -9.10176,0c-3.13854,0 -6.27708,0 -9.41562,0c-0.70303,0 -1.01689,-0.24481 -0.97922,-0.94156c0,-0.20087 0,-0.40173 0,-0.59632c0,-2.51083 -0.06277,-5.07188 0,-7.60782c0,-0.83485 -0.24481,-1.04827 -1.02316,-0.96667a11.5561,11.5561 0 0 1 -2.08399,0c-1.46884,-0.11299 -1.30563,0.1632 -1.30563,1.25542c0,2.57988 0,5.16603 0,7.75219c0,0.67792 -0.06905,1.08593 -0.96667,1.05455c-1.76386,-0.05649 -1.77014,0 -1.77641,-1.81408c0,-0.19459 0,-0.39546 0,-0.62771c0,-2.13421 0,-4.27469 0,-6.4089c0,-1.25542 0,-1.25542 -1.33074,-1.25542c-0.74697,0 -1.48767,0 -2.23464,0c-0.62771,0 -0.87879,0.23853 -0.85368,0.87251c0.03766,0.89762 0,1.79524 0,2.68659c0,1.88312 0,3.76625 0,5.64937c0,0.62771 -0.16948,0.94784 -0.84741,0.85368a4.80824,4.80824 0 0 0 -0.59632,0.03139q-13.85979,0 -27.73213,0l-35.64124,0l-17.88967,0c-1.5065,0 -1.5065,0 -1.5065,-1.57555c0,-0.19459 0,-0.39546 0,-0.59632c0,-2.28486 -0.03139,-4.56971 0,-6.85457c0,-0.7407 -0.1381,-1.11732 -0.99806,-1.04827a19.10742,19.10742 0 0 1 -2.68031,0c-0.62771,-0.03766 -0.81602,0.19459 -0.74697,0.77836a5.93184,5.93184 0 0 1 0,0.74697c0,2.51083 0,4.97145 0,7.45089c0,0.3829 0.10043,0.92901 -0.35779,1.04827a3.21386,3.21386 0 0 1 -2.04633,-0.03139c-0.55866,-0.23853 -0.33896,-0.88507 -0.33896,-1.35585c0,-2.51083 0,-4.97145 0,-7.45717c0,-1.16754 -0.04394,-1.16754 -1.14243,-1.16754c-0.74697,0 -1.49394,0.03766 -2.24092,0s-1.04199,0.17576 -1.02316,1.01061c0.05022,2.51083 0,4.97145 0,7.45717c0,1.5881 0,1.61949 -1.60693,1.62576c-5.81885,0 -11.63142,0 -17.45027,0.03139c-1.22403,0 -1.21148,0 -1.51905,1.14243a5.02166,5.02166 0 0 0 -0.13182,1.33074c0,1.09221 0.03139,2.18442 0.03139,3.27663q0,14.46866 0,28.93105q0,17.96499 0,35.93627q0,5.9695 0,11.92645c1.01689,-0.99178 2.0526,-1.97728 3.07577,-2.98161a3.56538,3.56538 0 0 1 0.74697,-0.55866q0,-7.28769 0,-14.5691c0,-7.40695 -0.07532,-14.8139 -0.04394,-22.22085c0,-2.21581 -0.42056,-1.96473 2.00866,-1.96473c11.82601,0 23.6583,0 35.49059,0q14.43728,0 28.92477,0l42.64646,0l31.70552,0c0.31385,0 0.37035,0.28247 0.37035,0.62771c0,0.89762 0.06277,1.78897 0.06277,2.68659q0,14.83273 -0.05022,29.67174q0,15.57971 0,31.16569c0,3.07577 0,6.15781 0,9.23986c0,1.1236 -0.03139,1.16126 -1.12987,1.16754c-3.92317,0 -7.85262,0 -11.78207,0l-16.46477,0c-1.30563,0 -1.32446,0 -1.32446,1.29308c0,3.87923 0,7.75219 0,11.63142q0,7.97816 0,15.95005c0,1.25542 -0.03139,1.25542 -1.31819,1.25542c-14.76369,0 -28.73018,0.06277 -43.49387,0.07532q-14.43728,0 -28.87455,0a3.66581,3.66581 0 0 1 -0.59005,0.89134a14.58793,14.58793 0 0 1 -3.87296,2.90001q13.54593,0 27.10442,0q19.54054,0 39.06853,0l44.29106,0c1.91451,-0.03766 2.20325,-0.3013 2.3288,-2.18442zm-5.17859,-1.6697l-22.34639,0.03766a0.69676,0.69676 0 0 1 -0.62771,-0.26364l24.14792,-24.18558a3.40845,3.40845 0 0 1 0.23853,1.91451c0,7.05543 0,14.10459 0,21.16003c-0.02511,1.33702 -0.01255,1.33074 -1.41234,1.33702z" class="cls-5"/>
   <path stroke="null" fill="#fff" d="m437.47589,314.57402c-2.9565,0 -5.91928,0 -8.88206,0c-1.03572,0 -1.54416,-0.12554 -1.53788,-0.91645c0.05649,-4.01105 0.03766,-8.01583 0,-12.02688c0,-0.62771 0.27619,-0.86624 1.25542,-0.86624q9.2273,0.03766 18.45461,0c0.97922,0 1.25542,0.24481 1.25542,0.85996q-0.03766,6.06993 0,12.13987c0,0.67792 -0.45195,0.81602 -1.34957,0.80974c-3.04438,-0.01255 -6.12015,0 -9.19592,0z" class="cls-5"/>
   <path stroke="null" fill="#fff" d="m409.33575,300.80839c2.90629,0 5.8063,0 8.70631,0c1.19892,0 1.5881,0.27619 1.58182,1.04827q-0.06277,5.85024 0,11.68792c0,0.78463 -0.41429,1.04199 -1.59438,1.03572q-8.88206,-0.03766 -17.75785,0c-1.19892,0 -1.5881,-0.26991 -1.58182,-1.04827q0.06905,-5.83768 0,-11.68164c0,-0.79091 0.41429,-1.05455 1.59438,-1.04199c3.01927,0.02511 6.03227,0 9.05155,0z" class="cls-5"/>
   <path stroke="null" fill="#fff" d="m437.51355,295.89344c-3.01927,0 -6.03855,0 -9.05155,0c-1.02316,0 -1.40607,-0.19459 -1.39979,-0.89134q0.05649,-6.01344 0,-12.02688c0,-0.70303 0.39546,-0.89134 1.40607,-0.88507q9.13942,0 18.27885,0c0.94156,0 1.31191,0.18831 1.30563,0.83485q-0.05022,6.07621 0,12.13987c0,0.62771 -0.37662,0.83485 -1.31191,0.82857c-3.07577,-0.01883 -6.15154,0 -9.2273,0z" class="cls-5"/>
   <path stroke="null" fill="#fff" d="m419.60505,288.99493c0,1.94589 -0.03139,3.89179 0,5.83768c0,0.77836 -0.38918,1.06083 -1.58182,1.05455q-8.88206,-0.04394 -17.76413,0c-1.17381,0 -1.60693,-0.25108 -1.59438,-1.03572q0.05649,-5.83768 0,-11.68164c0,-0.77836 0.3829,-1.05455 1.58182,-1.04827q8.87579,0.03766 17.75785,0c1.17381,0 1.61949,0.25108 1.59438,1.04199c-0.03139,1.93334 0.00628,3.87923 0.00628,5.8314z" class="cls-5"/>
   <path stroke="null" fill="#fff" d="m437.60771,263.42212c3.01927,0 6.03855,0 9.05782,0c1.01689,0 1.39979,0.19459 1.39351,0.89762q-0.05649,6.00716 0,12.0206c0,0.70931 -0.39546,0.89134 -1.40607,0.89134q-9.13942,-0.03766 -18.27885,0c-0.94784,0 -1.31191,-0.18831 -1.30563,-0.83485q0.03766,-6.06366 0,-12.13359c0,-0.62771 0.37662,-0.84113 1.31191,-0.83485c3.07577,0.00628 6.18292,-0.00628 9.2273,-0.00628z" class="cls-5"/>
   <path stroke="null" fill="#fff" d="m409.26043,263.43467c2.90001,0 5.8063,0.03139 8.71258,0c1.2868,0 1.66343,0.29502 1.65087,1.11104q-0.06277,5.79374 0,11.58121c0,0.84113 -0.43312,1.09849 -1.68853,1.09221q-8.78791,-0.05649 -17.57582,0c-1.25542,0 -1.68226,-0.27619 -1.6697,-1.10477q0.07532,-5.78747 0,-11.57493c0,-0.84113 0.42684,-1.11104 1.68226,-1.09221c2.96278,0.04394 5.92556,0 8.88834,0l0,-0.01255z" class="cls-5"/>
   <path stroke="null" fill="#fff" d="m465.71018,300.80839c2.90629,0 5.8063,0 8.71258,0c1.19264,0 1.58182,0.27619 1.57555,1.04827q-0.05649,5.85024 0,11.68792c0,0.78463 -0.41429,1.04199 -1.59438,1.03572q-8.87579,-0.03766 -17.75785,0c-1.19892,0 -1.5881,-0.26991 -1.58182,-1.04827q0.06277,-5.83768 0,-11.68164c0,-0.79091 0.41429,-1.05455 1.59438,-1.04199c3.013,0.02511 6.03855,0 9.05155,0z" class="cls-5"/>
   <path stroke="null" fill="#fff" d="m475.99203,288.99493c0,1.94589 -0.03139,3.89179 0,5.83768c0,0.77836 -0.38918,1.06083 -1.58182,1.05455q-8.87579,-0.04394 -17.76413,0c-1.17381,0 -1.60693,-0.25108 -1.59438,-1.03572q0.06277,-5.83768 0,-11.68164c0,-0.77836 0.3829,-1.05455 1.58182,-1.04827q8.88206,0.03766 17.75785,0c1.18009,0 1.61949,0.25108 1.59438,1.04199c-0.04394,1.93334 0.00628,3.87923 0.00628,5.8314z" class="cls-5"/>
   <path stroke="null" fill="#fff" d="m465.63486,263.43467c2.90001,0 5.8063,0.03139 8.71258,0c1.2868,0 1.66343,0.29502 1.65715,1.11104q-0.07532,5.79374 0,11.58121c0,0.84113 -0.43312,1.09849 -1.68853,1.09221q-8.78791,-0.05649 -17.57582,0c-1.25542,0 -1.68226,-0.27619 -1.6697,-1.10477q0.07532,-5.78747 0,-11.57493c0,-0.84113 0.42684,-1.11104 1.68853,-1.09221c2.9565,0.04394 5.91928,0 8.88206,0l-0.00628,-0.01255z" class="cls-5"/>
   <circle stroke="null" fill="#36a85d" r="38.083" cy="316.31277" cx="377.48586" class="cls-1"/>
   <polygon stroke="null" fill="#fff" points="346.99184799194336,297.7451477050781 346.98559188842773,297.7514343261719 346.97924423217773,297.7514343261719 346.99184799194336,297.7451477050781 " class="cls-5"/>
   <path stroke="null" fill="#fff" d="m416.98751,319.09351a39.21918,39.21918 0 1 0 -41.20273,37.03475a39.11247,39.11247 0 0 0 41.20273,-37.03475zm-4.31235,7.98444a35.56592,35.56592 0 0 1 -3.59049,8.28574c-0.06277,0.10671 -0.10671,0.2197 -0.1632,0.32641l0,0l-0.1381,0l0,0a0.85368,0.85368 0 0 0 -0.49589,-0.62771c-1.05455,-0.62771 -2.09654,-1.25542 -3.13854,-1.88312a2.20325,2.20325 0 0 0 -0.37662,-0.20714a0.33896,0.33896 0 0 0 -0.43312,0.1632a0.31385,0.31385 0 0 0 0.04394,0.40173a1.21775,1.21775 0 0 0 0.28247,0.2197c1.08593,0.66537 2.1907,1.31191 3.27036,1.98356a0.73442,0.73442 0 0 0 0.84741,0l0,0l0,0.27619a0.35152,0.35152 0 0 0 -0.16948,0.28247l0,0a49.24995,49.24995 0 0 1 -3.13854,4.23703a36.31289,36.31289 0 0 1 -9.01388,7.55132c-0.0816,0.05022 -0.16948,0.09416 -0.25108,0.15065c-0.23853,0.16948 -0.37662,0.08788 -0.50217,-0.15693c-0.43312,-0.83485 -0.87879,-1.6697 -1.32446,-2.51083c-0.11926,-0.23225 -0.24481,-0.47078 -0.37662,-0.69676s-0.35779,-0.35779 -0.62771,-0.20087s-0.16948,0.37035 -0.06905,0.57749c0.44567,0.91645 0.91018,1.81408 1.33074,2.73681s0.62771,0.77208 -0.49589,1.34329a36.40705,36.40705 0 0 1 -13.08143,3.76625c-0.93528,0.09416 -1.88312,0.12554 -2.82468,0.15693c-0.7658,0 -0.77208,0 -0.73442,-0.7407l0.20714,-3.98594c0,-0.58377 -0.08788,-0.82857 -0.37035,-0.78463c-0.44567,0.06905 -0.36407,0.45195 -0.37662,0.74697c-0.0816,1.37468 -0.14437,2.74936 -0.2197,4.13032c-0.03766,0.58377 -0.05022,0.59005 -0.62771,0.56494a34.98843,34.98843 0 0 1 -11.8574,-2.58616a35.74168,35.74168 0 0 1 -4.8208,-2.36646a1.88312,1.88312 0 0 0 0.17576,-0.25736l2.30369,-3.76625c0.25736,-0.42684 0.25736,-0.69676 0,-0.80974c-0.3829,-0.15065 -0.50217,0.17576 -0.62771,0.41429c-0.62771,1.02944 -1.63832,2.67403 -2.26602,3.70975a1.44373,1.44373 0 0 0 -0.1632,0.32641a37.24818,37.24818 0 0 1 -3.83529,-2.68659a35.42155,35.42155 0 0 1 -8.43011,-9.76713c-0.27619,-0.47078 -0.27619,-0.48333 0.20087,-0.7658l3.62187,-2.13421a4.33746,4.33746 0 0 0 0.48961,-0.31385a0.33269,0.33269 0 0 0 0.10043,-0.50217a0.37662,0.37662 0 0 0 -0.51472,-0.11926l-0.50217,0.28875q-1.71364,1.01689 -3.43356,2.0275c-0.62771,0.36407 -0.62771,0.36407 -0.95412,-0.25736a38.17718,38.17718 0 0 1 -2.40412,-5.89418a37.2419,37.2419 0 0 1 -1.53788,-7.9405c-0.0816,-0.94156 -0.0816,-1.88312 -0.12554,-2.82468c0,-0.37035 0.17576,-0.44567 0.49589,-0.42684l3.54655,0.14437l0.50844,0c0.45823,0 0.67792,-0.1381 0.62771,-0.40173c-0.04394,-0.38918 -0.35779,-0.39546 -0.62771,-0.41429a9.08921,9.08921 0 0 0 -1.01061,0c-0.99806,0.04394 -1.98356,-0.03766 -2.97533,-0.07532c-0.521,0 -0.521,-0.04394 -0.51472,-0.55238a26.69641,26.69641 0 0 1 0.37662,-3.76625a35.46549,35.46549 0 0 1 1.88312,-7.27513a36.68324,36.68324 0 0 1 2.51083,-5.36062a1.36213,1.36213 0 0 0 0.10671,-0.26364a0.34524,0.34524 0 0 0 0.10671,-0.17576l0.69048,0.40801l3.27663,1.99611c0.24481,0.14437 0.53983,0.37035 0.74697,0s-0.13182,-0.50844 -0.37035,-0.65909c-1.0671,-0.62771 -2.14676,-1.29935 -3.22014,-1.93962l-0.7658,-0.42684l0,-0.04394c0.06905,-0.08788 0.05649,-0.23225 0.18831,-0.28247a51.21467,51.21467 0 0 1 3.35824,-4.44417a36.25012,36.25012 0 0 1 9.08921,-7.46344c0.42684,-0.25108 0.44567,-0.24481 0.69676,0.20087c0.62771,1.13615 1.25542,2.2723 1.92706,3.40845c0.15065,0.26364 0.25736,0.62771 0.6842,0.48961c0.25736,-0.08788 0.24481,-0.37662 -0.03139,-0.88507c-0.62771,-1.11732 -1.25542,-2.23464 -1.88312,-3.35824c-0.26364,-0.47706 -0.26364,-0.49589 0.23225,-0.74697a36.23757,36.23757 0 0 1 13.62753,-3.88551c1.03572,-0.09416 2.07144,-0.10671 3.13854,-0.1381c0.44567,0 0.48333,0.03766 0.47078,0.50844c-0.04394,1.25542 -0.10043,2.46061 -0.14437,3.69092a1.71992,1.71992 0 0 0 0.03139,0.62771c0.05649,0.17576 0.14437,0.32013 0.34524,0.31385a0.37662,0.37662 0 0 0 0.37035,-0.29502a2.17815,2.17815 0 0 0 0.05649,-0.57121c0.03139,-1.21148 0.05022,-2.41667 0.08788,-3.62187c0,-0.62771 0.03139,-0.62771 0.67792,-0.59632a35.77934,35.77934 0 0 1 13.58987,3.50261c1.03572,0.50217 2.02122,1.05455 2.98789,1.63832l-0.03766,0.05649l-0.521,0.85368c-0.62771,1.02944 -1.25542,2.0526 -1.88312,3.07577a0.92901,0.92901 0 0 0 -0.21342,0.52727a0.35152,0.35152 0 0 0 0.35779,0.37035c0.22597,0 0.32641,-0.18204 0.42684,-0.35152c0.67792,-1.10477 1.79524,-2.94395 2.46689,-4.05499a0.521,0.521 0 0 0 0.04394,-0.0816a35.71029,35.71029 0 0 1 10.89701,10.59571c0.40173,0.62771 0.77836,1.21775 1.15498,1.83918s0.32013,0.55866 -0.21342,0.86624l-2.97533,1.66343a4.49439,4.49439 0 0 0 -0.54611,0.35152a0.32641,0.32641 0 0 0 -0.06905,0.45823a0.32641,0.32641 0 0 0 0.43312,0.15065a3.13854,3.13854 0 0 0 0.38918,-0.18204l2.96906,-1.6697c0.77836,-0.42684 0.62771,-0.50844 1.07966,0.35152a36.27523,36.27523 0 0 1 3.85413,15.61737c0,1.47511 0.13182,1.2052 -1.16126,1.18009l-3.04438,-0.05649a1.69481,1.69481 0 0 0 -0.35779,0a0.35152,0.35152 0 0 0 -0.29502,0.36407a0.31385,0.31385 0 0 0 0.3013,0.33896c0.19459,0 0.38918,0 0.58377,0.04394l3.32685,0.1381c0.59005,0 0.59632,0.03139 0.57121,0.62771a33.89622,33.89622 0 0 1 -1.29935,8.18531l0.00628,0z" class="cls-5"/>
   <path stroke="null" fill="#fff" d="m399.90131,330.27299a5.12837,5.12837 0 0 0 -1.36213,-0.80347l0,0a5.81257,5.81257 0 0 0 -1.45,-0.94156a8.57449,8.57449 0 0 0 -1.52533,-0.96667l0,0c-0.06905,0 -0.10671,-0.08788 -0.15693,-0.13182l0,0a0.29502,0.29502 0 0 0 -0.26991,-0.15693l0,0a0.3013,0.3013 0 0 0 -0.26991,-0.1632a12.28424,12.28424 0 0 1 -0.55866,-0.33269a0.17576,0.17576 0 0 0 -0.14437,-0.1381l0,0a0.30758,0.30758 0 0 0 -0.27619,-0.16948a0.32013,0.32013 0 0 0 -0.28247,-0.1632a0.28875,0.28875 0 0 0 -0.27619,-0.1632a0.3013,0.3013 0 0 0 -0.28247,-0.1632a0.18831,0.18831 0 0 0 -0.15065,-0.13182l0,0a0.3013,0.3013 0 0 0 -0.26991,-0.18204a0.32013,0.32013 0 0 0 -0.28247,-0.1632a0.1632,0.1632 0 0 0 -0.15065,-0.11926l0.15065,0.12554l0,0c-0.06277,0 -0.10043,-0.0816 -0.15065,-0.12554l0,0a0.31385,0.31385 0 0 0 -0.26991,-0.1632l0,0a22.19574,22.19574 0 0 0 -2.28486,-1.51905c-3.06321,-1.98356 -6.13898,-3.93573 -9.20847,-5.90045c-0.47078,-0.3013 -0.92901,-0.62771 -1.40607,-0.9039a0.44567,0.44567 0 0 1 -0.1632,-0.71559c0.06277,-0.10043 0.12554,-0.20714 0.18204,-0.31385l3.52144,-6.23941l0,0a0.27619,0.27619 0 0 0 0.15065,-0.28247l0,0a0.21342,0.21342 0 0 0 0.03139,-0.10671a0.20714,0.20714 0 0 0 0.12554,-0.17576l0,0a0.14437,0.14437 0 0 0 0.03766,-0.10043a0.21342,0.21342 0 0 0 0.12554,-0.18204l0,0a0.32013,0.32013 0 0 0 0.1632,-0.27619l0,0a0.26364,0.26364 0 0 0 0.14437,-0.28247l0,0a0.25108,0.25108 0 0 0 0.04394,-0.11299a13.24463,13.24463 0 0 0 1.25542,-2.13421a4.01733,4.01733 0 0 0 0.62771,-1.1236s0,0 0,0a4.29352,4.29352 0 0 0 0.32641,-0.50217c0.08788,-0.18204 0.28875,-0.32641 0.28247,-0.67792a2.24719,2.24719 0 0 0 -0.62771,1.04199l0,0a3.76625,3.76625 0 0 0 -0.77208,1.14243l0,0a14.24269,14.24269 0 0 0 -1.29308,2.08399l0,0a0.17576,0.17576 0 0 0 -0.12554,0.15065l0.12554,-0.15065l0,0c0,0.06277 -0.08788,0.09416 -0.12554,0.15065l0,0a0.25736,0.25736 0 0 0 -0.17576,0.25736a0.33269,0.33269 0 0 0 -0.16948,0.28247a0.14437,0.14437 0 0 0 -0.10671,0.14437l0.11299,-0.14437l0,0l-0.11299,0.14437a0.15693,0.15693 0 0 0 -0.05022,0.11299a0.20087,0.20087 0 0 0 -0.11926,0.16948l0,0c-0.14437,0.19459 -0.3013,0.37662 -0.43312,0.58377c-1.2868,1.97728 -2.56732,3.96711 -3.85413,5.94439c-0.35152,0.53983 -0.35779,0.53355 -0.92273,0.1632l-0.37035,-0.22597c-0.521,-0.3013 -0.521,-0.3013 -0.82857,0.18204c-0.50217,0.78463 -0.50217,0.78463 0.28875,1.21775c0.0816,0.05022 0.16948,0.08788 0.25736,0.13182c0.40801,0.22597 0.41429,0.25736 0.18204,0.65909c-0.05649,0.10671 -0.13182,0.20087 -0.19459,0.3013c-0.30758,0.45823 -0.30758,0.45823 0.18831,0.7407s0.4645,0.27619 0.75325,-0.2197a3.04438,3.04438 0 0 0 0.18204,-0.30758c0.1381,-0.31385 0.32641,-0.37035 0.62771,-0.18831c0.43312,0.26991 0.87879,0.51472 1.31819,0.7658q3.9169,2.25975 7.83379,4.50694c1.40607,0.79719 2.76819,1.66343 4.22447,2.36646a0.56494,0.56494 0 0 1 0.17576,0.12554a0.09416,0.09416 0 0 0 0.09416,0.03766a0.25736,0.25736 0 0 0 0.18831,0.13182l0,0a0.3013,0.3013 0 0 0 0.26991,0.1632l0,0a0.50844,0.50844 0 0 0 0.41429,0.18831a0.15065,0.15065 0 0 0 0.14437,0.11299l-0.14437,-0.11926l0,0a1.32446,1.32446 0 0 1 0.14437,0.11926a0.10671,0.10671 0 0 0 0.10043,0.03766a0.24481,0.24481 0 0 0 0.18831,0.13182l0,0a0.08788,0.08788 0 0 0 0.08788,0.03139a0.26364,0.26364 0 0 0 0.19459,0.1381l0,0a0.30758,0.30758 0 0 0 0.27619,0.1632a0.27619,0.27619 0 0 0 0.28247,0.14437l0,0a0.10671,0.10671 0 0 0 0.10043,0.03139a0.22597,0.22597 0 0 0 0.18204,0.12554l0,0a0.09416,0.09416 0 0 0 0.09416,0.03766a0.25736,0.25736 0 0 0 0.19459,0.13182l0,0a0.3013,0.3013 0 0 0 0.26991,0.1632l0,0a0.32641,0.32641 0 0 0 0.28247,0.1632l0,0a11.38662,11.38662 0 0 0 1.67598,0.96667l1.25542,0.78463a11.08532,11.08532 0 0 0 1.70736,0.95412a2.40412,2.40412 0 0 0 1.35585,0.62771l-1.34957,-0.79091l0.02511,-0.00628z" class="cls-5"/>
   <path stroke="null" fill="#fff" d="m391.67833,325.64678a0.20714,0.20714 0 0 0 0.17576,0.12554l-0.17576,-0.12554z" class="cls-5"/>
   <path stroke="null" fill="#fff" d="m395.55757,327.56757a0.16948,0.16948 0 0 0 -0.15693,-0.13182l0.15693,0.13182z" class="cls-5"/>
  </g>
 </g>
 <defs>
  <linearGradient gradientTransform="matrix(0.4677295684814453,0,0,0.4677295684814453,556.4643564224243,226.7417755126953)" gradientUnits="userSpaceOnUse" y2="341.13" x2="367.44" y1="-122.4" x1="366.14" id="svg_2">
   <stop stop-opacity="0.83" stop-color="#fff" offset="0"/>
   <stop stop-opacity="0.37" stop-color="#fff" offset="0.56"/>
   <stop stop-opacity="0" stop-color="#fff" offset="1"/>
  </linearGradient>
 </defs>
</svg>