<svg width="1800" height="720" xmlns="http://www.w3.org/2000/svg" preserveAspectRatio="xMidYMid">
 <defs>
  <linearGradient id="gradientFill-1" x1="0" x2="1" y1="0" y2="1" gradientUnits="objectBoundingBox" spreadMethod="pad">
   <stop offset="0" stop-color="rgb(203,206,208)"/>
   <stop offset="1" stop-color="rgb(132,131,139)"/>
  </linearGradient>
  <linearGradient id="gradientFill-2" x1="0" x2="1" y1="0" y2="1" gradientUnits="objectBoundingBox" spreadMethod="pad">
   <stop offset="0" stop-color="rgb(39,109,195)"/>
   <stop offset="1" stop-color="rgb(22,92,170)"/>
  </linearGradient>
 </defs>
 <g>
  <title>Layer 1</title>
  <g id="svg_3" stroke="null">
   <path d="m899.99996,592.94622c-227.82889,0 -412.52196,-123.69355 -412.52196,-276.27703c0,-152.58463 184.69307,-276.27817 412.52196,-276.27817c227.83004,0 412.52196,123.69355 412.52196,276.27817c0,152.58348 -184.69193,276.27703 -412.52196,276.27703zm63.14367,-444.54002c-173.17028,0 -313.55248,84.56227 -313.55248,188.87496c0,104.31269 140.3822,188.87496 313.55248,188.87496c173.16913,0 300.96562,-57.81305 300.96562,-188.87496c0,-131.02072 -127.79649,-188.87496 -300.96562,-188.87496z" fill="url(#gradientFill-1)" fill-rule="evenodd" id="svg_1" stroke="null"/>
   <path d="m1115.72711,468.30531c0,0 24.96777,7.53427 39.47338,14.87403c5.03314,2.54689 13.74131,7.62923 20.02273,14.30195c6.15327,6.53542 9.15325,13.15779 9.15325,13.15779l98.3974,165.9026l-159.03766,0.07094l-74.37013,-139.65795c0,0 -15.22871,-26.1657 -24.59935,-33.7526c-7.81687,-6.32833 -11.1498,-8.58117 -18.87857,-8.58117c-5.37982,0 -37.78689,0 -37.78689,0l0.02975,181.89103l-140.73117,0.0595l0,-464.62797l282.6065,0c0,0 128.71753,2.32149 128.71753,124.78393c0,122.46243 -122.99676,131.57792 -122.99676,131.57792l-0.00001,0zm-61.21234,-155.57774l-85.19728,-0.05492l-0.04233,79.00396l85.23961,-0.02746c0,0 39.47338,-0.12242 39.47338,-40.18847c0,-40.87154 -39.47338,-38.73311 -39.47338,-38.73311z" fill="url(#gradientFill-2)" fill-rule="evenodd" id="svg_2" stroke="null"/>
  </g>
 </g>
</svg>