<svg width="620" height="620" xmlns="http://www.w3.org/2000/svg">
 <!--! Font Awesome Pro 6.0.0 by @fontawesome - https://fontawesome.com License - https://fontawesome.com/license (Commercial License) Copyright 2022 Fonticons, Inc. -->

 <g>
  <title>Layer 1</title>
  <path id="svg_1" d="m550.3,100.55l-139.8,0c-48.1,0 -89.9,33.3 -100.4,80.3c-10.6,-47 -52.3,-80.3 -100.4,-80.3l-139.7,0c-26.5,0 -48,21.5 -48,48l0,245.8c0,26.5 21.5,48 48,48l89.7,0c102.2,0 132.7,24.4 147.3,75c0.7,2.8 5.2,2.8 6,0c14.7,-50.6 45.2,-75 147.3,-75l89.7,0c26.5,0 48,-21.5 48,-48l0,-245.7c0,-26.4 -21.3,-47.9 -47.7,-48.1zm-286.3,265.4c0,1.9 -1.5,3.5 -3.5,3.5l-160.3,0c-1.9,0 -3.5,-1.5 -3.5,-3.5l0,-22.9c0,-1.9 1.5,-3.5 3.5,-3.5l160.4,0c1.9,0 3.5,1.5 3.5,3.5l0,22.9l-0.1,0zm0,-60.9c0,1.9 -1.5,3.5 -3.5,3.5l-160.3,0c-1.9,0 -3.5,-1.5 -3.5,-3.5l0,-22.9c0,-1.9 1.5,-3.5 3.5,-3.5l160.4,0c1.9,0 3.5,1.5 3.5,3.5l0,22.9l-0.1,0zm0,-60.9c0,1.9 -1.5,3.5 -3.5,3.5l-160.3,0c-1.9,0 -3.5,-1.5 -3.5,-3.5l0,-22.9c0,-1.9 1.5,-3.5 3.5,-3.5l160.4,0c1.9,0 3.5,1.5 3.5,3.5l0,22.9l-0.1,0zm259.3,121.7c0,1.9 -1.5,3.5 -3.5,3.5l-160.3,0c-1.9,0 -3.5,-1.5 -3.5,-3.5l0,-22.9c0,-1.9 1.5,-3.5 3.5,-3.5l160.4,0c1.9,0 3.5,1.5 3.5,3.5l0,22.9l-0.1,0zm0,-60.9c0,1.9 -1.5,3.5 -3.5,3.5l-160.3,0c-1.9,0 -3.5,-1.5 -3.5,-3.5l0,-22.9c0,-1.9 1.5,-3.5 3.5,-3.5l160.4,0c1.9,0 3.5,1.5 3.5,3.5l0,22.9l-0.1,0zm0,-60.9c0,1.9 -1.5,3.5 -3.5,3.5l-160.3,0c-1.9,0 -3.5,-1.5 -3.5,-3.5l0,-22.8c0,-1.9 1.5,-3.5 3.5,-3.5l160.4,0c1.9,0 3.5,1.5 3.5,3.5l0,22.8l-0.1,0z"/>
 </g>
</svg>