<svg width="80" height="80" xmlns="http://www.w3.org/2000/svg">

 <g>
  <title>Layer 1</title>
  <g id="svg_3" fill="#54616C">
   <path id="svg_4" d="m1.39847,33.99603l37.843,19.737a1.65,1.65 0 0 0 1.517,0l37.833,-19.737a1.641,1.641 0 0 0 0.706,-2.215a1.703,1.703 0 0 0 -0.706,-0.705l-37.834,-19.737a1.668,1.668 0 0 0 -1.526,0l-37.833,19.737a1.659,1.659 0 0 0 -0.697,2.223a1.712,1.712 0 0 0 0.697,0.697z"/>
   <path id="svg_5" fill="#BAC0C4" d="m78.59047,46.00403l-6.256,-3.265l-30.06,15.679a4.95,4.95 0 0 1 -4.543,0l-30.068,-15.679l-6.265,3.265a1.65,1.65 0 0 0 -0.697,2.206a1.615,1.615 0 0 0 0.697,0.705l37.843,19.746a1.65,1.65 0 0 0 1.517,0l37.833,-19.745a1.641,1.641 0 0 0 0.706,-2.214a1.676,1.676 0 0 0 -0.706,-0.697l-0.001,-0.001z"/>
  </g>
 </g>
</svg>