<?xml version="1.0" standalone="no"?><!DOCTYPE svg PUBLIC "-//W3C//DTD SVG 1.1//EN" "http://www.w3.org/Graphics/SVG/1.1/DTD/svg11.dtd"><svg t="1637751358712" class="icon" viewBox="0 0 1024 1024" version="1.1" xmlns="http://www.w3.org/2000/svg" p-id="572" xmlns:xlink="http://www.w3.org/1999/xlink" width="200" height="200"><defs><style type="text/css"></style></defs><path d="M638.213953 323.189369c-12.757475-3.061794-20.24186-16.499668-18.540863-33.509635 2.041196-19.901661 19.561462-30.107641 41.164119-24.154153 14.968771 4.252492 21.772757 18.881063 17.860465 38.102326-3.401993 16.839867-19.561462 24.494352-40.483721 19.561462z" fill="#ECCB47" p-id="573"></path><path d="M472.026578 1012.093023c-1.871096-0.850498-8.504983-1.530897-14.798671-1.530897-6.123588-0.1701-14.968771-0.850498-19.561462-1.871096-4.422591-0.850498-16.499668-3.231894-26.875747-5.10299-25.51495-4.93289-67.869767-17.350166-85.560133-25.004651-122.471761-53.411296-205.820598-130.466445-261.613289-242.051828-8.845183-17.690365-15.989369-32.659136-15.989369-33.509634 0-0.680399-2.381395-6.974086-5.10299-13.948173-5.443189-13.267774-17.009967-52.220598-20.071761-68.209967-1.020598-5.10299-2.381395-11.566777-2.891694-14.458471-5.953488-29.087043-7.994684-52.900997-8.164784-91.853821 0-32.659136 1.871096-60.895681 5.443189-80.797342 1.020598-5.10299 2.381395-13.948173 3.401993-19.561462 2.211296-14.118272 8.845183-38.782724 17.009967-62.086379 18.881063-54.942193 46.777409-105.972093 81.647841-149.687707 16.839867-21.092359 59.704983-63.957475 80.116943-80.116944 67.529568-53.581395 145.605316-88.281728 229.634552-102.059801 45.92691-7.484385 118.049169-7.484385 162.445183 0 21.432558 3.572093 55.452492 11.396678 71.44186 16.499668 126.554153 40.653821 234.567442 133.01794 294.952824 252.427907 23.643854 46.607309 40.82392 102.5701 47.627907 153.9402 1.020598 7.484385 2.551495 19.731561 3.572093 27.215946 2.211296 17.009967 2.211296 71.952159 0.1701 87.26113-1.020598 6.293688-2.551495 17.860465-3.572093 25.855149-11.566777 88.792027-53.581395 183.027243-113.286379 253.448505-16.499668 19.731561-56.813289 58.514286-71.101661 68.890366-6.463787 4.762791-15.649169 11.736877-20.58206 15.649169-12.757475 10.03588-45.756811 29.597342-69.740864 41.33422-54.772093 26.535548-107.162791 41.504319-168.398671 47.968106-22.283056 2.381395-85.730233 3.401993-90.152824 1.360797z m334.926246-226.232558c11.906977-4.592691 20.24186-13.607973 23.813953-26.025249 2.381395-8.334884 2.721595-31.128239 2.721595-211.944186 0-179.28505-0.340199-202.418605-2.551495-201.568106s-2.551495-3.061794-2.551495-29.257143c0-38.102326-3.231894-51.3701-15.13887-64.127575-10.546179-11.396678 14.968771-10.546179-297.844519-11.056478-202.928904-0.340199-285.087043 0-290.019933 1.360797-18.370764 5.10299-28.746844 19.221262-31.468439 42.865116-2.211296 18.710963-2.211296 51.880399 0 53.241196 2.721595 1.700997 1.871096 5.443189-1.360797 6.293688-2.211296 0.680399-3.572093 3.061794-4.252492 7.484385-0.680399 3.742193-1.190698 92.02392-1.190697 196.295017 0 218.918272-0.1701 215.686379 13.267774 228.443854 2.721595 2.551495 8.675083 6.123588 13.267774 7.994684 8.164784 3.231894 16.669767 3.231894 296.143521 3.401993 285.767442 0 287.978738 0 297.16412-3.401993z" fill="#90C751" p-id="574"></path><path d="M762.89701 322.67907c-11.056478-5.27309-16.159468-14.628571-16.159468-29.427243 0-14.458472 6.463787-23.813953 19.391362-27.896345 8.334884-2.721595 21.602658-1.190698 28.746844 3.231893 8.504983 5.27309 11.396678 11.736877 11.396677 25.174751 0 13.948173-3.572093 21.942857-11.566777 26.535548-7.314286 4.252492-24.834551 5.443189-31.808638 2.381396z" fill="#DA575D" p-id="575"></path><path d="M701.49103 323.699668c-2.041196-0.340199-6.633887-3.231894-10.20598-6.293688-6.293688-5.443189-6.293688-5.613289-7.144186-20.24186-0.680399-12.757475-0.340199-15.30897 2.891694-20.411961 4.93289-8.164784 12.757475-11.396678 27.045847-11.396677 21.092359 0 29.937542 10.03588 28.746844 31.978737-0.680399 11.396678-1.190698 12.927575-6.463787 18.370764-7.824585 7.994684-20.24186 10.886379-34.870432 7.994685z" fill="#21A6AF" p-id="576"></path><path d="M446.511628 688.903654c-0.340199-0.510299 18.540864-53.411296 42.014618-117.36877 23.303654-64.127575 43.035216-118.389369 43.715614-120.770764 1.190698-4.082392 2.041196-4.252492 15.47907-4.762791 18.030565-0.680399 19.221262-0.1701 16.839867 5.953488-1.020598 2.551495-20.58206 55.962791-43.375415 118.729568s-42.014618 115.157475-42.865116 116.518273c-1.190698 2.041196-4.93289 2.551495-16.499668 2.551495-8.164784 0-14.968771-0.340199-15.30897-0.850499zM349.554817 607.085714c-39.293023-21.602658-73.142857-40.313621-75.354153-41.674418-2.551495-1.700997-3.742193-4.082392-3.742192-7.994685 0-5.443189 0.680399-5.953488 22.453156-17.690365 12.417276-6.633887 46.607309-25.174751 76.034551-41.16412 29.427243-15.819269 53.921595-28.576744 54.601994-28.236545 1.360797 0.850498 0.850498 33.849834-0.680399 36.23123-0.510299 0.850498-20.922259 12.587375-45.246512 26.025249s-44.225914 25.34485-44.225913 26.365448 2.891694 3.231894 6.463787 4.762791c3.401993 1.530897 23.984053 12.587375 45.416612 24.664452 36.231229 20.071761 39.122924 21.942857 38.952823 26.195349 0 2.551495-0.1701 10.716279-0.340199 18.200664s-0.850498 13.607973-1.530897 13.607974c-0.850498 0-33.509635-17.690365-72.802658-39.293024zM597.049834 628.007973v-18.370764l45.92691-25.34485c25.34485-13.948173 45.246512-26.025249 44.566113-26.705648s-21.262458-12.247176-45.416611-25.68505l-44.225914-24.324252-0.510299-19.221263c-0.1701-10.886379 0.1701-18.881063 1.020598-18.540864 0.850498 0.1701 35.380731 18.881063 76.71495 41.16412 47.117608 25.51495 75.354153 41.844518 76.034552 43.885714 0.510299 1.700997 0.510299 4.422591 0 6.123588-0.510299 1.530897-13.778073 9.865781-29.597342 18.540864-15.649169 8.675083-49.328904 27.215947-75.013954 41.16412-25.68505 14.118272-47.287708 25.68505-47.968106 25.68505-0.850498 0-1.530897-8.334884-1.530897-18.370765zM508.598007 345.302326l-320.637874-0.850499-0.510299-23.813953c-0.680399-32.659136 1.700997-51.3701 7.654485-62.426578 5.27309-9.865781 14.458472-17.009967 25.174751-20.071761 4.93289-1.360797 88.451827-1.700997 295.122923-1.360797 265.015282 0.510299 288.659136 0.680399 293.421927 3.401993 11.056478 6.123588 19.391362 18.881063 22.793356 35.380731 2.551495 11.396678 1.871096 70.251163-0.680399 70.421262-0.850498 0.1701-145.945515-0.1701-322.33887-0.680398z m153.089701-29.767442c2.381395-1.190698 5.613289-3.572093 7.144186-5.44319 3.231894-3.572093 5.953488-14.628571 5.10299-21.262458-0.850498-6.803987-10.20598-15.989369-18.710964-18.200665-17.350166-4.762791-34.019934 12.587375-29.257143 30.107642 4.082392 15.47907 20.752159 22.283056 35.720931 14.798671z m57.833887 2.551495c14.458472-4.082392 22.453156-21.262458 15.819269-34.019934-8.845183-17.009967-33.339535-18.200664-43.205316-2.211295-3.061794 4.93289-3.572093 7.484385-2.721595 15.479069 0.850498 8.504983 1.700997 10.37608 7.144187 15.138871 5.613289 4.762791 8.675083 6.123588 15.30897 7.144186 1.020598 0 4.422591-0.680399 7.654485-1.530897z m70.591362-3.231894c10.20598-5.783389 14.288372-23.133555 7.824585-32.999335-9.525581-14.628571-28.236545-16.159468-39.293024-3.401994-8.675083 9.865781-8.845183 21.262458-0.510299 31.298339 8.675083 10.20598 20.071761 12.077076 31.978738 5.10299z" fill="#2F4C5A" p-id="577"></path></svg>