<?xml version="1.0" standalone="no"?><!DOCTYPE svg PUBLIC "-//W3C//DTD SVG 1.1//EN" "http://www.w3.org/Graphics/SVG/1.1/DTD/svg11.dtd"><svg t="1633577031246" class="icon" viewBox="0 0 1024 1024" version="1.1" xmlns="http://www.w3.org/2000/svg" p-id="19994" xmlns:xlink="http://www.w3.org/1999/xlink" width="200" height="200"><defs><style type="text/css"></style></defs><path d="M935.888575 897.675805v-8.999758c0-1.899949-0.599984-3.799898-0.599984-6.399827v-1.899949c-0.599984-2.59993-0.599984-5.099863-1.299965-8.299776 0-0.599984-0.599984-1.299965-0.599984-2.59993-0.599984-2.59993-1.299965-4.499879-1.899949-6.999811 0-0.599984-0.599984-1.899949-0.599983-2.59993-0.599984-3.199914-1.899949-6.399828-2.59993-9.599742 0-0.599984-0.599984-1.299965-0.599984-1.899948-0.599984-2.59993-1.899949-5.799844-2.59993-8.299777 0-0.599984-0.599984-1.899949-1.299965-2.59993-1.299965-3.199914-1.899949-6.399828-3.199914-9.599741 0 0 0-0.599984-0.599984-0.599984-1.299965-3.799898-2.59993-6.999811-3.799897-10.899706-0.599984-0.599984-0.599984-1.899949-1.299965-2.59993-1.299965-3.199914-2.59993-6.399828-3.799898-9.599741 0-0.599984-0.599984-1.299965-0.599984-1.899949-1.899949-3.799898-3.199914-7.699792-5.099862-12.199671 0-0.599984-0.599984-1.299965-0.599984-1.899949-1.299965-3.799898-3.199914-6.999811-5.099862-10.899706-0.599984-0.599984-0.599984-1.299965-1.299965-1.899949-3.799898-8.299776-8.299776-17.299534-12.199672-26.199294 0-0.599984-0.599984-1.299965-0.599983-1.299965-74.897981-150.99593-207.994394-346.790653-239.293551-392.189429-4.499879-6.399828-6.999811-14.09962-6.999811-21.799412V56.298483h18.599499c14.09962 0 25.59931-11.49969 25.59931-25.59931v-5.099863C683.495378 11.49969 671.995688 0 657.896068 0H366.403924c-14.09962 0-25.59931 11.49969-25.59931 25.59931v5.099863c0 14.09962 11.49969 25.59931 25.59931 25.59931H385.003423V333.990998c0 7.699792-2.59993 15.399585-6.999811 21.799412C346.604458 401.189187 213.508045 596.983909 138.610064 747.97984c0 0.599984-0.599984 0.599984-0.599984 1.299965-4.499879 8.999757-8.299776 17.899518-12.799655 26.199293 0 0.599984-0.599984 1.299965-0.599984 1.899949-1.899949 3.799898-3.199914 7.699792-5.099862 11.49969 0 0.599984-0.599984 0.599984-0.599984 1.299965-1.899949 3.799898-3.799898 8.299776-5.099863 12.199671 0 0.599984-0.599984 1.299965-0.599983 1.299965-1.299965 3.199914-2.59993 6.999811-3.799898 10.199725 0 0.599984-0.599984 1.299965-0.599984 2.59993-1.299965 3.799898-3.199914 7.699792-4.499879 10.899707v0.599983c-1.299965 3.199914-2.59993 6.999811-3.799897 10.199725 0 0.599984-0.599984 1.899949-0.599984 2.59993-1.299965 3.199914-1.899949 5.799844-2.59993 8.999758 0 0.599984 0 0.599984-0.599984 1.299965-1.299965 3.199914-1.899949 6.399828-2.59993 9.599741 0 0.599984-0.599984 1.299965-0.599983 1.899949-0.599984 2.59993-1.299965 5.099863-1.899949 6.999811 0 0.599984 0 1.299965-0.599984 1.899949-0.599984 3.199914-1.299965 5.799844-1.299965 8.299776v1.299965c-0.599984 2.59993-0.599984 4.499879-0.599984 6.399828v1.899949c0 2.59993-0.599984 5.099863-0.599984 6.999811 0 23.699361 4.499879 43.498828 11.49969 58.898412 31.399154 68.498154 115.796879 68.498154 115.796879 68.498154H808.991995c-0.399989 1.299965 126.89658 1.299965 126.89658-126.096601z m-552.185117-76.097949c-3.199914 16.599553-16.599553 30.099189-33.299102 33.299102-30.099189 5.799844-55.698499-19.799466-49.898656-49.898655 3.199914-16.599553 16.599553-30.099189 33.299103-33.299102 29.399208-5.799844 55.698499 19.799466 49.898655 49.898655z m1.299965-189.394895c4.499879-37.798981 35.199051-68.498154 72.898035-72.898035 55.698499-6.999811 102.39724 39.69893 95.297432 94.697447-4.499879 37.798981-35.199051 68.498154-72.898036 73.598016-55.698499 6.999811-102.39724-39.798927-95.297431-95.397428z m337.790895 191.294844c-4.499879 37.798981-35.199051 68.498154-72.898035 73.598016-55.698499 6.999811-102.39724-39.69893-95.297431-95.297431 4.499879-37.798981 35.199051-68.498154 72.898035-72.898036 55.598501-7.099809 102.39724 39.598933 95.297431 94.597451z m-303.891809-452.987791l0.599984-1.299965c4.499879-6.399828 6.999811-14.09962 6.999811-21.799412V56.298483h169.595429v291.092154c0 7.699792 2.59993 15.399585 6.999812 21.799412l0.599983 1.299965c21.099431 30.699173 45.398776 65.898224 69.698122 102.997224H349.804372c24.299345-37.099 47.998706-72.298051 69.098137-102.997224z m0 0" fill="#ffc310" p-id="19995"></path></svg>