<?xml version="1.0" standalone="no"?><!DOCTYPE svg PUBLIC "-//W3C//DTD SVG 1.1//EN" "http://www.w3.org/Graphics/SVG/1.1/DTD/svg11.dtd">
<svg t="1634479248853" class="icon" viewBox="-256 0 1536 1024" version="1.1" xmlns="http://www.w3.org/2000/svg" p-id="1734" xmlns:xlink="http://www.w3.org/1999/xlink" width="100%" height="100%"><defs><style type="text/css"></style></defs><path d="M669.738667 575.829333c-33.450667-45.738667-84.565333-64.810667-157.610667-80.213333l-67.925333-16-51.242667-21.973333c-26.922667-19.029333-49.92-69.717333-43.392-114.389334a128 128 0 0 1 144.469333-107.776 126.378667 126.378667 0 0 1 83.712 49.28L654.933333 386.133333c44.074667 56.746667 93.653333 73.685333 147.584 46.848l27.178667-11.52a9.386667 9.386667 0 0 1 11.861333 3.712l5.418667 8.106667a13.269333 13.269333 0 0 0 6.656 5.589333 13.909333 13.909333 0 0 0 14.08-2.474666l62.592-59.050667c10.965333-9.386667 7.765333-18.005333 7.765333-18.005333l-15.104-34.389334s-4.138667-8.234667-18.389333-6.357333l-83.968 7.722667a13.952 13.952 0 0 0-11.52 17.536l3.029333 9.685333c0.597333 2.005333 0.597333 4.266667-0.213333 6.314667a9.344 9.344 0 0 1-5.290667 5.333333l-23.722666 10.026667c-24.832 14.549333-53.077333 5.248-71.936-17.792l-21.546667-28.586667-61.354667-81.493333a188.629333 188.629333 0 0 0-124.970666-73.386667C399.146667 159.274667 302.72 231.253333 287.616 334.506667c-7.637333 52.053333 7.978667 101.333333 36.48 140.885333 20.693333 28.757333 58.581333 45.226667 79.104 50.346667l53.845333 15.36 51.541334 11.818666c7.082667 1.706667 27.050667 6.613333 38.826666 10.88 10.922667 3.925333 36.053333 13.226667 56.490667 29.909334 24.405333 24.832 37.333333 60.288 31.829333 97.450666a117.077333 117.077333 0 0 1-208.938666 53.546667l-73.642667-97.792a97.877333 97.877333 0 0 0-64.597333-37.973333 98.56 98.56 0 0 0-72.874667 18.730666l-154.965333 115.626667A469.418667 469.418667 0 0 1 0 512C0 247.381333 219.008 32.768 489.173333 32.768c201.173333 0 373.802667 118.954667 448.981334 288.853333l24.789333-11.52 16.768-45.738666 17.536 6.144-15.061333 40.96 41.813333 14.378666-6.314667 17.152-46.72-16.298666-25.728 11.818666c21.333333 53.845333 33.194667 112.298667 33.194667 173.482667 0 264.661333-219.093333 479.232-489.258667 479.232a491.776 491.776 0 0 1-395.093333-196.693333l158.762667-118.954667a36.48 36.48 0 0 1 49.621333 8.106667l77.909333 104.746666a178.602667 178.602667 0 0 0 114.048 64.085334c98.218667 13.738667 189.397333-54.314667 203.648-152.021334a176.64 176.64 0 0 0-28.330666-124.672" p-id="1735" fill="#1296db"></path></svg>