<?xml version="1.0" encoding="utf-8"?>
<!-- Generator: Adobe Illustrator 22.0.0, SVG Export Plug-In . SVG Version: 6.00 Build 0)  -->
<svg version="1.1" xmlns="http://www.w3.org/2000/svg" xmlns:xlink="http://www.w3.org/1999/xlink" x="0px" y="0px"
   viewBox="0 0 721.5 722.4" >
<circle fill="#F48023" cx="361" cy="361.9" r="360.5"/>
<path fill="#BCBBBB" d="M526.5,534.8V391.9h47.4v190.3h-428V391.9h47.4v142.9H526.5z"/>
<path fill="#FFFFFF" d="M245.7,378.4l232.8,48.7l9.9-46.8l-232.8-48.7L245.7,378.4z M276.5,267.5L492,367.9l19.7-43.1l-215.6-101
  L276.5,267.5z M336.2,161.6l182.9,152.1l30.2-36.3L366.4,125.3L336.2,161.6z M454.4,48.9l-38.2,28.3l141.6,190.9l38.2-28.3
  L454.4,48.9z M240.7,486.8h237.7v-47.4H240.7V486.8z"/>
</svg>
