<?xml version="1.0" encoding="utf-8"?>
<!-- Generator: Adobe Illustrator 22.0.0, SVG Export Plug-In . SVG Version: 6.00 Build 0)  -->
<svg version="1.1" id="图层_1" xmlns="http://www.w3.org/2000/svg" xmlns:xlink="http://www.w3.org/1999/xlink" x="0px" y="0px"
	 viewBox="0 0 167 166.2" style="enable-background:new 0 0 167 166.2;" xml:space="preserve">
<style type="text/css">
	.st0{fill:#E3DEFF;}
	.st1{fill:#CBB8FF;}
	.st2{fill:#404951;}
	.st3{fill:#FFFFFF;}
	.st4{fill:#E1D9FF;}
</style>
<path class="st0" d="M-2.2,83.6c0,46.2,37.4,83.6,83.6,83.6S165,129.8,165,83.6S127.6,0,81.4,0S-2.2,37.4-2.2,83.6z"/>
<path class="st1" d="M120.5,64.1l20.7,7l-3.5,10.4l-20.7-7L120.5,64.1z"/>
<path class="st2" d="M139.5,85l-26.1-8.8l5.3-15.7l26.1,8.8L139.5,85z M120.6,72.7l15.4,5.2l1.7-5l-15.4-5.2L120.6,72.7z"/>
<path class="st3" d="M121.8,81.6L43.9,58.2c-0.7-0.2-1.1-1-0.9-1.7c0,0,0,0,0,0l7.4-21.9c0.2-0.7,1-1.1,1.7-0.9c0,0,0,0,0.1,0
	l76.1,28.6c0.7,0.3,1,1,0.8,1.7l-5.6,16.7C123.2,81.5,122.5,81.9,121.8,81.6z"/>
<path class="st2" d="M122.2,84.3c-0.4,0-0.8-0.1-1.1-0.2L43.2,60.7c-2.1-0.6-3.3-2.8-2.7-4.9c0-0.1,0-0.1,0.1-0.2L48,33.8
	c0.7-2.1,2.9-3.2,5-2.5c0,0,0.1,0,0.1,0L129.2,60c2,0.7,3,2.9,2.3,4.9l-5.6,16.7C125.3,83.2,123.9,84.3,122.2,84.3z M45.9,56.1
	l75.5,22.7l4.9-14.4L52.5,36.7L45.9,56.1z"/>
<path class="st3" d="M32,28.5l20.4,6.9l-6.9,20.4l-20.4-6.9L32,28.5z"/>
<path class="st2" d="M38.7,55.8c-1.5,0-2.9-0.2-4.3-0.7c-7.1-2.4-10.9-10.1-8.6-17.2c2.4-7.1,10.1-10.9,17.2-8.6S54,39.4,51.6,46.5
	C49.7,52,44.6,55.8,38.7,55.8z M36.2,49.7c4.2,1.4,8.7-0.8,10.1-5c1.4-4.2-0.8-8.7-5-10.1c-4.2-1.4-8.7,0.8-10.1,5
	c-0.7,2-0.5,4.2,0.4,6.1C32.5,47.6,34.2,49,36.2,49.7L36.2,49.7z"/>
<path class="st3" d="M45,25.3l14.7,5L48.1,64.5l-14.7-5C33.4,59.6,45,25.3,45,25.3z"/>
<path class="st2" d="M46.8,66.8c-0.5,0-1.1-0.1-1.6-0.3l-10.7-3.6c-2.6-0.9-4-3.7-3.1-6.2c0,0,0,0,0,0l10.2-30.3
	c0.9-2.6,3.7-4,6.3-3.1c0,0,0,0,0,0l10.7,3.6c2.6,0.9,4,3.7,3.1,6.2c0,0,0,0,0,0L51.5,63.4C50.8,65.4,48.9,66.8,46.8,66.8z M37,57.8
	l9.4,3.2L56.2,32l-9.4-3.2L37,57.8z"/>
<path class="st4" d="M141.6,66.7l6.7,2.3l-6.4,19l-6.7-2.3C135.2,85.8,141.6,66.7,141.6,66.7z"/>
<path class="st2" d="M139.7,89.6c-0.7,0-1.3-0.1-1.9-0.3c-3.2-1.1-4.9-4.5-3.8-7.6c0,0,0,0,0,0l4.2-12.3c1.1-3.2,4.5-4.8,7.6-3.8
	c3.2,1.1,4.8,4.5,3.8,7.6l0,0l-4.2,12.3C144.5,87.9,142.2,89.6,139.7,89.6L139.7,89.6z M143.8,70.2c-0.4,0-0.8,0.3-1,0.7l-4.2,12.3
	c-0.2,0.5,0.1,1.1,0.6,1.3c0.3,0.1,0.5,0.1,0.8-0.1c0.2-0.1,0.4-0.3,0.5-0.6l4.2-12.3c0.2-0.5-0.1-1.1-0.6-1.3
	C144,70.2,143.9,70.2,143.8,70.2L143.8,70.2z M78.8,70.1H84v11.8h-5.2V70.1z M81.7,151c-1.2,0-2.3-1-2.3-2.3V94.6
	c-0.1-1.2,0.9-2.3,2.1-2.4s2.3,0.9,2.4,2.1c0,0.1,0,0.2,0,0.3v54.1C84,149.9,83,151,81.7,151C81.7,151,81.7,151,81.7,151L81.7,151z"
	/>
<path class="st2" d="M98.8,143c-1,0-1.8-0.6-2.1-1.5L82.8,99.6c-0.3-1.2,0.4-2.4,1.6-2.8c1.1-0.3,2.3,0.3,2.7,1.4l13.9,41.9
	c0.4,1.2-0.2,2.4-1.4,2.8C99.3,142.9,99,143,98.8,143L98.8,143z M63.7,142.5c-0.3,0-0.5,0-0.8-0.1c-1.2-0.4-1.8-1.7-1.4-2.9
	l14.7-41.4c0.4-1.2,1.7-1.8,2.9-1.4c1.2,0.4,1.8,1.7,1.4,2.9L65.9,141C65.5,141.9,64.7,142.5,63.7,142.5L63.7,142.5z M81.3,95.1
	c-4.6,0-8.3-3.7-8.3-8.3s3.7-8.3,8.3-8.3c4.6,0,8.3,3.7,8.3,8.3l0,0C89.6,91.3,85.9,95.1,81.3,95.1z M81.3,83.6
	c-1.8,0-3.2,1.4-3.2,3.2c0,1.8,1.4,3.2,3.2,3.2c1.8,0,3.2-1.4,3.2-3.2c0,0,0,0,0,0C84.4,85,83,83.6,81.3,83.6z"/>
<path class="st1" d="M69.2,89.7h23.5v7.5H69.2V89.7z"/>
<path class="st2" d="M91.2,99.4H70.6c-2.1,0-3.7-1.7-3.7-3.7v-4.5c0-2.1,1.7-3.7,3.7-3.7h20.5c2.1,0,3.7,1.7,3.7,3.7v4.5
	C94.9,97.7,93.2,99.4,91.2,99.4z M71.4,94.9h19.1v-3H71.4L71.4,94.9z"/>
<path class="st4" d="M52.6,42.3l-6.8-2.1l-6.4,18.6l6.7,2.2C46.1,61,52.6,42.3,52.6,42.3z M56.2,49.1l67,23.1l-1.9,7.1l-68-21
	C53.2,58.3,56.2,49.1,56.2,49.1z"/>
</svg>
