<svg width="1500" height="1500" xmlns="http://www.w3.org/2000/svg" p-id="2324" version="1.1" class="icon" t="1648377463464">

 <g>
  <title>Layer 1</title>
  <g id="svg_4">
   <path id="svg_1" p-id="2325" fill="#00A3FF" d="m1264.71535,966.73037c-22.304,22.69866 -66.90666,56.74666 -144.96,56.74666l-479.49333,0c144.96,-141.872 267.62133,-261.04533 278.77333,-272.39466c11.14667,-11.34934 39.024,-39.72267 66.90134,-62.42134c55.75466,-51.07733 100.36266,-56.74666 139.38666,-56.74666c55.76,0 100.36267,22.69333 139.392,56.74666c78.05334,73.77067 78.05334,204.29334 0,278.06934zm94.77867,-368.86934c-55.75467,-62.42133 -139.38667,-102.14933 -228.592,-102.14933c-78.05867,0 -144.96,28.37333 -206.29333,73.776c-22.304,22.69867 -55.75467,45.39733 -83.62667,79.44533c-22.30933,22.69867 -501.79733,499.392 -501.79733,499.392c27.87733,5.67467 61.33333,5.67467 89.20533,5.67467l607.728,0c44.60267,0 78.05333,0 111.50933,-5.67467c72.48,-5.67466 144.96,-34.048 206.29334,-90.8c128.23466,-124.848 128.23466,-334.816 5.57333,-459.664z"/>
   <path id="svg_2" p-id="2326" fill="#00C8DC" d="m567.11535,564.40503c-61.67466,-45.792 -123.34933,-68.69333 -196.23466,-68.69333c-89.70667,0 -173.79734,40.06933 -229.86667,103.04c-123.344,131.65867 -123.344,337.728 5.60533,469.38667c56.06934,51.52 112.13334,80.13866 179.41334,85.86133l128.94933,-125.93067l-72.88533,0c-72.88534,-5.728 -117.73867,-28.624 -145.77067,-57.24266c-78.49067,-80.13867 -78.49067,-206.07467 -5.60533,-286.21334c39.24266,-40.06933 84.096,-57.24266 140.16,-57.24266c33.64266,0 84.10133,5.72266 134.56,57.24266c22.42666,22.896 84.096,68.69334 106.52266,91.58934l5.60534,0l84.10133,-85.86667l0,-5.72267c-39.248,-40.06933 -100.92267,-91.58933 -134.56,-120.208"/>
   <path id="svg_3" p-id="2327" fill="#006EFF" d="m1160.82202,416.9437c-62.448,-168.78933 -227.072,-286.944 -414.39467,-286.944c-221.38666,0 -397.35466,163.16267 -431.41333,365.712c17.02933,0 34.05867,-5.62133 56.76267,-5.62133c22.70933,0 51.09333,5.62133 73.79733,5.62133c28.37867,-140.656 153.264,-241.93067 300.85333,-241.93067c124.88534,0 232.736,73.14134 283.824,180.04267c0,0 5.68,5.62667 5.68,0c39.73334,-5.62667 85.14667,-16.88 124.88,-16.88c0,5.62667 0,5.62667 0,0"/>
  </g>
 </g>
</svg>