<svg width="140" height="140" xmlns="http://www.w3.org/2000/svg" fill="none">

 <g>
  <title>Layer 1</title>
  <g id="svg_7">
   <path id="svg_2" fill="#616161" d="m23.69233,85.96445l0,-4.9834l6.4467,-1.1074l0,-45.3648l-6.4467,-1.1074l0,-5.0229l24.8378,0c6.0118,0 10.7051,1.3051 14.0801,3.9155c3.4014,2.584 5.1021,6.4731 5.1021,11.6675c0,2.5576 -0.8174,4.8515 -2.4522,6.8818c-1.6084,2.0039 -3.7441,3.4937 -6.4072,4.4692c3.4541,0.7383 6.1831,2.439 8.187,5.1021c2.0039,2.6631 3.0059,5.7612 3.0059,9.2944c0,5.2735 -1.7139,9.3076 -5.1416,12.1026c-3.4278,2.7685 -8.0684,4.1528 -13.9219,4.1528l-27.29,0zm14.2382,-33.104l12.6167,0c2.795,0 5.0494,-0.8042 6.7632,-2.4126c1.7403,-1.6348 2.6104,-3.8496 2.6104,-6.6445c0,-3.1114 -0.9756,-5.4317 -2.9268,-6.961c-1.9512,-1.5556 -4.7724,-2.3335 -8.4639,-2.3335l-10.5996,0l0,18.3516zm0,27.0132l13.0518,0c3.5596,0 6.3149,-0.8701 8.2661,-2.6104c1.9776,-1.7666 2.9663,-4.2583 2.9663,-7.4751c0,-3.375 -0.8305,-6.0249 -2.4917,-7.9497c-1.6347,-1.9248 -4.1528,-2.8872 -7.5542,-2.8872l-14.2383,0l0,20.9224zm51.1392,6.0908l0,-4.9834l6.4468,-1.1074l0,-45.6021l-13.0518,0l-1.147,7.9893l-5.8535,0l0,-13.8823l47.856,0l0,13.8823l-5.774,0l-1.186,-7.9893l-13.0522,0l0,45.6021l6.4472,1.1074l0,4.9834l-20.6855,0z"/>
   <path id="svg_3" fill="#F37726" d="m14.94278,95.72665l6.62595,-2.2461c1.3477,4.043 3.7061,6.9442 7.0752,8.7036c3.3317,1.7595 7.4683,2.6392 12.4097,2.6392l11.5112,0c4.0056,0 7.5057,0.8423 10.5005,2.5268c2.9948,1.6846 5.297,4.2863 6.9067,7.8053c1.5349,-3.519 3.7997,-6.1207 6.7945,-7.8053c2.9948,-1.6845 6.5324,-2.5268 10.6128,-2.5268l11.5674,0c4.9414,0 9.0965,-0.8797 12.4655,-2.6392c3.407,-1.7594 5.765,-4.6606 7.075,-8.7036l6.57,2.2461c-2.059,7.2624 -5.334,12.4284 -9.826,15.4981c-4.455,3.1067 -9.8832,4.6607 -16.2845,4.6607l-11.5674,0c-4.2302,0 -7.5057,0.954 -9.8267,2.864c-2.2835,1.909 -3.4253,4.866 -3.4253,8.872l-8.2544,0c0,-4.006 -1.1792,-6.963 -3.5376,-8.872c-2.3209,-1.91 -5.5778,-2.864 -9.7705,-2.864l-11.5112,0c-6.3639,0 -11.792,-1.554 -16.2842,-4.6607c-4.4922,-3.0697 -7.76773,-8.2357 -9.82665,-15.4981z"/>
  </g>
 </g>
</svg>