<svg width="1600" height="500" xmlns="http://www.w3.org/2000/svg" p-id="4623" version="1.1" class="icon" t="1642604908042">

 <g>
  <title>Layer 1</title>
  <g stroke="null" id="svg_4">
   <path stroke="null" id="svg_1" p-id="4624" fill="#0065A9" d="m1028.63262,57.23477l-101.31981,-48.77971a30.61032,30.61032 0 0 0 -34.95059,5.93932l-331.67039,302.37797a20.48888,20.48888 0 0 0 -1.40576,28.94099c0.4393,0.47444 0.8786,0.93131 1.35304,1.35304l27.07836,24.60072a20.47131,20.47131 0 0 0 26.16462,1.15975l399.49809,-302.94027a20.34831,20.34831 0 0 1 32.64867,16.20133l0,-1.17732a30.71575,30.71575 0 0 0 -17.39622,-27.67581z"/>
   <path stroke="null" id="svg_2" p-id="4625" fill="#007ACC" d="m1028.63262,442.76316l-101.31981,48.79728a30.66304,30.66304 0 0 1 -34.95059,-5.93932l-331.67039,-302.39554a20.48888,20.48888 0 0 1 -1.40576,-28.94099c0.4393,-0.47444 0.8786,-0.93131 1.35304,-1.35304l27.07836,-24.60072a20.47131,20.47131 0 0 1 26.21734,-1.15975l399.44537,302.94027a20.34831,20.34831 0 0 0 32.64867,-16.20133l0,1.26518a30.73333,30.73333 0 0 1 -17.39622,27.58795z"/>
   <path stroke="null" id="svg_3" p-id="4626" fill="#1F9CF0" d="m927.3128,491.56044a30.66304,30.66304 0 0 1 -34.95059,-5.93932a18.01124,18.01124 0 0 0 30.66304,-12.73966l0,-445.76501a17.99367,17.99367 0 0 0 -30.73333,-12.72209a30.64547,30.64547 0 0 1 34.95059,-5.95689l101.30224,48.70942a30.71575,30.71575 0 0 1 17.48408,27.67581l0,330.3525a30.71575,30.71575 0 0 1 -17.41379,27.69338l-101.30224,48.69185z"/>
  </g>
 </g>
</svg>