<?xml version="1.0" standalone="no"?>
<!DOCTYPE svg PUBLIC "-//W3C//DTD SVG 1.1//EN" "http://www.w3.org/Graphics/SVG/1.1/DTD/svg11.dtd">
<svg t="1637751612349"
    class="icon" viewBox="0 0 1024 1024" version="1.1" xmlns="http://www.w3.org/2000/svg" p-id="4795"
    xmlns:xlink="http://www.w3.org/1999/xlink" width="200" height="200">
    <defs>
        <style type="text/css"></style>
    </defs>
    <path
        d="M687.104 221.696l165.376 93.696v392.704l-145.408 82.432c-80.384 45.568-157.184 88.576-169.984 96.256l-24.064 13.312-171.008-97.792-171.008-97.28v-175.616H261.12l1.536 62.976 1.536 63.488 122.368 70.144c67.072 38.912 124.928 70.144 128 68.608 3.584-0.512 60.416-31.744 126.976-69.632l120.832-68.096V367.104l-120.832-68.096c-66.048-37.376-122.368-68.608-124.928-70.144C512.512 226.816 348.16 317.44 317.44 338.432c-8.704 5.632-5.12 9.216 25.6 25.088l35.328 18.944L450.56 342.016c39.424-22.016 73.728-40.448 76.8-40.448 2.048 0 11.264 12.288 19.968 27.648l15.36 27.136-14.336 53.248c-7.168 29.696-13.824 54.272-13.824 54.784 0 0.512 8.192-1.536 18.432-4.608 85.504-24.576 164.864 83.456 123.904 167.936-25.6 53.248-87.04 89.088-160.256 93.184l-44.544 3.072v-81.408h35.84c66.048-0.512 108.032-32.768 94.208-73.216-7.168-21.504-19.968-29.184-47.616-29.184-24.576 0-39.424 6.656-62.976 29.696l-18.432 16.896-14.848-25.088c-17.408-30.208-17.408-34.816-3.584-90.112 5.632-23.552 10.24-43.008 9.216-44.544-1.024-0.512-23.552 11.264-49.664 26.624-41.984 25.6-49.152 27.648-59.392 21.504-6.144-4.096-59.392-35.328-117.76-69.632C179.2 372.736 132.608 343.552 134.144 342.016c9.216-9.216 375.808-216.064 380.416-215.04 3.584 0.512 80.896 43.008 172.544 94.72z"
        fill="#CC3333" p-id="4797"></path>
</svg>