<svg width="103" height="100" xmlns="http://www.w3.org/2000/svg" xmlns:xlink="http://www.w3.org/1999/xlink" version="1.1">
 <title>Wallpapersafari logo</title>
 <defs>
  <path id="path-2" d="m76.65122,40.0846c-0.9409,-0.18012 -2.10214,-0.58289 -3.0072,-1.07554c-0.00685,-0.00259 -2.64402,-2.00906 -2.64402,-2.00906c0,0 1.29038,0.02737 2.91021,0.35395c1.59822,0.32252 2.87543,1.14582 3.48109,1.5841c1.45537,1.05261 2.6087,2.06195 2.6087,2.06195c0,0 -1.00047,-0.4638 -3.34878,-0.9154zm-9.70435,-9.0846c0,0 0.56484,-2.22161 -0.3491,-4.14673c0,0 -0.16145,1.20088 -1.56879,1.9559c0,0 0.88489,-4.56678 -7.5363,-6.5933c-1.10397,-0.26525 -1.77977,-0.49972 -5.49268,-0.70523c0,0 14.02007,-2.58734 16.76427,3.886c0,0 1.20065,3.65832 -1.8174,5.60336zm-8.94687,45c6.816,-6.82085 6.00978,-13 6.00978,-13c1.13899,1.69756 1.12103,3.75225 1.12103,3.75225l2.86919,-2.52961c-0.47695,7.17139 -10,11.77736 -10,11.77736zm-17.88684,-4.09034c11.1738,0.71681 12.72423,-5.21298 12.72423,-5.21298c-3.50272,1.63763 -7.95512,-1.31148 -10.04552,-4.36032c-3.19429,-4.65811 -9.79187,-3.00675 -9.79187,-3.00675c2.21193,-1.26711 9.43142,-2.11245 15.0982,0.75432c5.66723,2.86677 6.80012,0.61434 10.92154,-1.53563c4.12141,-2.15042 5.98026,-1.43361 5.98026,-1.43361c0,0 -2.4513,0.71681 -5.52453,8.29338c-4.6752,11.52702 -19.36231,6.50159 -19.36231,6.50159zm-10.11316,-1.90966c0.9963,-5.68803 6.794,-7.91059 8.74135,-4.1159c1.9478,3.79516 5.25865,3.13626 5.25865,3.13626c-3.60322,1.66021 -5.73809,-0.56 -5.73809,-0.56c-5.46965,-3.07786 -8.26191,1.53964 -8.26191,1.53964zm-9.4052,-17.72698c0,0 -2.32677,-5.19176 -3.5948,-5.36389c0,0 2.08055,-2.70467 6.12129,1.21654c4.04118,3.9212 4.2377,4.63396 9.3121,2.90809c0,0 -3.30982,-1.1383 -4.54594,-5.03376c0,0 2.40019,3.70364 4.53044,3.39218c6.17418,-0.90407 7.20602,1.90609 8.58211,2.31598c0,0 -3.47899,-0.70822 -6.23482,1.07318c0,0 -10.66449,7.56982 -14.17038,-0.50832zm4.4052,-18.35874c0,0 5.84636,-7.21333 17,-2.0557c0,0 -4.45923,-1.35848 -7.66187,-0.17106c0,0 3.36654,1.06727 4.68405,2.31248c0,0 -7.88959,-3.6832 -14.02218,-0.08572zm29.36735,14.74569c5.42873,-4.87354 7.45825,-3.47358 7.45825,-3.47358c1.58665,1.17877 1.10598,2.9396 1.10598,2.9396c-0.53314,-1.00231 -0.94765,-2.55448 -6.4487,3.75666c-5.50105,6.31114 -12.48288,1.08677 -12.48288,1.08677c5.39518,2.1564 6.77056,-1.0805 10.36735,-4.30945zm-4.60483,-2.10587c-4.60248,2.30481 -9.33062,2.01956 -14.9197,-2.05943c-6.69771,-4.88873 -9.84282,-3.0405 -9.84282,-3.0405c0,0 0.77171,-1.81624 4.61933,-1.52003c3.82166,0.29401 3.82713,1.91264 6.9299,2.15363c9.9621,0.77382 15.07905,-8.4305 21.45077,-1.46701c0,0 -3.56716,-1.27509 -7.72893,1.46701c-5.3109,3.49928 -9.58558,2.70092 -9.58558,2.70092c1.3135,2.15758 9.07703,1.76541 9.07703,1.76541zm-0.29799,-19.44002c9.95823,-2.49159 13.53547,5.30842 13.53547,5.30842c-7.59088,8.55795 -17.93493,2.49159 -17.93493,2.49159c9.48458,2.27477 12.14532,-2.05842 12.14532,-2.05842c-0.72014,-1.77237 -7.73666,-1.77237 -7.73666,-1.77237c-8.47427,1.30097 -10.47373,-6.0833 -10.47373,-6.0833c1.14091,1.13545 0.50676,4.60567 10.46453,2.11408zm42.44801,21.95314c1.74148,-0.22496 2.08746,-1.74092 2.08746,-1.74092c0,0 -4.21666,-0.04132 -12.56234,-8.91352c-5.17436,-5.50237 -9.21525,-7.30757 -11.30086,-7.82912c1.58844,-0.64137 2.01883,-3.69533 1.36676,-5.78104c-0.66135,-2.11464 -1.07829,-4.58967 -7.38473,-6.26862c-8.1226,-2.16146 -15.68912,3.14533 -18.67167,0.02525c-0.04592,-0.0482 -0.11827,-0.06198 -0.17902,-0.03443c-0.06076,0.028 -0.09693,0.09136 -0.08951,0.15747c0.11873,1.06788 1.01521,3.69074 6.86808,4.35966c-3.88692,1.67941 -9.87707,-0.32459 -11.61391,-0.9632c-6.08198,-2.2363 -9.974,0.3581 -13.74358,3.33769c-0.16279,0.12809 -0.20731,0.35397 -0.10621,0.53348c0.10157,0.17905 0.31908,0.25985 0.51433,0.19053c2.53594,-0.90214 6.17381,-1.65691 8.90082,-0.01056c1.2406,0.7488 -3.04516,-0.79884 -8.81548,4.18566c-4.70363,4.06445 -7.08513,5.78655 -9.78802,6.16991c-0.1934,0.02754 -0.3432,0.18226 -0.36221,0.37508c-0.01902,0.19237 0.09693,0.37372 0.28151,0.43753c1.91633,0.66662 5.0408,1.43929 7.94868,0.76028c0,0 0.47769,2.79549 -6.36117,4.11771c-4.07614,0.78828 -4.37666,9.03748 -10.30235,6.39257c-0.15722,-0.07024 -0.3418,-0.03902 -0.46702,0.07897c-0.12522,0.11753 -0.16603,0.29888 -0.1025,0.45773c1.082,2.73397 2.67275,4.2031 4.93413,4.44229c9.8228,1.03896 5.5695,7.46183 13.69071,5.95276c0,0 -4.06594,3.54612 -7.77708,2.81798c-0.18598,-0.03673 -0.37381,0.05326 -0.46054,0.22037c-0.08626,0.16666 -0.05101,0.3705 0.08719,0.49859c2.00955,1.86213 6.16407,4.66083 11.20765,2.19819c0,0 -0.33068,4.78571 -5.10155,4.84631c-0.17021,0.0023 -0.32187,0.10422 -0.38679,0.2594c-0.0654,0.15518 -0.03061,0.33331 0.08765,0.45359c4.01492,4.092 11.59582,6.50276 17.2066,4.6163c0,0 -0.70355,2.81248 -3.69816,3.66687c-0.18644,0.05372 -0.31305,0.22542 -0.30656,0.41779c0.00603,0.19236 0.14331,0.3558 0.33346,0.39712c2.78962,0.60786 8.19031,1.18587 12.59526,-1.11792c1.97106,-0.93382 4.46711,-2.97408 5.23976,-3.62417c-0.38215,0.37417 -1.12837,1.31947 -1.60745,3.32438c-0.45033,1.88921 -0.73973,3.744 -1.63714,4.83988c-0.10527,0.12855 -0.12475,0.30622 -0.04962,0.45405c0.07513,0.14738 0.23096,0.23782 0.39792,0.23089c1.40988,-0.06056 3.99127,-0.45034 6.91677,-2.22891c1.63204,-0.99213 4.24728,-3.46578 4.91048,-4.18382c2.8026,-3.2725 3.02336,-6.90035 3.02336,-6.90035c0,0 1.1511,-3.27984 5.20219,-2.44473c1.41499,0.29199 2.51646,0.9329 3.19775,1.73633c0.94657,1.11609 2.46868,1.57519 3.88274,1.1721c1.41452,-0.40264 2.45709,-1.59218 2.6593,-3.0356c0.01067,-0.07575 0.01438,-0.11661 0.01438,-0.11661l0.58065,-3.34826c-1.70671,1.42093 -5.54817,0.21119 -6.71875,-3.30234c-0.54493,-1.63349 -0.13403,-4.7072 3.28076,-5.32928c3.44541,-0.62714 8.43843,2.14677 5.42481,7.11887c-0.06818,0.1134 5.35709,-6.0409 7.05962,-9.41532c0.31676,-0.62759 0.56441,-1.42092 0.75873,-2.22757l-2.76086,-2.59991c0.05101,0.04637 0.66042,0.30668 1.69557,0.17262l0,0z"/>
  <linearGradient id="linearGradient-1" y2="100%" x2="100%" y1="0%" x1="0%">
   <stop offset="0%" stop-color="#F5AF19"/>
   <stop offset="100%" stop-color="#F12711"/>
  </linearGradient>
  <filter id="filter-3" filterUnits="objectBoundingBox" height="119.7%" width="115.1%" y="-8.3%" x="-7.6%">
   <feGaussianBlur result="shadowBlurOuter1" in="shadowOffsetOuter1" stdDeviation="2"/>
  </filter>
 </defs>
 <g>
  <title>Layer 1</title>
  <rect rx="23" height="103" width="103" fill="url(#linearGradient-1)" id="Rectangle"/>
  <g id="Fill-21">
   <use id="svg_3" xlink:href="#path-2" filter="url(#filter-3)" fill="black"/>
   <use id="svg_4" xlink:href="#path-2" fill-rule="evenodd" fill="#FFFFFF"/>
  </g>
 </g>
</svg>