<svg width="39" height="39" xmlns="http://www.w3.org/2000/svg">

 <g>
  <title>Layer 1</title>
  <polygon id="svg_14" fill="#f16850" points="36.971 24.875 29.102 26.548 29.903 34.373 22.531 31.211 18.469 38 14.406 31.209 7.033 34.37 7.835 26.547 -0.033 24.87 5.326 19 -0.031 13.128 7.836 11.455 7.037 3.63 14.409 6.792 18.469 0.001 22.532 6.792 29.905 3.632 29.104 11.456 36.971 13.132 31.614 19.003 36.971 24.875"/>
  <polygon id="svg_15" fill="#fd694f" points="18.469 11.861 14.409 6.79 7.037 3.627 11.425 9.414 18.469 11.861"/>
  <polygon id="svg_16" fill="#ff3413" points="7.836 11.452 -0.032 13.126 5.325 18.998 11.631 16.713 7.836 11.452"/>
  <polygon id="svg_17" fill="#dc1d23" points="11.425 9.414 7.037 3.627 7.836 11.452 11.631 16.713 11.425 9.414"/>
  <polygon id="svg_18" fill="#ff9281" points="22.532 6.79 18.469 0 14.409 6.79 18.469 11.861 22.532 6.79"/>
  <polygon id="svg_19" fill="#ff8b79" points="31.613 19.001 36.971 13.13 29.104 11.455 25.307 16.713 31.613 19.001"/>
  <polygon id="svg_20" fill="#fd694f" points="25.307 16.713 29.104 11.455 29.905 3.629 25.513 9.414 25.307 16.713"/>
  <polygon id="svg_21" fill="#ef5240" points="25.513 9.414 29.905 3.629 22.532 6.79 18.469 11.861 25.513 9.414"/>
  <polygon id="svg_22" fill="#ff482c" points="29.866 22.499 36.97 24.872 31.613 19.001 25.307 16.713 29.866 22.499"/>
  <polygon id="svg_23" fill="#ec2101" points="11.631 16.713 5.325 18.998 -0.033 24.868 7.072 22.499 11.631 16.713"/>
  <polygon id="svg_24" fill="#d21c22" points="18.469 30.586 18.469 37.998 22.53 31.209 22.695 24.564 18.469 30.586"/>
  <polygon id="svg_25" fill="#c90901" points="29.866 22.499 22.695 24.564 29.102 26.546 36.97 24.872 29.866 22.499"/>
  <polygon id="svg_26" fill="#ec2101" points="22.53 31.209 29.902 34.371 29.102 26.546 22.695 24.564 22.53 31.209"/>
  <polygon id="svg_27" fill="#b6171e" points="7.072 22.499 -0.033 24.868 7.835 26.544 14.243 24.564 7.072 22.499"/>
  <polygon id="svg_28" fill="#b4151b" points="14.243 24.564 14.406 31.208 18.469 37.998 18.469 30.586 14.243 24.564"/>
  <polygon id="svg_29" fill="#d21c22" points="7.835 26.544 7.033 34.368 14.406 31.208 14.243 24.564 7.835 26.544"/>
  <polygon id="svg_30" fill="#e63320" points="25.307 16.713 25.513 9.414 18.469 11.861 18.469 18.963 25.307 16.713"/>
  <polygon id="svg_31" fill="#ff4527" points="18.469 11.861 11.425 9.414 11.631 16.713 18.469 18.963 18.469 11.861"/>
  <polygon id="svg_32" fill="#ff9281" points="14.243 24.564 18.469 30.586 22.695 24.564 18.469 18.963 14.243 24.564"/>
  <polygon id="svg_33" fill="#fd684d" points="18.469 18.963 22.695 24.564 29.866 22.499 25.307 16.713 18.469 18.963"/>
  <polygon id="svg_34" fill="#fd745c" points="11.631 16.713 7.072 22.499 14.243 24.564 18.469 18.963 11.631 16.713"/>
 </g>
</svg>