<?xml version="1.0" encoding="UTF-8" standalone="no"?>
<svg
   class="icon"
   width="220"
   height="150"
   viewBox="0 0 2891.9 1971.7587"
   version="1.1"
   id="svg271"
   sodipodi:docname="XGBoost-cover.svg"
   inkscape:version="1.2.2 (b0a8486, 2022-12-01)"
   xmlns:inkscape="http://www.inkscape.org/namespaces/inkscape"
   xmlns:sodipodi="http://sodipodi.sourceforge.net/DTD/sodipodi-0.dtd"
   xmlns="http://www.w3.org/2000/svg"
   xmlns:svg="http://www.w3.org/2000/svg">
  <defs
     id="defs275" />
  <sodipodi:namedview
     id="namedview273"
     pagecolor="#ffffff"
     bordercolor="#000000"
     borderopacity="0.25"
     inkscape:showpageshadow="2"
     inkscape:pageopacity="0.0"
     inkscape:pagecheckerboard="0"
     inkscape:deskcolor="#d1d1d1"
     showgrid="false"
     inkscape:zoom="3.0567621"
     inkscape:cx="170.11464"
     inkscape:cy="75.406588"
     inkscape:window-width="1280"
     inkscape:window-height="677"
     inkscape:window-x="0"
     inkscape:window-y="25"
     inkscape:window-maximized="0"
     inkscape:current-layer="svg271" />
  <path
     d="M 141.91059,1428.6413 H 258.5917 l 123.2547,-181.4309 38.94848,181.4309 H 537.47599 L 466.15261,1162.9042 654.1571,909.98557 H 537.47599 L 420.79488,1097.9901 381.8464,903.41198 H 271.57453 l 71.32338,259.49222 z"
     fill="#f89939"
     id="path263" />
  <path
     d="m 819.48273,1224.8602 19.55641,-84.3062 h 155.6296 l -51.93132,220.5437 c 0,0 -6.40924,64.7498 -45.35772,64.7498 H 748.15935 c 0,0 -110.27187,12.9828 -136.07319,-116.6811 0,0 -19.55641,-142.6467 38.78415,-246.5094 58.34055,-103.86257 103.86262,-123.25465 103.86262,-123.25465 0,0 77.73263,-71.32338 285.29357,-12.98282 l -12.9829,77.89697 -84.30618,-6.57359 c 0,0 -103.69828,-19.39207 -149.22035,32.86789 -45.52206,52.26 -77.73262,129.8283 -77.73262,265.9015 a 57.190178,57.190178 0 0 0 45.35772,51.9313 h 77.89697 l 32.86792,-123.2547 z m 616.10917,-123.7477 a 239.77146,239.77146 0 0 0 12.9828,-103.69827 c 0,0 -12.9828,-84.79923 -116.8455,-90.71545 h -207.3965 l -116.6811,518.65572 h 188.0045 c 0,0 116.6811,12.9828 180.7735,-71.3234 64.0925,-84.3062 25.8013,-175.0216 -12.9828,-188.0045 a 137.55224,137.55224 0 0 0 72.1451,-64.9141 z m -194.5781,236.8134 h -110.2719 l 32.8679,-126.5415 h 97.1247 c 0,0 35.6617,3.2868 38.9485,51.9313 3.2868,48.6445 -58.6692,74.6102 -58.6692,74.6102 z m 81.0194,-239.9358 a 65.735837,65.735837 0 0 1 -49.3019,25.9656 h -90.0581 l 32.868,-123.2547 h 84.3062 c 54.7251,19.3921 41.7422,71.3234 22.1858,97.2891 z m 775.5185,-44.7004 c -79.2116,-45.6864 -191.1269,0 -250.1248,102.3836 -58.9979,102.3835 -42.7283,222.0227 36.319,267.7091 79.0474,45.6864 191.127,0 250.1249,-102.3835 58.9979,-102.3836 43.057,-222.0228 -36.3191,-267.7092 z m -49.3018,208.7113 c -21.6929,59.6552 -65.7359,98.6037 -99.5898,86.1139 -33.854,-12.4898 -42.564,-70.3373 -20.8711,-129.8283 21.6928,-59.4909 65.7358,-98.6037 98.6037,-86.1139 32.8679,12.4898 44.043,70.3373 21.8572,129.8283 z m 437.8006,-121.94 19.3921,-77.7326 a 340.01862,340.01862 0 0 0 -180.7735,-19.5564 162.6962,162.6962 0 0 0 -116.6811,103.8626 c 0,0 -32.868,97.1247 77.8969,129.6639 110.7649,32.5392 71.3234,51.767 51.767,64.7498 -19.5564,12.9828 -103.6983,0 -103.6983,0 l -58.3405,-6.4092 -19.3921,77.7326 51.767,12.9828 a 394.41502,394.41502 0 0 0 162.2031,0 112.40828,112.40828 0 0 0 90.7155,-103.6983 v -65.7358 c 0,0 -14.7906,-37.4694 -110.2719,-64.7498 -45.3577,-12.9828 -42.2353,-43.3856 -19.3921,-58.3405 a 47.822821,47.822821 0 0 1 32.868,-6.5736 c 18.2417,0.8217 121.9399,13.8045 121.9399,13.8045 z m 64.7498,-94.0023 -19.392,87.593 h 38.9485 l -25.9657,129.664 c 0,0 -19.3921,97.289 -19.3921,110.2718 a 74.117156,74.117156 0 0 0 58.3406,58.3406 222.18713,222.18713 0 0 0 71.3234,0 l 45.3577,-12.9828 v -71.3234 h -45.3577 c 0,0 -19.5564,0 -19.5564,-12.9828 0,-12.9829 38.9484,-200.9874 38.9484,-200.9874 h 84.3063 l 12.9828,-87.593 h -77.7326 l 25.8013,-100.57578 h -110.1076 l -18.7347,100.57578 z"
     fill="#179fdd"
     id="path265" />
  <path
     d="m 417.50809,417.13113 -25.96566,119.9679 c -175.02167,-51.76697 -200.32997,123.09036 -200.32997,161.8745 0,38.78414 0,77.89697 12.98283,90.71546 a 88.74338,88.74338 0 0 0 84.30622,12.98282 119.47488,119.47488 0 0 0 50.61659,-51.60263 l -6.40924,51.76697 h 39.27716 L 456.29223,417.13113 Z M 346.1847,705.71145 a 147.90563,147.90563 0 0 1 -32.86792,45.35773 70.337346,70.337346 0 0 1 -64.91413,19.39207 c -38.94849,-19.39207 -25.96566,-116.68111 12.98282,-175.02166 38.94849,-58.34056 116.68111,-25.96566 116.68111,-25.96566 4.60151,37.30509 -12.32547,96.63168 -31.88188,136.23752 z m 91.53716,90.71546 64.09244,-265.90146 h 32.86792 l -6.40925,38.94848 a 542.32065,542.32065 0 0 1 57.35452,-38.94848 c 25.96566,-12.98283 84.30621,0 84.30621,45.35773 0,0 32.86792,-38.78415 64.7498,-45.35773 31.88188,-6.57358 77.89697,-6.40924 90.87979,51.93131 L 786.61481,796.09823 H 741.7501 l 38.94849,-175.02167 c 0,0 6.40924,-38.94848 -6.57359,-51.93131 -12.98283,-12.98282 -71.32338,-19.39207 -97.28904,45.35773 l -45.35772,181.92393 h -38.94849 l 38.94849,-162.20318 c 0,0 12.98282,-58.34055 -12.98283,-71.32338 -25.96566,-12.98283 -90.71546,19.55641 -110.27187,77.89696 l -32.86792,155.6296 z M 936.32818,417.13113 852.02197,796.42691 h 42.07093 l 81.01942,-379.29578 z m 220.37942,145.76922 c 0,0 -84.3062,-25.80132 -116.6811,25.96565 a 189.81223,189.81223 0 0 0 -32.868,90.8798 c 0,0 -32.04618,142.64676 104.3557,84.96357 v 38.78414 a 249.4675,249.4675 0 0 1 -103.6983,0 c -45.52206,-12.98283 -38.94848,-90.71545 -38.94848,-90.71545 0,0 6.40924,-149.22035 84.30618,-175.02167 a 193.92072,193.92072 0 0 1 110.2719,0 z"
     fill="#6a6969"
     id="path267" />
  <path
     d="m 1728.2807,1053.2897 c -79.2117,-45.6864 -191.127,0 -250.1249,102.3836 -58.9979,102.3835 -42.7283,222.0227 36.3191,267.7091 79.0473,45.6864 191.1269,0 250.1248,-102.3835 58.9979,-102.3836 42.7283,-222.0228 -36.319,-267.7092 z m -49.3019,208.7113 c -21.6928,59.6552 -65.7358,98.6037 -99.5898,86.1139 -33.8539,-12.4898 -42.5639,-70.3373 -20.8711,-129.8283 21.6928,-59.4909 65.7358,-98.6037 99.4254,-86.1139 33.6897,12.4898 42.8927,70.3373 21.1998,129.8283 z"
     fill="#179fdd"
     id="path269" />
</svg>
