<?xml version="1.0" standalone="no"?><!DOCTYPE svg PUBLIC "-//W3C//DTD SVG 1.1//EN" "http://www.w3.org/Graphics/SVG/1.1/DTD/svg11.dtd"><svg class="icon" width="200px" height="77.90px" viewBox="0 0 2629 1024" version="1.1" xmlns="http://www.w3.org/2000/svg"><path d="M0 1011.510191h116.681111l123.254694-181.43091 38.948483 181.43091h116.681111l-71.323383-265.737121 188.004493-252.918633h-116.68111l-116.681111 188.004494-38.948483-194.578077H129.663938l71.323383 259.492216L0 1011.510191z" fill="#F89939" /><path d="M677.572139 807.729096l19.556412-84.30621h155.629594l-51.931311 220.543733s-6.409244 64.749799-45.357728 64.749799h-149.22035s-110.271866 12.982828-136.073182-116.681111c0 0-19.556411-142.646766 38.784144-246.509388s103.862622-123.254694 103.862622-123.254694 77.732627-71.323383 285.293532-12.982828l-12.982828 77.896967-84.30621-6.573584s-103.698283-19.392072-149.22035 32.867918-77.732627 129.828278-77.732627 265.901461a57.190178 57.190178 0 0 0 45.357727 51.931311h77.896967l32.867918-123.254694zM1293.681271 683.981383a239.771465 239.771465 0 0 0 12.982828-103.698282s-12.982828-84.79923-116.84545-90.715455H982.422083l-116.68111 518.655753h188.004493s116.681111 12.982828 180.773552-71.323383 25.801316-175.021666-12.982828-188.004494a137.552239 137.552239 0 0 0 72.145081-64.914139zM1099.103194 920.794736h-110.271867l32.867919-126.541486h97.124699s35.661692 3.286792 38.948483 51.931311-58.669234 74.610175-58.669234 74.610175z m81.019419-239.935805a65.735837 65.735837 0 0 1-49.301878 25.965656h-90.058097l32.867919-123.254695h84.306211c54.725084 19.392072 41.742256 71.323383 22.185845 97.289039zM1955.641149 636.158562c-79.211684-45.686407-191.126946 0-250.124859 102.383566s-42.728294 222.022789 36.319049 267.709196 191.126946 0 250.12486-102.383566 43.056973-222.022789-36.31905-267.709196z m-49.301878 208.711282c-21.692826 59.655272-65.735837 98.603755-99.589793 86.113947s-42.563954-70.337346-20.871128-129.828278 65.735837-98.603755 98.603756-86.113947 44.043011 70.337346 21.857165 129.828278zM2344.139945 722.929867l19.392072-77.732627a340.018617 340.018617 0 0 0-180.773551-19.556412 162.696196 162.696196 0 0 0-116.681111 103.862622s-32.867918 97.124699 77.896967 129.663939 71.323383 51.766972 51.766972 64.749799-103.698283 0-103.698283 0l-58.340556-6.409244-19.392071 77.732627 51.766971 12.982828a394.415022 394.415022 0 0 0 162.203178 0 112.408281 112.408281 0 0 0 90.715455-103.698283v-65.735837s-14.790563-37.469427-110.271867-64.749799c-45.357727-12.982828-42.235275-43.385652-19.392072-58.340555a47.822821 47.822821 0 0 1 32.867919-6.573584c18.241695 0.821698 121.939978 13.804526 121.939977 13.804526zM2408.889745 628.92762l-19.392072 87.593003h38.948483l-25.965655 129.663938s-19.392072 97.289039-19.392072 110.271867a74.117156 74.117156 0 0 0 58.340555 58.340555 222.187129 222.187129 0 0 0 71.323383 0l45.357728-12.982828v-71.323383h-45.357728s-19.556411 0-19.556411-12.982828 38.948483-200.987321 38.948483-200.987321h84.306211l12.982828-87.593003h-77.732627l25.801316-100.575831h-110.107527L2448.659926 628.92762z" fill="#179FDD" /><path d="M275.597496 0l-25.965655 119.967902C74.610175 68.200931 49.301878 243.058257 49.301878 281.842401s0 77.896967 12.982828 90.715455a88.74338 88.74338 0 0 0 84.30621 12.982828A119.474884 119.474884 0 0 0 197.207511 333.938052l-6.409244 51.766971H230.075429L314.38164 0z m-71.323383 288.580324a147.905633 147.905633 0 0 1-32.867918 45.357728 70.337346 70.337346 0 0 1-64.914139 19.392072c-38.948483-19.392072-25.965656-116.681111 12.982828-175.021666s116.681111-25.965656 116.68111-25.965656c4.601509 37.305087-12.325469 96.63168-31.881881 136.237522zM295.811266 379.295779L359.903707 113.394319h32.867919l-6.409244 38.948483A542.320655 542.320655 0 0 1 443.716899 113.394319c25.965656-12.982828 84.306211 0 84.306211 45.357727 0 0 32.867918-38.784144 64.7498-45.357727s77.896967-6.409244 90.879794 51.931311l-38.948483 213.64147H599.839512l38.948484-175.021666s6.409244-38.948483-6.573584-51.931311-71.323383-19.392072-97.289039 45.357727l-45.357727 181.923929h-38.948484l38.948484-162.203177s12.982828-58.340555-12.982828-71.323384-90.715455 19.556411-110.271867 77.896967l-32.867918 155.629594zM794.417589 0l-84.30621 379.295779h42.070935L833.201733 0h-38.784144zM1014.796983 145.769218s-84.306211-25.801316-116.681111 25.965656a189.812229 189.812229 0 0 0-32.867918 90.879795S833.201733 405.261435 969.603595 347.578238v38.784144a249.467501 249.467501 0 0 1-103.698283 0c-45.522067-12.982828-38.948483-90.715455-38.948483-90.715455s6.409244-149.22035 84.306211-175.021666a193.920719 193.920719 0 0 1 110.271866 0z" fill="#6A6969" /><path d="M1586.370085 636.158562c-79.211684-45.686407-191.126946 0-250.12486 102.383566s-42.728294 222.022789 36.31905 267.709196 191.126946 0 250.12486-102.383566 42.728294-222.022789-36.31905-267.709196z m-49.301878 208.711282c-21.692826 59.655272-65.735837 98.603755-99.589793 86.113947s-42.563954-70.337346-20.871128-129.828278 65.735837-98.603755 99.425454-86.113947 42.892634 70.337346 21.199807 129.828278z" fill="#179FDD" /></svg>